# Blender v2.69 (sub 0) OBJ File: ''
# www.blender.org
mtllib _.mtl
o Curve_Mesh
v 0.000000 0.000000 -0.000018
v 6.118632 0.000000 -0.000018
v 6.118632 0.000000 0.958932
v 0.000000 0.000000 0.958932
v 0.000000 0.010000 -0.000018
v 6.118632 0.010000 -0.000018
v 6.118632 0.010000 0.958932
v 0.000000 0.010000 0.958932
v 0.000000 -1.000000 -0.000018
v 6.118632 -1.000000 -0.000018
v 6.118632 -1.000000 0.958932
v 0.000000 -1.000000 0.958932
v 0.000000 1.010000 -0.000018
v 6.118632 1.010000 -0.000018
v 6.118632 1.010000 0.958932
v 0.000000 1.010000 0.958932
vn 0.000000 1.000000 0.000000
vn 0.000000 -1.000000 0.000000
vn -1.000000 0.000000 0.000000
vn 0.000000 0.000000 1.000000
vn 0.000000 0.000000 -1.000000
vn 1.000000 0.000000 0.000000
usemtl SVGMat.001
s off
f 3//1 2//1 1//1
f 3//1 1//1 4//1
f 7//2 5//2 6//2
f 7//2 8//2 5//2
f 2//3 3//3 7//3 6//3
f 1//4 2//4 6//4 5//4
f 3//5 4//5 8//5 7//5
f 4//6 1//6 5//6 8//6
f 9//2 10//2 11//2
f 12//2 9//2 11//2
f 14//1 13//1 15//1
f 13//1 16//1 15//1
f 14//6 15//6 11//6 10//6
f 13//5 14//5 10//5 9//5
f 15//4 16//4 12//4 11//4
f 16//3 13//3 9//3 12//3
