# Blender v2.69 (sub 0) OBJ File: ''
# www.blender.org
mtllib e.mtl
o Curve_Mesh
v 0.620408 0.000000 0.000000
v 6.155816 0.000000 0.000000
v 6.155816 0.000000 0.619994
v 3.708370 0.000000 0.619994
v 3.708370 0.000000 4.067211
v 6.772096 0.000000 4.067211
v 6.772096 0.000000 4.695458
v 0.000282 0.000000 4.695458
v 0.000282 0.000000 4.067211
v 3.005552 0.000000 4.067211
v 3.005552 0.000000 0.619994
v 0.620408 0.000000 0.619994
v 0.620408 0.010000 0.000000
v 6.155816 0.010000 0.000000
v 6.155816 0.010000 0.619994
v 3.708370 0.010000 0.619994
v 3.708370 0.010000 4.067211
v 6.772096 0.010000 4.067211
v 6.772096 0.010000 4.695458
v 0.000282 0.010000 4.695458
v 0.000282 0.010000 4.067211
v 3.005552 0.010000 4.067211
v 3.005552 0.010000 0.619994
v 0.620408 0.010000 0.619994
v 0.620408 -1.000000 0.000000
v 6.155816 -1.000000 0.000000
v 6.155816 -1.000000 0.619994
v 3.708370 -1.000000 0.619994
v 3.708370 -1.000000 4.067211
v 6.772096 -1.000000 4.067211
v 6.772096 -1.000000 4.695458
v 0.000282 -1.000000 4.695458
v 0.000282 -1.000000 4.067211
v 3.005552 -1.000000 4.067211
v 3.005552 -1.000000 0.619994
v 0.620408 -1.000000 0.619994
v 0.620408 1.010000 0.000000
v 6.155816 1.010000 0.000000
v 6.155816 1.010000 0.619994
v 3.708370 1.010000 0.619994
v 3.708370 1.010000 4.067211
v 6.772096 1.010000 4.067211
v 6.772096 1.010000 4.695458
v 0.000282 1.010000 4.695458
v 0.000282 1.010000 4.067211
v 3.005552 1.010000 4.067211
v 3.005552 1.010000 0.619994
v 0.620408 1.010000 0.619994
vn 0.000000 1.000000 0.000000
vn 0.000000 0.000000 1.000000
vn 0.000000 -1.000000 0.000000
vn 0.000000 0.000000 -1.000000
vn -1.000000 0.000000 0.000000
vn 1.000000 0.000000 0.000000
usemtl SVGMat.001
s off
f 3//1 2//1 1//1
f 3//1 1//1 12//1
f 4//2 3//2 12//2
f 5//1 4//1 11//1
f 11//2 4//2 12//2
f 5//1 11//1 10//1
f 7//1 6//1 5//1
f 7//1 5//1 10//1
f 7//1 10//1 9//1
f 7//1 9//1 8//1
f 15//3 13//3 14//3
f 15//3 24//3 13//3
f 16//4 24//4 15//4
f 17//3 23//3 16//3
f 23//2 24//2 16//2
f 17//3 22//3 23//3
f 19//3 17//3 18//3
f 19//3 22//3 17//3
f 19//3 21//3 22//3
f 19//3 20//3 21//3
f 1//2 2//2 14//2 13//2
f 4//5 5//5 17//5 16//5
f 3//4 4//4 16//4 15//4
f 5//2 6//2 18//2 17//2
f 7//4 8//4 20//4 19//4
f 10//6 11//6 23//6 22//6
f 8//6 9//6 21//6 20//6
f 2//5 3//5 15//5 14//5
f 9//2 10//2 22//2 21//2
f 11//4 12//4 24//4 23//4
f 12//6 1//6 13//6 24//6
f 6//5 7//5 19//5 18//5
f 25//3 26//3 27//3
f 36//3 25//3 27//3
f 36//2 27//2 28//2
f 35//3 28//3 29//3
f 36//4 28//4 35//4
f 34//3 35//3 29//3
f 29//3 30//3 31//3
f 34//3 29//3 31//3
f 33//3 34//3 31//3
f 32//3 33//3 31//3
f 38//1 37//1 39//1
f 37//1 48//1 39//1
f 39//2 48//2 40//2
f 40//1 47//1 41//1
f 40//4 48//4 47//4
f 47//1 46//1 41//1
f 42//1 41//1 43//1
f 41//1 46//1 43//1
f 46//1 45//1 43//1
f 45//1 44//1 43//1
f 37//4 38//4 26//4 25//4
f 40//6 41//6 29//6 28//6
f 39//2 40//2 28//2 27//2
f 41//4 42//4 30//4 29//4
f 43//2 44//2 32//2 31//2
f 46//5 47//5 35//5 34//5
f 44//5 45//5 33//5 32//5
f 38//6 39//6 27//6 26//6
f 45//4 46//4 34//4 33//4
f 47//2 48//2 36//2 35//2
f 48//5 37//5 25//5 36//5
f 42//6 43//6 31//6 30//6
