# Blender v2.69 (sub 0) OBJ File: ''
# www.blender.org
mtllib ko.mtl
o Curve_Mesh
v 0.095358 0.000000 -0.000269
v 5.428479 0.000000 -0.000269
v 5.428479 0.000000 5.364775
v 4.750462 0.000000 5.364775
v 4.750462 0.000000 4.782274
v 0.000000 0.000000 4.782274
v 0.000000 0.000000 4.129195
v 4.750462 0.000000 4.129195
v 4.750462 0.000000 0.644521
v 0.095358 0.000000 0.644521
v 0.095358 0.010000 -0.000269
v 5.428479 0.010000 -0.000269
v 5.428479 0.010000 5.364775
v 4.750462 0.010000 5.364775
v 4.750462 0.010000 4.782274
v 0.000000 0.010000 4.782274
v 0.000000 0.010000 4.129195
v 4.750462 0.010000 4.129195
v 4.750462 0.010000 0.644521
v 0.095358 0.010000 0.644521
v 0.095358 -0.999970 -0.000269
v 5.428479 -0.999970 -0.000269
v 5.428479 -1.000000 5.364775
v 4.750462 -1.000000 5.364775
v 4.750462 -1.000000 4.782274
v 0.000000 -1.000000 4.782274
v 0.000000 -1.000000 4.129195
v 4.750462 -1.000000 4.129195
v 4.750462 -1.000000 0.644521
v 0.095358 -1.000000 0.644521
v 0.095358 1.009969 -0.000269
v 5.428479 1.009969 -0.000269
v 5.428479 1.010000 5.364775
v 4.750462 1.010000 5.364775
v 4.750462 1.010000 4.782274
v 0.000000 1.010000 4.782274
v 0.000000 1.010000 4.129195
v 4.750462 1.010000 4.129195
v 4.750462 1.010000 0.644521
v 0.095358 1.010000 0.644521
vn 0.000000 1.000000 0.000000
vn 0.000000 -1.000000 0.000000
vn 0.000000 0.000000 1.000000
vn 1.000000 0.000000 0.000000
vn 0.000000 0.000000 -1.000000
vn -1.000000 0.000000 0.000000
vn 0.000040 -1.000000 -0.000006
vn 0.000000 -1.000000 -0.000047
vn 0.000040 1.000000 -0.000006
vn 0.000000 1.000000 -0.000047
usemtl SVGMat.001
s off
f 3//1 2//1 9//1
f 9//1 2//1 1//1
f 9//1 1//1 10//1
f 3//1 9//1 8//1
f 3//1 8//1 5//1
f 5//1 8//1 7//1
f 5//1 7//1 6//1
f 3//1 5//1 4//1
f 13//2 19//2 12//2
f 19//2 11//2 12//2
f 19//2 20//2 11//2
f 13//2 18//2 19//2
f 13//2 15//2 18//2
f 15//2 17//2 18//2
f 15//2 16//2 17//2
f 13//2 14//2 15//2
f 1//3 2//3 12//3 11//3
f 4//4 5//4 15//4 14//4
f 3//5 4//5 14//5 13//5
f 7//3 8//3 18//3 17//3
f 5//5 6//5 16//5 15//5
f 8//4 9//4 19//4 18//4
f 10//4 1//4 11//4 20//4
f 2//6 3//6 13//6 12//6
f 9//5 10//5 20//5 19//5
f 6//4 7//4 17//4 16//4
f 29//7 22//7 23//7
f 21//8 22//8 29//8
f 30//8 21//8 29//8
f 28//2 29//2 23//2
f 25//2 28//2 23//2
f 27//2 28//2 25//2
f 26//2 27//2 25//2
f 24//2 25//2 23//2
f 32//9 39//9 33//9
f 32//10 31//10 39//10
f 31//10 40//10 39//10
f 39//1 38//1 33//1
f 38//1 35//1 33//1
f 38//1 37//1 35//1
f 37//1 36//1 35//1
f 35//1 34//1 33//1
f 31//5 32//5 22//5 21//5
f 34//6 35//6 25//6 24//6
f 33//3 34//3 24//3 23//3
f 37//5 38//5 28//5 27//5
f 35//3 36//3 26//3 25//3
f 38//6 39//6 29//6 28//6
f 40//6 31//6 21//6 30//6
f 32//4 33//4 23//4 22//4
f 39//3 40//3 30//3 29//3
f 36//6 37//6 27//6 26//6
