# Blender v2.69 (sub 0) OBJ File: ''
# www.blender.org
mtllib ni.mtl
o Curve_Mesh
v 0.905387 0.000000 -0.000282
v 5.816825 0.000000 -0.000282
v 5.816825 0.000000 0.661050
v 0.905387 0.000000 0.661050
v 0.000282 0.000000 3.628791
v 6.722494 0.000000 3.628791
v 6.722494 0.000000 4.298377
v 0.000282 0.000000 4.298377
v 0.905387 0.010000 -0.000282
v 5.816825 0.010000 -0.000282
v 5.816825 0.010000 0.661050
v 0.905387 0.010000 0.661050
v 0.000282 0.010000 3.628791
v 6.722494 0.010000 3.628791
v 6.722494 0.010000 4.298377
v 0.000282 0.010000 4.298377
v 0.905387 -1.000000 -0.000282
v 5.816825 -1.000000 -0.000282
v 5.816825 -1.000000 0.661050
v 0.905387 -1.000000 0.661050
v 0.000282 -1.000000 3.628791
v 6.722494 -1.000000 3.628791
v 6.722494 -1.000000 4.298377
v 0.000282 -1.000000 4.298377
v 0.905387 1.010000 -0.000282
v 5.816825 1.010000 -0.000282
v 5.816825 1.010000 0.661050
v 0.905387 1.010000 0.661050
v 0.000282 1.010000 3.628791
v 6.722494 1.010000 3.628791
v 6.722494 1.010000 4.298377
v 0.000282 1.010000 4.298377
vn 0.000000 1.000000 0.000000
vn 0.000000 -1.000000 0.000000
vn 1.000000 0.000000 0.000000
vn 0.000000 0.000000 -1.000000
vn 0.000000 0.000000 1.000000
vn -1.000000 0.000000 0.000000
usemtl SVGMat.001
s off
f 7//1 6//1 5//1
f 7//1 5//1 8//1
f 3//1 2//1 1//1
f 3//1 1//1 4//1
f 15//2 13//2 14//2
f 15//2 16//2 13//2
f 11//2 9//2 10//2
f 11//2 12//2 9//2
f 8//3 5//3 13//3 16//3
f 3//4 4//4 12//4 11//4
f 4//3 1//3 9//3 12//3
f 5//5 6//5 14//5 13//5
f 7//4 8//4 16//4 15//4
f 1//5 2//5 10//5 9//5
f 6//6 7//6 15//6 14//6
f 2//6 3//6 11//6 10//6
f 21//2 22//2 23//2
f 24//2 21//2 23//2
f 17//2 18//2 19//2
f 20//2 17//2 19//2
f 30//1 29//1 31//1
f 29//1 32//1 31//1
f 26//1 25//1 27//1
f 25//1 28//1 27//1
f 32//6 29//6 21//6 24//6
f 27//5 28//5 20//5 19//5
f 28//6 25//6 17//6 20//6
f 29//4 30//4 22//4 21//4
f 31//5 32//5 24//5 23//5
f 25//4 26//4 18//4 17//4
f 30//3 31//3 23//3 22//3
f 26//3 27//3 19//3 18//3
