# Blender v2.69 (sub 0) OBJ File: ''
# www.blender.org
mtllib re.mtl
o Curve_Mesh
v 0.000282 0.000000 -0.000280
v 0.736156 0.000000 -0.000280
v 0.736156 0.000000 5.389595
v 1.161659 0.000000 5.217924
v 1.571497 0.000000 5.032062
v 1.965669 0.000000 4.832010
v 2.344174 0.000000 4.617770
v 2.707011 0.000000 4.389341
v 3.054179 0.000000 4.146726
v 3.385676 0.000000 3.889925
v 3.701502 0.000000 3.618940
v 4.001656 0.000000 3.333772
v 4.286136 0.000000 3.034421
v 4.554941 0.000000 2.720889
v 4.808071 0.000000 2.393178
v 4.813464 0.000000 2.401320
v 4.828703 0.000000 2.424331
v 4.852383 0.000000 2.460087
v 4.883096 0.000000 2.506463
v 4.919437 0.000000 2.561336
v 4.959998 0.000000 2.622581
v 5.003372 0.000000 2.688074
v 5.048153 0.000000 2.755691
v 5.092934 0.000000 2.823308
v 5.136308 0.000000 2.888801
v 5.176868 0.000000 2.950046
v 5.213210 0.000000 3.004919
v 5.086573 0.000000 3.170047
v 4.951956 0.000000 3.333460
v 4.809359 0.000000 3.495157
v 4.658783 0.000000 3.655138
v 4.500230 0.000000 3.813403
v 4.333699 0.000000 3.969953
v 4.159193 0.000000 4.124785
v 3.976711 0.000000 4.277901
v 3.786256 0.000000 4.429299
v 3.587828 0.000000 4.578981
v 3.381428 0.000000 4.726945
v 3.167057 0.000000 4.873191
v 2.944012 0.000000 5.021094
v 2.721364 0.000000 5.163149
v 2.499111 0.000000 5.299354
v 2.277256 0.000000 5.429710
v 2.055798 0.000000 5.554216
v 1.834738 0.000000 5.672874
v 1.614076 0.000000 5.785682
v 1.393813 0.000000 5.892642
v 1.173949 0.000000 5.993752
v 0.954485 0.000000 6.089014
v 0.735422 0.000000 6.178426
v 0.516759 0.000000 6.261989
v 0.509885 0.000000 6.256707
v 0.490457 0.000000 6.241781
v 0.460270 0.000000 6.218589
v 0.421116 0.000000 6.188508
v 0.374788 0.000000 6.152915
v 0.323081 0.000000 6.113189
v 0.267786 0.000000 6.070708
v 0.210699 0.000000 6.026848
v 0.153611 0.000000 5.982989
v 0.098317 0.000000 5.940508
v 0.046610 0.000000 5.900782
v 0.000282 0.000000 5.865190
v 0.000282 0.010000 -0.000280
v 0.736156 0.010000 -0.000280
v 0.736156 0.010000 5.389595
v 1.161659 0.010000 5.217924
v 1.571497 0.010000 5.032062
v 1.965669 0.010000 4.832010
v 2.344174 0.010000 4.617770
v 2.707011 0.010000 4.389341
v 3.054179 0.010000 4.146726
v 3.385676 0.010000 3.889925
v 3.701502 0.010000 3.618940
v 4.001656 0.010000 3.333772
v 4.286136 0.010000 3.034421
v 4.554941 0.010000 2.720889
v 4.808071 0.010000 2.393178
v 4.813464 0.010000 2.401320
v 4.828703 0.010000 2.424331
v 4.852383 0.010000 2.460087
v 4.883096 0.010000 2.506463
v 4.919437 0.010000 2.561336
v 4.959998 0.010000 2.622581
v 5.003372 0.010000 2.688074
v 5.048153 0.010000 2.755691
v 5.092934 0.010000 2.823308
v 5.136308 0.010000 2.888801
v 5.176868 0.010000 2.950046
v 5.213210 0.010000 3.004919
v 5.086573 0.010000 3.170047
v 4.951956 0.010000 3.333460
v 4.809359 0.010000 3.495157
v 4.658783 0.010000 3.655138
v 4.500230 0.010000 3.813403
v 4.333699 0.010000 3.969953
v 4.159193 0.010000 4.124785
v 3.976711 0.010000 4.277901
v 3.786256 0.010000 4.429299
v 3.587828 0.010000 4.578981
v 3.381428 0.010000 4.726945
v 3.167057 0.010000 4.873191
v 2.944012 0.010000 5.021094
v 2.721364 0.010000 5.163149
v 2.499111 0.010000 5.299354
v 2.277256 0.010000 5.429710
v 2.055798 0.010000 5.554216
v 1.834738 0.010000 5.672874
v 1.614076 0.010000 5.785682
v 1.393813 0.010000 5.892642
v 1.173949 0.010000 5.993752
v 0.954485 0.010000 6.089014
v 0.735422 0.010000 6.178426
v 0.516759 0.010000 6.261989
v 0.509885 0.010000 6.256707
v 0.490457 0.010000 6.241781
v 0.460270 0.010000 6.218589
v 0.421116 0.010000 6.188508
v 0.374788 0.010000 6.152915
v 0.323081 0.010000 6.113189
v 0.267786 0.010000 6.070708
v 0.210699 0.010000 6.026848
v 0.153611 0.010000 5.982989
v 0.098317 0.010000 5.940508
v 0.046610 0.010000 5.900782
v 0.000282 0.010000 5.865190
v 0.000282 -1.000000 -0.000280
v 0.736156 -1.000000 -0.000280
v 0.736156 -1.000000 5.389595
v 1.161659 -1.000000 5.217924
v 1.571497 -1.000000 5.032062
v 1.965669 -1.000000 4.832010
v 2.344174 -0.999970 4.617770
v 2.707011 -1.000000 4.389341
v 3.054179 -1.000000 4.146726
v 3.385676 -1.000000 3.889925
v 3.701502 -1.000000 3.618940
v 4.001656 -1.000000 3.333772
v 4.286136 -0.999970 3.034421
v 4.554941 -0.999970 2.720889
v 4.808071 -1.000000 2.393178
v 4.813464 -1.000000 2.401320
v 4.828703 -1.000000 2.424331
v 4.852383 -1.000000 2.460087
v 4.883096 -1.000000 2.506463
v 4.919437 -0.999970 2.561336
v 4.959998 -1.000000 2.622581
v 5.003372 -1.000000 2.688074
v 5.048153 -1.000000 2.755691
v 5.092934 -1.000000 2.823308
v 5.136308 -1.000000 2.888801
v 5.176868 -1.000000 2.950046
v 5.213210 -0.999970 3.004919
v 5.086573 -1.000000 3.170047
v 4.951956 -1.000000 3.333460
v 4.809359 -1.000000 3.495157
v 4.658783 -1.000000 3.655138
v 4.500230 -1.000000 3.813403
v 4.333699 -1.000000 3.969953
v 4.159193 -1.000000 4.124785
v 3.976711 -1.000000 4.277901
v 3.786256 -1.000000 4.429299
v 3.587828 -1.000000 4.578981
v 3.381428 -1.000000 4.726945
v 3.167057 -0.999970 4.873191
v 2.944012 -1.000000 5.021094
v 2.721364 -0.999970 5.163149
v 2.499111 -1.000000 5.299354
v 2.277256 -1.000000 5.429710
v 2.055798 -0.999970 5.554216
v 1.834738 -1.000000 5.672874
v 1.614076 -1.000000 5.785682
v 1.393813 -0.999970 5.892642
v 1.173949 -1.000000 5.993752
v 0.954485 -1.000000 6.089014
v 0.735422 -0.999970 6.178426
v 0.516759 -1.000000 6.261989
v 0.509885 -1.000000 6.256707
v 0.490457 -1.000000 6.241781
v 0.460270 -1.000000 6.218589
v 0.421116 -0.999970 6.188508
v 0.374788 -1.000000 6.152915
v 0.323081 -1.000000 6.113189
v 0.267786 -1.000000 6.070708
v 0.210699 -1.000000 6.026848
v 0.153611 -1.000000 5.982989
v 0.098317 -1.000000 5.940508
v 0.046610 -1.000000 5.900782
v 0.000282 -1.000000 5.865190
v 0.000282 1.010000 -0.000280
v 0.736156 1.010000 -0.000280
v 0.736156 1.010000 5.389595
v 1.161659 1.010000 5.217924
v 1.571497 1.010000 5.032062
v 1.965669 1.010000 4.832010
v 2.344174 1.009969 4.617770
v 2.707011 1.010000 4.389341
v 3.054179 1.010000 4.146726
v 3.385676 1.010000 3.889925
v 3.701502 1.010000 3.618940
v 4.001656 1.010000 3.333772
v 4.286136 1.009969 3.034421
v 4.554941 1.009969 2.720889
v 4.808071 1.010000 2.393178
v 4.813464 1.010000 2.401320
v 4.828703 1.010000 2.424331
v 4.852383 1.010000 2.460087
v 4.883096 1.010000 2.506463
v 4.919437 1.009969 2.561336
v 4.959998 1.010000 2.622581
v 5.003372 1.010000 2.688074
v 5.048153 1.010000 2.755691
v 5.092934 1.010000 2.823308
v 5.136308 1.010000 2.888801
v 5.176868 1.010000 2.950046
v 5.213210 1.009969 3.004919
v 5.086573 1.010000 3.170047
v 4.951956 1.010000 3.333460
v 4.809359 1.010000 3.495157
v 4.658783 1.010000 3.655138
v 4.500230 1.010000 3.813403
v 4.333699 1.010000 3.969953
v 4.159193 1.010000 4.124785
v 3.976711 1.010000 4.277901
v 3.786256 1.010000 4.429299
v 3.587828 1.010000 4.578981
v 3.381428 1.010000 4.726945
v 3.167057 1.009969 4.873191
v 2.944012 1.010000 5.021094
v 2.721364 1.009969 5.163149
v 2.499111 1.010000 5.299354
v 2.277256 1.010000 5.429710
v 2.055798 1.009969 5.554216
v 1.834738 1.010000 5.672874
v 1.614076 1.010000 5.785682
v 1.393813 1.009969 5.892642
v 1.173949 1.010000 5.993752
v 0.954485 1.010000 6.089014
v 0.735422 1.010000 6.178426
v 0.516759 1.010000 6.261989
v 0.509885 1.010000 6.256707
v 0.490457 1.010000 6.241781
v 0.460270 1.010000 6.218589
v 0.421116 1.009969 6.188508
v 0.374788 1.010000 6.152915
v 0.323081 1.010000 6.113189
v 0.267786 1.010000 6.070708
v 0.210699 1.010000 6.026848
v 0.153611 1.010000 5.982989
v 0.098317 1.010000 5.940508
v 0.046610 1.010000 5.900782
v 0.000282 1.010000 5.865190
vn 0.000000 1.000000 0.000000
vn 0.000000 -1.000000 0.000000
vn 0.000000 0.999946 -0.010416
vn -0.833738 0.000000 0.552160
vn -0.417813 0.000000 -0.908533
vn -0.750014 0.000000 -0.661422
vn 0.413015 0.000000 0.910724
vn 0.609233 0.000000 -0.792991
vn -0.833746 0.000000 0.552148
vn -0.833737 0.000000 0.552162
vn 0.609237 0.000000 -0.792988
vn -0.552646 0.000000 -0.833416
vn 0.609235 0.000000 -0.792990
vn 0.759180 0.000000 0.650881
vn 0.000000 0.000000 1.000000
vn 0.724882 0.000000 0.688873
vn 0.452572 0.000000 0.891728
vn 1.000000 0.000000 0.000000
vn 0.492585 0.000000 0.870264
vn -0.602213 0.000000 -0.798335
vn -0.833734 0.000000 0.552166
vn -0.728189 0.000000 -0.685376
vn -0.833741 0.000000 0.552156
vn 0.609236 0.000000 -0.792989
vn -0.622273 0.000000 -0.782801
vn -0.642777 0.000000 -0.766053
vn -0.706462 0.000000 -0.707751
vn -0.506594 0.000000 -0.862185
vn 0.609256 0.000000 -0.792973
vn 0.532772 0.000000 0.846259
vn -0.833739 0.000000 0.552159
vn -0.356977 0.000000 -0.934113
vn -0.472941 0.000000 -0.881094
vn -0.522523 0.000000 -0.852625
vn -0.436821 0.000000 -0.899548
vn -0.684935 0.000000 -0.728604
vn -0.398173 0.000000 -0.917310
vn -0.563558 0.000000 -0.826076
vn 0.688778 0.000000 0.724972
vn -0.377892 0.000000 -0.925850
vn -0.833740 0.000000 0.552157
vn 0.374150 0.000000 0.927368
vn -0.490071 0.000000 -0.871682
vn -0.833736 0.000000 0.552163
vn -0.455192 0.000000 -0.890393
vn 0.609242 0.000000 -0.792984
vn -0.663682 0.000000 -0.748015
vn -0.771834 0.000000 -0.635824
vn -0.537870 0.000000 -0.843028
vn 0.612408 0.000000 0.790542
vn 0.651175 0.000000 0.758927
vn 0.791404 0.000000 0.611294
vn -0.793517 0.000000 -0.608548
vn -0.582633 0.000000 -0.812735
vn 0.572825 0.000000 0.819678
vn -0.833737 0.000000 0.552161
vn -0.833727 0.000000 0.552176
vn -1.000000 0.000000 0.000000
vn -0.000065 -1.000000 0.000031
vn -0.000065 -1.000000 0.000044
vn -0.000065 -1.000000 0.000043
vn 0.000188 -1.000000 0.000431
vn -0.000169 -1.000000 -0.000387
vn -0.000065 -1.000000 0.000045
vn -0.000058 -1.000000 -0.000050
vn -0.000032 -1.000000 0.000022
vn -0.000032 -1.000000 0.000021
vn 0.000017 -1.000000 0.000543
vn -0.000006 -1.000000 -0.000189
vn -0.000018 -1.000000 -0.000119
vn -0.000005 -1.000000 0.000126
vn -0.000026 -1.000000 -0.000035
vn -0.000012 -1.000000 -0.000164
vn 0.000017 -1.000000 0.000235
vn 0.000024 -1.000000 0.000046
vn -0.000002 -1.000000 -0.000209
vn 0.000002 -1.000000 0.000217
vn 0.000021 -1.000000 0.000047
vn 0.000012 -1.000000 -0.000204
vn 0.000071 -1.000000 0.000373
vn -0.000033 -1.000000 -0.000321
vn 0.000016 -1.000000 0.000316
vn 0.000022 -1.000000 -0.000025
vn 0.000021 -1.000000 -0.000255
vn 0.000000 -1.000000 -0.000006
vn 0.000000 -1.000000 0.000005
vn 0.000000 -1.000000 -0.000001
vn 0.000000 -1.000000 -0.000004
vn 0.000014 -1.000000 0.000377
vn 0.000093 -1.000000 -0.000119
vn 0.000026 -1.000000 0.000818
vn 0.000093 -1.000000 -0.000121
vn -0.000014 -1.000000 -0.000427
vn 0.607023 0.003895 -0.794675
vn -0.000065 1.000000 0.000047
vn -0.000065 1.000000 0.000039
vn -0.000065 1.000000 0.000046
vn -0.000065 1.000000 0.000044
vn 0.000189 1.000000 0.000430
vn -0.000169 1.000000 -0.000387
vn -0.000065 1.000000 0.000043
vn -0.000058 1.000000 -0.000049
vn -0.000032 1.000000 0.000020
vn -0.000032 1.000000 0.000023
vn -0.000032 1.000000 0.000021
vn 0.000017 1.000000 0.000546
vn -0.000006 1.000000 -0.000190
vn -0.000018 1.000000 -0.000119
vn 0.000000 1.000000 -0.000001
vn 0.000000 1.000000 0.000001
vn -0.000005 1.000000 0.000126
vn -0.000026 1.000000 -0.000033
vn -0.000026 1.000000 -0.000035
vn -0.000012 1.000000 -0.000164
vn 0.000017 1.000000 0.000234
vn 0.000024 1.000000 0.000047
vn -0.000002 1.000000 -0.000209
vn 0.000002 1.000000 0.000217
vn 0.000021 1.000000 0.000047
vn 0.000012 1.000000 -0.000204
vn 0.000071 1.000000 0.000372
vn -0.000034 1.000000 -0.000320
vn 0.000016 1.000000 0.000317
vn 0.000022 1.000000 -0.000030
vn 0.000021 1.000000 -0.000255
vn 0.000000 1.000000 0.000006
vn 0.000000 1.000000 -0.000006
vn 0.000000 1.000000 0.000005
vn 0.000000 1.000000 -0.000003
vn 0.000000 1.000000 0.000004
vn -0.000067 1.000000 0.000946
vn 0.000000 1.000000 -0.000005
vn -0.000107 1.000000 -0.000308
vn 0.611549 -0.001958 -0.791204
vn 0.833738 0.000000 -0.552160
vn 0.417813 0.000000 0.908533
vn 0.750014 0.000000 0.661422
vn -0.413015 0.000000 -0.910724
vn -0.609232 0.000000 0.792992
vn 0.833746 0.000000 -0.552148
vn 0.833736 0.000000 -0.552163
vn 0.552647 0.000000 0.833415
vn -0.609236 0.000000 0.792989
vn -0.759180 0.000000 -0.650881
vn 0.000000 0.000000 -1.000000
vn -0.724882 0.000000 -0.688873
vn -0.452573 0.000000 -0.891727
vn -0.492586 0.000000 -0.870264
vn 0.602213 0.000000 0.798336
vn 0.833734 0.000000 -0.552166
vn 0.728189 0.000000 0.685376
vn 0.833742 0.000000 -0.552155
vn -0.609239 0.000000 0.792987
vn 0.622273 0.000000 0.782800
vn 0.642778 0.000000 0.766053
vn 0.706463 0.000000 0.707750
vn 0.506595 0.000000 0.862184
vn -0.609258 0.000000 0.792972
vn -0.532771 0.000000 -0.846259
vn 0.833739 0.000000 -0.552159
vn 0.356976 0.000000 0.934113
vn 0.472940 0.000000 0.881095
vn -0.609233 0.000000 0.792991
vn 0.522524 0.000000 0.852624
vn 0.436822 0.000000 0.899548
vn 0.684934 0.000000 0.728605
vn 0.398173 0.000000 0.917310
vn 0.563558 0.000000 0.826077
vn -0.688778 0.000000 -0.724972
vn 0.377891 0.000000 0.925850
vn 0.833740 0.000000 -0.552157
vn -0.374150 0.000000 -0.927368
vn 0.490071 0.000000 0.871683
vn 0.455193 0.000000 0.890393
vn -0.609240 0.000000 0.792986
vn 0.663681 0.000000 0.748015
vn 0.771834 0.000000 0.635824
vn -0.609235 0.000000 0.792989
vn 0.833738 0.000000 -0.552161
vn 0.537869 0.000000 0.843028
vn -0.612408 0.000000 -0.790542
vn -0.651175 0.000000 -0.758927
vn -0.791404 0.000000 -0.611294
vn 0.793517 0.000000 0.608547
vn -0.609237 0.000000 0.792988
vn 0.582634 0.000000 0.812735
vn -0.572825 0.000000 -0.819678
vn 0.833736 0.000000 -0.552164
vn 0.833724 0.000000 -0.552182
usemtl SVGMat.001
s off
f 3//1 2//1 1//1
f 3//1 1//1 63//1
f 16//1 15//1 14//1
f 17//1 16//1 14//1
f 18//1 17//1 14//1
f 19//1 18//1 14//1
f 20//1 19//1 14//1
f 21//1 20//1 14//1
f 22//1 21//1 14//1
f 23//1 22//1 14//1
f 23//1 14//1 13//1
f 24//1 23//1 13//1
f 25//1 24//1 13//1
f 26//1 25//1 13//1
f 27//1 26//1 13//1
f 28//1 27//1 13//1
f 28//1 13//1 12//1
f 29//1 28//1 12//1
f 30//1 29//1 12//1
f 30//1 12//1 11//1
f 31//1 30//1 11//1
f 31//1 11//1 10//1
f 32//1 31//1 10//1
f 33//1 32//1 10//1
f 33//1 10//1 9//1
f 34//1 33//1 9//1
f 35//1 34//1 9//1
f 35//1 9//1 8//1
f 36//1 35//1 8//1
f 36//1 8//1 7//1
f 37//1 36//1 7//1
f 38//1 37//1 7//1
f 38//1 7//1 6//1
f 39//1 38//1 6//1
f 39//1 6//1 5//1
f 40//1 39//1 5//1
f 41//1 40//1 5//1
f 41//1 5//1 4//1
f 42//1 41//1 4//1
f 42//1 4//1 3//1
f 43//1 42//1 3//1
f 43//1 3//1 63//1
f 44//1 43//1 63//1
f 45//1 44//1 63//1
f 46//1 45//1 63//1
f 47//1 46//1 63//1
f 47//1 63//1 62//1
f 48//1 47//1 62//1
f 48//1 62//1 61//1
f 48//1 61//1 60//1
f 48//1 60//1 59//1
f 49//1 48//1 59//1
f 49//1 59//1 58//1
f 49//1 58//1 57//1
f 50//1 49//1 57//1
f 50//1 57//1 56//1
f 50//1 56//1 55//1
f 51//1 50//1 52//1
f 52//1 50//1 55//1
f 52//2 55//2 54//2
f 52//2 54//2 53//2
f 66//2 64//2 65//2
f 66//2 126//2 64//2
f 79//2 77//2 78//2
f 80//2 77//2 79//2
f 81//2 77//2 80//2
f 82//2 77//2 81//2
f 83//2 77//2 82//2
f 84//2 77//2 83//2
f 85//2 77//2 84//2
f 86//2 77//2 85//2
f 86//2 76//2 77//2
f 87//2 76//2 86//2
f 88//2 76//2 87//2
f 89//2 76//2 88//2
f 90//2 76//2 89//2
f 91//2 76//2 90//2
f 91//2 75//2 76//2
f 92//2 75//2 91//2
f 93//2 75//2 92//2
f 93//2 74//2 75//2
f 94//2 74//2 93//2
f 94//2 73//2 74//2
f 95//2 73//2 94//2
f 96//2 73//2 95//2
f 96//2 72//2 73//2
f 97//2 72//2 96//2
f 98//2 72//2 97//2
f 98//2 71//2 72//2
f 99//2 71//2 98//2
f 99//2 70//2 71//2
f 100//2 70//2 99//2
f 101//2 70//2 100//2
f 101//2 69//2 70//2
f 102//2 69//2 101//2
f 102//2 68//2 69//2
f 103//2 68//2 102//2
f 104//2 68//2 103//2
f 104//2 67//2 68//2
f 105//2 67//2 104//2
f 105//2 66//2 67//2
f 106//2 66//2 105//2
f 106//2 126//2 66//2
f 107//2 126//2 106//2
f 108//2 126//2 107//2
f 109//2 126//2 108//2
f 110//2 126//2 109//2
f 110//2 125//2 126//2
f 111//2 125//2 110//2
f 111//2 124//2 125//2
f 111//2 123//2 124//2
f 111//2 122//2 123//2
f 112//2 122//2 111//2
f 112//2 121//2 122//2
f 112//2 120//2 121//2
f 113//2 120//2 112//2
f 113//2 119//2 120//2
f 113//2 118//2 119//2
f 114//2 115//2 113//2
f 115//2 118//2 113//2
f 115//3 117//3 118//3
f 115//1 116//1 117//1
f 20//4 21//4 84//4 83//4
f 47//5 48//5 111//5 110//5
f 29//6 30//6 93//6 92//6
f 4//7 5//7 68//7 67//7
f 52//8 53//8 116//8 115//8
f 16//9 17//9 80//9 79//9
f 24//10 25//10 88//10 87//10
f 55//11 56//11 119//11 118//11
f 39//12 40//12 103//12 102//12
f 59//13 60//13 123//13 122//13
f 13//14 14//14 77//14 76//14
f 1//15 2//15 65//15 64//15
f 12//16 13//16 76//16 75//16
f 5//17 6//17 69//17 68//17
f 63//18 1//18 64//18 126//18
f 6//19 7//19 70//19 69//19
f 36//20 37//20 100//20 99//20
f 60//11 61//11 124//11 123//11
f 57//11 58//11 121//11 120//11
f 26//21 27//21 90//21 89//21
f 30//22 31//22 94//22 93//22
f 25//23 26//23 89//23 88//23
f 56//24 57//24 120//24 119//24
f 35//25 36//25 99//25 98//25
f 34//26 35//26 98//26 97//26
f 61//24 62//24 125//24 124//24
f 31//27 32//27 95//27 94//27
f 42//28 43//28 106//28 105//28
f 51//29 52//29 115//29 114//29
f 7//30 8//30 71//30 70//30
f 23//31 24//31 87//31 86//31
f 50//32 51//32 114//32 113//32
f 44//33 45//33 108//33 107//33
f 53//11 54//11 117//11 116//11
f 41//34 42//34 105//34 104//34
f 46//35 47//35 110//35 109//35
f 32//36 33//36 96//36 95//36
f 48//37 49//37 112//37 111//37
f 38//38 39//38 102//38 101//38
f 11//39 12//39 75//39 74//39
f 49//40 50//40 113//40 112//40
f 17//41 18//41 81//41 80//41
f 3//42 4//42 67//42 66//42
f 43//43 44//43 107//43 106//43
f 22//44 23//44 86//44 85//44
f 45//45 46//45 109//45 108//45
f 58//46 59//46 122//46 121//46
f 33//47 34//47 97//47 96//47
f 28//48 29//48 92//48 91//48
f 62//24 63//24 126//24 125//24
f 18//4 19//4 82//4 81//4
f 40//49 41//49 104//49 103//49
f 9//50 10//50 73//50 72//50
f 10//51 11//51 74//51 73//51
f 14//52 15//52 78//52 77//52
f 27//53 28//53 91//53 90//53
f 54//24 55//24 118//24 117//24
f 37//54 38//54 101//54 100//54
f 8//55 9//55 72//55 71//55
f 19//10 20//10 83//10 82//10
f 21//56 22//56 85//56 84//56
f 15//57 16//57 79//57 78//57
f 2//58 3//58 66//58 65//58
f 127//2 128//2 129//2
f 189//2 127//2 129//2
f 140//59 141//59 142//59
f 140//60 142//60 143//60
f 140//61 143//61 144//61
f 140//60 144//60 145//60
f 140//62 145//62 146//62
f 140//63 146//63 147//63
f 140//64 147//64 148//64
f 140//61 148//61 149//61
f 139//65 140//65 149//65
f 139//66 149//66 150//66
f 139//67 150//67 151//67
f 139//67 151//67 152//67
f 139//68 152//68 153//68
f 139//69 153//69 154//69
f 138//70 139//70 154//70
f 138//2 154//2 155//2
f 138//2 155//2 156//2
f 137//2 138//2 156//2
f 137//2 156//2 157//2
f 136//2 137//2 157//2
f 136//2 157//2 158//2
f 136//2 158//2 159//2
f 135//2 136//2 159//2
f 135//2 159//2 160//2
f 135//2 160//2 161//2
f 134//2 135//2 161//2
f 134//2 161//2 162//2
f 133//71 134//71 162//71
f 133//72 162//72 163//72
f 133//72 163//72 164//72
f 132//73 133//73 164//73
f 132//74 164//74 165//74
f 131//75 132//75 165//75
f 131//76 165//76 166//76
f 131//77 166//77 167//77
f 130//78 131//78 167//78
f 130//79 167//79 168//79
f 129//2 130//2 168//2
f 129//2 168//2 169//2
f 189//2 129//2 169//2
f 189//80 169//80 170//80
f 189//81 170//81 171//81
f 189//2 171//2 172//2
f 189//82 172//82 173//82
f 188//83 189//83 173//83
f 188//84 173//84 174//84
f 187//2 188//2 174//2
f 186//85 187//85 174//85
f 185//86 186//86 174//86
f 185//87 174//87 175//87
f 184//2 185//2 175//2
f 183//88 184//88 175//88
f 183//89 175//89 176//89
f 182//90 183//90 176//90
f 181//91 182//91 176//91
f 178//92 176//92 177//92
f 181//93 176//93 178//93
f 180//94 181//94 178//94
f 179//1 180//1 178//1
f 191//1 190//1 192//1
f 190//1 252//1 192//1
f 204//95 203//95 205//95
f 205//96 203//96 206//96
f 206//97 203//97 207//97
f 207//98 203//98 208//98
f 208//99 203//99 209//99
f 209//100 203//100 210//100
f 210//101 203//101 211//101
f 211//101 203//101 212//101
f 203//102 202//102 212//102
f 212//103 202//103 213//103
f 213//104 202//104 214//104
f 214//105 202//105 215//105
f 215//106 202//106 216//106
f 216//107 202//107 217//107
f 202//108 201//108 217//108
f 217//109 201//109 218//109
f 218//1 201//1 219//1
f 201//1 200//1 219//1
f 219//110 200//110 220//110
f 200//1 199//1 220//1
f 220//110 199//110 221//110
f 221//109 199//109 222//109
f 199//1 198//1 222//1
f 222//1 198//1 223//1
f 223//1 198//1 224//1
f 198//1 197//1 224//1
f 224//1 197//1 225//1
f 197//111 196//111 225//111
f 225//112 196//112 226//112
f 226//113 196//113 227//113
f 196//114 195//114 227//114
f 227//115 195//115 228//115
f 195//116 194//116 228//116
f 228//117 194//117 229//117
f 229//118 194//118 230//118
f 194//119 193//119 230//119
f 230//120 193//120 231//120
f 193//110 192//110 231//110
f 231//109 192//109 232//109
f 192//1 252//1 232//1
f 232//121 252//121 233//121
f 233//122 252//122 234//122
f 234//109 252//109 235//109
f 235//123 252//123 236//123
f 252//124 251//124 236//124
f 236//125 251//125 237//125
f 251//126 250//126 237//126
f 250//127 249//127 237//127
f 249//128 248//128 237//128
f 237//129 248//129 238//129
f 248//130 247//130 238//130
f 247//1 246//1 238//1
f 238//1 246//1 239//1
f 246//1 245//1 239//1
f 245//131 244//131 239//131
f 239//132 241//132 240//132
f 239//133 244//133 241//133
f 244//134 243//134 241//134
f 243//2 242//2 241//2
f 209//135 210//135 147//135 146//135
f 236//136 237//136 174//136 173//136
f 218//137 219//137 156//137 155//137
f 193//138 194//138 131//138 130//138
f 241//139 242//139 179//139 178//139
f 205//140 206//140 143//140 142//140
f 213//141 214//141 151//141 150//141
f 244//139 245//139 182//139 181//139
f 228//142 229//142 166//142 165//142
f 248//143 249//143 186//143 185//143
f 202//144 203//144 140//144 139//144
f 190//145 191//145 128//145 127//145
f 201//146 202//146 139//146 138//146
f 194//147 195//147 132//147 131//147
f 252//58 190//58 127//58 189//58
f 195//148 196//148 133//148 132//148
f 225//149 226//149 163//149 162//149
f 249//143 250//143 187//143 186//143
f 246//143 247//143 184//143 183//143
f 215//150 216//150 153//150 152//150
f 219//151 220//151 157//151 156//151
f 214//152 215//152 152//152 151//152
f 245//153 246//153 183//153 182//153
f 224//154 225//154 162//154 161//154
f 223//155 224//155 161//155 160//155
f 250//153 251//153 188//153 187//153
f 220//156 221//156 158//156 157//156
f 231//157 232//157 169//157 168//157
f 240//158 241//158 178//158 177//158
f 196//159 197//159 134//159 133//159
f 212//160 213//160 150//160 149//160
f 239//161 240//161 177//161 176//161
f 233//162 234//162 171//162 170//162
f 242//163 243//163 180//163 179//163
f 230//164 231//164 168//164 167//164
f 235//165 236//165 173//165 172//165
f 221//166 222//166 159//166 158//166
f 237//167 238//167 175//167 174//167
f 227//168 228//168 165//168 164//168
f 200//169 201//169 138//169 137//169
f 238//170 239//170 176//170 175//170
f 206//171 207//171 144//171 143//171
f 192//172 193//172 130//172 129//172
f 232//173 233//173 170//173 169//173
f 211//141 212//141 149//141 148//141
f 234//174 235//174 172//174 171//174
f 247//175 248//175 185//175 184//175
f 222//176 223//176 160//176 159//176
f 217//177 218//177 155//177 154//177
f 251//178 252//178 189//178 188//178
f 207//179 208//179 145//179 144//179
f 229//180 230//180 167//180 166//180
f 198//181 199//181 136//181 135//181
f 199//182 200//182 137//182 136//182
f 203//183 204//183 141//183 140//183
f 216//184 217//184 154//184 153//184
f 243//185 244//185 181//185 180//185
f 226//186 227//186 164//186 163//186
f 197//187 198//187 135//187 134//187
f 208//188 209//188 146//188 145//188
f 210//135 211//135 148//135 147//135
f 204//189 205//189 142//189 141//189
f 191//18 192//18 129//18 128//18
