# Blender v2.69 (sub 0) OBJ File: ''
# www.blender.org
mtllib correct.mtl
o Curve_Mesh
v 0.396883 0.000000 -0.000018
v 7.342338 0.000000 -0.000018
v 7.342338 0.000000 0.628265
v 4.365714 0.000000 0.628265
v 4.365714 0.000000 2.843746
v 7.110805 0.000000 2.843746
v 7.110805 0.000000 3.471994
v 4.365714 0.000000 3.471994
v 4.365714 0.000000 6.282673
v 7.606926 0.000000 6.282673
v 7.606926 0.000000 6.910921
v 0.000000 0.000000 6.910921
v 0.000000 0.000000 6.282673
v 1.256796 0.000000 6.282673
v 1.256796 0.000000 1.983979
v 1.918268 0.000000 1.983979
v 1.918268 0.000000 6.282673
v 3.704242 0.000000 6.282673
v 3.704242 0.000000 0.628265
v 0.396883 0.000000 0.628265
v 0.396883 0.010000 -0.000018
v 7.342338 0.010000 -0.000018
v 7.342338 0.010000 0.628265
v 4.365714 0.010000 0.628265
v 4.365714 0.010000 2.843746
v 7.110805 0.010000 2.843746
v 7.110805 0.010000 3.471994
v 4.365714 0.010000 3.471994
v 4.365714 0.010000 6.282673
v 7.606926 0.010000 6.282673
v 7.606926 0.010000 6.910921
v 0.000000 0.010000 6.910921
v 0.000000 0.010000 6.282673
v 1.256796 0.010000 6.282673
v 1.256796 0.010000 1.983979
v 1.918268 0.010000 1.983979
v 1.918268 0.010000 6.282673
v 3.704242 0.010000 6.282673
v 3.704242 0.010000 0.628265
v 0.396883 0.010000 0.628265
v 0.396883 -1.000000 -0.000018
v 7.342338 -1.000000 -0.000018
v 7.342338 -1.000000 0.628265
v 4.365714 -1.000000 0.628265
v 4.365714 -1.000000 2.843746
v 7.110805 -1.000000 2.843746
v 7.110805 -1.000000 3.471994
v 4.365714 -1.000000 3.471994
v 4.365714 -1.000000 6.282673
v 7.606926 -1.000000 6.282673
v 7.606926 -1.000000 6.910921
v 0.000000 -1.000000 6.910921
v 0.000000 -1.000000 6.282673
v 1.256796 -1.000000 6.282673
v 1.256796 -1.000000 1.983979
v 1.918268 -1.000000 1.983979
v 1.918268 -1.000000 6.282673
v 3.704242 -1.000000 6.282673
v 3.704242 -1.000000 0.628265
v 0.396883 -1.000000 0.628265
v 0.396883 1.010000 -0.000018
v 7.342338 1.010000 -0.000018
v 7.342338 1.010000 0.628265
v 4.365714 1.010000 0.628265
v 4.365714 1.010000 2.843746
v 7.110805 1.010000 2.843746
v 7.110805 1.010000 3.471994
v 4.365714 1.010000 3.471994
v 4.365714 1.010000 6.282673
v 7.606926 1.010000 6.282673
v 7.606926 1.010000 6.910921
v 0.000000 1.010000 6.910921
v 0.000000 1.010000 6.282673
v 1.256796 1.010000 6.282673
v 1.256796 1.010000 1.983979
v 1.918268 1.010000 1.983979
v 1.918268 1.010000 6.282673
v 3.704242 1.010000 6.282673
v 3.704242 1.010000 0.628265
v 0.396883 1.010000 0.628265
vn 0.000000 1.000000 0.000000
vn 0.000000 0.000000 1.000000
vn 0.000000 -1.000000 0.000000
vn 0.000000 0.000000 -1.000000
vn 1.000000 0.000000 0.000000
vn -1.000000 0.000000 0.000000
vn 0.000000 -1.000000 -0.000002
vn 0.000000 1.000000 -0.000002
usemtl SVGMat.001
s off
f 3//1 2//1 1//1
f 3//1 1//1 20//1
f 4//2 3//2 20//2
f 5//1 4//1 19//1
f 19//2 4//2 20//2
f 5//1 19//1 18//1
f 17//1 16//1 15//1
f 17//1 15//1 14//1
f 7//1 6//1 5//1
f 7//1 5//1 8//1
f 8//1 5//1 18//1
f 9//1 8//1 18//1
f 11//1 10//1 9//1
f 11//1 9//1 18//1
f 11//1 18//1 17//1
f 11//1 17//1 14//1
f 11//1 14//1 13//1
f 11//1 13//1 12//1
f 23//3 21//3 22//3
f 23//3 40//3 21//3
f 24//2 40//2 23//2
f 25//3 39//3 24//3
f 39//4 40//4 24//4
f 25//3 38//3 39//3
f 37//3 35//3 36//3
f 37//3 34//3 35//3
f 27//3 25//3 26//3
f 27//3 28//3 25//3
f 28//3 38//3 25//3
f 29//3 38//3 28//3
f 31//3 29//3 30//3
f 31//3 38//3 29//3
f 31//3 37//3 38//3
f 31//3 34//3 37//3
f 31//3 33//3 34//3
f 31//3 32//3 33//3
f 1//2 2//2 22//2 21//2
f 7//4 8//4 28//4 27//4
f 14//5 15//5 35//5 34//5
f 9//2 10//2 30//2 29//2
f 17//2 18//2 38//2 37//2
f 13//2 14//2 34//2 33//2
f 5//2 6//2 26//2 25//2
f 6//6 7//6 27//6 26//6
f 11//4 12//4 32//4 31//4
f 18//5 19//5 39//5 38//5
f 19//4 20//4 40//4 39//4
f 4//6 5//6 25//6 24//6
f 2//6 3//6 23//6 22//6
f 8//6 9//6 29//6 28//6
f 15//2 16//2 36//2 35//2
f 10//6 11//6 31//6 30//6
f 12//5 13//5 33//5 32//5
f 3//4 4//4 24//4 23//4
f 20//5 1//5 21//5 40//5
f 16//6 17//6 37//6 36//6
f 41//3 42//3 43//3
f 60//3 41//3 43//3
f 60//2 43//2 44//2
f 59//3 44//3 45//3
f 60//2 44//2 59//2
f 58//3 59//3 45//3
f 55//3 56//3 57//3
f 54//3 55//3 57//3
f 45//3 46//3 47//3
f 48//3 45//3 47//3
f 58//3 45//3 48//3
f 58//3 48//3 49//3
f 49//3 50//3 51//3
f 58//3 49//3 51//3
f 57//3 58//3 51//3
f 54//7 57//7 51//7
f 53//3 54//3 51//3
f 52//3 53//3 51//3
f 62//1 61//1 63//1
f 61//1 80//1 63//1
f 63//2 80//2 64//2
f 64//1 79//1 65//1
f 64//2 80//2 79//2
f 79//1 78//1 65//1
f 76//1 75//1 77//1
f 75//1 74//1 77//1
f 66//1 65//1 67//1
f 65//1 68//1 67//1
f 65//1 78//1 68//1
f 68//1 78//1 69//1
f 70//1 69//1 71//1
f 69//1 78//1 71//1
f 78//1 77//1 71//1
f 77//8 74//8 71//8
f 74//1 73//1 71//1
f 73//1 72//1 71//1
f 61//4 62//4 42//4 41//4
f 67//2 68//2 48//2 47//2
f 74//6 75//6 55//6 54//6
f 69//4 70//4 50//4 49//4
f 77//4 78//4 58//4 57//4
f 73//4 74//4 54//4 53//4
f 65//4 66//4 46//4 45//4
f 66//5 67//5 47//5 46//5
f 71//2 72//2 52//2 51//2
f 78//6 79//6 59//6 58//6
f 79//2 80//2 60//2 59//2
f 64//5 65//5 45//5 44//5
f 62//5 63//5 43//5 42//5
f 68//5 69//5 49//5 48//5
f 75//4 76//4 56//4 55//4
f 70//5 71//5 51//5 50//5
f 72//6 73//6 53//6 52//6
f 63//2 64//2 44//2 43//2
f 80//6 61//6 41//6 60//6
f 76//5 77//5 57//5 56//5
