# Blender v2.69 (sub 0) OBJ File: ''
# www.blender.org
mtllib hyaku.mtl
o Curve_Mesh
v 0.000000 0.000000 -0.000018
v 7.077749 0.000000 -0.000018
v 7.077749 0.000000 0.628265
v 3.836537 0.000000 0.628265
v 3.814258 0.000000 0.726776
v 3.791521 0.000000 0.823910
v 3.768325 0.000000 0.919667
v 3.744669 0.000000 1.014046
v 3.720554 0.000000 1.107046
v 3.695979 0.000000 1.198669
v 3.670943 0.000000 1.288913
v 3.645448 0.000000 1.377778
v 3.619491 0.000000 1.465264
v 3.593074 0.000000 1.551371
v 3.566196 0.000000 1.636098
v 3.538857 0.000000 1.719446
v 3.576275 0.000000 1.719446
v 3.682023 0.000000 1.719446
v 3.846339 0.000000 1.719446
v 4.059463 0.000000 1.719446
v 4.311631 0.000000 1.719446
v 4.593084 0.000000 1.719446
v 4.894060 0.000000 1.719446
v 5.204796 0.000000 1.719446
v 5.515533 0.000000 1.719446
v 5.816509 0.000000 1.719446
v 6.097961 0.000000 1.719446
v 6.350130 0.000000 1.719446
v 6.350130 0.000000 7.175454
v 5.688658 0.000000 7.175454
v 5.688658 0.000000 6.613304
v 1.356035 0.000000 6.613304
v 1.356035 0.000000 7.175454
v 0.694563 0.000000 7.175454
v 0.694563 0.000000 1.719446
v 2.778182 0.000000 1.719446
v 2.805514 0.000000 1.631039
v 2.832387 0.000000 1.542173
v 2.858802 0.000000 1.452849
v 2.884757 0.000000 1.363066
v 2.910253 0.000000 1.272823
v 2.935290 0.000000 1.182122
v 2.959868 0.000000 1.090961
v 2.983986 0.000000 0.999341
v 3.007645 0.000000 0.907262
v 3.030844 0.000000 0.814722
v 3.053583 0.000000 0.721724
v 3.075862 0.000000 0.628265
v 3.034922 0.000000 0.628265
v 2.919221 0.000000 0.628265
v 2.739440 0.000000 0.628265
v 2.506258 0.000000 0.628265
v 2.230356 0.000000 0.628265
v 1.922414 0.000000 0.628265
v 1.593112 0.000000 0.628265
v 1.253129 0.000000 0.628265
v 0.913147 0.000000 0.628265
v 0.583845 0.000000 0.628265
v 0.275903 0.000000 0.628265
v 0.000000 0.000000 0.628265
v 1.356035 0.000000 3.868793
v 5.688658 0.000000 3.868793
v 5.688658 0.000000 2.347729
v 1.356035 0.000000 2.347729
v 1.356035 0.000000 5.985056
v 5.688658 0.000000 5.985056
v 5.688658 0.000000 4.497041
v 1.356035 0.000000 4.497041
v 0.000000 0.010000 -0.000018
v 7.077749 0.010000 -0.000018
v 7.077749 0.010000 0.628265
v 3.836537 0.010000 0.628265
v 3.814258 0.010000 0.726776
v 3.791521 0.010000 0.823910
v 3.768325 0.010000 0.919667
v 3.744669 0.010000 1.014046
v 3.720554 0.010000 1.107046
v 3.695979 0.010000 1.198669
v 3.670943 0.010000 1.288913
v 3.645448 0.010000 1.377778
v 3.619491 0.010000 1.465264
v 3.593074 0.010000 1.551371
v 3.566196 0.010000 1.636098
v 3.538857 0.010000 1.719446
v 3.576275 0.010000 1.719446
v 3.682023 0.010000 1.719446
v 3.846339 0.010000 1.719446
v 4.059463 0.010000 1.719446
v 4.311631 0.010000 1.719446
v 4.593084 0.010000 1.719446
v 4.894060 0.010000 1.719446
v 5.204796 0.010000 1.719446
v 5.515533 0.010000 1.719446
v 5.816509 0.010000 1.719446
v 6.097961 0.010000 1.719446
v 6.350130 0.010000 1.719446
v 6.350130 0.010000 7.175454
v 5.688658 0.010000 7.175454
v 5.688658 0.010000 6.613304
v 1.356035 0.010000 6.613304
v 1.356035 0.010000 7.175454
v 0.694563 0.010000 7.175454
v 0.694563 0.010000 1.719446
v 2.778182 0.010000 1.719446
v 2.805514 0.010000 1.631039
v 2.832387 0.010000 1.542173
v 2.858802 0.010000 1.452849
v 2.884757 0.010000 1.363066
v 2.910253 0.010000 1.272823
v 2.935290 0.010000 1.182122
v 2.959868 0.010000 1.090961
v 2.983986 0.010000 0.999341
v 3.007645 0.010000 0.907262
v 3.030844 0.010000 0.814722
v 3.053583 0.010000 0.721724
v 3.075862 0.010000 0.628265
v 3.034922 0.010000 0.628265
v 2.919221 0.010000 0.628265
v 2.739440 0.010000 0.628265
v 2.506258 0.010000 0.628265
v 2.230356 0.010000 0.628265
v 1.922414 0.010000 0.628265
v 1.593112 0.010000 0.628265
v 1.253129 0.010000 0.628265
v 0.913147 0.010000 0.628265
v 0.583845 0.010000 0.628265
v 0.275903 0.010000 0.628265
v 0.000000 0.010000 0.628265
v 1.356035 0.010000 3.868793
v 5.688658 0.010000 3.868793
v 5.688658 0.010000 2.347729
v 1.356035 0.010000 2.347729
v 1.356035 0.010000 5.985056
v 5.688658 0.010000 5.985056
v 5.688658 0.010000 4.497041
v 1.356035 0.010000 4.497041
v 0.000000 -1.000000 -0.000018
v 7.077749 -1.000000 -0.000018
v 7.077749 -1.000000 0.628265
v 3.836537 -0.999970 0.628265
v 3.814258 -1.000000 0.726776
v 3.791521 -1.000000 0.823910
v 3.768325 -1.000000 0.919667
v 3.744669 -1.000000 1.014046
v 3.720554 -1.000000 1.107046
v 3.695979 -1.000000 1.198669
v 3.670943 -1.000000 1.288913
v 3.645448 -1.000000 1.377778
v 3.619491 -0.999970 1.465264
v 3.593074 -1.000000 1.551371
v 3.566196 -1.000000 1.636098
v 3.538857 -1.000000 1.719446
v 3.576275 -1.000000 1.719446
v 3.682023 -1.000000 1.719446
v 3.846339 -1.000000 1.719446
v 4.059463 -1.000000 1.719446
v 4.311631 -1.000000 1.719446
v 4.593084 -1.000000 1.719446
v 4.894060 -1.000000 1.719446
v 5.204796 -1.000000 1.719446
v 5.515533 -1.000000 1.719446
v 5.816509 -1.000000 1.719446
v 6.097961 -1.000000 1.719446
v 6.350130 -1.000000 1.719446
v 6.350130 -1.000000 7.175454
v 5.688658 -1.000000 7.175454
v 5.688658 -1.000000 6.613304
v 1.356035 -1.000000 6.613304
v 1.356035 -1.000000 7.175454
v 0.694563 -1.000000 7.175454
v 0.694563 -1.000000 1.719446
v 2.778182 -1.000000 1.719446
v 2.805514 -1.000000 1.631039
v 2.832387 -1.000000 1.542173
v 2.858802 -1.000000 1.452849
v 2.884757 -1.000000 1.363066
v 2.910253 -1.000000 1.272823
v 2.935290 -1.000000 1.182122
v 2.959868 -1.000000 1.090961
v 2.983986 -1.000000 0.999341
v 3.007645 -1.000000 0.907262
v 3.030844 -1.000000 0.814722
v 3.053583 -1.000000 0.721724
v 3.075862 -1.000000 0.628265
v 2.055705 0.000000 0.425561
v 1.941622 0.000000 0.417870
v 1.764770 0.000000 0.404747
v 1.536288 0.000000 0.385124
v 1.267833 0.000000 0.357139
v 0.971915 0.000000 0.317648
v 0.662847 0.000000 0.261402
v 0.359212 0.000000 0.180101
v 0.089330 0.000000 0.061445
v -0.096871 0.000000 -0.104240
v -0.126179 0.000000 -0.287321
v 0.000000 -1.000000 0.628265
v 1.356035 -1.000000 3.868793
v 5.688658 -1.000000 3.868793
v 5.688658 -1.000000 2.347729
v 1.356035 -1.000000 2.347729
v 1.356035 -1.000000 5.985056
v 5.688658 -1.000000 5.985056
v 5.688658 -1.000000 4.497041
v 1.356035 -1.000000 4.497041
v 0.000000 1.010000 -0.000018
v 7.077749 1.010000 -0.000018
v 7.077749 1.010000 0.628265
v 3.836537 1.009969 0.628265
v 3.814258 1.010000 0.726776
v 3.791521 1.010000 0.823910
v 3.768325 1.010000 0.919667
v 3.744669 1.010000 1.014046
v 3.720554 1.010000 1.107046
v 3.695979 1.010000 1.198669
v 3.670943 1.010000 1.288913
v 3.645448 1.010000 1.377778
v 3.619491 1.009969 1.465264
v 3.593074 1.010000 1.551371
v 3.566196 1.010000 1.636098
v 3.538857 1.010000 1.719446
v 3.576275 1.010000 1.719446
v 3.682023 1.010000 1.719446
v 3.846339 1.010000 1.719446
v 4.059463 1.010000 1.719446
v 4.311631 1.010000 1.719446
v 4.593084 1.010000 1.719446
v 4.894060 1.010000 1.719446
v 5.204796 1.010000 1.719446
v 5.515533 1.010000 1.719446
v 5.816509 1.010000 1.719446
v 6.097961 1.010000 1.719446
v 6.350130 1.010000 1.719446
v 6.350130 1.010000 7.175454
v 5.688658 1.010000 7.175454
v 5.688658 1.010000 6.613304
v 1.356035 1.010000 6.613304
v 1.356035 1.010000 7.175454
v 0.694563 1.010000 7.175454
v 0.694563 1.010000 1.719446
v 2.778182 1.010000 1.719446
v 2.805514 1.010000 1.631039
v 2.832387 1.010000 1.542173
v 2.858802 1.010000 1.452849
v 2.884757 1.010000 1.363066
v 2.910253 1.010000 1.272823
v 2.935290 1.010000 1.182122
v 2.959868 1.010000 1.090961
v 2.983986 1.010000 0.999341
v 3.007645 1.010000 0.907262
v 3.030844 1.010000 0.814722
v 3.053583 1.010000 0.721724
v 3.075862 1.009969 0.628265
v 2.055705 0.010000 0.425561
v 1.941622 0.010000 0.417870
v 1.764770 0.010000 0.404747
v 1.536288 0.010000 0.385124
v 1.267833 0.010000 0.357139
v 0.971915 0.010000 0.317648
v 0.662847 0.010000 0.261402
v 0.359212 0.010000 0.180101
v 0.089330 0.010000 0.061445
v -0.096871 0.010000 -0.104240
v -0.126179 0.010000 -0.287321
v 0.000000 1.010000 0.628265
v 1.356035 1.010000 3.868793
v 5.688658 1.010000 3.868793
v 5.688658 1.010000 2.347729
v 1.356035 1.010000 2.347729
v 1.356035 1.010000 5.985056
v 5.688658 1.010000 5.985056
v 5.688658 1.010000 4.497041
v 1.356035 1.010000 4.497041
vn 0.000000 1.000000 0.000000
vn 0.000000 0.000000 1.000000
vn 0.000000 -1.000000 0.000000
vn 0.000000 0.000000 -1.000000
vn -0.969995 0.000000 -0.243126
vn 1.000000 0.000000 0.000000
vn -1.000000 0.000000 0.000000
vn -0.963607 0.000000 -0.267323
vn 0.963949 0.000000 0.266087
vn 0.965524 0.000000 0.260315
vn 0.969984 0.000000 0.243167
vn -0.971891 0.000000 -0.235432
vn -0.967987 0.000000 -0.251002
vn -0.950188 0.000000 -0.311677
vn 0.960663 0.000000 0.277718
vn -0.953188 0.000000 -0.302378
vn 0.972743 0.000000 0.231886
vn -0.965860 0.000000 -0.259066
vn 0.967055 0.000000 0.254569
vn -0.975368 0.000000 -0.220582
vn -0.958695 0.000000 -0.284437
vn -0.961222 0.000000 -0.275776
vn 0.968541 0.000000 0.248853
vn -0.973680 0.000000 -0.227920
vn -0.956020 0.000000 -0.293303
vn 0.955383 0.000000 0.295368
vn 0.962329 0.000000 0.271888
vn 0.971384 0.000000 0.237513
vn 0.957190 0.000000 0.289459
vn 0.958950 0.000000 0.283574
vn 0.000040 -1.000000 -0.000301
vn 0.000000 0.198664 0.980068
vn -0.063670 0.322337 0.944481
vn -0.069769 0.333286 0.940241
vn -0.080156 0.350065 0.933290
vn -0.096232 0.372286 0.923116
vn -0.121236 0.400013 0.908456
vn -0.161436 0.432448 0.887089
vn -0.228929 0.465405 0.854979
vn -0.351936 0.485163 0.800473
vn -0.598625 0.434804 0.672750
vn -0.987228 0.020131 0.158039
vn 0.000034 -1.000000 0.000359
vn 0.000040 -1.000000 0.000010
vn 0.000004 -1.000000 -0.000352
vn 0.000000 1.000000 -0.000310
vn 0.000002 1.000000 -0.000326
vn -0.000002 -0.198667 0.980067
vn -0.063670 -0.322337 0.944481
vn -0.069769 -0.333286 0.940241
vn -0.080156 -0.350065 0.933290
vn -0.096232 -0.372286 0.923116
vn -0.121236 -0.400013 0.908456
vn -0.161436 -0.432448 0.887089
vn -0.228929 -0.465405 0.854979
vn -0.351936 -0.485163 0.800473
vn -0.598625 -0.434804 0.672750
vn -0.987228 -0.020131 0.158039
vn 0.000000 1.000000 -0.000002
vn 0.000000 1.000000 0.000002
vn 0.000034 1.000000 0.000358
vn 0.000040 1.000000 0.000012
vn 0.000004 1.000000 -0.000352
vn 0.000000 1.000000 0.000001
vn 0.000000 1.000000 -0.000007
vn 0.000000 1.000000 -0.000001
vn 0.969995 0.000000 0.243125
vn -0.067260 0.000000 0.997735
vn -0.074000 0.000000 0.997258
vn -0.402478 0.000000 0.915430
vn 0.963607 0.000000 0.267323
vn -0.963949 0.000000 -0.266087
vn -0.103684 0.000000 0.994610
vn -0.965524 0.000000 -0.260315
vn -0.969984 0.000000 -0.243167
vn 0.971891 0.000000 0.235433
vn 0.967987 0.000000 0.251002
vn 0.950188 0.000000 0.311677
vn -0.258649 0.000000 0.965971
vn -0.960663 0.000000 -0.277718
vn 0.953188 0.000000 0.302378
vn -0.194889 0.000000 0.980825
vn -0.972743 0.000000 -0.231886
vn 0.990637 0.000000 -0.136522
vn 0.965860 0.000000 0.259066
vn -0.179044 0.000000 0.983841
vn -0.987428 0.000000 0.158071
vn -0.967055 0.000000 -0.254569
vn 0.975369 0.000000 0.220582
vn 0.958695 0.000000 0.284437
vn -0.132280 0.000000 0.991212
vn 0.961222 0.000000 0.275776
vn -0.968541 0.000000 -0.248853
vn 0.973680 0.000000 0.227920
vn -0.085571 0.000000 0.996332
vn 0.956020 0.000000 0.293303
vn -0.955383 0.000000 -0.295368
vn -0.664751 0.000000 0.747065
vn -0.962329 0.000000 -0.271888
vn -0.971384 0.000000 -0.237513
vn -0.957191 0.000000 -0.289459
vn -0.958950 0.000000 -0.283574
usemtl SVGMat.001
s off
f 3//1 2//1 1//1
f 3//1 1//1 60//1
f 4//2 3//2 60//2
f 5//1 4//1 48//1
f 48//2 4//2 60//2
f 5//1 48//1 47//1
f 49//2 48//2 60//2
f 50//2 49//2 60//2
f 51//2 50//2 60//2
f 52//2 51//2 60//2
f 53//2 52//2 60//2
f 54//2 53//2 60//2
f 55//2 54//2 60//2
f 56//2 55//2 60//2
f 57//2 56//2 60//2
f 58//2 57//2 60//2
f 59//2 58//2 60//2
f 5//1 47//1 46//1
f 6//1 5//1 46//1
f 6//1 46//1 45//1
f 7//1 6//1 45//1
f 7//1 45//1 44//1
f 8//1 7//1 44//1
f 8//1 44//1 43//1
f 9//1 8//1 43//1
f 9//1 43//1 42//1
f 10//1 9//1 42//1
f 10//1 42//1 41//1
f 11//1 10//1 41//1
f 11//1 41//1 40//1
f 12//1 11//1 40//1
f 12//1 40//1 39//1
f 13//1 12//1 39//1
f 13//1 39//1 38//1
f 14//1 13//1 38//1
f 14//1 38//1 37//1
f 15//1 14//1 37//1
f 15//1 37//1 36//1
f 16//1 15//1 36//1
f 29//1 28//1 27//1
f 29//1 27//1 26//1
f 29//1 26//1 63//1
f 63//1 26//1 25//1
f 63//1 25//1 24//1
f 63//1 24//1 23//1
f 63//1 23//1 22//1
f 63//1 22//1 21//1
f 63//1 21//1 20//1
f 63//1 20//1 19//1
f 63//1 19//1 18//1
f 63//1 18//1 17//1
f 63//1 17//1 16//1
f 63//1 16//1 36//1
f 63//1 36//1 35//1
f 63//1 35//1 64//1
f 64//1 35//1 34//1
f 29//1 63//1 62//1
f 61//1 64//1 34//1
f 29//1 62//1 67//1
f 67//1 62//1 61//1
f 67//1 61//1 68//1
f 68//1 61//1 34//1
f 29//1 67//1 66//1
f 65//1 68//1 34//1
f 29//1 66//1 31//1
f 31//1 66//1 65//1
f 31//1 65//1 32//1
f 32//1 65//1 34//1
f 29//1 31//1 30//1
f 33//1 32//1 34//1
f 71//3 69//3 70//3
f 71//3 128//3 69//3
f 72//2 128//2 71//2
f 73//3 116//3 72//3
f 116//2 128//2 72//2
f 73//3 115//3 116//3
f 117//4 128//4 116//4
f 118//2 128//2 117//2
f 119//2 128//2 118//2
f 120//4 128//4 119//4
f 121//2 128//2 120//2
f 122//2 128//2 121//2
f 123//2 128//2 122//2
f 124//2 128//2 123//2
f 125//2 128//2 124//2
f 126//2 128//2 125//2
f 127//2 128//2 126//2
f 73//3 114//3 115//3
f 74//3 114//3 73//3
f 74//3 113//3 114//3
f 75//3 113//3 74//3
f 75//3 112//3 113//3
f 76//3 112//3 75//3
f 76//3 111//3 112//3
f 77//3 111//3 76//3
f 77//3 110//3 111//3
f 78//3 110//3 77//3
f 78//3 109//3 110//3
f 79//3 109//3 78//3
f 79//3 108//3 109//3
f 80//3 108//3 79//3
f 80//3 107//3 108//3
f 81//3 107//3 80//3
f 81//3 106//3 107//3
f 82//3 106//3 81//3
f 82//3 105//3 106//3
f 83//3 105//3 82//3
f 83//3 104//3 105//3
f 84//3 104//3 83//3
f 97//3 95//3 96//3
f 97//3 94//3 95//3
f 97//3 131//3 94//3
f 131//3 93//3 94//3
f 131//3 92//3 93//3
f 131//3 91//3 92//3
f 131//3 90//3 91//3
f 131//3 89//3 90//3
f 131//3 88//3 89//3
f 131//3 87//3 88//3
f 131//3 86//3 87//3
f 131//3 85//3 86//3
f 131//3 84//3 85//3
f 131//3 104//3 84//3
f 131//3 103//3 104//3
f 131//3 132//3 103//3
f 132//3 102//3 103//3
f 97//3 130//3 131//3
f 129//3 102//3 132//3
f 97//3 135//3 130//3
f 135//3 129//3 130//3
f 135//3 136//3 129//3
f 136//3 102//3 129//3
f 97//3 134//3 135//3
f 133//3 102//3 136//3
f 97//3 99//3 134//3
f 99//3 133//3 134//3
f 99//3 100//3 133//3
f 100//3 102//3 133//3
f 97//3 98//3 99//3
f 101//3 102//3 100//3
f 7//5 8//5 76//5 75//5
f 49//4 50//4 118//4 117//4
f 66//6 67//6 135//6 134//6
f 32//7 33//7 101//7 100//7
f 50//4 51//4 119//4 118//4
f 56//4 57//4 125//4 124//4
f 3//4 4//4 72//4 71//4
f 10//8 11//8 79//8 78//8
f 41//9 42//9 110//9 109//9
f 52//4 53//4 121//4 120//4
f 42//10 43//10 111//10 110//10
f 31//4 32//4 100//4 99//4
f 45//11 46//11 114//11 113//11
f 6//12 7//12 75//12 74//12
f 8//13 9//13 77//13 76//13
f 16//2 17//2 85//2 84//2
f 17//2 18//2 86//2 85//2
f 63//4 64//4 132//4 131//4
f 15//14 16//14 84//14 83//14
f 1//2 2//2 70//2 69//2
f 60//6 1//6 69//6 128//6
f 55//4 56//4 124//4 123//4
f 39//15 40//15 108//15 107//15
f 14//16 15//16 83//16 82//16
f 48//4 49//4 117//4 116//4
f 64//7 61//7 129//7 132//7
f 30//6 31//6 99//6 98//6
f 21//2 22//2 90//2 89//2
f 20//2 21//2 89//2 88//2
f 47//17 48//17 116//17 115//17
f 59//4 60//4 128//4 127//4
f 9//18 10//18 78//18 77//18
f 54//4 55//4 123//4 122//4
f 61//2 62//2 130//2 129//2
f 35//2 36//2 104//2 103//2
f 34//6 35//6 103//6 102//6
f 26//2 27//2 95//2 94//2
f 58//4 59//4 127//4 126//4
f 25//2 26//2 94//2 93//2
f 43//19 44//19 112//19 111//19
f 4//20 5//20 73//20 72//20
f 12//21 13//21 81//21 80//21
f 67//4 68//4 136//4 135//4
f 2//7 3//7 71//7 70//7
f 22//2 23//2 91//2 90//2
f 62//6 63//6 131//6 130//6
f 53//4 54//4 122//4 121//4
f 65//2 66//2 134//2 133//2
f 11//22 12//22 80//22 79//22
f 44//23 45//23 113//23 112//23
f 23//2 24//2 92//2 91//2
f 28//7 29//7 97//7 96//7
f 5//24 6//24 74//24 73//24
f 24//2 25//2 93//2 92//2
f 27//2 28//2 96//2 95//2
f 18//2 19//2 87//2 86//2
f 33//4 34//4 102//4 101//4
f 51//4 52//4 120//4 119//4
f 13//25 14//25 82//25 81//25
f 19//2 20//2 88//2 87//2
f 36//26 37//26 105//26 104//26
f 57//4 58//4 126//4 125//4
f 40//27 41//27 109//27 108//27
f 29//4 30//4 98//4 97//4
f 46//28 47//28 115//28 114//28
f 37//29 38//29 106//29 105//29
f 68//7 65//7 133//7 136//7
f 38//30 39//30 107//30 106//30
f 137//3 138//3 139//3
f 196//3 137//3 139//3
f 196//2 139//2 140//2
f 184//31 140//31 141//31
f 196//4 140//4 184//4
f 183//3 184//3 141//3
f 196//32 184//32 185//32
f 196//33 185//33 186//33
f 196//34 186//34 187//34
f 196//35 187//35 188//35
f 196//36 188//36 189//36
f 196//37 189//37 190//37
f 196//38 190//38 191//38
f 196//39 191//39 192//39
f 196//40 192//40 193//40
f 196//41 193//41 194//41
f 196//42 194//42 195//42
f 182//3 183//3 141//3
f 182//3 141//3 142//3
f 181//3 182//3 142//3
f 181//3 142//3 143//3
f 180//3 181//3 143//3
f 180//3 143//3 144//3
f 179//3 180//3 144//3
f 179//3 144//3 145//3
f 178//3 179//3 145//3
f 178//3 145//3 146//3
f 177//3 178//3 146//3
f 177//3 146//3 147//3
f 176//3 177//3 147//3
f 176//3 147//3 148//3
f 175//3 176//3 148//3
f 175//43 148//43 149//43
f 174//44 175//44 149//44
f 174//45 149//45 150//45
f 173//3 174//3 150//3
f 173//3 150//3 151//3
f 172//3 173//3 151//3
f 172//3 151//3 152//3
f 163//3 164//3 165//3
f 162//3 163//3 165//3
f 199//3 162//3 165//3
f 161//3 162//3 199//3
f 160//3 161//3 199//3
f 159//3 160//3 199//3
f 158//3 159//3 199//3
f 157//3 158//3 199//3
f 156//3 157//3 199//3
f 155//3 156//3 199//3
f 154//3 155//3 199//3
f 153//3 154//3 199//3
f 152//3 153//3 199//3
f 172//3 152//3 199//3
f 171//3 172//3 199//3
f 200//3 171//3 199//3
f 170//3 171//3 200//3
f 198//3 199//3 165//3
f 170//3 200//3 197//3
f 203//3 198//3 165//3
f 197//3 198//3 203//3
f 204//3 197//3 203//3
f 170//3 197//3 204//3
f 202//3 203//3 165//3
f 170//3 204//3 201//3
f 167//3 202//3 165//3
f 201//3 202//3 167//3
f 168//3 201//3 167//3
f 170//3 201//3 168//3
f 166//3 167//3 165//3
f 170//3 168//3 169//3
f 206//1 205//1 207//1
f 205//1 264//1 207//1
f 207//2 264//2 208//2
f 208//46 252//46 209//46
f 208//2 264//2 252//2
f 252//47 251//47 209//47
f 252//48 264//48 253//48
f 253//49 264//49 254//49
f 254//50 264//50 255//50
f 255//51 264//51 256//51
f 256//52 264//52 257//52
f 257//53 264//53 258//53
f 258//54 264//54 259//54
f 259//55 264//55 260//55
f 260//56 264//56 261//56
f 261//57 264//57 262//57
f 262//58 264//58 263//58
f 251//1 250//1 209//1
f 209//1 250//1 210//1
f 250//1 249//1 210//1
f 210//59 249//59 211//59
f 249//1 248//1 211//1
f 211//1 248//1 212//1
f 248//59 247//59 212//59
f 212//1 247//1 213//1
f 247//1 246//1 213//1
f 213//1 246//1 214//1
f 246//1 245//1 214//1
f 214//60 245//60 215//60
f 245//1 244//1 215//1
f 215//1 244//1 216//1
f 244//60 243//60 216//60
f 216//61 243//61 217//61
f 243//62 242//62 217//62
f 217//63 242//63 218//63
f 242//1 241//1 218//1
f 218//60 241//60 219//60
f 241//1 240//1 219//1
f 219//1 240//1 220//1
f 232//1 231//1 233//1
f 231//1 230//1 233//1
f 230//1 267//1 233//1
f 230//1 229//1 267//1
f 229//1 228//1 267//1
f 228//64 227//64 267//64
f 227//1 226//1 267//1
f 226//1 225//1 267//1
f 225//59 224//59 267//59
f 224//1 223//1 267//1
f 223//1 222//1 267//1
f 222//65 221//65 267//65
f 221//1 220//1 267//1
f 220//1 240//1 267//1
f 240//66 239//66 267//66
f 239//1 268//1 267//1
f 239//1 238//1 268//1
f 267//1 266//1 233//1
f 268//1 238//1 265//1
f 266//1 271//1 233//1
f 266//1 265//1 271//1
f 265//1 272//1 271//1
f 265//1 238//1 272//1
f 271//1 270//1 233//1
f 272//1 238//1 269//1
f 270//1 235//1 233//1
f 270//1 269//1 235//1
f 269//1 236//1 235//1
f 269//1 238//1 236//1
f 235//1 234//1 233//1
f 236//1 238//1 237//1
f 211//67 212//67 144//67 143//67
f 253//68 254//68 186//68 185//68
f 270//7 271//7 203//7 202//7
f 236//6 237//6 169//6 168//6
f 254//69 255//69 187//69 186//69
f 260//70 261//70 193//70 192//70
f 207//2 208//2 140//2 139//2
f 214//71 215//71 147//71 146//71
f 245//72 246//72 178//72 177//72
f 256//73 257//73 189//73 188//73
f 246//74 247//74 179//74 178//74
f 235//2 236//2 168//2 167//2
f 249//75 250//75 182//75 181//75
f 210//76 211//76 143//76 142//76
f 212//77 213//77 145//77 144//77
f 220//4 221//4 153//4 152//4
f 221//4 222//4 154//4 153//4
f 267//2 268//2 200//2 199//2
f 219//78 220//78 152//78 151//78
f 205//4 206//4 138//4 137//4
f 264//7 205//7 137//7 196//7
f 259//79 260//79 192//79 191//79
f 243//80 244//80 176//80 175//80
f 218//81 219//81 151//81 150//81
f 252//82 253//82 185//82 184//82
f 268//6 265//6 197//6 200//6
f 234//7 235//7 167//7 166//7
f 225//4 226//4 158//4 157//4
f 224//4 225//4 157//4 156//4
f 251//83 252//83 184//83 183//83
f 263//84 264//84 196//84 195//84
f 213//85 214//85 146//85 145//85
f 258//86 259//86 191//86 190//86
f 265//4 266//4 198//4 197//4
f 239//4 240//4 172//4 171//4
f 238//7 239//7 171//7 170//7
f 230//4 231//4 163//4 162//4
f 262//87 263//87 195//87 194//87
f 229//4 230//4 162//4 161//4
f 247//88 248//88 180//88 179//88
f 208//89 209//89 141//89 140//89
f 216//90 217//90 149//90 148//90
f 271//2 272//2 204//2 203//2
f 206//6 207//6 139//6 138//6
f 226//4 227//4 159//4 158//4
f 266//7 267//7 199//7 198//7
f 257//91 258//91 190//91 189//91
f 269//4 270//4 202//4 201//4
f 215//92 216//92 148//92 147//92
f 248//93 249//93 181//93 180//93
f 227//4 228//4 160//4 159//4
f 232//6 233//6 165//6 164//6
f 209//94 210//94 142//94 141//94
f 228//4 229//4 161//4 160//4
f 231//4 232//4 164//4 163//4
f 222//4 223//4 155//4 154//4
f 237//2 238//2 170//2 169//2
f 255//95 256//95 188//95 187//95
f 217//96 218//96 150//96 149//96
f 223//4 224//4 156//4 155//4
f 240//97 241//97 173//97 172//97
f 261//98 262//98 194//98 193//98
f 244//99 245//99 177//99 176//99
f 233//2 234//2 166//2 165//2
f 250//100 251//100 183//100 182//100
f 241//101 242//101 174//101 173//101
f 272//6 269//6 201//6 204//6
f 242//102 243//102 175//102 174//102
