# Blender v2.69 (sub 0) OBJ File: ''
# www.blender.org
mtllib sen.mtl
o Curve_Mesh
v 6.283983 0.000000 0.000000
v 6.846216 0.000000 0.595199
v 6.710254 0.000000 0.628495
v 6.555916 0.000000 0.662249
v 6.383201 0.000000 0.696463
v 6.192111 0.000000 0.731136
v 5.982645 0.000000 0.766268
v 5.754805 0.000000 0.801860
v 5.508590 0.000000 0.837913
v 5.244002 0.000000 0.874425
v 4.961040 0.000000 0.911398
v 4.659706 0.000000 0.948832
v 4.340000 0.000000 0.986726
v 4.001923 0.000000 1.025082
v 4.001923 0.000000 1.052369
v 4.001923 0.000000 1.129485
v 4.001923 0.000000 1.249311
v 4.001923 0.000000 1.404729
v 4.001923 0.000000 1.588621
v 4.001923 0.000000 1.793868
v 4.001923 0.000000 2.013351
v 4.001923 0.000000 2.239953
v 4.001923 0.000000 2.466555
v 4.001923 0.000000 2.686038
v 4.001923 0.000000 2.891285
v 4.001923 0.000000 3.075176
v 7.375394 0.000000 3.075176
v 7.375394 0.000000 3.703460
v 4.001923 0.000000 3.703460
v 4.001923 0.000000 7.473053
v 3.340451 0.000000 7.473053
v 3.340451 0.000000 3.703460
v 0.000000 0.000000 3.703460
v 0.000000 0.000000 3.075176
v 3.340451 0.000000 3.075176
v 3.340451 0.000000 1.124264
v 3.156012 0.000000 1.140797
v 2.966522 0.000000 1.157331
v 2.771980 0.000000 1.173864
v 2.572388 0.000000 1.190397
v 2.367743 0.000000 1.206931
v 2.158047 0.000000 1.223464
v 1.943299 0.000000 1.239997
v 1.723498 0.000000 1.256531
v 1.498645 0.000000 1.273064
v 1.268739 0.000000 1.289597
v 1.033779 0.000000 1.306130
v 0.793766 0.000000 1.322664
v 0.788043 0.000000 1.313861
v 0.771869 0.000000 1.288985
v 0.746738 0.000000 1.250331
v 0.714141 0.000000 1.200195
v 0.675573 0.000000 1.140874
v 0.632526 0.000000 1.074664
v 0.586493 0.000000 1.003862
v 0.538967 0.000000 0.930763
v 0.491440 0.000000 0.857665
v 0.445407 0.000000 0.786862
v 0.402360 0.000000 0.720652
v 0.363792 0.000000 0.661331
v 1.011254 0.000000 0.611272
v 1.630696 0.000000 0.560295
v 2.222117 0.000000 0.508399
v 2.785518 0.000000 0.455584
v 3.320899 0.000000 0.401851
v 3.828259 0.000000 0.347199
v 4.307600 0.000000 0.291629
v 4.758918 0.000000 0.235140
v 5.182216 0.000000 0.177733
v 5.577493 0.000000 0.119407
v 5.944749 0.000000 0.060163
v 6.283983 0.010000 0.000000
v 6.846216 0.010000 0.595199
v 6.710254 0.010000 0.628495
v 6.555916 0.010000 0.662249
v 6.383201 0.010000 0.696463
v 6.192111 0.010000 0.731136
v 5.982645 0.010000 0.766268
v 5.754805 0.010000 0.801860
v 5.508590 0.010000 0.837913
v 5.244002 0.010000 0.874425
v 4.961040 0.010000 0.911398
v 4.659706 0.010000 0.948832
v 4.340000 0.010000 0.986726
v 4.001923 0.010000 1.025082
v 4.001923 0.010000 1.052369
v 4.001923 0.010000 1.129485
v 4.001923 0.010000 1.249311
v 4.001923 0.010000 1.404729
v 4.001923 0.010000 1.588621
v 4.001923 0.010000 1.793868
v 4.001923 0.010000 2.013351
v 4.001923 0.010000 2.239953
v 4.001923 0.010000 2.466555
v 4.001923 0.010000 2.686038
v 4.001923 0.010000 2.891285
v 4.001923 0.010000 3.075176
v 7.375394 0.010000 3.075176
v 7.375394 0.010000 3.703460
v 4.001923 0.010000 3.703460
v 4.001923 0.010000 7.473053
v 3.340451 0.010000 7.473053
v 3.340451 0.010000 3.703460
v 0.000000 0.010000 3.703460
v 0.000000 0.010000 3.075176
v 3.340451 0.010000 3.075176
v 3.340451 0.010000 1.124264
v 3.156012 0.010000 1.140797
v 2.966522 0.010000 1.157331
v 2.771980 0.010000 1.173864
v 2.572388 0.010000 1.190397
v 2.367743 0.010000 1.206931
v 2.158047 0.010000 1.223464
v 1.943299 0.010000 1.239997
v 1.723498 0.010000 1.256531
v 1.498645 0.010000 1.273064
v 1.268739 0.010000 1.289597
v 1.033779 0.010000 1.306130
v 0.793766 0.010000 1.322664
v 0.788043 0.010000 1.313861
v 0.771869 0.010000 1.288985
v 0.746738 0.010000 1.250331
v 0.714141 0.010000 1.200195
v 0.675573 0.010000 1.140874
v 0.632526 0.010000 1.074664
v 0.586493 0.010000 1.003862
v 0.538967 0.010000 0.930763
v 0.491440 0.010000 0.857665
v 0.445407 0.010000 0.786862
v 0.402360 0.010000 0.720652
v 0.363792 0.010000 0.661331
v 1.011254 0.010000 0.611272
v 1.630696 0.010000 0.560295
v 2.222117 0.010000 0.508399
v 2.785518 0.010000 0.455584
v 3.320899 0.010000 0.401851
v 3.828259 0.010000 0.347199
v 4.307600 0.010000 0.291629
v 4.758918 0.010000 0.235140
v 5.182216 0.010000 0.177733
v 5.577493 0.010000 0.119407
v 5.944749 0.010000 0.060163
v 6.283983 -1.000000 0.000000
v 6.846216 -1.000000 0.595199
v 6.710254 -1.000000 0.628495
v 6.555916 -0.999970 0.662249
v 6.383201 -1.000000 0.696463
v 6.192111 -1.000000 0.731136
v 5.982645 -1.000000 0.766268
v 5.754805 -0.999970 0.801860
v 5.508590 -1.000000 0.837913
v 5.244002 -1.000000 0.874425
v 4.961040 -1.000000 0.911398
v 4.659706 -1.000000 0.948832
v 4.340000 -1.000000 0.986726
v 4.001923 -1.000000 1.025082
v 4.001923 -1.000000 1.052369
v 4.001923 -1.000000 1.129485
v 4.001923 -1.000000 1.249311
v 4.001923 -1.000000 1.404729
v 4.001923 -1.000000 1.588621
v 4.001923 -1.000000 1.793868
v 4.001923 -1.000000 2.013351
v 4.001923 -1.000000 2.239953
v 4.001923 -1.000000 2.466555
v 4.001923 -1.000000 2.686038
v 4.001923 -1.000000 2.891285
v 4.001923 -1.000000 3.075176
v 7.375394 -1.000000 3.075176
v 7.375394 -1.000000 3.703460
v 4.001923 -1.000000 3.703460
v 4.001923 -1.000000 7.473053
v 3.340451 -1.000000 7.473053
v 3.340451 -1.000000 3.703460
v 0.000000 -1.000000 3.703460
v 0.000000 -1.000000 3.075176
v 3.340451 -1.000000 3.075176
v 3.340451 -1.000000 1.124264
v 3.156012 -1.000000 1.140797
v 2.966522 -1.000000 1.157331
v 2.771980 -0.999970 1.173864
v 2.572388 -1.000000 1.190397
v 2.367743 -1.000000 1.206931
v 2.158047 -1.000000 1.223464
v 1.943299 -1.000000 1.239997
v 1.723498 -1.000000 1.256531
v 1.498645 -1.000000 1.273064
v 1.268739 -1.000000 1.289597
v 1.033779 -1.000000 1.306130
v 0.793766 -1.000000 1.322664
v 0.788043 -1.000000 1.313861
v 0.771869 -1.000000 1.288985
v 0.746738 -0.999970 1.250331
v 0.714141 -1.000000 1.200195
v 0.675573 -1.000000 1.140874
v 0.632526 -1.000000 1.074664
v 0.586493 -1.000000 1.003862
v 0.538967 -1.000000 0.930763
v 0.491440 -1.000000 0.857665
v 0.445407 -1.000000 0.786862
v 0.402360 -0.999970 0.720652
v 0.363792 -1.000000 0.661331
v 1.011254 -1.000000 0.611272
v 1.630696 -0.999970 0.560295
v 2.222117 -0.999970 0.508399
v 2.785518 -1.000000 0.455584
v 3.320899 -1.000000 0.401851
v 3.828259 -1.000000 0.347199
v 4.307600 -1.000000 0.291629
v 4.758918 -1.000000 0.235140
v 5.182216 -0.999970 0.177733
v 5.577493 -1.000000 0.119407
v 5.944749 -1.000000 0.060163
v 6.283983 1.010000 0.000000
v 6.846216 1.010000 0.595199
v 6.710254 1.010000 0.628495
v 6.555916 1.009969 0.662249
v 6.383201 1.010000 0.696463
v 6.192111 1.010000 0.731136
v 5.982645 1.010000 0.766268
v 5.754805 1.009969 0.801860
v 5.508590 1.010000 0.837913
v 5.244002 1.010000 0.874425
v 4.961040 1.010000 0.911398
v 4.659706 1.010000 0.948832
v 4.340000 1.010000 0.986726
v 4.001923 1.010000 1.025082
v 4.001923 1.010000 1.052369
v 4.001923 1.010000 1.129485
v 4.001923 1.010000 1.249311
v 4.001923 1.010000 1.404729
v 4.001923 1.010000 1.588621
v 4.001923 1.010000 1.793868
v 4.001923 1.010000 2.013351
v 4.001923 1.010000 2.239953
v 4.001923 1.010000 2.466555
v 4.001923 1.010000 2.686038
v 4.001923 1.010000 2.891285
v 4.001923 1.010000 3.075176
v 7.375394 1.010000 3.075176
v 7.375394 1.010000 3.703460
v 4.001923 1.010000 3.703460
v 4.001923 1.010000 7.473053
v 3.340451 1.010000 7.473053
v 3.340451 1.010000 3.703460
v 0.000000 1.010000 3.703460
v 0.000000 1.010000 3.075176
v 3.340451 1.010000 3.075176
v 3.340451 1.010000 1.124264
v 3.156012 1.010000 1.140797
v 2.966522 1.010000 1.157331
v 2.771980 1.009969 1.173864
v 2.572388 1.010000 1.190397
v 2.367743 1.010000 1.206931
v 2.158047 1.010000 1.223464
v 1.943299 1.010000 1.239997
v 1.723498 1.010000 1.256531
v 1.498645 1.010000 1.273064
v 1.268739 1.010000 1.289597
v 1.033779 1.010000 1.306130
v 0.793766 1.010000 1.322664
v 0.788043 1.010000 1.313861
v 0.771869 1.010000 1.288985
v 0.746738 1.009969 1.250331
v 0.714141 1.010000 1.200195
v 0.675573 1.010000 1.140874
v 0.632526 1.010000 1.074664
v 0.586493 1.010000 1.003862
v 0.538967 1.010000 0.930763
v 0.491440 1.010000 0.857665
v 0.445407 1.010000 0.786862
v 0.402360 1.009969 0.720652
v 0.363792 1.010000 0.661331
v 1.011254 1.010000 0.611272
v 1.630696 1.010000 0.560295
v 2.222117 1.009969 0.508399
v 2.785518 1.010000 0.455584
v 3.320899 1.010000 0.401851
v 3.828259 1.010000 0.347199
v 4.307600 1.010000 0.291629
v 4.758918 1.010000 0.235140
v 5.182216 1.009969 0.177733
v 5.577493 1.010000 0.119407
v 5.944749 1.010000 0.060163
vn 0.000000 1.000000 0.000000
vn 0.000000 0.000000 1.000000
vn 0.000000 -1.000000 -0.000000
vn 0.077086 0.000000 0.997025
vn -0.237863 0.000000 -0.971299
vn -1.000000 0.000000 0.000000
vn -0.089283 0.000000 -0.996006
vn -0.071728 0.000000 -0.997424
vn -0.082553 0.000000 -0.996587
vn 0.838381 0.000000 -0.545085
vn 0.107098 0.000000 0.994248
vn -0.194317 0.000000 -0.980939
vn -0.080528 0.000000 -0.996752
vn -0.117706 0.000000 -0.993048
vn 0.000000 0.000000 -1.000000
vn -0.084681 0.000000 -0.996408
vn -0.154344 0.000000 -0.988017
vn 1.000000 0.000000 0.000000
vn -0.726951 0.000000 0.686689
vn -0.165414 0.000000 -0.986224
vn -0.070193 0.000000 -0.997533
vn -0.086921 0.000000 -0.996215
vn 0.174624 0.000000 0.984635
vn -0.078600 0.000000 -0.996906
vn -0.123279 0.000000 -0.992372
vn -0.213656 0.000000 -0.976909
vn 0.124195 0.000000 0.992258
vn 0.838382 0.000000 -0.545084
vn 0.115159 0.000000 0.993347
vn -0.112729 0.000000 -0.993626
vn 0.838376 0.000000 -0.545093
vn 0.838380 0.000000 -0.545085
vn 0.838381 0.000000 -0.545084
vn 0.099863 0.000000 0.995001
vn -0.144881 0.000000 -0.989449
vn 0.082019 0.000000 0.996631
vn -0.073332 0.000000 -0.997308
vn -0.178533 0.000000 -0.983934
vn 0.159257 0.000000 0.987237
vn 0.093333 0.000000 0.995635
vn -0.075007 0.000000 -0.997183
vn 0.134389 0.000000 0.990929
vn 0.087412 0.000000 0.996172
vn -0.076763 0.000000 -0.997049
vn 0.145976 0.000000 0.989288
vn -0.068723 0.000000 -0.997636
vn -0.129563 0.000000 -0.991571
vn -0.136702 0.000000 -0.990612
vn -0.000055 -1.000000 0.000147
vn 0.000040 -1.000000 -0.000234
vn 0.000000 -1.000000 0.000002
vn -0.000015 -1.000000 0.000423
vn -0.000005 -1.000000 -0.000062
vn -0.000002 -1.000000 -0.000617
vn 0.000005 -1.000000 0.000925
vn 0.000005 -1.000000 0.000509
vn -0.000009 -1.000000 -0.000935
vn -0.000005 -1.000000 -0.000028
vn -0.000004 -1.000000 -0.000456
vn 0.000003 -1.000000 0.000879
vn 0.000006 -1.000000 -0.000005
vn -0.000003 -1.000000 -0.000868
vn 0.000000 -1.000000 0.000003
vn 0.000000 -1.000000 -0.000003
vn 0.000000 -1.000000 0.000012
vn 0.000045 -0.999997 0.002383
vn -0.000010 -0.999998 -0.001977
vn -0.000002 -1.000000 0.000608
vn -0.000028 -1.000000 -0.000350
vn -0.000029 -1.000000 -0.000380
vn -0.000029 -1.000000 -0.000381
vn -0.000026 -1.000000 -0.000774
vn -0.000055 1.000000 0.000148
vn 0.000040 1.000000 -0.000235
vn 0.000000 1.000000 0.000002
vn -0.000015 1.000000 0.000423
vn 0.000004 1.000000 -0.000547
vn 0.000005 1.000000 0.000926
vn 0.000005 1.000000 0.000512
vn -0.000009 1.000000 -0.000942
vn -0.000005 1.000000 -0.000024
vn -0.000004 1.000000 -0.000458
vn 0.000003 1.000000 0.000877
vn 0.000006 1.000000 -0.000005
vn -0.000003 1.000000 -0.000872
vn 0.000000 1.000000 0.000006
vn 0.000000 1.000000 0.000026
vn 0.000000 1.000000 -0.000005
vn 0.000000 1.000000 0.000012
vn 0.000000 1.000000 -0.000004
vn 0.000045 0.999997 0.002392
vn -0.000010 0.999998 -0.001981
vn -0.000002 1.000000 0.000608
vn -0.000029 1.000000 -0.000364
vn -0.000029 1.000000 -0.000380
vn -0.000029 1.000000 -0.000374
vn -0.000026 1.000000 -0.000774
vn 0.000000 1.000000 0.000005
vn 0.000000 1.000000 -0.000010
vn -0.077086 0.000000 -0.997024
vn 0.237863 0.000000 0.971299
vn 0.089282 0.000000 0.996006
vn 0.071728 0.000000 0.997424
vn 0.082553 0.000000 0.996587
vn -0.838381 0.000000 0.545085
vn -0.107098 0.000000 -0.994248
vn 0.194317 0.000000 0.980939
vn 0.080528 0.000000 0.996752
vn 0.117706 0.000000 0.993048
vn 0.084680 0.000000 0.996408
vn 0.154344 0.000000 0.988017
vn 0.726951 0.000000 -0.686689
vn 0.165414 0.000000 0.986224
vn 0.070193 0.000000 0.997533
vn 0.086921 0.000000 0.996215
vn -0.174624 0.000000 -0.984635
vn -0.838381 0.000000 0.545084
vn 0.078600 0.000000 0.996906
vn 0.123279 0.000000 0.992372
vn 0.213655 0.000000 0.976909
vn -0.124195 0.000000 -0.992258
vn -0.838382 0.000000 0.545084
vn -0.115159 0.000000 -0.993347
vn 0.112729 0.000000 0.993626
vn -0.838375 0.000000 0.545093
vn -0.838380 0.000000 0.545087
vn -0.099863 0.000000 -0.995001
vn 0.144881 0.000000 0.989449
vn -0.082019 0.000000 -0.996631
vn 0.073331 0.000000 0.997308
vn 0.178533 0.000000 0.983934
vn -0.159257 0.000000 -0.987237
vn -0.093333 0.000000 -0.995635
vn 0.075008 0.000000 0.997183
vn -0.134389 0.000000 -0.990929
vn -0.087412 0.000000 -0.996172
vn 0.076762 0.000000 0.997049
vn -0.145976 0.000000 -0.989288
vn 0.068723 0.000000 0.997636
vn 0.129563 0.000000 0.991571
vn 0.136702 0.000000 0.990612
usemtl SVGMat.001
s off
f 2//1 1//1 71//1
f 2//1 71//1 70//1
f 2//1 70//1 69//1
f 2//1 69//1 68//1
f 2//1 68//1 67//1
f 2//1 67//1 66//1
f 2//1 66//1 65//1
f 2//1 65//1 64//1
f 2//1 64//1 63//1
f 2//1 63//1 62//1
f 2//1 62//1 61//1
f 3//1 2//1 61//1
f 3//1 61//1 60//1
f 4//1 3//1 60//1
f 4//1 60//1 59//1
f 5//1 4//1 59//1
f 6//1 5//1 59//1
f 6//1 59//1 58//1
f 7//1 6//1 58//1
f 8//1 7//1 58//1
f 8//1 58//1 57//1
f 9//1 8//1 57//1
f 10//1 9//1 57//1
f 10//1 57//1 56//1
f 11//1 10//1 56//1
f 12//1 11//1 56//1
f 12//1 56//1 55//1
f 13//1 12//1 55//1
f 14//1 13//1 55//1
f 14//1 55//1 54//1
f 15//1 14//1 54//1
f 16//1 15//1 54//1
f 16//1 54//1 36//1
f 36//1 54//1 53//1
f 16//1 36//1 35//1
f 37//1 36//1 53//1
f 17//1 16//1 35//1
f 38//1 37//1 53//1
f 38//1 53//1 52//1
f 39//1 38//1 52//1
f 40//1 39//1 52//1
f 41//1 40//1 52//1
f 41//1 52//1 51//1
f 42//1 41//1 51//1
f 43//1 42//1 51//1
f 44//1 43//1 51//1
f 18//1 17//1 35//1
f 44//1 51//1 50//1
f 45//1 44//1 50//1
f 46//1 45//1 50//1
f 46//1 50//1 49//1
f 47//1 46//1 49//1
f 48//1 47//1 49//1
f 19//1 18//1 35//1
f 20//1 19//1 35//1
f 21//1 20//1 35//1
f 22//1 21//1 35//1
f 23//1 22//1 35//1
f 24//1 23//1 35//1
f 25//1 24//1 35//1
f 26//1 25//1 35//1
f 28//1 27//1 26//1
f 28//1 26//1 35//1
f 28//1 35//1 34//1
f 28//1 34//1 33//1
f 29//2 28//2 33//2
f 30//1 29//1 32//1
f 32//2 29//2 33//2
f 30//1 32//1 31//1
f 73//3 142//3 72//3
f 73//3 141//3 142//3
f 73//3 140//3 141//3
f 73//3 139//3 140//3
f 73//3 138//3 139//3
f 73//3 137//3 138//3
f 73//3 136//3 137//3
f 73//3 135//3 136//3
f 73//3 134//3 135//3
f 73//3 133//3 134//3
f 73//3 132//3 133//3
f 74//3 132//3 73//3
f 74//3 131//3 132//3
f 75//3 131//3 74//3
f 75//3 130//3 131//3
f 76//3 130//3 75//3
f 77//3 130//3 76//3
f 77//3 129//3 130//3
f 78//3 129//3 77//3
f 79//3 129//3 78//3
f 79//3 128//3 129//3
f 80//3 128//3 79//3
f 81//3 128//3 80//3
f 81//3 127//3 128//3
f 82//3 127//3 81//3
f 83//3 127//3 82//3
f 83//3 126//3 127//3
f 84//3 126//3 83//3
f 85//3 126//3 84//3
f 85//3 125//3 126//3
f 86//3 125//3 85//3
f 87//3 125//3 86//3
f 87//3 107//3 125//3
f 107//3 124//3 125//3
f 87//3 106//3 107//3
f 108//3 124//3 107//3
f 88//3 106//3 87//3
f 109//3 124//3 108//3
f 109//3 123//3 124//3
f 110//3 123//3 109//3
f 111//3 123//3 110//3
f 112//3 123//3 111//3
f 112//3 122//3 123//3
f 113//3 122//3 112//3
f 114//3 122//3 113//3
f 115//3 122//3 114//3
f 89//3 106//3 88//3
f 115//3 121//3 122//3
f 116//3 121//3 115//3
f 117//3 121//3 116//3
f 117//3 120//3 121//3
f 118//3 120//3 117//3
f 119//3 120//3 118//3
f 90//3 106//3 89//3
f 91//3 106//3 90//3
f 92//3 106//3 91//3
f 93//3 106//3 92//3
f 94//3 106//3 93//3
f 95//3 106//3 94//3
f 96//3 106//3 95//3
f 97//3 106//3 96//3
f 99//3 97//3 98//3
f 99//3 106//3 97//3
f 99//3 105//3 106//3
f 99//3 104//3 105//3
f 100//2 104//2 99//2
f 101//3 103//3 100//3
f 103//2 104//2 100//2
f 101//3 102//3 103//3
f 60//4 61//4 132//4 131//4
f 2//5 3//5 74//5 73//5
f 27//6 28//6 99//6 98//6
f 34//2 35//2 106//2 105//2
f 36//7 37//7 108//7 107//7
f 45//8 46//8 117//8 116//8
f 29//6 30//6 101//6 100//6
f 39//9 40//9 111//9 110//9
f 15//6 16//6 87//6 86//6
f 24//6 25//6 96//6 95//6
f 18//6 19//6 90//6 89//6
f 58//10 59//10 130//10 129//10
f 20//6 21//6 92//6 91//6
f 25//6 26//6 97//6 96//6
f 65//11 66//11 137//11 136//11
f 4//12 5//12 76//12 75//12
f 40//13 41//13 112//13 111//13
f 12//14 13//14 84//14 83//14
f 28//15 29//15 100//15 99//15
f 14//6 15//6 86//6 85//6
f 38//16 39//16 110//16 109//16
f 7//17 8//17 79//17 78//17
f 33//18 34//18 105//18 104//18
f 1//19 2//19 73//19 72//19
f 19//6 20//6 91//6 90//6
f 6//20 7//20 78//20 77//20
f 46//21 47//21 118//21 117//21
f 37//22 38//22 109//22 108//22
f 22//6 23//6 94//6 93//6
f 71//23 1//23 72//23 142//23
f 55//10 56//10 127//10 126//10
f 41//24 42//24 113//24 112//24
f 26//2 27//2 98//2 97//2
f 52//10 53//10 124//10 123//10
f 11//25 12//25 83//25 82//25
f 30//15 31//15 102//15 101//15
f 23//6 24//6 95//6 94//6
f 3//26 4//26 75//26 74//26
f 67//27 68//27 139//27 138//27
f 35//18 36//18 107//18 106//18
f 49//28 50//28 121//28 120//28
f 66//29 67//29 138//29 137//29
f 13//30 14//30 85//30 84//30
f 48//31 49//31 120//31 119//31
f 50//32 51//32 122//32 121//32
f 57//33 58//33 129//33 128//33
f 64//34 65//34 136//34 135//34
f 8//35 9//35 80//35 79//35
f 61//36 62//36 133//36 132//36
f 59//33 60//33 131//33 130//33
f 44//37 45//37 116//37 115//37
f 5//38 6//38 77//38 76//38
f 54//10 55//10 126//10 125//10
f 16//6 17//6 88//6 87//6
f 51//10 52//10 123//10 122//10
f 17//6 18//6 89//6 88//6
f 70//39 71//39 142//39 141//39
f 63//40 64//40 135//40 134//40
f 32//15 33//15 104//15 103//15
f 31//18 32//18 103//18 102//18
f 21//6 22//6 93//6 92//6
f 56//10 57//10 128//10 127//10
f 43//41 44//41 115//41 114//41
f 68//42 69//42 140//42 139//42
f 62//43 63//43 134//43 133//43
f 42//44 43//44 114//44 113//44
f 69//45 70//45 141//45 140//45
f 53//10 54//10 125//10 124//10
f 47//46 48//46 119//46 118//46
f 10//47 11//47 82//47 81//47
f 9//48 10//48 81//48 80//48
f 213//3 143//3 144//3
f 212//3 213//3 144//3
f 211//49 212//49 144//49
f 210//50 211//50 144//50
f 209//3 210//3 144//3
f 208//3 209//3 144//3
f 207//3 208//3 144//3
f 206//51 207//51 144//51
f 205//52 206//52 144//52
f 204//53 205//53 144//53
f 203//54 204//54 144//54
f 203//3 144//3 145//3
f 202//3 203//3 145//3
f 202//55 145//55 146//55
f 201//56 202//56 146//56
f 201//57 146//57 147//57
f 201//58 147//58 148//58
f 200//59 201//59 148//59
f 200//3 148//3 149//3
f 200//60 149//60 150//60
f 199//61 200//61 150//61
f 199//62 150//62 151//62
f 199//3 151//3 152//3
f 198//63 199//63 152//63
f 198//3 152//3 153//3
f 198//3 153//3 154//3
f 197//3 198//3 154//3
f 197//3 154//3 155//3
f 197//3 155//3 156//3
f 196//51 197//51 156//51
f 196//3 156//3 157//3
f 196//3 157//3 158//3
f 178//3 196//3 158//3
f 195//64 196//64 178//64
f 177//3 178//3 158//3
f 195//3 178//3 179//3
f 177//3 158//3 159//3
f 195//65 179//65 180//65
f 194//3 195//3 180//3
f 194//66 180//66 181//66
f 194//67 181//67 182//67
f 194//3 182//3 183//3
f 193//68 194//68 183//68
f 193//69 183//69 184//69
f 193//70 184//70 185//70
f 193//71 185//71 186//71
f 177//3 159//3 160//3
f 192//72 193//72 186//72
f 192//3 186//3 187//3
f 192//3 187//3 188//3
f 191//3 192//3 188//3
f 191//3 188//3 189//3
f 191//3 189//3 190//3
f 177//3 160//3 161//3
f 177//3 161//3 162//3
f 177//3 162//3 163//3
f 177//3 163//3 164//3
f 177//3 164//3 165//3
f 177//3 165//3 166//3
f 177//3 166//3 167//3
f 177//3 167//3 168//3
f 168//3 169//3 170//3
f 177//3 168//3 170//3
f 176//3 177//3 170//3
f 175//3 176//3 170//3
f 175//2 170//2 171//2
f 174//3 171//3 172//3
f 175//2 171//2 174//2
f 173//3 174//3 172//3
f 214//1 284//1 215//1
f 284//1 283//1 215//1
f 283//73 282//73 215//73
f 282//74 281//74 215//74
f 281//75 280//75 215//75
f 280//1 279//1 215//1
f 279//1 278//1 215//1
f 278//1 277//1 215//1
f 277//76 276//76 215//76
f 276//77 275//77 215//77
f 275//1 274//1 215//1
f 215//1 274//1 216//1
f 274//1 273//1 216//1
f 216//78 273//78 217//78
f 273//79 272//79 217//79
f 217//80 272//80 218//80
f 218//81 272//81 219//81
f 272//82 271//82 219//82
f 219//1 271//1 220//1
f 220//83 271//83 221//83
f 271//84 270//84 221//84
f 221//85 270//85 222//85
f 222//1 270//1 223//1
f 270//1 269//1 223//1
f 223//1 269//1 224//1
f 224//86 269//86 225//86
f 269//1 268//1 225//1
f 225//1 268//1 226//1
f 226//1 268//1 227//1
f 268//1 267//1 227//1
f 227//1 267//1 228//1
f 228//1 267//1 229//1
f 267//87 249//87 229//87
f 267//88 266//88 249//88
f 249//1 248//1 229//1
f 249//1 266//1 250//1
f 229//1 248//1 230//1
f 250//89 266//89 251//89
f 266//90 265//90 251//90
f 251//91 265//91 252//91
f 252//92 265//92 253//92
f 253//1 265//1 254//1
f 265//93 264//93 254//93
f 254//94 264//94 255//94
f 255//95 264//95 256//95
f 256//96 264//96 257//96
f 230//1 248//1 231//1
f 264//97 263//97 257//97
f 257//1 263//1 258//1
f 258//1 263//1 259//1
f 263//98 262//98 259//98
f 259//1 262//1 260//1
f 260//99 262//99 261//99
f 231//1 248//1 232//1
f 232//1 248//1 233//1
f 233//1 248//1 234//1
f 234//1 248//1 235//1
f 235//1 248//1 236//1
f 236//1 248//1 237//1
f 237//1 248//1 238//1
f 238//1 248//1 239//1
f 240//1 239//1 241//1
f 239//1 248//1 241//1
f 248//1 247//1 241//1
f 247//1 246//1 241//1
f 241//2 246//2 242//2
f 242//1 245//1 243//1
f 242//15 246//15 245//15
f 245//1 244//1 243//1
f 273//100 274//100 203//100 202//100
f 215//101 216//101 145//101 144//101
f 240//18 241//18 170//18 169//18
f 247//15 248//15 177//15 176//15
f 249//102 250//102 179//102 178//102
f 258//103 259//103 188//103 187//103
f 242//18 243//18 172//18 171//18
f 252//104 253//104 182//104 181//104
f 228//18 229//18 158//18 157//18
f 237//18 238//18 167//18 166//18
f 231//18 232//18 161//18 160//18
f 271//105 272//105 201//105 200//105
f 233//18 234//18 163//18 162//18
f 238//18 239//18 168//18 167//18
f 278//106 279//106 208//106 207//106
f 217//107 218//107 147//107 146//107
f 253//108 254//108 183//108 182//108
f 225//109 226//109 155//109 154//109
f 241//2 242//2 171//2 170//2
f 227//18 228//18 157//18 156//18
f 251//110 252//110 181//110 180//110
f 220//111 221//111 150//111 149//111
f 246//6 247//6 176//6 175//6
f 214//112 215//112 144//112 143//112
f 232//18 233//18 162//18 161//18
f 219//113 220//113 149//113 148//113
f 259//114 260//114 189//114 188//114
f 250//115 251//115 180//115 179//115
f 235//18 236//18 165//18 164//18
f 284//116 214//116 143//116 213//116
f 268//117 269//117 198//117 197//117
f 254//118 255//118 184//118 183//118
f 239//15 240//15 169//15 168//15
f 265//105 266//105 195//105 194//105
f 224//119 225//119 154//119 153//119
f 243//2 244//2 173//2 172//2
f 236//18 237//18 166//18 165//18
f 216//120 217//120 146//120 145//120
f 280//121 281//121 210//121 209//121
f 248//6 249//6 178//6 177//6
f 262//122 263//122 192//122 191//122
f 279//123 280//123 209//123 208//123
f 226//124 227//124 156//124 155//124
f 261//125 262//125 191//125 190//125
f 263//126 264//126 193//126 192//126
f 270//105 271//105 200//105 199//105
f 277//127 278//127 207//127 206//127
f 221//128 222//128 151//128 150//128
f 274//129 275//129 204//129 203//129
f 272//117 273//117 202//117 201//117
f 257//130 258//130 187//130 186//130
f 218//131 219//131 148//131 147//131
f 267//117 268//117 197//117 196//117
f 229//18 230//18 159//18 158//18
f 264//117 265//117 194//117 193//117
f 230//18 231//18 160//18 159//18
f 283//132 284//132 213//132 212//132
f 276//133 277//133 206//133 205//133
f 245//2 246//2 175//2 174//2
f 244//6 245//6 174//6 173//6
f 234//18 235//18 164//18 163//18
f 269//105 270//105 199//105 198//105
f 256//134 257//134 186//134 185//134
f 281//135 282//135 211//135 210//135
f 275//136 276//136 205//136 204//136
f 255//137 256//137 185//137 184//137
f 282//138 283//138 212//138 211//138
f 266//105 267//105 196//105 195//105
f 260//139 261//139 190//139 189//139
f 223//140 224//140 153//140 152//140
f 222//141 223//141 152//141 151//141
