# Blender v2.69 (sub 0) OBJ File: ''
# www.blender.org
mtllib no.mtl
o Curve_Mesh
v 0.000000 0.000000 5.406401
v 0.540837 0.000000 5.161731
v 1.045672 0.000000 4.879632
v 1.514504 0.000000 4.560102
v 1.947333 0.000000 4.203142
v 2.344158 0.000000 3.808752
v 2.704979 0.000000 3.376932
v 3.029795 0.000000 2.907682
v 3.318606 0.000000 2.401003
v 3.571412 0.000000 1.856893
v 3.788212 0.000000 1.275354
v 3.969004 0.000000 0.656384
v 4.113791 0.000000 -0.000016
v 4.123637 0.000000 0.002677
v 4.151463 0.000000 0.010286
v 4.194701 0.000000 0.022109
v 4.250782 0.000000 0.037444
v 4.317137 0.000000 0.055588
v 4.391198 0.000000 0.075839
v 4.470397 0.000000 0.097495
v 4.552163 0.000000 0.119854
v 4.633930 0.000000 0.142212
v 4.713128 0.000000 0.163868
v 4.787189 0.000000 0.184120
v 4.853546 0.000000 0.202264
v 4.677560 0.000000 0.887078
v 4.467869 0.000000 1.534681
v 4.224471 0.000000 2.145073
v 3.947366 0.000000 2.718254
v 3.636555 0.000000 3.254224
v 3.292035 0.000000 3.752983
v 2.913808 0.000000 4.214531
v 2.501873 0.000000 4.638868
v 2.056229 0.000000 5.025994
v 1.576876 0.000000 5.375910
v 1.063814 0.000000 5.688614
v 0.517042 0.000000 5.964108
v 0.506868 0.000000 5.953134
v 0.478742 0.000000 5.922796
v 0.436254 0.000000 5.876966
v 0.382994 0.000000 5.819517
v 0.322553 0.000000 5.754323
v 0.258521 0.000000 5.685255
v 0.194489 0.000000 5.616187
v 0.134048 0.000000 5.550992
v 0.080788 0.000000 5.493544
v 0.038299 0.000000 5.447714
v 0.010173 0.000000 5.417376
v 0.000000 0.010000 5.406401
v 0.540837 0.010000 5.161731
v 1.045672 0.010000 4.879632
v 1.514504 0.010000 4.560102
v 1.947333 0.010000 4.203142
v 2.344158 0.010000 3.808752
v 2.704979 0.010000 3.376932
v 3.029795 0.010000 2.907682
v 3.318606 0.010000 2.401003
v 3.571412 0.010000 1.856893
v 3.788212 0.010000 1.275354
v 3.969004 0.010000 0.656384
v 4.113791 0.010000 -0.000016
v 4.123637 0.010000 0.002677
v 4.151463 0.010000 0.010286
v 4.194701 0.010000 0.022109
v 4.250782 0.010000 0.037444
v 4.317137 0.010000 0.055588
v 4.391198 0.010000 0.075839
v 4.470397 0.010000 0.097495
v 4.552163 0.010000 0.119854
v 4.633930 0.010000 0.142212
v 4.713128 0.010000 0.163868
v 4.787189 0.010000 0.184120
v 4.853546 0.010000 0.202264
v 4.677560 0.010000 0.887078
v 4.467869 0.010000 1.534681
v 4.224471 0.010000 2.145073
v 3.947366 0.010000 2.718254
v 3.636555 0.010000 3.254224
v 3.292035 0.010000 3.752983
v 2.913808 0.010000 4.214531
v 2.501873 0.010000 4.638868
v 2.056229 0.010000 5.025994
v 1.576876 0.010000 5.375910
v 1.063814 0.010000 5.688614
v 0.517042 0.010000 5.964108
v 0.506868 0.010000 5.953134
v 0.478742 0.010000 5.922796
v 0.436254 0.010000 5.876966
v 0.382994 0.010000 5.819517
v 0.322553 0.010000 5.754323
v 0.258521 0.010000 5.685255
v 0.194489 0.010000 5.616187
v 0.134048 0.010000 5.550992
v 0.080788 0.010000 5.493544
v 0.038299 0.010000 5.447714
v 0.010173 0.010000 5.417376
v 0.000000 -1.000000 5.406401
v 0.540837 -1.000000 5.161731
v 1.045672 -1.000000 4.879632
v 1.514504 -1.000000 4.560102
v 1.947333 -0.999970 4.203142
v 2.344158 -1.000000 3.808752
v 2.704979 -0.999970 3.376932
v 3.029795 -1.000000 2.907682
v 3.318606 -1.000000 2.401003
v 3.571412 -1.000000 1.856893
v 3.788212 -0.999970 1.275354
v 3.969004 -1.000000 0.656384
v 4.113791 -1.000000 -0.000016
v 4.123637 -1.000000 0.002677
v 4.151463 -1.000000 0.010286
v 4.194701 -1.000000 0.022109
v 4.250782 -1.000000 0.037444
v 4.317137 -1.000000 0.055588
v 4.391198 -1.000000 0.075839
v 4.470397 -1.000000 0.097495
v 4.552163 -1.000000 0.119854
v 4.633930 -1.000000 0.142212
v 4.713128 -1.000000 0.163868
v 4.787189 -0.999970 0.184120
v 4.853546 -0.999970 0.202264
v 4.677560 -1.000000 0.887078
v 4.467869 -1.000000 1.534681
v 4.224471 -1.000000 2.145073
v 3.947366 -1.000000 2.718254
v 3.636555 -1.000000 3.254224
v 3.292035 -1.000000 3.752983
v 2.913808 -1.000000 4.214531
v 2.501873 -1.000000 4.638868
v 2.056229 -0.999970 5.025994
v 1.576876 -1.000000 5.375910
v 1.063814 -1.000000 5.688614
v 0.517042 -1.000000 5.964108
v 0.506868 -1.000000 5.953134
v 0.478742 -1.000000 5.922796
v 0.436254 -0.999970 5.876966
v 0.382994 -1.000000 5.819517
v 0.322553 -0.999970 5.754323
v 0.258521 -1.000000 5.685255
v 0.194489 -0.999970 5.616187
v 0.134048 -1.000000 5.550992
v 0.080788 -0.999970 5.493544
v 0.038299 -1.000000 5.447714
v 0.010173 -1.000000 5.417376
v 0.000000 1.010000 5.406401
v 0.540837 1.010000 5.161731
v 1.045672 1.010000 4.879632
v 1.514504 1.010000 4.560102
v 1.947333 1.009969 4.203142
v 2.344158 1.010000 3.808752
v 2.704979 1.010000 3.376932
v 3.029795 1.010000 2.907682
v 3.318606 1.010000 2.401003
v 3.571412 1.010000 1.856893
v 3.788212 1.009969 1.275354
v 3.969004 1.010000 0.656384
v 4.113791 1.010000 -0.000016
v 4.123637 1.010000 0.002677
v 4.151463 1.010000 0.010286
v 4.194701 1.010000 0.022109
v 4.250782 1.010000 0.037444
v 4.317137 1.010000 0.055588
v 4.391198 1.010000 0.075839
v 4.470397 1.010000 0.097495
v 4.552163 1.010000 0.119854
v 4.633930 1.009969 0.142212
v 4.713128 1.010000 0.163868
v 4.787189 1.009969 0.184120
v 4.853546 1.009969 0.202264
v 4.677560 1.010000 0.887078
v 4.467869 1.010000 1.534681
v 4.224471 1.010000 2.145073
v 3.947366 1.010000 2.718254
v 3.636555 1.010000 3.254224
v 3.292035 1.010000 3.752983
v 2.913808 1.010000 4.214531
v 2.501873 1.010000 4.638868
v 2.056229 1.009969 5.025994
v 1.576876 1.010000 5.375910
v 1.063814 1.010000 5.688614
v 0.517042 1.010000 5.964108
v 0.506868 1.010000 5.953134
v 0.478742 1.010000 5.922796
v 0.436254 1.009969 5.876966
v 0.382994 1.010000 5.819517
v 0.322553 1.009969 5.754323
v 0.258521 1.010000 5.685255
v 0.194489 1.009969 5.616187
v 0.134048 1.010000 5.550992
v 0.080788 1.009969 5.493544
v 0.038299 1.010000 5.447714
v 0.010173 1.010000 5.417376
vn 0.000000 1.000000 0.000000
vn 0.000000 -1.000000 0.000000
vn 0.000000 0.000000 1.000000
vn 0.000000 0.999992 -0.003906
vn 0.487803 0.000000 0.872954
vn 0.733336 0.000000 -0.679866
vn -0.951370 0.000000 -0.308050
vn -0.822790 0.000000 -0.568345
vn 0.868774 0.000000 0.495208
vn -0.263758 0.000000 0.964589
vn 0.906892 0.000000 0.421363
vn -0.263759 0.000000 0.964589
vn 0.733343 0.000000 -0.679859
vn 0.937004 0.000000 0.349318
vn -0.900308 0.000000 -0.435254
vn -0.655802 0.000000 -0.754933
vn 0.822232 0.000000 0.569152
vn 0.412176 0.000000 0.911104
vn -0.773467 0.000000 -0.633837
vn 0.976526 0.000000 0.215398
vn -0.968530 0.000000 -0.248896
vn 0.733334 0.000000 -0.679868
vn 0.733331 0.000000 -0.679872
vn 0.959891 0.000000 0.280372
vn 0.704927 0.000000 0.709280
vn -0.263757 0.000000 0.964589
vn -0.520439 0.000000 -0.853899
vn -0.717514 0.000000 -0.696544
vn 0.563183 0.000000 0.826332
vn -0.449965 0.000000 -0.893046
vn -0.263754 0.000000 0.964590
vn 0.733339 0.000000 -0.679863
vn 0.733365 0.000000 -0.679835
vn -0.589599 0.000000 -0.807696
vn -0.865067 0.000000 -0.501657
vn 0.733339 0.000000 -0.679864
vn 0.733336 0.000000 -0.679867
vn 0.733338 0.000000 -0.679865
vn -0.263759 0.000000 0.964588
vn 0.767371 0.000000 0.641203
vn -0.928874 0.000000 -0.370395
vn -0.263760 0.000000 0.964588
vn 0.636252 0.000000 0.771482
vn 0.000291 -1.000000 0.000439
vn 0.000012 -1.000000 -0.000044
vn 0.000013 -1.000000 -0.000041
vn -0.000015 -1.000000 0.000045
vn -0.000040 -1.000000 -0.000013
vn -0.000022 -1.000000 -0.000061
vn -0.000027 -1.000000 0.000047
vn -0.000036 -1.000000 -0.000025
vn -0.000004 -1.000000 -0.000074
vn -0.000032 -1.000000 0.000045
vn -0.000030 -1.000000 -0.000122
vn 0.000016 -1.000000 0.000097
vn 0.000024 -1.000000 0.000043
vn 0.000014 -1.000000 -0.000068
vn -0.000200 -1.000000 0.000850
vn 0.000091 -1.000000 -0.000616
vn -0.000080 -1.000000 0.000543
vn 0.000002 -1.000000 -0.000443
vn -0.000002 -1.000000 0.000443
vn -0.000050 -1.000000 -0.000099
vn 0.733320 0.004963 -0.679866
vn -0.733326 0.000000 0.679877
vn 0.734533 -0.008699 -0.678517
vn 0.000288 1.000000 0.000312
vn -0.000273 1.000000 -0.000411
vn 0.000292 1.000000 0.000439
vn 0.000012 1.000000 -0.000044
vn 0.000013 1.000000 -0.000041
vn -0.000015 1.000000 0.000045
vn -0.000040 1.000000 -0.000013
vn -0.000022 1.000000 -0.000061
vn -0.000032 1.000000 0.000045
vn -0.000030 1.000000 -0.000122
vn 0.000016 1.000000 0.000098
vn 0.000024 1.000000 0.000043
vn 0.000014 1.000000 -0.000068
vn 0.000000 1.000000 -0.000001
vn 0.000000 1.000000 0.000010
vn -0.000200 1.000000 0.000846
vn 0.000091 1.000000 -0.000616
vn -0.000080 1.000000 0.000543
vn 0.000002 1.000000 -0.000443
vn -0.000002 1.000000 0.000445
vn -0.000050 1.000000 -0.000099
vn 0.731514 -0.004941 -0.681808
vn -0.733991 0.000000 0.679160
vn 0.733047 0.006498 -0.680147
vn -0.487803 0.000000 -0.872954
vn -0.733336 0.000000 0.679866
vn 0.951370 0.000000 0.308050
vn 0.822790 0.000000 0.568345
vn -0.733333 0.000000 0.679869
vn -0.868774 0.000000 -0.495208
vn 0.263758 0.000000 -0.964589
vn -0.906892 0.000000 -0.421363
vn 0.263759 0.000000 -0.964589
vn -0.733338 0.000000 0.679864
vn -0.937004 0.000000 -0.349318
vn 0.900308 0.000000 0.435254
vn 0.655802 0.000000 0.754933
vn -0.822232 0.000000 -0.569152
vn -0.412175 0.000000 -0.911105
vn 0.773467 0.000000 0.633836
vn -0.976526 0.000000 -0.215398
vn 0.968530 0.000000 0.248896
vn -0.733337 0.000000 0.679866
vn -0.733332 0.000000 0.679871
vn -0.959892 0.000000 -0.280372
vn -0.704927 0.000000 -0.709280
vn 0.263757 0.000000 -0.964589
vn 0.520439 0.000000 0.853899
vn -0.733335 0.000000 0.679868
vn 0.717514 0.000000 0.696544
vn -0.563183 0.000000 -0.826332
vn 0.449965 0.000000 0.893046
vn 0.263754 0.000000 -0.964590
vn -0.733340 0.000000 0.679863
vn -0.733366 0.000000 0.679834
vn 0.589598 0.000000 0.807697
vn 0.865067 0.000000 0.501657
vn -0.733337 0.000000 0.679865
vn -0.733334 0.000000 0.679868
vn -0.767372 0.000000 -0.641203
vn 0.928874 0.000000 0.370395
vn 0.263760 0.000000 -0.964588
vn -0.733334 0.000000 0.679869
vn -0.636252 0.000000 -0.771481
usemtl SVGMat.001
s off
f 14//1 13//1 12//1
f 15//1 14//1 12//1
f 16//1 15//1 12//1
f 17//1 16//1 12//1
f 18//1 17//1 12//1
f 19//1 18//1 12//1
f 20//1 19//1 12//1
f 21//1 20//1 12//1
f 22//1 21//1 12//1
f 23//1 22//1 12//1
f 24//1 23//1 12//1
f 25//1 24//1 12//1
f 26//1 25//1 12//1
f 26//1 12//1 11//1
f 27//1 26//1 11//1
f 27//1 11//1 10//1
f 28//1 27//1 10//1
f 28//1 10//1 9//1
f 29//1 28//1 9//1
f 29//1 9//1 8//1
f 30//1 29//1 8//1
f 30//1 8//1 7//1
f 31//1 30//1 7//1
f 31//1 7//1 6//1
f 32//1 31//1 6//1
f 32//1 6//1 5//1
f 32//1 5//1 4//1
f 33//1 32//1 4//1
f 33//1 4//1 3//1
f 34//1 33//1 3//1
f 34//1 3//1 2//1
f 35//1 34//1 2//1
f 35//1 2//1 1//1
f 36//1 35//1 1//1
f 36//1 1//1 48//1
f 36//1 48//1 47//1
f 36//1 47//1 46//1
f 36//1 46//1 45//1
f 36//1 45//1 44//1
f 36//1 44//1 43//1
f 36//1 43//1 42//1
f 37//1 36//1 42//1
f 37//2 42//2 41//2
f 37//3 41//3 40//3
f 37//1 40//1 39//1
f 37//2 39//2 38//2
f 62//2 60//2 61//2
f 63//2 60//2 62//2
f 64//2 60//2 63//2
f 65//2 60//2 64//2
f 66//2 60//2 65//2
f 67//2 60//2 66//2
f 68//2 60//2 67//2
f 69//2 60//2 68//2
f 70//2 60//2 69//2
f 71//2 60//2 70//2
f 72//2 60//2 71//2
f 73//2 60//2 72//2
f 74//2 60//2 73//2
f 74//2 59//2 60//2
f 75//2 59//2 74//2
f 75//2 58//2 59//2
f 76//2 58//2 75//2
f 76//2 57//2 58//2
f 77//2 57//2 76//2
f 77//2 56//2 57//2
f 78//2 56//2 77//2
f 78//2 55//2 56//2
f 79//2 55//2 78//2
f 79//2 54//2 55//2
f 80//2 54//2 79//2
f 80//2 53//2 54//2
f 80//2 52//2 53//2
f 81//2 52//2 80//2
f 81//2 51//2 52//2
f 82//2 51//2 81//2
f 82//2 50//2 51//2
f 83//2 50//2 82//2
f 83//2 49//2 50//2
f 84//2 49//2 83//2
f 84//2 96//2 49//2
f 84//2 95//2 96//2
f 84//2 94//2 95//2
f 84//2 93//2 94//2
f 84//2 92//2 93//2
f 84//2 91//2 92//2
f 84//2 90//2 91//2
f 85//2 90//2 84//2
f 85//4 89//4 90//4
f 85//3 88//3 89//3
f 85//2 87//2 88//2
f 85//1 86//1 87//1
f 2//5 3//5 51//5 50//5
f 45//6 46//6 94//6 93//6
f 26//7 27//7 75//7 74//7
f 30//8 31//8 79//8 78//8
f 46//6 47//6 95//6 94//6
f 8//9 9//9 57//9 56//9
f 19//10 20//10 68//10 67//10
f 9//11 10//11 58//11 57//11
f 17//12 18//12 66//12 65//12
f 37//13 38//13 86//13 85//13
f 10//14 11//14 59//14 58//14
f 28//15 29//15 77//15 76//15
f 33//16 34//16 82//16 81//16
f 7//17 8//17 56//17 55//17
f 1//18 2//18 50//18 49//18
f 31//19 32//19 80//19 79//19
f 12//20 13//20 61//20 60//20
f 25//21 26//21 74//21 73//21
f 18//12 19//12 67//12 66//12
f 41//22 42//22 90//22 89//22
f 38//23 39//23 87//23 86//23
f 11//24 12//24 60//24 59//24
f 5//25 6//25 54//25 53//25
f 15//26 16//26 64//26 63//26
f 35//27 36//27 84//27 83//27
f 44//22 45//22 93//22 92//22
f 32//28 33//28 81//28 80//28
f 3//29 4//29 52//29 51//29
f 36//30 37//30 85//30 84//30
f 23//12 24//12 72//12 71//12
f 24//31 25//31 73//31 72//31
f 39//32 40//32 88//32 87//32
f 48//33 1//33 49//33 96//33
f 34//34 35//34 83//34 82//34
f 29//35 30//35 78//35 77//35
f 47//36 48//36 96//36 95//36
f 42//37 43//37 91//37 90//37
f 21//12 22//12 70//12 69//12
f 43//38 44//38 92//38 91//38
f 20//12 21//12 69//12 68//12
f 14//39 15//39 63//39 62//39
f 22//10 23//10 71//10 70//10
f 6//40 7//40 55//40 54//40
f 27//41 28//41 76//41 75//41
f 13//42 14//42 62//42 61//42
f 16//12 17//12 65//12 64//12
f 40//37 41//37 89//37 88//37
f 4//43 5//43 53//43 52//43
f 108//2 109//2 110//2
f 108//2 110//2 111//2
f 108//2 111//2 112//2
f 108//2 112//2 113//2
f 108//2 113//2 114//2
f 108//2 114//2 115//2
f 108//2 115//2 116//2
f 108//2 116//2 117//2
f 108//2 117//2 118//2
f 108//2 118//2 119//2
f 108//44 119//44 120//44
f 108//45 120//45 121//45
f 108//46 121//46 122//46
f 107//47 108//47 122//47
f 107//48 122//48 123//48
f 106//49 107//49 123//49
f 106//2 123//2 124//2
f 105//2 106//2 124//2
f 105//2 124//2 125//2
f 104//2 105//2 125//2
f 104//2 125//2 126//2
f 103//50 104//50 126//50
f 103//51 126//51 127//51
f 102//52 103//52 127//52
f 102//2 127//2 128//2
f 101//53 102//53 128//53
f 100//54 101//54 128//54
f 100//2 128//2 129//2
f 99//2 100//2 129//2
f 99//55 129//55 130//55
f 98//56 99//56 130//56
f 98//57 130//57 131//57
f 97//2 98//2 131//2
f 97//2 131//2 132//2
f 144//2 97//2 132//2
f 143//2 144//2 132//2
f 142//58 143//58 132//58
f 141//59 142//59 132//59
f 140//60 141//60 132//60
f 139//61 140//61 132//61
f 138//62 139//62 132//62
f 138//63 132//63 133//63
f 137//64 138//64 133//64
f 136//65 137//65 133//65
f 135//66 136//66 133//66
f 134//3 135//3 133//3
f 157//1 156//1 158//1
f 158//1 156//1 159//1
f 159//1 156//1 160//1
f 160//1 156//1 161//1
f 161//1 156//1 162//1
f 162//1 156//1 163//1
f 163//1 156//1 164//1
f 164//1 156//1 165//1
f 165//67 156//67 166//67
f 166//68 156//68 167//68
f 167//69 156//69 168//69
f 168//70 156//70 169//70
f 169//71 156//71 170//71
f 156//72 155//72 170//72
f 170//73 155//73 171//73
f 155//74 154//74 171//74
f 171//1 154//1 172//1
f 154//1 153//1 172//1
f 172//1 153//1 173//1
f 153//1 152//1 173//1
f 173//1 152//1 174//1
f 152//1 151//1 174//1
f 174//1 151//1 175//1
f 151//1 150//1 175//1
f 175//1 150//1 176//1
f 150//75 149//75 176//75
f 149//76 148//76 176//76
f 176//1 148//1 177//1
f 148//1 147//1 177//1
f 177//77 147//77 178//77
f 147//78 146//78 178//78
f 178//79 146//79 179//79
f 146//80 145//80 179//80
f 179//1 145//1 180//1
f 145//1 192//1 180//1
f 192//81 191//81 180//81
f 191//82 190//82 180//82
f 190//83 189//83 180//83
f 189//84 188//84 180//84
f 188//85 187//85 180//85
f 187//86 186//86 180//86
f 180//87 186//87 181//87
f 186//88 185//88 181//88
f 185//89 184//89 181//89
f 184//90 183//90 181//90
f 183//2 182//2 181//2
f 146//91 147//91 99//91 98//91
f 189//92 190//92 142//92 141//92
f 170//93 171//93 123//93 122//93
f 174//94 175//94 127//94 126//94
f 190//95 191//95 143//95 142//95
f 152//96 153//96 105//96 104//96
f 163//97 164//97 116//97 115//97
f 153//98 154//98 106//98 105//98
f 161//99 162//99 114//99 113//99
f 181//100 182//100 134//100 133//100
f 154//101 155//101 107//101 106//101
f 172//102 173//102 125//102 124//102
f 177//103 178//103 130//103 129//103
f 151//104 152//104 104//104 103//104
f 145//105 146//105 98//105 97//105
f 175//106 176//106 128//106 127//106
f 156//107 157//107 109//107 108//107
f 169//108 170//108 122//108 121//108
f 162//99 163//99 115//99 114//99
f 185//109 186//109 138//109 137//109
f 182//110 183//110 135//110 134//110
f 155//111 156//111 108//111 107//111
f 149//112 150//112 102//112 101//112
f 159//113 160//113 112//113 111//113
f 179//114 180//114 132//114 131//114
f 188//115 189//115 141//115 140//115
f 176//116 177//116 129//116 128//116
f 147//117 148//117 100//117 99//117
f 180//118 181//118 133//118 132//118
f 167//99 168//99 120//99 119//99
f 168//119 169//119 121//119 120//119
f 183//120 184//120 136//120 135//120
f 192//121 145//121 97//121 144//121
f 178//122 179//122 131//122 130//122
f 173//123 174//123 126//123 125//123
f 191//124 192//124 144//124 143//124
f 186//125 187//125 139//125 138//125
f 165//99 166//99 118//99 117//99
f 187//100 188//100 140//100 139//100
f 164//99 165//99 117//99 116//99
f 158//99 159//99 111//99 110//99
f 166//97 167//97 119//97 118//97
f 150//126 151//126 103//126 102//126
f 171//127 172//127 124//127 123//127
f 157//128 158//128 110//128 109//128
f 160//99 161//99 113//99 112//99
f 184//129 185//129 137//129 136//129
f 148//130 149//130 101//130 100//130
