# Blender v2.69 (sub 0) OBJ File: ''
# www.blender.org
mtllib no.mtl
o Curve_Mesh
v 0.000000 0.000000 5.406401
v 0.540837 0.000000 5.161731
v 1.045672 0.000000 4.879632
v 1.514504 0.000000 4.560102
v 1.947333 0.000000 4.203142
v 2.344158 0.000000 3.808752
v 2.704979 0.000000 3.376932
v 3.029795 0.000000 2.907682
v 3.318606 0.000000 2.401003
v 3.571412 0.000000 1.856893
v 3.788212 0.000000 1.275354
v 3.969004 0.000000 0.656384
v 4.113791 0.000000 -0.000016
v 4.123637 0.000000 0.002677
v 4.151463 0.000000 0.010286
v 4.194701 0.000000 0.022109
v 4.250782 0.000000 0.037444
v 4.317137 0.000000 0.055588
v 4.391198 0.000000 0.075839
v 4.470397 0.000000 0.097495
v 4.552163 0.000000 0.119854
v 4.633930 0.000000 0.142212
v 4.713128 0.000000 0.163868
v 4.787189 0.000000 0.184120
v 4.853546 0.000000 0.202264
v 4.677560 0.000000 0.887078
v 4.467869 0.000000 1.534681
v 4.224471 0.000000 2.145073
v 3.947366 0.000000 2.718254
v 3.636555 0.000000 3.254224
v 3.292035 0.000000 3.752983
v 2.913808 0.000000 4.214531
v 2.501873 0.000000 4.638868
v 2.056229 0.000000 5.025994
v 1.576876 0.000000 5.375910
v 1.063814 0.000000 5.688614
v 0.517042 0.000000 5.964108
v 0.506868 0.000000 5.953134
v 0.478742 0.000000 5.922796
v 0.436254 0.000000 5.876966
v 0.382994 0.000000 5.819517
v 0.322553 0.000000 5.754323
v 0.258521 0.000000 5.685255
v 0.194489 0.000000 5.616187
v 0.134048 0.000000 5.550992
v 0.080788 0.000000 5.493544
v 0.038299 0.000000 5.447714
v 0.010173 0.000000 5.417376
v 0.000000 0.010000 5.406401
v 0.540837 0.010000 5.161731
v 1.045672 0.010000 4.879632
v 1.514504 0.010000 4.560102
v 1.947333 0.010000 4.203142
v 2.344158 0.010000 3.808752
v 2.704979 0.010000 3.376932
v 3.029795 0.010000 2.907682
v 3.318606 0.010000 2.401003
v 3.571412 0.010000 1.856893
v 3.788212 0.010000 1.275354
v 3.969004 0.010000 0.656384
v 4.113791 0.010000 -0.000016
v 4.123637 0.010000 0.002677
v 4.151463 0.010000 0.010286
v 4.194701 0.010000 0.022109
v 4.250782 0.010000 0.037444
v 4.317137 0.010000 0.055588
v 4.391198 0.010000 0.075839
v 4.470397 0.010000 0.097495
v 4.552163 0.010000 0.119854
v 4.633930 0.010000 0.142212
v 4.713128 0.010000 0.163868
v 4.787189 0.010000 0.184120
v 4.853546 0.010000 0.202264
v 4.677560 0.010000 0.887078
v 4.467869 0.010000 1.534681
v 4.224471 0.010000 2.145073
v 3.947366 0.010000 2.718254
v 3.636555 0.010000 3.254224
v 3.292035 0.010000 3.752983
v 2.913808 0.010000 4.214531
v 2.501873 0.010000 4.638868
v 2.056229 0.010000 5.025994
v 1.576876 0.010000 5.375910
v 1.063814 0.010000 5.688614
v 0.517042 0.010000 5.964108
v 0.506868 0.010000 5.953134
v 0.478742 0.010000 5.922796
v 0.436254 0.010000 5.876966
v 0.382994 0.010000 5.819517
v 0.322553 0.010000 5.754323
v 0.258521 0.010000 5.685255
v 0.194489 0.010000 5.616187
v 0.134048 0.010000 5.550992
v 0.080788 0.010000 5.493544
v 0.038299 0.010000 5.447714
v 0.010173 0.010000 5.417376
v 0.000000 -1.000000 5.406401
v 0.540837 -1.000000 5.161731
v 1.045672 -1.000000 4.879632
v 1.514504 -1.000000 4.560102
v 1.947333 -0.999970 4.203142
v 2.344158 -1.000000 3.808752
v 2.704979 -0.999970 3.376932
v 3.029795 -1.000000 2.907682
v 3.318606 -1.000000 2.401003
v 3.571412 -1.000000 1.856893
v 3.788212 -0.999970 1.275354
v 3.969004 -1.000000 0.656384
v 4.113791 -1.000000 -0.000016
v 4.123637 -1.000000 0.002677
v 4.151463 -1.000000 0.010286
v 4.194701 -1.000000 0.022109
v 4.250782 -1.000000 0.037444
v 4.317137 -1.000000 0.055588
v 4.391198 -1.000000 0.075839
v 4.470397 -1.000000 0.097495
v 4.552163 -1.000000 0.119854
v 4.633930 -1.000000 0.142212
v 4.713128 -1.000000 0.163868
v 4.787189 -0.999970 0.184120
v 4.853546 -0.999970 0.202264
v 4.677560 -1.000000 0.887078
v 4.467869 -1.000000 1.534681
v 4.224471 -1.000000 2.145073
v 3.947366 -1.000000 2.718254
v 3.636555 -1.000000 3.254224
v 3.292035 -1.000000 3.752983
v 2.913808 -1.000000 4.214531
v 2.501873 -1.000000 4.638868
v 2.056229 -0.999970 5.025994
v 1.576876 -1.000000 5.375910
v 1.063814 -1.000000 5.688614
v 0.517042 -1.000000 5.964108
v 0.506868 -1.000000 5.953134
v 0.478742 -1.000000 5.922796
v 0.436254 -0.999970 5.876966
v 0.382994 -1.000000 5.819517
v 0.322553 -0.999970 5.754323
v 0.258521 -1.000000 5.685255
v 0.194489 -0.999970 5.616187
v 0.134048 -1.000000 5.550992
v 0.080788 -0.999970 5.493544
v 0.038299 -1.000000 5.447714
v 0.010173 -1.000000 5.417376
v 0.000000 1.010000 5.406401
v 0.540837 1.010000 5.161731
v 1.045672 1.010000 4.879632
v 1.514504 1.010000 4.560102
v 1.947333 1.009969 4.203142
v 2.344158 1.010000 3.808752
v 2.704979 1.010000 3.376932
v 3.029795 1.010000 2.907682
v 3.318606 1.010000 2.401003
v 3.571412 1.010000 1.856893
v 3.788212 1.009969 1.275354
v 3.969004 1.010000 0.656384
v 4.113791 1.010000 -0.000016
v 4.123637 1.010000 0.002677
v 4.151463 1.010000 0.010286
v 4.194701 1.010000 0.022109
v 4.250782 1.010000 0.037444
v 4.317137 1.010000 0.055588
v 4.391198 1.010000 0.075839
v 4.470397 1.010000 0.097495
v 4.552163 1.010000 0.119854
v 4.633930 1.009969 0.142212
v 4.713128 1.010000 0.163868
v 4.787189 1.009969 0.184120
v 4.853546 1.009969 0.202264
v 4.677560 1.010000 0.887078
v 4.467869 1.010000 1.534681
v 4.224471 1.010000 2.145073
v 3.947366 1.010000 2.718254
v 3.636555 1.010000 3.254224
v 3.292035 1.010000 3.752983
v 2.913808 1.010000 4.214531
v 2.501873 1.010000 4.638868
v 2.056229 1.009969 5.025994
v 1.576876 1.010000 5.375910
v 1.063814 1.010000 5.688614
v 0.517042 1.010000 5.964108
v 0.506868 1.010000 5.953134
v 0.478742 1.010000 5.922796
v 0.436254 1.009969 5.876966
v 0.382994 1.010000 5.819517
v 0.322553 1.009969 5.754323
v 0.258521 1.010000 5.685255
v 0.194489 1.009969 5.616187
v 0.134048 1.010000 5.550992
v 0.080788 1.009969 5.493544
v 0.038299 1.010000 5.447714
v 0.010173 1.010000 5.417376
vn 0.000000 1.000000 0.000000
vn 0.000000 -1.000000 0.000000
vn 0.000000 0.000000 1.000000
vn 0.000000 0.999992 -0.003906
vn 0.412176 0.000000 0.911104
vn -0.773467 0.000000 -0.633837
vn 0.976526 0.000000 0.215398
vn -0.968530 0.000000 -0.248896
vn -0.263759 0.000000 0.964589
vn 0.733334 0.000000 -0.679868
vn 0.733331 0.000000 -0.679872
vn 0.959891 0.000000 0.280372
vn 0.704927 0.000000 0.709280
vn -0.263757 0.000000 0.964589
vn -0.520439 0.000000 -0.853899
vn -0.717514 0.000000 -0.696544
vn 0.563183 0.000000 0.826332
vn -0.449965 0.000000 -0.893046
vn -0.263754 0.000000 0.964590
vn 0.733365 0.000000 -0.679835
vn -0.589599 0.000000 -0.807696
vn 0.733339 0.000000 -0.679863
vn -0.865067 0.000000 -0.501657
vn 0.733339 0.000000 -0.679864
vn 0.733336 0.000000 -0.679867
vn 0.733338 0.000000 -0.679865
vn -0.263759 0.000000 0.964588
vn -0.263758 0.000000 0.964589
vn 0.767371 0.000000 0.641203
vn -0.928874 0.000000 -0.370395
vn -0.263760 0.000000 0.964588
vn 0.636252 0.000000 0.771482
vn -0.951370 0.000000 -0.308050
vn 0.487803 0.000000 0.872954
vn 0.733336 0.000000 -0.679866
vn -0.822790 0.000000 -0.568345
vn 0.868774 0.000000 0.495208
vn 0.733343 0.000000 -0.679859
vn 0.906892 0.000000 0.421363
vn 0.937004 0.000000 0.349318
vn -0.900308 0.000000 -0.435254
vn 0.822232 0.000000 0.569152
vn -0.655802 0.000000 -0.754933
vn 0.000291 -1.000000 0.000439
vn 0.000012 -1.000000 -0.000044
vn 0.000013 -1.000000 -0.000041
vn -0.000015 -1.000000 0.000045
vn -0.000040 -1.000000 -0.000013
vn -0.000022 -1.000000 -0.000061
vn -0.000027 -1.000000 0.000047
vn -0.000036 -1.000000 -0.000025
vn -0.000004 -1.000000 -0.000074
vn -0.000032 -1.000000 0.000045
vn -0.000030 -1.000000 -0.000122
vn 0.000016 -1.000000 0.000097
vn 0.000024 -1.000000 0.000043
vn 0.000014 -1.000000 -0.000068
vn -0.000200 -1.000000 0.000850
vn 0.000091 -1.000000 -0.000616
vn -0.000080 -1.000000 0.000543
vn 0.000002 -1.000000 -0.000443
vn -0.000002 -1.000000 0.000443
vn -0.000050 -1.000000 -0.000099
vn 0.733320 0.004963 -0.679866
vn -0.733326 0.000000 0.679877
vn 0.734533 -0.008699 -0.678517
vn 0.000288 1.000000 0.000312
vn -0.000273 1.000000 -0.000411
vn 0.000292 1.000000 0.000439
vn 0.000012 1.000000 -0.000044
vn 0.000013 1.000000 -0.000041
vn -0.000015 1.000000 0.000045
vn -0.000040 1.000000 -0.000013
vn -0.000022 1.000000 -0.000061
vn -0.000032 1.000000 0.000045
vn -0.000030 1.000000 -0.000122
vn 0.000016 1.000000 0.000098
vn 0.000024 1.000000 0.000043
vn 0.000014 1.000000 -0.000068
vn 0.000000 1.000000 -0.000001
vn 0.000000 1.000000 0.000010
vn -0.000200 1.000000 0.000846
vn 0.000091 1.000000 -0.000616
vn -0.000080 1.000000 0.000543
vn 0.000002 1.000000 -0.000443
vn -0.000002 1.000000 0.000445
vn -0.000050 1.000000 -0.000099
vn 0.731514 -0.004941 -0.681808
vn -0.733991 0.000000 0.679160
vn 0.733047 0.006498 -0.680147
vn -0.412175 0.000000 -0.911105
vn 0.773467 0.000000 0.633836
vn -0.976526 0.000000 -0.215398
vn 0.968530 0.000000 0.248896
vn 0.263759 0.000000 -0.964589
vn -0.733337 0.000000 0.679866
vn -0.733332 0.000000 0.679871
vn -0.959892 0.000000 -0.280372
vn -0.704927 0.000000 -0.709280
vn 0.263757 0.000000 -0.964589
vn 0.520439 0.000000 0.853899
vn -0.733335 0.000000 0.679868
vn 0.717514 0.000000 0.696544
vn -0.563183 0.000000 -0.826332
vn 0.449965 0.000000 0.893046
vn 0.263754 0.000000 -0.964590
vn -0.733366 0.000000 0.679834
vn 0.589598 0.000000 0.807697
vn -0.733340 0.000000 0.679863
vn 0.865067 0.000000 0.501657
vn -0.733337 0.000000 0.679865
vn -0.733334 0.000000 0.679868
vn -0.733338 0.000000 0.679864
vn 0.263758 0.000000 -0.964589
vn -0.767372 0.000000 -0.641203
vn 0.928874 0.000000 0.370395
vn 0.263760 0.000000 -0.964588
vn -0.733334 0.000000 0.679869
vn -0.636252 0.000000 -0.771481
vn 0.951370 0.000000 0.308050
vn -0.487803 0.000000 -0.872954
vn -0.733336 0.000000 0.679866
vn 0.822790 0.000000 0.568345
vn -0.733333 0.000000 0.679869
vn -0.868774 0.000000 -0.495208
vn -0.906892 0.000000 -0.421363
vn -0.937004 0.000000 -0.349318
vn 0.900308 0.000000 0.435254
vn -0.822232 0.000000 -0.569152
vn 0.655802 0.000000 0.754933
usemtl SVGMat.001
s off
f 14//1 13//1 12//1
f 15//1 14//1 12//1
f 16//1 15//1 12//1
f 17//1 16//1 12//1
f 18//1 17//1 12//1
f 19//1 18//1 12//1
f 20//1 19//1 12//1
f 21//1 20//1 12//1
f 22//1 21//1 12//1
f 23//1 22//1 12//1
f 24//1 23//1 12//1
f 25//1 24//1 12//1
f 26//1 25//1 12//1
f 26//1 12//1 11//1
f 27//1 26//1 11//1
f 27//1 11//1 10//1
f 28//1 27//1 10//1
f 28//1 10//1 9//1
f 29//1 28//1 9//1
f 29//1 9//1 8//1
f 30//1 29//1 8//1
f 30//1 8//1 7//1
f 31//1 30//1 7//1
f 31//1 7//1 6//1
f 32//1 31//1 6//1
f 32//1 6//1 5//1
f 32//1 5//1 4//1
f 33//1 32//1 4//1
f 33//1 4//1 3//1
f 34//1 33//1 3//1
f 34//1 3//1 2//1
f 35//1 34//1 2//1
f 35//1 2//1 1//1
f 36//1 35//1 1//1
f 36//1 1//1 48//1
f 36//1 48//1 47//1
f 36//1 47//1 46//1
f 36//1 46//1 45//1
f 36//1 45//1 44//1
f 36//1 44//1 43//1
f 36//1 43//1 42//1
f 37//1 36//1 42//1
f 37//2 42//2 41//2
f 37//3 41//3 40//3
f 37//1 40//1 39//1
f 37//2 39//2 38//2
f 62//2 60//2 61//2
f 63//2 60//2 62//2
f 64//2 60//2 63//2
f 65//2 60//2 64//2
f 66//2 60//2 65//2
f 67//2 60//2 66//2
f 68//2 60//2 67//2
f 69//2 60//2 68//2
f 70//2 60//2 69//2
f 71//2 60//2 70//2
f 72//2 60//2 71//2
f 73//2 60//2 72//2
f 74//2 60//2 73//2
f 74//2 59//2 60//2
f 75//2 59//2 74//2
f 75//2 58//2 59//2
f 76//2 58//2 75//2
f 76//2 57//2 58//2
f 77//2 57//2 76//2
f 77//2 56//2 57//2
f 78//2 56//2 77//2
f 78//2 55//2 56//2
f 79//2 55//2 78//2
f 79//2 54//2 55//2
f 80//2 54//2 79//2
f 80//2 53//2 54//2
f 80//2 52//2 53//2
f 81//2 52//2 80//2
f 81//2 51//2 52//2
f 82//2 51//2 81//2
f 82//2 50//2 51//2
f 83//2 50//2 82//2
f 83//2 49//2 50//2
f 84//2 49//2 83//2
f 84//2 96//2 49//2
f 84//2 95//2 96//2
f 84//2 94//2 95//2
f 84//2 93//2 94//2
f 84//2 92//2 93//2
f 84//2 91//2 92//2
f 84//2 90//2 91//2
f 85//2 90//2 84//2
f 85//4 89//4 90//4
f 85//3 88//3 89//3
f 85//2 87//2 88//2
f 85//1 86//1 87//1
f 1//5 2//5 50//5 49//5
f 31//6 32//6 80//6 79//6
f 12//7 13//7 61//7 60//7
f 25//8 26//8 74//8 73//8
f 18//9 19//9 67//9 66//9
f 41//10 42//10 90//10 89//10
f 38//11 39//11 87//11 86//11
f 11//12 12//12 60//12 59//12
f 5//13 6//13 54//13 53//13
f 15//14 16//14 64//14 63//14
f 35//15 36//15 84//15 83//15
f 44//10 45//10 93//10 92//10
f 32//16 33//16 81//16 80//16
f 3//17 4//17 52//17 51//17
f 36//18 37//18 85//18 84//18
f 23//9 24//9 72//9 71//9
f 24//19 25//19 73//19 72//19
f 48//20 1//20 49//20 96//20
f 34//21 35//21 83//21 82//21
f 39//22 40//22 88//22 87//22
f 29//23 30//23 78//23 77//23
f 47//24 48//24 96//24 95//24
f 42//25 43//25 91//25 90//25
f 21//9 22//9 70//9 69//9
f 43//26 44//26 92//26 91//26
f 20//9 21//9 69//9 68//9
f 14//27 15//27 63//27 62//27
f 22//28 23//28 71//28 70//28
f 6//29 7//29 55//29 54//29
f 27//30 28//30 76//30 75//30
f 13//31 14//31 62//31 61//31
f 16//9 17//9 65//9 64//9
f 40//25 41//25 89//25 88//25
f 4//32 5//32 53//32 52//32
f 26//33 27//33 75//33 74//33
f 2//34 3//34 51//34 50//34
f 45//35 46//35 94//35 93//35
f 30//36 31//36 79//36 78//36
f 19//28 20//28 68//28 67//28
f 46//35 47//35 95//35 94//35
f 8//37 9//37 57//37 56//37
f 37//38 38//38 86//38 85//38
f 9//39 10//39 58//39 57//39
f 17//9 18//9 66//9 65//9
f 10//40 11//40 59//40 58//40
f 28//41 29//41 77//41 76//41
f 7//42 8//42 56//42 55//42
f 33//43 34//43 82//43 81//43
f 108//2 109//2 110//2
f 108//2 110//2 111//2
f 108//2 111//2 112//2
f 108//2 112//2 113//2
f 108//2 113//2 114//2
f 108//2 114//2 115//2
f 108//2 115//2 116//2
f 108//2 116//2 117//2
f 108//2 117//2 118//2
f 108//2 118//2 119//2
f 108//44 119//44 120//44
f 108//45 120//45 121//45
f 108//46 121//46 122//46
f 107//47 108//47 122//47
f 107//48 122//48 123//48
f 106//49 107//49 123//49
f 106//2 123//2 124//2
f 105//2 106//2 124//2
f 105//2 124//2 125//2
f 104//2 105//2 125//2
f 104//2 125//2 126//2
f 103//50 104//50 126//50
f 103//51 126//51 127//51
f 102//52 103//52 127//52
f 102//2 127//2 128//2
f 101//53 102//53 128//53
f 100//54 101//54 128//54
f 100//2 128//2 129//2
f 99//2 100//2 129//2
f 99//55 129//55 130//55
f 98//56 99//56 130//56
f 98//57 130//57 131//57
f 97//2 98//2 131//2
f 97//2 131//2 132//2
f 144//2 97//2 132//2
f 143//2 144//2 132//2
f 142//58 143//58 132//58
f 141//59 142//59 132//59
f 140//60 141//60 132//60
f 139//61 140//61 132//61
f 138//62 139//62 132//62
f 138//63 132//63 133//63
f 137//64 138//64 133//64
f 136//65 137//65 133//65
f 135//66 136//66 133//66
f 134//3 135//3 133//3
f 157//1 156//1 158//1
f 158//1 156//1 159//1
f 159//1 156//1 160//1
f 160//1 156//1 161//1
f 161//1 156//1 162//1
f 162//1 156//1 163//1
f 163//1 156//1 164//1
f 164//1 156//1 165//1
f 165//67 156//67 166//67
f 166//68 156//68 167//68
f 167//69 156//69 168//69
f 168//70 156//70 169//70
f 169//71 156//71 170//71
f 156//72 155//72 170//72
f 170//73 155//73 171//73
f 155//74 154//74 171//74
f 171//1 154//1 172//1
f 154//1 153//1 172//1
f 172//1 153//1 173//1
f 153//1 152//1 173//1
f 173//1 152//1 174//1
f 152//1 151//1 174//1
f 174//1 151//1 175//1
f 151//1 150//1 175//1
f 175//1 150//1 176//1
f 150//75 149//75 176//75
f 149//76 148//76 176//76
f 176//1 148//1 177//1
f 148//1 147//1 177//1
f 177//77 147//77 178//77
f 147//78 146//78 178//78
f 178//79 146//79 179//79
f 146//80 145//80 179//80
f 179//1 145//1 180//1
f 145//1 192//1 180//1
f 192//81 191//81 180//81
f 191//82 190//82 180//82
f 190//83 189//83 180//83
f 189//84 188//84 180//84
f 188//85 187//85 180//85
f 187//86 186//86 180//86
f 180//87 186//87 181//87
f 186//88 185//88 181//88
f 185//89 184//89 181//89
f 184//90 183//90 181//90
f 183//2 182//2 181//2
f 145//91 146//91 98//91 97//91
f 175//92 176//92 128//92 127//92
f 156//93 157//93 109//93 108//93
f 169//94 170//94 122//94 121//94
f 162//95 163//95 115//95 114//95
f 185//96 186//96 138//96 137//96
f 182//97 183//97 135//97 134//97
f 155//98 156//98 108//98 107//98
f 149//99 150//99 102//99 101//99
f 159//100 160//100 112//100 111//100
f 179//101 180//101 132//101 131//101
f 188//102 189//102 141//102 140//102
f 176//103 177//103 129//103 128//103
f 147//104 148//104 100//104 99//104
f 180//105 181//105 133//105 132//105
f 167//95 168//95 120//95 119//95
f 168//106 169//106 121//106 120//106
f 192//107 145//107 97//107 144//107
f 178//108 179//108 131//108 130//108
f 183//109 184//109 136//109 135//109
f 173//110 174//110 126//110 125//110
f 191//111 192//111 144//111 143//111
f 186//112 187//112 139//112 138//112
f 165//95 166//95 118//95 117//95
f 187//113 188//113 140//113 139//113
f 164//95 165//95 117//95 116//95
f 158//95 159//95 111//95 110//95
f 166//114 167//114 119//114 118//114
f 150//115 151//115 103//115 102//115
f 171//116 172//116 124//116 123//116
f 157//117 158//117 110//117 109//117
f 160//95 161//95 113//95 112//95
f 184//118 185//118 137//118 136//118
f 148//119 149//119 101//119 100//119
f 170//120 171//120 123//120 122//120
f 146//121 147//121 99//121 98//121
f 189//122 190//122 142//122 141//122
f 174//123 175//123 127//123 126//123
f 163//114 164//114 116//114 115//114
f 190//124 191//124 143//124 142//124
f 152//125 153//125 105//125 104//125
f 181//113 182//113 134//113 133//113
f 153//126 154//126 106//126 105//126
f 161//95 162//95 114//95 113//95
f 154//127 155//127 107//127 106//127
f 172//128 173//128 125//128 124//128
f 151//129 152//129 104//129 103//129
f 177//130 178//130 130//130 129//130
