# Blender v2.69 (sub 0) OBJ File: ''
# www.blender.org
mtllib nya.mtl
o Curve_Mesh
v 9.624681 0.000000 0.016253
v 9.947161 0.000000 1.454642
v 12.671330 0.000000 0.987865
v 13.105680 0.000000 1.351580
v 12.990840 0.000000 1.572973
v 12.875082 0.000000 1.787993
v 12.758406 0.000000 1.996639
v 12.640812 0.000000 2.198910
v 12.522300 0.000000 2.394804
v 12.402869 0.000000 2.584321
v 12.282519 0.000000 2.767459
v 12.161252 0.000000 2.944219
v 12.039064 0.000000 3.114599
v 11.915958 0.000000 3.278597
v 11.791932 0.000000 3.436213
v 11.666987 0.000000 3.587447
v 11.659284 0.000000 3.583156
v 11.637512 0.000000 3.571028
v 11.603683 0.000000 3.552183
v 11.559806 0.000000 3.527741
v 11.507891 0.000000 3.498821
v 11.449945 0.000000 3.466542
v 11.387981 0.000000 3.432025
v 11.324008 0.000000 3.396388
v 11.260035 0.000000 3.360751
v 11.198070 0.000000 3.326234
v 11.140125 0.000000 3.293955
v 11.088208 0.000000 3.265034
v 11.198989 0.000000 3.139411
v 11.306851 0.000000 3.011766
v 11.411796 0.000000 2.882102
v 11.513821 0.000000 2.750418
v 11.612926 0.000000 2.616717
v 11.709110 0.000000 2.480999
v 11.802372 0.000000 2.343265
v 11.892711 0.000000 2.203517
v 11.980124 0.000000 2.061755
v 12.064613 0.000000 1.917981
v 12.146176 0.000000 1.772196
v 12.224813 0.000000 1.624402
v 12.196198 0.000000 1.629683
v 12.115334 0.000000 1.644609
v 11.989681 0.000000 1.667802
v 11.826708 0.000000 1.697883
v 11.633875 0.000000 1.733476
v 11.418650 0.000000 1.773201
v 11.188496 0.000000 1.815683
v 10.950876 0.000000 1.859542
v 10.713257 0.000000 1.903401
v 10.483103 0.000000 1.945882
v 10.267877 0.000000 1.985608
v 10.075046 0.000000 2.021201
v 10.802665 0.000000 5.332271
v 10.165993 0.000000 5.484924
v 9.438375 0.000000 2.140805
v 7.789104 0.000000 2.442796
v 7.660655 0.000000 1.851441
v 9.318745 0.000000 1.566522
v 9.008435 0.000000 0.140266
v 0.000282 0.000000 3.628785
v 6.722494 0.000000 3.628785
v 6.722494 0.000000 4.298370
v 0.000282 0.000000 4.298370
v 0.905387 0.000000 -0.000289
v 5.816825 0.000000 -0.000289
v 5.816825 0.000000 0.661043
v 0.905387 0.000000 0.661043
v 9.624681 0.010000 0.016253
v 9.947161 0.010000 1.454642
v 12.671330 0.010000 0.987865
v 13.105680 0.010000 1.351580
v 12.990840 0.010000 1.572973
v 12.875082 0.010000 1.787993
v 12.758406 0.010000 1.996639
v 12.640812 0.010000 2.198910
v 12.522300 0.010000 2.394804
v 12.402869 0.010000 2.584321
v 12.282519 0.010000 2.767459
v 12.161252 0.010000 2.944219
v 12.039064 0.010000 3.114599
v 11.915958 0.010000 3.278597
v 11.791932 0.010000 3.436213
v 11.666987 0.010000 3.587447
v 11.659284 0.010000 3.583156
v 11.637512 0.010000 3.571028
v 11.603683 0.010000 3.552183
v 11.559806 0.010000 3.527741
v 11.507891 0.010000 3.498821
v 11.449945 0.010000 3.466542
v 11.387981 0.010000 3.432025
v 11.324008 0.010000 3.396388
v 11.260035 0.010000 3.360751
v 11.198070 0.010000 3.326234
v 11.140125 0.010000 3.293955
v 11.088208 0.010000 3.265034
v 11.198989 0.010000 3.139411
v 11.306851 0.010000 3.011766
v 11.411796 0.010000 2.882102
v 11.513821 0.010000 2.750418
v 11.612926 0.010000 2.616717
v 11.709110 0.010000 2.480999
v 11.802372 0.010000 2.343265
v 11.892711 0.010000 2.203517
v 11.980124 0.010000 2.061755
v 12.064613 0.010000 1.917981
v 12.146176 0.010000 1.772196
v 12.224813 0.010000 1.624402
v 12.196198 0.010000 1.629683
v 12.115334 0.010000 1.644609
v 11.989681 0.010000 1.667802
v 11.826708 0.010000 1.697883
v 11.633875 0.010000 1.733476
v 11.418650 0.010000 1.773201
v 11.188496 0.010000 1.815683
v 10.950876 0.010000 1.859542
v 10.713257 0.010000 1.903401
v 10.483103 0.010000 1.945882
v 10.267877 0.010000 1.985608
v 10.075046 0.010000 2.021201
v 10.802665 0.010000 5.332271
v 10.165993 0.010000 5.484924
v 9.438375 0.010000 2.140805
v 7.789104 0.010000 2.442796
v 7.660655 0.010000 1.851441
v 9.318745 0.010000 1.566522
v 9.008435 0.010000 0.140266
v 0.000282 0.010000 3.628785
v 6.722494 0.010000 3.628785
v 6.722494 0.010000 4.298370
v 0.000282 0.010000 4.298370
v 0.905387 0.010000 -0.000289
v 5.816825 0.010000 -0.000289
v 5.816825 0.010000 0.661043
v 0.905387 0.010000 0.661043
v 9.624681 1.000000 0.016253
v 9.947161 1.000000 1.454642
v 12.671330 1.000000 0.987865
v 13.105680 1.000000 1.351580
v 12.990840 1.000000 1.572973
v 12.875082 0.999970 1.787993
v 12.758406 0.999970 1.996639
v 12.640812 1.000000 2.198910
v 12.522300 1.000000 2.394804
v 12.402869 1.000000 2.584321
v 12.282519 0.999970 2.767459
v 12.161252 1.000000 2.944219
v 12.039064 1.000000 3.114599
v 11.915958 1.000000 3.278597
v 11.791932 0.999970 3.436213
v 11.666987 1.000000 3.587447
v 11.659284 1.000000 3.583156
v 11.637512 1.000000 3.571028
v 11.603683 1.000000 3.552183
v 11.559806 0.999970 3.527741
v 11.507891 1.000000 3.498821
v 11.449945 1.000000 3.466542
v 11.387981 0.999970 3.432025
v 11.324008 1.000000 3.396388
v 11.260035 1.000000 3.360751
v 11.198070 1.000000 3.326234
v 11.140125 1.000000 3.293955
v 11.088208 0.999970 3.265034
v 11.198989 1.000000 3.139411
v 11.306851 1.000000 3.011766
v 11.411796 1.000000 2.882102
v 11.513821 1.000000 2.750418
v 11.612926 1.000000 2.616717
v 11.709110 0.999970 2.480999
v 11.802372 0.999970 2.343265
v 11.892711 1.000000 2.203517
v 11.980124 1.000000 2.061755
v 12.064613 0.999970 1.917981
v 12.146176 0.999970 1.772196
v 12.224813 1.000000 1.624402
v 12.196198 1.000000 1.629683
v 12.115334 1.000000 1.644609
v 11.989681 0.999970 1.667802
v 11.826708 1.000000 1.697883
v 11.633875 1.000000 1.733476
v 11.418650 1.000000 1.773201
v 11.188496 1.000000 1.815683
v 10.950876 1.000000 1.859542
v 10.713257 1.000000 1.903401
v 10.483103 1.000000 1.945882
v 10.267877 1.000000 1.985608
v 10.075046 1.000000 2.021201
v 10.802665 0.999970 5.332271
v 10.165993 1.000000 5.484924
v 9.438375 1.000000 2.140805
v 7.789104 1.000000 2.442796
v 7.660655 1.000000 1.851441
v 9.318745 1.000000 1.566522
v 9.008435 0.999970 0.140266
v 0.000282 1.000000 3.628785
v 6.722494 1.000000 3.628785
v 6.722494 1.000000 4.298370
v 0.000282 1.000000 4.298370
v 0.905387 1.000000 -0.000289
v 5.816825 1.000000 -0.000289
v 5.816825 1.000000 0.661043
v 0.905387 1.000000 0.661043
v 9.624681 -0.990000 0.016253
v 9.947161 -0.990000 1.454642
v 12.671330 -0.990000 0.987865
v 13.105680 -0.990000 1.351580
v 12.990840 -0.990000 1.572973
v 12.875082 -0.989970 1.787993
v 12.758406 -0.989970 1.996639
v 12.640812 -0.990000 2.198910
v 12.522300 -0.990000 2.394804
v 12.402869 -0.990000 2.584321
v 12.282519 -0.990000 2.767459
v 12.161252 -0.990000 2.944219
v 12.039064 -0.990000 3.114599
v 11.915958 -0.990000 3.278597
v 11.791932 -0.989970 3.436213
v 11.666987 -0.990000 3.587447
v 11.659284 -0.989970 3.583156
v 11.637512 -0.990000 3.571028
v 11.603683 -0.990000 3.552183
v 11.559806 -0.989970 3.527741
v 11.507891 -0.990000 3.498821
v 11.449945 -0.990000 3.466542
v 11.387981 -0.989970 3.432025
v 11.324008 -0.990000 3.396388
v 11.260035 -0.990000 3.360751
v 11.198070 -0.990000 3.326234
v 11.140125 -0.990000 3.293955
v 11.088208 -0.989970 3.265034
v 11.198989 -0.990000 3.139411
v 11.306851 -0.990000 3.011766
v 11.411796 -0.990000 2.882102
v 11.513821 -0.990000 2.750418
v 11.612926 -0.990000 2.616717
v 11.709110 -0.989970 2.480999
v 11.802372 -0.989970 2.343265
v 11.892711 -0.990000 2.203517
v 11.980124 -0.990000 2.061755
v 12.064613 -0.989970 1.917981
v 12.146176 -0.989970 1.772196
v 12.224813 -0.990000 1.624402
v 12.196198 -0.990000 1.629683
v 12.115334 -0.989970 1.644609
v 11.989681 -0.989970 1.667802
v 11.826708 -0.990000 1.697883
v 11.633875 -0.990000 1.733476
v 11.418650 -0.990000 1.773201
v 11.188496 -0.990000 1.815683
v 10.950876 -0.990000 1.859542
v 10.713257 -0.990000 1.903401
v 10.483103 -0.990000 1.945882
v 10.267877 -0.990000 1.985608
v 10.075046 -0.990000 2.021201
v 10.802665 -0.989970 5.332271
v 10.165993 -0.990000 5.484924
v 9.438375 -0.990000 2.140805
v 7.789104 -0.990000 2.442796
v 7.660655 -0.990000 1.851441
v 9.318745 -0.990000 1.566522
v 9.008435 -0.989970 0.140266
v 0.000282 -0.990000 3.628785
v 6.722494 -0.990000 3.628785
v 6.722494 -0.990000 4.298370
v 0.000282 -0.990000 4.298370
v 0.905387 -0.990000 -0.000289
v 5.816825 -0.990000 -0.000289
v 5.816825 -0.990000 0.661043
v 0.905387 -0.990000 0.661043
vn 0.000000 -1.000000 0.000000
vn 0.000000 0.000000 1.000000
vn 0.000000 1.000000 0.000000
vn 0.000000 1.000000 -0.000017
vn 0.000000 1.000000 0.000013
vn 0.000000 1.000000 -0.000042
vn 0.000000 0.999998 0.001953
vn 0.864517 0.000000 0.502603
vn 0.887682 0.000000 0.460456
vn -0.486648 0.000000 0.873598
vn 0.976695 0.000000 -0.214632
vn -0.486645 0.000000 0.873600
vn 0.785870 0.000000 0.618392
vn 0.181512 0.000000 0.983389
vn 0.233159 0.000000 0.972439
vn -0.828035 0.000000 -0.560676
vn -0.851186 0.000000 -0.524864
vn -1.000000 0.000000 0.000000
vn 0.824597 0.000000 0.565721
vn -0.486634 0.000000 0.873606
vn -0.486644 0.000000 0.873600
vn -0.763813 0.000000 -0.645438
vn -0.815882 0.000000 -0.578218
vn -0.882818 0.000000 -0.469715
vn 1.000000 0.000000 0.000000
vn -0.486651 0.000000 0.873597
vn 0.181511 0.000000 0.983389
vn -0.872701 0.000000 -0.488254
vn -0.977138 0.000000 0.212607
vn -0.169354 0.000000 -0.985555
vn -0.839807 0.000000 -0.542885
vn 0.181513 0.000000 0.983389
vn -0.750026 0.000000 -0.661408
vn 0.799749 0.000000 0.600334
vn 0.180111 0.000000 0.983646
vn -0.486637 0.000000 0.873604
vn -0.977213 0.000000 0.212262
vn 0.642013 0.000000 -0.766694
vn -0.977140 0.000000 0.212596
vn -0.790501 0.000000 -0.612461
vn -0.803362 0.000000 -0.595490
vn 0.872801 0.000000 0.488077
vn -0.486640 0.000000 0.873603
vn 0.855607 0.000000 0.517626
vn 0.880509 0.000000 0.474030
vn -0.777311 0.000000 -0.629117
vn -0.197284 0.000000 -0.980346
vn -0.486653 0.000000 0.873596
vn -0.168885 0.000000 -0.985636
vn -0.862154 0.000000 -0.506646
vn -0.486649 0.000000 0.873597
vn 0.812631 0.000000 0.582779
vn 0.835702 0.000000 0.549183
vn 0.000000 0.000000 -1.000000
vn -0.486649 0.000000 0.873598
vn 0.846022 0.000000 0.533148
vn 0.975778 0.000000 -0.218765
vn 0.770931 0.000000 0.636919
vn -0.486642 0.000000 0.873602
vn -0.486647 0.000000 0.873599
vn -0.000047 1.000000 0.000011
vn -0.000004 1.000000 -0.000021
vn 0.000010 1.000000 0.000147
vn -0.000004 1.000000 0.000203
vn 0.000081 0.999998 0.001764
vn -0.000047 0.999999 -0.001274
vn 0.000000 1.000000 0.000001
vn 0.000023 1.000000 -0.000199
vn 0.000028 1.000000 -0.000135
vn 0.000002 1.000000 0.000009
vn 0.000045 1.000000 -0.000010
vn -0.000055 1.000000 0.000182
vn -0.000040 1.000000 -0.000027
vn -0.000040 1.000000 -0.000025
vn -0.000009 1.000000 -0.000232
vn 0.000007 1.000000 0.000171
vn 0.000039 1.000000 0.000030
vn 0.000014 1.000000 -0.000163
vn -0.000040 1.000000 0.000208
vn -0.000020 1.000000 -0.001019
vn 0.000004 1.000000 0.000197
vn 0.000077 1.000000 -0.000140
vn 0.000077 1.000000 -0.000139
vn 0.000077 1.000000 -0.000135
vn -0.000009 1.000000 0.000868
vn 0.000009 1.000000 -0.000898
vn 0.000077 1.000000 -0.000138
vn -0.485263 0.022521 0.874078
vn 0.485492 0.000000 -0.874241
vn -0.000047 -1.000000 0.000011
vn -0.000004 -1.000000 -0.000021
vn 0.000010 -1.000000 0.000147
vn -0.000004 -1.000000 0.000203
vn 0.000136 -0.999996 0.002779
vn 0.000009 -1.000000 0.000049
vn -0.000047 -0.999999 -0.001274
vn 0.000000 -1.000000 0.000004
vn 0.000000 -1.000000 -0.000003
vn 0.000000 -0.999981 -0.006097
vn 0.000023 -1.000000 -0.000198
vn 0.000028 -1.000000 -0.000135
vn 0.000000 -1.000000 0.000048
vn 0.000002 -1.000000 0.000009
vn 0.000000 -1.000000 -0.000001
vn 0.000045 -1.000000 -0.000010
vn -0.000055 -1.000000 0.000183
vn -0.000040 -1.000000 -0.000026
vn -0.000009 -1.000000 -0.000232
vn -0.000040 -1.000000 0.000208
vn -0.000020 -1.000000 -0.001021
vn 0.000004 -1.000000 0.000197
vn 0.000077 -1.000000 -0.000140
vn 0.000077 -1.000000 -0.000139
vn -0.000009 -1.000000 0.000869
vn 0.000009 -1.000000 -0.000897
vn 0.000097 -1.000000 0.000087
vn -0.002631 -0.999994 -0.002368
vn 0.480978 -0.058319 -0.874791
vn -0.486964 -0.034394 0.872745
vn 0.488166 0.000000 -0.872751
vn 0.486080 0.000000 -0.873914
vn 0.785869 0.000000 0.618392
vn 0.233158 0.000000 0.972439
vn -0.851186 0.000000 -0.524863
vn -0.486637 0.000000 0.873605
vn -0.486650 0.000000 0.873597
vn -0.790501 0.000000 -0.612460
vn -0.803362 0.000000 -0.595491
vn -0.486639 0.000000 0.873603
vn 0.181508 0.000000 0.983390
vn -0.486656 0.000000 0.873594
vn -0.486652 0.000000 0.873596
vn 0.812631 0.000000 0.582778
vn -0.486646 0.000000 0.873599
vn 0.770931 0.000000 0.636918
usemtl SVGMat.001
s off
f 63//1 60//1 61//1
f 63//1 61//1 62//1
f 67//1 64//1 65//1
f 67//1 65//1 66//1
f 59//1 1//1 2//1
f 58//1 59//1 2//1
f 2//1 3//1 4//1
f 2//1 4//1 5//1
f 58//1 2//1 5//1
f 57//1 58//1 5//1
f 57//1 5//1 40//1
f 40//1 5//1 6//1
f 57//1 40//1 41//1
f 39//1 40//1 6//1
f 57//1 41//1 42//1
f 57//1 42//1 43//1
f 57//1 43//1 44//1
f 57//1 44//1 45//1
f 57//1 45//1 46//1
f 38//1 39//1 6//1
f 57//1 46//1 47//1
f 38//1 6//1 7//1
f 57//1 47//1 48//1
f 56//1 57//1 48//1
f 56//1 48//1 49//1
f 56//1 49//1 50//1
f 37//1 38//1 7//1
f 56//1 50//1 51//1
f 56//1 51//1 52//1
f 37//1 7//1 8//1
f 56//1 52//1 55//1
f 55//1 52//1 53//1
f 36//1 37//1 8//1
f 54//1 55//1 53//1
f 36//1 8//1 9//1
f 35//1 36//1 9//1
f 34//1 35//1 9//1
f 34//1 9//1 10//1
f 33//1 34//1 10//1
f 33//1 10//1 11//1
f 32//1 33//1 11//1
f 31//1 32//1 11//1
f 31//1 11//1 12//1
f 30//1 31//1 12//1
f 30//1 12//1 13//1
f 29//1 30//1 13//1
f 29//1 13//1 14//1
f 28//1 29//1 14//1
f 27//1 28//1 14//1
f 27//1 14//1 15//1
f 26//1 27//1 15//1
f 25//1 26//1 15//1
f 24//1 25//1 15//1
f 23//1 24//1 15//1
f 22//1 23//1 15//1
f 22//1 15//1 17//1
f 17//1 15//1 16//1
f 21//1 22//1 17//1
f 20//1 21//1 17//1
f 19//2 20//2 17//2
f 18//2 19//2 17//2
f 130//3 128//3 127//3
f 130//3 129//3 128//3
f 134//3 132//3 131//3
f 134//3 133//3 132//3
f 126//3 69//3 68//3
f 125//3 69//3 126//3
f 69//3 71//3 70//3
f 69//3 72//3 71//3
f 125//3 72//3 69//3
f 124//3 72//3 125//3
f 124//3 107//3 72//3
f 107//3 73//3 72//3
f 124//3 108//3 107//3
f 106//3 73//3 107//3
f 124//3 109//3 108//3
f 124//3 110//3 109//3
f 124//3 111//3 110//3
f 124//3 112//3 111//3
f 124//3 113//3 112//3
f 105//3 73//3 106//3
f 124//3 114//3 113//3
f 105//3 74//3 73//3
f 124//3 115//3 114//3
f 123//3 115//3 124//3
f 123//4 116//4 115//4
f 123//3 117//3 116//3
f 104//3 74//3 105//3
f 123//5 118//5 117//5
f 123//6 119//6 118//6
f 104//3 75//3 74//3
f 123//3 122//3 119//3
f 122//3 120//3 119//3
f 103//3 75//3 104//3
f 121//3 120//3 122//3
f 103//3 76//3 75//3
f 102//3 76//3 103//3
f 101//3 76//3 102//3
f 101//3 77//3 76//3
f 100//3 77//3 101//3
f 100//3 78//3 77//3
f 99//3 78//3 100//3
f 98//3 78//3 99//3
f 98//3 79//3 78//3
f 97//3 79//3 98//3
f 97//3 80//3 79//3
f 96//3 80//3 97//3
f 96//3 81//3 80//3
f 95//3 81//3 96//3
f 94//3 81//3 95//3
f 94//3 82//3 81//3
f 93//3 82//3 94//3
f 92//3 82//3 93//3
f 91//3 82//3 92//3
f 90//3 82//3 91//3
f 89//3 82//3 90//3
f 89//3 84//3 82//3
f 84//3 83//3 82//3
f 88//7 84//7 89//7
f 87//3 84//3 88//3
f 86//2 84//2 87//2
f 85//2 84//2 86//2
f 8//8 7//8 74//8 75//8
f 5//9 4//9 71//9 72//9
f 27//10 26//10 93//10 94//10
f 53//11 52//11 119//11 120//11
f 24//12 23//12 90//12 91//12
f 15//13 14//13 81//13 82//13
f 44//14 43//14 110//14 111//14
f 54//15 53//15 120//15 121//15
f 35//16 34//16 101//16 102//16
f 37//17 36//17 103//17 104//17
f 64//18 67//18 134//18 131//18
f 12//19 11//19 78//19 79//19
f 67//2 66//2 133//2 134//2
f 26//20 25//20 92//20 93//20
f 23//21 22//21 89//21 90//21
f 30//22 29//22 96//22 97//22
f 34//23 33//23 100//23 101//23
f 40//24 39//24 106//24 107//24
f 66//25 65//25 132//25 133//25
f 21//26 20//26 87//26 88//26
f 49//27 48//27 115//27 116//27
f 39//28 38//28 105//28 106//28
f 55//29 54//29 121//29 122//29
f 58//30 57//30 124//30 125//30
f 36//31 35//31 102//31 103//31
f 42//32 41//32 108//32 109//32
f 29//33 28//33 95//33 96//33
f 14//34 13//34 80//34 81//34
f 56//35 55//35 122//35 123//35
f 52//14 51//14 118//14 119//14
f 18//36 17//36 84//36 85//36
f 57//37 56//37 123//37 124//37
f 4//38 3//38 70//38 71//38
f 46//14 45//14 112//14 113//14
f 59//39 58//39 125//39 126//39
f 60//18 63//18 130//18 127//18
f 47//14 46//14 113//14 114//14
f 32//40 31//40 98//40 99//40
f 33//41 32//41 99//41 100//41
f 7//42 6//42 73//42 74//42
f 50//14 49//14 116//14 117//14
f 20//43 19//43 86//43 87//43
f 9//44 8//44 75//44 76//44
f 6//45 5//45 72//45 73//45
f 41//14 40//14 107//14 108//14
f 31//46 30//46 97//46 98//46
f 1//47 59//47 126//47 68//47
f 62//25 61//25 128//25 129//25
f 17//48 16//48 83//48 84//48
f 43//27 42//27 109//27 110//27
f 3//49 2//49 69//49 70//49
f 63//2 62//2 129//2 130//2
f 38//50 37//50 104//50 105//50
f 48//27 47//27 114//27 115//27
f 51//14 50//14 117//14 118//14
f 19//51 18//51 85//51 86//51
f 13//52 12//52 79//52 80//52
f 11//53 10//53 77//53 78//53
f 61//54 60//54 127//54 128//54
f 25//55 24//55 91//55 92//55
f 10//56 9//56 76//56 77//56
f 65//54 64//54 131//54 132//54
f 2//57 1//57 68//57 69//57
f 45//27 44//27 111//27 112//27
f 16//58 15//58 82//58 83//58
f 22//59 21//59 88//59 89//59
f 28//60 27//60 94//60 95//60
f 195//3 194//3 197//3
f 196//3 195//3 197//3
f 199//3 198//3 201//3
f 200//3 199//3 201//3
f 136//61 135//61 193//61
f 136//62 193//62 192//62
f 138//3 137//3 136//3
f 139//3 138//3 136//3
f 139//3 136//3 192//3
f 139//3 192//3 191//3
f 174//3 139//3 191//3
f 140//63 139//63 174//63
f 175//3 174//3 191//3
f 140//64 174//64 173//64
f 176//3 175//3 191//3
f 177//65 176//65 191//65
f 178//66 177//66 191//66
f 179//3 178//3 191//3
f 180//3 179//3 191//3
f 140//3 173//3 172//3
f 181//3 180//3 191//3
f 141//67 140//67 172//67
f 182//3 181//3 191//3
f 182//3 191//3 190//3
f 183//3 182//3 190//3
f 184//3 183//3 190//3
f 141//68 172//68 171//68
f 185//3 184//3 190//3
f 186//3 185//3 190//3
f 142//69 141//69 171//69
f 189//3 186//3 190//3
f 187//70 186//70 189//70
f 142//3 171//3 170//3
f 187//71 189//71 188//71
f 143//3 142//3 170//3
f 143//72 170//72 169//72
f 143//73 169//73 168//73
f 144//74 143//74 168//74
f 144//75 168//75 167//75
f 145//76 144//76 167//76
f 145//77 167//77 166//77
f 145//77 166//77 165//77
f 146//78 145//78 165//78
f 146//3 165//3 164//3
f 147//3 146//3 164//3
f 147//3 164//3 163//3
f 148//3 147//3 163//3
f 148//79 163//79 162//79
f 148//80 162//80 161//80
f 149//81 148//81 161//81
f 149//82 161//82 160//82
f 149//83 160//83 159//83
f 149//84 159//84 158//84
f 149//85 158//85 157//85
f 149//86 157//86 156//86
f 151//87 149//87 156//87
f 150//82 149//82 151//82
f 151//3 156//3 155//3
f 151//88 155//88 154//88
f 151//89 154//89 153//89
f 151//2 153//2 152//2
f 261//1 262//1 264//1
f 262//1 263//1 264//1
f 265//1 266//1 268//1
f 266//1 267//1 268//1
f 202//90 203//90 260//90
f 260//91 203//91 259//91
f 204//1 205//1 203//1
f 205//1 206//1 203//1
f 203//1 206//1 259//1
f 259//1 206//1 258//1
f 206//1 241//1 258//1
f 206//92 207//92 241//92
f 241//1 242//1 258//1
f 241//93 207//93 240//93
f 242//94 243//94 258//94
f 243//95 244//95 258//95
f 244//96 245//96 258//96
f 245//97 246//97 258//97
f 246//1 247//1 258//1
f 240//1 207//1 239//1
f 247//98 248//98 258//98
f 207//1 208//1 239//1
f 248//1 249//1 258//1
f 258//1 249//1 257//1
f 249//1 250//1 257//1
f 250//99 251//99 257//99
f 239//100 208//100 238//100
f 251//1 252//1 257//1
f 252//1 253//1 257//1
f 208//101 209//101 238//101
f 253//102 256//102 257//102
f 253//103 254//103 256//103
f 238//104 209//104 237//104
f 256//105 254//105 255//105
f 209//1 210//1 237//1
f 237//106 210//106 236//106
f 236//107 210//107 235//107
f 210//107 211//107 235//107
f 235//108 211//108 234//108
f 211//1 212//1 234//1
f 234//1 212//1 233//1
f 233//1 212//1 232//1
f 212//1 213//1 232//1
f 232//1 213//1 231//1
f 213//1 214//1 231//1
f 231//1 214//1 230//1
f 214//1 215//1 230//1
f 230//109 215//109 229//109
f 229//110 215//110 228//110
f 215//111 216//111 228//111
f 228//112 216//112 227//112
f 227//113 216//113 226//113
f 226//113 216//113 225//113
f 225//114 216//114 224//114
f 224//115 216//115 223//115
f 216//116 218//116 223//116
f 216//117 217//117 218//117
f 223//118 218//118 222//118
f 222//119 218//119 221//119
f 221//120 218//120 220//120
f 220//121 218//121 219//121
f 209//8 208//8 141//8 142//8
f 206//9 205//9 138//9 139//9
f 228//10 227//10 160//10 161//10
f 254//11 253//11 186//11 187//11
f 225//12 224//12 157//12 158//12
f 216//122 215//122 148//122 149//122
f 245//32 244//32 177//32 178//32
f 255//123 254//123 187//123 188//123
f 236//16 235//16 168//16 169//16
f 238//124 237//124 170//124 171//124
f 265//18 268//18 201//18 198//18
f 213//19 212//19 145//19 146//19
f 268//2 267//2 200//2 201//2
f 227//125 226//125 159//125 160//125
f 224//12 223//12 156//12 157//12
f 231//22 230//22 163//22 164//22
f 235//23 234//23 167//23 168//23
f 241//24 240//24 173//24 174//24
f 267//25 266//25 199//25 200//25
f 222//126 221//126 154//126 155//126
f 250//27 249//27 182//27 183//27
f 240//28 239//28 172//28 173//28
f 256//29 255//29 188//29 189//29
f 259//30 258//30 191//30 192//30
f 237//31 236//31 169//31 170//31
f 243//32 242//32 175//32 176//32
f 230//33 229//33 162//33 163//33
f 215//34 214//34 147//34 148//34
f 257//35 256//35 189//35 190//35
f 253//14 252//14 185//14 186//14
f 219//20 218//20 151//20 152//20
f 258//37 257//37 190//37 191//37
f 205//38 204//38 137//38 138//38
f 247//14 246//14 179//14 180//14
f 260//39 259//39 192//39 193//39
f 261//18 264//18 197//18 194//18
f 248//14 247//14 180//14 181//14
f 233//127 232//127 165//127 166//127
f 234//128 233//128 166//128 167//128
f 208//42 207//42 140//42 141//42
f 251//14 250//14 183//14 184//14
f 221//129 220//129 153//129 154//129
f 210//44 209//44 142//44 143//44
f 207//45 206//45 139//45 140//45
f 242//130 241//130 174//130 175//130
f 232//46 231//46 164//46 165//46
f 202//47 260//47 193//47 135//47
f 263//25 262//25 195//25 196//25
f 218//131 217//131 150//131 151//131
f 244//27 243//27 176//27 177//27
f 204//49 203//49 136//49 137//49
f 264//2 263//2 196//2 197//2
f 239//50 238//50 171//50 172//50
f 249//27 248//27 181//27 182//27
f 252//14 251//14 184//14 185//14
f 220//132 219//132 152//132 153//132
f 214//133 213//133 146//133 147//133
f 212//53 211//53 144//53 145//53
f 262//54 261//54 194//54 195//54
f 226//134 225//134 158//134 159//134
f 211//56 210//56 143//56 144//56
f 266//54 265//54 198//54 199//54
f 203//57 202//57 135//57 136//57
f 246//27 245//27 178//27 179//27
f 217//135 216//135 149//135 150//135
f 223//59 222//59 155//59 156//59
f 229//51 228//51 161//51 162//51
