# Blender v2.69 (sub 0) OBJ File: ''
# www.blender.org
mtllib nyu.mtl
o Curve_Mesh
v 0.905387 0.000000 -0.000260
v 5.816825 0.000000 -0.000260
v 5.816825 0.000000 0.661072
v 0.905387 0.000000 0.661072
v 8.516724 0.000000 0.818134
v 12.030781 0.000000 0.818134
v 12.016564 0.000000 1.044466
v 12.000236 0.000000 1.278308
v 11.981792 0.000000 1.519660
v 11.961233 0.000000 1.768524
v 11.938558 0.000000 2.024900
v 11.913765 0.000000 2.288791
v 11.886852 0.000000 2.560196
v 11.857821 0.000000 2.839118
v 11.826667 0.000000 3.125556
v 11.793391 0.000000 3.419513
v 11.757992 0.000000 3.720989
v 11.720469 0.000000 4.029986
v 11.742319 0.000000 4.029986
v 11.804068 0.000000 4.029986
v 11.900015 0.000000 4.029986
v 12.024460 0.000000 4.029986
v 12.171705 0.000000 4.029986
v 12.336049 0.000000 4.029986
v 12.511793 0.000000 4.029986
v 12.693236 0.000000 4.029986
v 12.874681 0.000000 4.029986
v 13.050425 0.000000 4.029986
v 13.214770 0.000000 4.029986
v 13.362015 0.000000 4.029986
v 13.362015 0.000000 4.620776
v 7.747758 0.000000 4.620776
v 7.747758 0.000000 4.029986
v 11.058997 0.000000 4.029986
v 11.090520 0.000000 3.769841
v 11.120263 0.000000 3.517165
v 11.148227 0.000000 3.271960
v 11.174411 0.000000 3.034223
v 11.198812 0.000000 2.803956
v 11.221434 0.000000 2.581157
v 11.242271 0.000000 2.365828
v 11.261326 0.000000 2.157966
v 11.278598 0.000000 1.957573
v 11.294086 0.000000 1.764648
v 11.307789 0.000000 1.579190
v 11.319707 0.000000 1.401199
v 11.282398 0.000000 1.401199
v 11.176963 0.000000 1.401199
v 11.013131 0.000000 1.401199
v 10.800636 0.000000 1.401199
v 10.549211 0.000000 1.401199
v 10.268588 0.000000 1.401199
v 9.968500 0.000000 1.401199
v 9.658680 0.000000 1.401199
v 9.348860 0.000000 1.401199
v 9.048772 0.000000 1.401199
v 8.768149 0.000000 1.401199
v 8.516724 0.000000 1.401199
v 0.000282 0.000000 3.628778
v 6.722494 0.000000 3.628778
v 6.722494 0.000000 4.298398
v 0.000282 0.000000 4.298398
v 0.905387 0.010000 -0.000260
v 5.816825 0.010000 -0.000260
v 5.816825 0.010000 0.661072
v 0.905387 0.010000 0.661072
v 8.516724 0.010000 0.818134
v 12.030781 0.010000 0.818134
v 12.016564 0.010000 1.044466
v 12.000236 0.010000 1.278308
v 11.981792 0.010000 1.519660
v 11.961233 0.010000 1.768524
v 11.938558 0.010000 2.024900
v 11.913765 0.010000 2.288791
v 11.886852 0.010000 2.560196
v 11.857821 0.010000 2.839118
v 11.826667 0.010000 3.125556
v 11.793391 0.010000 3.419513
v 11.757992 0.010000 3.720989
v 11.720469 0.010000 4.029986
v 11.742319 0.010000 4.029986
v 11.804068 0.010000 4.029986
v 11.900015 0.010000 4.029986
v 12.024460 0.010000 4.029986
v 12.171705 0.010000 4.029986
v 12.336049 0.010000 4.029986
v 12.511793 0.010000 4.029986
v 12.693236 0.010000 4.029986
v 12.874681 0.010000 4.029986
v 13.050425 0.010000 4.029986
v 13.214770 0.010000 4.029986
v 13.362015 0.010000 4.029986
v 13.362015 0.010000 4.620776
v 7.747758 0.010000 4.620776
v 7.747758 0.010000 4.029986
v 11.058997 0.010000 4.029986
v 11.090520 0.010000 3.769841
v 11.120263 0.010000 3.517165
v 11.148227 0.010000 3.271960
v 11.174411 0.010000 3.034223
v 11.198812 0.010000 2.803956
v 11.221434 0.010000 2.581157
v 11.242271 0.010000 2.365828
v 11.261326 0.010000 2.157966
v 11.278598 0.010000 1.957573
v 11.294086 0.010000 1.764648
v 11.307789 0.010000 1.579190
v 11.319707 0.010000 1.401199
v 11.282398 0.010000 1.401199
v 11.176963 0.010000 1.401199
v 11.013131 0.010000 1.401199
v 10.800636 0.010000 1.401199
v 10.549211 0.010000 1.401199
v 10.268588 0.010000 1.401199
v 9.968500 0.010000 1.401199
v 9.658680 0.010000 1.401199
v 9.348860 0.010000 1.401199
v 9.048772 0.010000 1.401199
v 8.768149 0.010000 1.401199
v 8.516724 0.010000 1.401199
v 0.000282 0.010000 3.628778
v 6.722494 0.010000 3.628778
v 6.722494 0.010000 4.298398
v 0.000282 0.010000 4.298398
v 0.905387 -0.999970 -0.000260
v 5.816825 -1.000000 -0.000260
v 5.816825 -0.999970 0.661072
v 0.905387 -1.000000 0.661072
v 8.516724 -0.999970 0.818134
v 12.030781 -1.000000 0.818134
v 12.016564 -1.000000 1.044466
v 12.000236 -1.000000 1.278308
v 11.981792 -1.000000 1.519660
v 11.961233 -1.000000 1.768524
v 11.938558 -0.999970 2.024900
v 11.913765 -1.000000 2.288791
v 11.886852 -1.000000 2.560196
v 11.857821 -1.000000 2.839118
v 11.826667 -0.999970 3.125556
v 11.793391 -1.000000 3.419513
v 11.757992 -0.999970 3.720989
v 11.720469 -1.000000 4.029986
v 11.742319 -1.000000 4.029986
v 11.804068 -1.000000 4.029986
v 11.900015 -1.000000 4.029986
v 12.024460 -1.000000 4.029986
v 12.171705 -1.000000 4.029986
v 12.336049 -1.000000 4.029986
v 12.511793 -1.000000 4.029986
v 12.693236 -1.000000 4.029986
v 12.874681 -1.000000 4.029986
v 13.050425 -1.000000 4.029986
v 13.214770 -1.000000 4.029986
v 13.362015 -1.000000 4.029986
v 13.362015 -1.000000 4.620776
v 7.747758 -1.000000 4.620776
v 7.747758 -1.000000 4.029986
v 11.058997 -1.000000 4.029986
v 11.090520 -1.000000 3.769841
v 11.120263 -1.000000 3.517165
v 11.148227 -0.999970 3.271960
v 11.174411 -1.000000 3.034223
v 11.198812 -1.000000 2.803956
v 11.221434 -1.000000 2.581157
v 11.242271 -0.999970 2.365828
v 11.261326 -1.000000 2.157966
v 11.278598 -1.000000 1.957573
v 11.294086 -1.000000 1.764648
v 11.307789 -1.000000 1.579190
v 11.319707 -0.999970 1.401199
v 10.290029 0.000000 1.277966
v 10.184745 0.000000 1.276836
v 10.021157 0.000000 1.275005
v 9.808968 0.000000 1.272564
v 9.557940 0.000000 1.269543
v 9.277775 0.000000 1.266002
v 8.978235 0.000000 1.262035
v 8.669056 0.000000 1.257640
v 8.359907 0.000000 1.253001
v 8.060553 0.000000 1.248180
v 7.780693 0.000000 1.243419
v 8.516724 -1.000000 1.401199
v 0.000282 -1.000000 3.628778
v 6.722494 -1.000000 3.628778
v 6.722494 -1.000000 4.298398
v 0.000282 -1.000000 4.298398
v 0.905387 1.009969 -0.000260
v 5.816825 1.010000 -0.000260
v 5.816825 1.009969 0.661072
v 0.905387 1.010000 0.661072
v 8.516724 1.009969 0.818134
v 12.030781 1.010000 0.818134
v 12.016564 1.010000 1.044466
v 12.000236 1.010000 1.278308
v 11.981792 1.010000 1.519660
v 11.961233 1.010000 1.768524
v 11.938558 1.009969 2.024900
v 11.913765 1.010000 2.288791
v 11.886852 1.010000 2.560196
v 11.857821 1.010000 2.839118
v 11.826667 1.009969 3.125556
v 11.793391 1.010000 3.419513
v 11.757992 1.009969 3.720989
v 11.720469 1.010000 4.029986
v 11.742319 1.010000 4.029986
v 11.804068 1.010000 4.029986
v 11.900015 1.010000 4.029986
v 12.024460 1.010000 4.029986
v 12.171705 1.010000 4.029986
v 12.336049 1.010000 4.029986
v 12.511793 1.010000 4.029986
v 12.693236 1.010000 4.029986
v 12.874681 1.010000 4.029986
v 13.050425 1.010000 4.029986
v 13.214770 1.010000 4.029986
v 13.362015 1.010000 4.029986
v 13.362015 1.010000 4.620776
v 7.747758 1.010000 4.620776
v 7.747758 1.010000 4.029986
v 11.058997 1.010000 4.029986
v 11.090520 1.010000 3.769841
v 11.120263 1.010000 3.517165
v 11.148227 1.009969 3.271960
v 11.174411 1.010000 3.034223
v 11.198812 1.010000 2.803956
v 11.221434 1.010000 2.581157
v 11.242271 1.009969 2.365828
v 11.261326 1.010000 2.157966
v 11.278598 1.010000 1.957573
v 11.294086 1.010000 1.764648
v 11.307789 1.010000 1.579190
v 11.319707 1.009969 1.401199
v 10.290029 0.010000 1.277966
v 10.184745 0.010000 1.276836
v 10.021157 0.010000 1.275005
v 9.808968 0.010000 1.272564
v 9.557940 0.010000 1.269543
v 9.277775 0.010000 1.266002
v 8.978235 0.010000 1.262035
v 8.669056 0.010000 1.257640
v 8.359907 0.010000 1.253001
v 8.060553 0.010000 1.248180
v 7.780693 0.010000 1.243419
v 8.516724 1.010000 1.401199
v 0.000282 1.010000 3.628778
v 6.722494 1.010000 3.628778
v 6.722494 1.010000 4.298398
v 0.000282 1.010000 4.298398
vn 0.000000 1.000000 0.000000
vn 0.000000 0.000000 1.000000
vn 0.000000 -1.000000 0.000000
vn 0.000000 0.000000 -1.000000
vn 0.997766 0.000000 0.066809
vn -0.994627 0.000000 -0.103526
vn 0.994432 0.000000 0.105381
vn -0.997093 0.000000 -0.076194
vn -1.000000 0.000000 0.000000
vn 1.000000 0.000000 0.000000
vn 0.993560 0.000000 0.113307
vn 0.993143 0.000000 0.116906
vn -0.992708 0.000000 -0.120547
vn -0.995120 0.000000 -0.098677
vn -0.998033 0.000000 -0.062689
vn -0.996111 0.000000 -0.088102
vn 0.996793 0.000000 0.080021
vn 0.994885 0.000000 0.101013
vn 0.992738 0.000000 0.120294
vn -0.997571 0.000000 -0.069659
vn 0.996306 0.000000 0.085872
vn 0.997281 0.000000 0.073688
vn -0.996605 0.000000 -0.082332
vn -0.993654 0.000000 -0.112481
vn 0.995350 0.000000 0.096322
vn 0.995825 0.000000 0.091286
vn -0.994137 0.000000 -0.108124
vn -0.993177 0.000000 -0.116619
vn -0.995616 0.000000 -0.093539
vn 0.993989 0.000000 0.109477
vn -0.000009 -1.000000 -0.000001
vn -0.000005 -1.000000 -0.000052
vn -0.000045 -1.000000 -0.000004
vn 0.000011 -1.000000 0.000308
vn -0.000015 -1.000000 -0.000172
vn -0.000001 0.122311 0.992492
vn -0.010617 0.140825 0.989978
vn -0.011080 0.141585 0.989864
vn -0.011388 0.142039 0.989796
vn -0.011911 0.142702 0.989694
vn -0.012505 0.143308 0.989599
vn -0.013107 0.143755 0.989527
vn -0.014064 0.144187 0.989450
vn -0.014847 0.144302 0.989422
vn -0.015938 0.144132 0.989430
vn -0.016832 0.143731 0.989474
vn 0.000034 -1.000000 0.000122
vn 0.000046 -1.000000 0.000004
vn 0.000023 -1.000000 -0.000113
vn -0.000029 -1.000000 0.000144
vn -0.000046 -1.000000 -0.000005
vn -0.000004 -1.000000 -0.000142
vn 0.000031 -1.000000 0.000110
vn 0.000028 -1.000000 0.000131
vn -0.000023 -1.000000 -0.000106
vn -0.000018 -1.000000 -0.000126
vn 0.000015 -1.000000 0.000103
vn 0.000046 -1.000000 0.000006
vn 0.000039 -1.000000 -0.000094
vn -0.000006 -1.000000 0.000046
vn 0.000006 -1.000000 -0.000046
vn -0.000009 1.000000 -0.000001
vn -0.000005 1.000000 -0.000052
vn -0.000045 1.000000 -0.000004
vn 0.000011 1.000000 0.000309
vn -0.000015 1.000000 -0.000173
vn -0.000001 -0.122311 0.992492
vn -0.010617 -0.140826 0.989978
vn -0.011080 -0.141585 0.989864
vn -0.011388 -0.142039 0.989796
vn -0.011911 -0.142702 0.989694
vn -0.012505 -0.143308 0.989599
vn -0.013107 -0.143755 0.989526
vn -0.014064 -0.144188 0.989450
vn -0.014847 -0.144302 0.989422
vn -0.015938 -0.144132 0.989430
vn -0.016832 -0.143731 0.989474
vn 0.000034 1.000000 0.000121
vn 0.000046 1.000000 0.000004
vn 0.000023 1.000000 -0.000113
vn -0.000029 1.000000 0.000144
vn -0.000046 1.000000 -0.000005
vn -0.000004 1.000000 -0.000142
vn 0.000031 1.000000 0.000110
vn 0.000028 1.000000 0.000131
vn -0.000023 1.000000 -0.000106
vn -0.000018 1.000000 -0.000127
vn 0.000015 1.000000 0.000103
vn 0.000046 1.000000 0.000006
vn 0.000039 1.000000 -0.000094
vn 0.000000 1.000000 0.000001
vn -0.000006 1.000000 0.000046
vn 0.000006 1.000000 -0.000046
vn -0.997766 0.000000 -0.066809
vn -0.013244 0.000000 0.999912
vn 0.994627 0.000000 0.103526
vn -0.994432 0.000000 -0.105381
vn 0.209605 0.000000 -0.977786
vn -0.012635 0.000000 0.999920
vn 0.997093 0.000000 0.076194
vn -0.118834 0.000000 0.992914
vn -0.016105 0.000000 0.999870
vn -0.011505 0.000000 0.999934
vn -0.993560 0.000000 -0.113307
vn -0.010726 0.000000 0.999942
vn -0.993143 0.000000 -0.116906
vn 0.992708 0.000000 0.120547
vn 0.995120 0.000000 0.098676
vn 0.998033 0.000000 0.062689
vn 0.996111 0.000000 0.088102
vn -0.996793 0.000000 -0.080021
vn -0.994885 0.000000 -0.101013
vn -0.992738 0.000000 -0.120294
vn -0.011193 0.000000 0.999937
vn 0.997571 0.000000 0.069659
vn -0.996306 0.000000 -0.085872
vn -0.997281 0.000000 -0.073688
vn -0.014212 0.000000 0.999899
vn -0.012035 0.000000 0.999928
vn 0.996605 0.000000 0.082332
vn 0.993654 0.000000 0.112481
vn -0.995350 0.000000 -0.096321
vn -0.995825 0.000000 -0.091286
vn -0.017009 0.000000 0.999855
vn -0.015004 0.000000 0.999887
vn 0.994137 0.000000 0.108125
vn 0.993177 0.000000 0.116619
vn 0.995616 0.000000 0.093539
vn -0.993989 0.000000 -0.109477
usemtl SVGMat.001
s off
f 7//1 6//1 5//1
f 7//1 5//1 58//1
f 8//1 7//1 58//1
f 9//1 8//1 46//1
f 46//1 8//1 58//1
f 9//1 46//1 45//1
f 47//2 46//2 58//2
f 48//2 47//2 58//2
f 49//2 48//2 58//2
f 50//2 49//2 58//2
f 51//2 50//2 58//2
f 52//2 51//2 58//2
f 53//2 52//2 58//2
f 54//2 53//2 58//2
f 55//2 54//2 58//2
f 56//2 55//2 58//2
f 57//2 56//2 58//2
f 10//1 9//1 45//1
f 10//1 45//1 44//1
f 10//1 44//1 43//1
f 11//1 10//1 43//1
f 11//1 43//1 42//1
f 12//1 11//1 42//1
f 12//1 42//1 41//1
f 13//1 12//1 41//1
f 13//1 41//1 40//1
f 14//1 13//1 40//1
f 14//1 40//1 39//1
f 14//1 39//1 38//1
f 15//1 14//1 38//1
f 15//1 38//1 37//1
f 16//1 15//1 37//1
f 16//1 37//1 36//1
f 17//1 16//1 36//1
f 17//1 36//1 35//1
f 18//1 17//1 35//1
f 18//1 35//1 34//1
f 31//1 30//1 29//1
f 31//1 29//1 28//1
f 31//1 28//1 27//1
f 31//1 27//1 26//1
f 31//1 26//1 25//1
f 31//1 25//1 24//1
f 31//1 24//1 23//1
f 31//1 23//1 22//1
f 31//1 22//1 21//1
f 31//1 21//1 20//1
f 31//1 20//1 19//1
f 31//1 19//1 18//1
f 31//1 18//1 34//1
f 31//1 34//1 33//1
f 31//1 33//1 32//1
f 61//1 60//1 59//1
f 61//1 59//1 62//1
f 3//1 2//1 1//1
f 3//1 1//1 4//1
f 69//3 67//3 68//3
f 69//3 120//3 67//3
f 70//3 120//3 69//3
f 71//3 108//3 70//3
f 108//3 120//3 70//3
f 71//3 107//3 108//3
f 109//2 120//2 108//2
f 110//2 120//2 109//2
f 111//2 120//2 110//2
f 112//2 120//2 111//2
f 113//2 120//2 112//2
f 114//4 120//4 113//4
f 115//2 120//2 114//2
f 116//2 120//2 115//2
f 117//2 120//2 116//2
f 118//2 120//2 117//2
f 119//2 120//2 118//2
f 72//3 107//3 71//3
f 72//3 106//3 107//3
f 72//3 105//3 106//3
f 73//3 105//3 72//3
f 73//3 104//3 105//3
f 74//3 104//3 73//3
f 74//3 103//3 104//3
f 75//3 103//3 74//3
f 75//3 102//3 103//3
f 76//3 102//3 75//3
f 76//3 101//3 102//3
f 76//3 100//3 101//3
f 77//3 100//3 76//3
f 77//3 99//3 100//3
f 78//3 99//3 77//3
f 78//3 98//3 99//3
f 79//3 98//3 78//3
f 79//3 97//3 98//3
f 80//3 97//3 79//3
f 80//3 96//3 97//3
f 93//3 91//3 92//3
f 93//3 90//3 91//3
f 93//3 89//3 90//3
f 93//3 88//3 89//3
f 93//3 87//3 88//3
f 93//3 86//3 87//3
f 93//3 85//3 86//3
f 93//3 84//3 85//3
f 93//3 83//3 84//3
f 93//3 82//3 83//3
f 93//3 81//3 82//3
f 93//3 80//3 81//3
f 93//3 96//3 80//3
f 93//3 95//3 96//3
f 93//3 94//3 95//3
f 123//3 121//3 122//3
f 123//3 124//3 121//3
f 65//3 63//3 64//3
f 65//3 66//3 63//3
f 45//5 46//5 108//5 107//5
f 52//4 53//4 115//4 114//4
f 13//6 14//6 76//6 75//6
f 38//7 39//7 101//7 100//7
f 57//4 58//4 120//4 119//4
f 51//4 52//4 114//4 113//4
f 59//2 60//2 122//2 121//2
f 8//8 9//8 71//8 70//8
f 25//2 26//2 88//2 87//2
f 30//9 31//9 93//9 92//9
f 22//2 23//2 85//2 84//2
f 46//4 47//4 109//4 108//4
f 4//10 1//10 63//10 66//10
f 55//4 56//4 118//4 117//4
f 60//9 61//9 123//9 122//9
f 49//4 50//4 112//4 111//4
f 36//11 37//11 99//11 98//11
f 47//4 48//4 110//4 109//4
f 19//2 20//2 82//2 81//2
f 35//12 36//12 98//12 97//12
f 17//13 18//13 80//13 79//13
f 12//14 13//14 75//14 74//14
f 32//10 33//10 95//10 94//10
f 24//2 25//2 87//2 86//2
f 6//15 7//15 69//15 68//15
f 62//10 59//10 121//10 124//10
f 5//2 6//2 68//2 67//2
f 18//2 19//2 81//2 80//2
f 10//16 11//16 73//16 72//16
f 43//17 44//17 106//17 105//17
f 21//2 22//2 84//2 83//2
f 39//18 40//18 102//18 101//18
f 34//19 35//19 97//19 96//19
f 23//2 24//2 86//2 85//2
f 48//4 49//4 111//4 110//4
f 1//2 2//2 64//2 63//2
f 7//20 8//20 70//20 69//20
f 42//21 43//21 105//21 104//21
f 44//22 45//22 107//22 106//22
f 53//4 54//4 116//4 115//4
f 33//2 34//2 96//2 95//2
f 61//4 62//4 124//4 123//4
f 31//4 32//4 94//4 93//4
f 2//9 3//9 65//9 64//9
f 50//4 51//4 113//4 112//4
f 26//2 27//2 89//2 88//2
f 58//10 5//10 67//10 120//10
f 9//23 10//23 72//23 71//23
f 15//24 16//24 78//24 77//24
f 40//25 41//25 103//25 102//25
f 41//26 42//26 104//26 103//26
f 28//2 29//2 91//2 90//2
f 56//4 57//4 119//4 118//4
f 54//4 55//4 117//4 116//4
f 3//4 4//4 66//4 65//4
f 14//27 15//27 77//27 76//27
f 29//2 30//2 92//2 91//2
f 16//28 17//28 79//28 78//28
f 20//2 21//2 83//2 82//2
f 27//2 28//2 90//2 89//2
f 11//29 12//29 74//29 73//29
f 37//30 38//30 100//30 99//30
f 129//31 130//31 131//31
f 182//32 129//32 131//32
f 182//3 131//3 132//3
f 170//33 132//33 133//33
f 182//34 132//34 170//34
f 169//35 170//35 133//35
f 182//36 170//36 171//36
f 182//37 171//37 172//37
f 182//38 172//38 173//38
f 182//39 173//39 174//39
f 182//40 174//40 175//40
f 182//41 175//41 176//41
f 182//42 176//42 177//42
f 182//43 177//43 178//43
f 182//44 178//44 179//44
f 182//45 179//45 180//45
f 182//46 180//46 181//46
f 169//3 133//3 134//3
f 168//3 169//3 134//3
f 167//3 168//3 134//3
f 167//47 134//47 135//47
f 166//48 167//48 135//48
f 166//49 135//49 136//49
f 165//50 166//50 136//50
f 165//51 136//51 137//51
f 164//52 165//52 137//52
f 164//3 137//3 138//3
f 163//3 164//3 138//3
f 162//3 163//3 138//3
f 162//53 138//53 139//53
f 161//54 162//54 139//54
f 161//55 139//55 140//55
f 160//56 161//56 140//56
f 160//57 140//57 141//57
f 159//58 160//58 141//58
f 159//59 141//59 142//59
f 158//3 159//3 142//3
f 153//3 154//3 155//3
f 152//3 153//3 155//3
f 151//3 152//3 155//3
f 150//3 151//3 155//3
f 149//3 150//3 155//3
f 148//3 149//3 155//3
f 147//3 148//3 155//3
f 146//3 147//3 155//3
f 145//3 146//3 155//3
f 144//3 145//3 155//3
f 143//3 144//3 155//3
f 142//3 143//3 155//3
f 158//3 142//3 155//3
f 157//3 158//3 155//3
f 156//3 157//3 155//3
f 183//3 184//3 185//3
f 186//3 183//3 185//3
f 125//60 126//60 127//60
f 128//61 125//61 127//61
f 192//62 191//62 193//62
f 191//63 244//63 193//63
f 193//1 244//1 194//1
f 194//64 232//64 195//64
f 194//65 244//65 232//65
f 232//66 231//66 195//66
f 232//67 244//67 233//67
f 233//68 244//68 234//68
f 234//69 244//69 235//69
f 235//70 244//70 236//70
f 236//71 244//71 237//71
f 237//72 244//72 238//72
f 238//73 244//73 239//73
f 239//74 244//74 240//74
f 240//75 244//75 241//75
f 241//76 244//76 242//76
f 242//77 244//77 243//77
f 195//1 231//1 196//1
f 231//1 230//1 196//1
f 230//1 229//1 196//1
f 196//78 229//78 197//78
f 229//79 228//79 197//79
f 197//80 228//80 198//80
f 228//81 227//81 198//81
f 198//82 227//82 199//82
f 227//83 226//83 199//83
f 199//1 226//1 200//1
f 226//1 225//1 200//1
f 225//1 224//1 200//1
f 200//84 224//84 201//84
f 224//85 223//85 201//85
f 201//86 223//86 202//86
f 223//87 222//87 202//87
f 202//88 222//88 203//88
f 222//89 221//89 203//89
f 203//90 221//90 204//90
f 221//1 220//1 204//1
f 216//1 215//1 217//1
f 215//1 214//1 217//1
f 214//1 213//1 217//1
f 213//1 212//1 217//1
f 212//1 211//1 217//1
f 211//1 210//1 217//1
f 210//1 209//1 217//1
f 209//1 208//1 217//1
f 208//1 207//1 217//1
f 207//1 206//1 217//1
f 206//1 205//1 217//1
f 205//1 204//1 217//1
f 204//91 220//91 217//91
f 220//1 219//1 217//1
f 219//1 218//1 217//1
f 246//1 245//1 247//1
f 245//1 248//1 247//1
f 188//92 187//92 189//92
f 187//93 190//93 189//93
f 231//94 232//94 170//94 169//94
f 238//95 239//95 177//95 176//95
f 199//96 200//96 138//96 137//96
f 224//97 225//97 163//97 162//97
f 243//98 244//98 182//98 181//98
f 237//99 238//99 176//99 175//99
f 245//4 246//4 184//4 183//4
f 194//100 195//100 133//100 132//100
f 211//4 212//4 150//4 149//4
f 216//10 217//10 155//10 154//10
f 208//4 209//4 147//4 146//4
f 232//101 233//101 171//101 170//101
f 190//9 187//9 125//9 128//9
f 241//102 242//102 180//102 179//102
f 246//10 247//10 185//10 184//10
f 235//103 236//103 174//103 173//103
f 222//104 223//104 161//104 160//104
f 233//105 234//105 172//105 171//105
f 205//4 206//4 144//4 143//4
f 221//106 222//106 160//106 159//106
f 203//107 204//107 142//107 141//107
f 198//108 199//108 137//108 136//108
f 218//9 219//9 157//9 156//9
f 210//4 211//4 149//4 148//4
f 192//109 193//109 131//109 130//109
f 248//9 245//9 183//9 186//9
f 191//4 192//4 130//4 129//4
f 204//4 205//4 143//4 142//4
f 196//110 197//110 135//110 134//110
f 229//111 230//111 168//111 167//111
f 207//4 208//4 146//4 145//4
f 225//112 226//112 164//112 163//112
f 220//113 221//113 159//113 158//113
f 209//4 210//4 148//4 147//4
f 234//114 235//114 173//114 172//114
f 187//4 188//4 126//4 125//4
f 193//115 194//115 132//115 131//115
f 228//116 229//116 167//116 166//116
f 230//117 231//117 169//117 168//117
f 239//118 240//118 178//118 177//118
f 219//4 220//4 158//4 157//4
f 247//2 248//2 186//2 185//2
f 217//2 218//2 156//2 155//2
f 188//10 189//10 127//10 126//10
f 236//119 237//119 175//119 174//119
f 212//4 213//4 151//4 150//4
f 244//9 191//9 129//9 182//9
f 195//120 196//120 134//120 133//120
f 201//121 202//121 140//121 139//121
f 226//122 227//122 165//122 164//122
f 227//123 228//123 166//123 165//123
f 214//4 215//4 153//4 152//4
f 242//124 243//124 181//124 180//124
f 240//125 241//125 179//125 178//125
f 189//2 190//2 128//2 127//2
f 200//126 201//126 139//126 138//126
f 215//4 216//4 154//4 153//4
f 202//127 203//127 141//127 140//127
f 206//4 207//4 145//4 144//4
f 213//4 214//4 152//4 151//4
f 197//128 198//128 136//128 135//128
f 223//129 224//129 162//129 161//129
