# Blender v2.69 (sub 0) OBJ File: ''
# www.blender.org
mtllib nyu.mtl
o Curve_Mesh
v 0.905387 0.000000 -0.000260
v 5.816825 0.000000 -0.000260
v 5.816825 0.000000 0.661072
v 0.905387 0.000000 0.661072
v 8.516724 0.000000 0.818134
v 12.030781 0.000000 0.818134
v 12.016564 0.000000 1.044466
v 12.000236 0.000000 1.278308
v 11.981792 0.000000 1.519660
v 11.961233 0.000000 1.768524
v 11.938558 0.000000 2.024900
v 11.913765 0.000000 2.288791
v 11.886852 0.000000 2.560196
v 11.857821 0.000000 2.839118
v 11.826667 0.000000 3.125556
v 11.793391 0.000000 3.419513
v 11.757992 0.000000 3.720989
v 11.720469 0.000000 4.029986
v 11.742319 0.000000 4.029986
v 11.804068 0.000000 4.029986
v 11.900015 0.000000 4.029986
v 12.024460 0.000000 4.029986
v 12.171705 0.000000 4.029986
v 12.336049 0.000000 4.029986
v 12.511793 0.000000 4.029986
v 12.693236 0.000000 4.029986
v 12.874681 0.000000 4.029986
v 13.050425 0.000000 4.029986
v 13.214770 0.000000 4.029986
v 13.362015 0.000000 4.029986
v 13.362015 0.000000 4.620776
v 7.747758 0.000000 4.620776
v 7.747758 0.000000 4.029986
v 11.058997 0.000000 4.029986
v 11.090520 0.000000 3.769841
v 11.120263 0.000000 3.517165
v 11.148227 0.000000 3.271960
v 11.174411 0.000000 3.034223
v 11.198812 0.000000 2.803956
v 11.221434 0.000000 2.581157
v 11.242271 0.000000 2.365828
v 11.261326 0.000000 2.157966
v 11.278598 0.000000 1.957573
v 11.294086 0.000000 1.764648
v 11.307789 0.000000 1.579190
v 11.319707 0.000000 1.401199
v 11.282398 0.000000 1.401199
v 11.176963 0.000000 1.401199
v 11.013131 0.000000 1.401199
v 10.800636 0.000000 1.401199
v 10.549211 0.000000 1.401199
v 10.268588 0.000000 1.401199
v 9.968500 0.000000 1.401199
v 9.658680 0.000000 1.401199
v 9.348860 0.000000 1.401199
v 9.048772 0.000000 1.401199
v 8.768149 0.000000 1.401199
v 8.516724 0.000000 1.401199
v 0.000282 0.000000 3.628778
v 6.722494 0.000000 3.628778
v 6.722494 0.000000 4.298398
v 0.000282 0.000000 4.298398
v 0.905387 0.010000 -0.000260
v 5.816825 0.010000 -0.000260
v 5.816825 0.010000 0.661072
v 0.905387 0.010000 0.661072
v 8.516724 0.010000 0.818134
v 12.030781 0.010000 0.818134
v 12.016564 0.010000 1.044466
v 12.000236 0.010000 1.278308
v 11.981792 0.010000 1.519660
v 11.961233 0.010000 1.768524
v 11.938558 0.010000 2.024900
v 11.913765 0.010000 2.288791
v 11.886852 0.010000 2.560196
v 11.857821 0.010000 2.839118
v 11.826667 0.010000 3.125556
v 11.793391 0.010000 3.419513
v 11.757992 0.010000 3.720989
v 11.720469 0.010000 4.029986
v 11.742319 0.010000 4.029986
v 11.804068 0.010000 4.029986
v 11.900015 0.010000 4.029986
v 12.024460 0.010000 4.029986
v 12.171705 0.010000 4.029986
v 12.336049 0.010000 4.029986
v 12.511793 0.010000 4.029986
v 12.693236 0.010000 4.029986
v 12.874681 0.010000 4.029986
v 13.050425 0.010000 4.029986
v 13.214770 0.010000 4.029986
v 13.362015 0.010000 4.029986
v 13.362015 0.010000 4.620776
v 7.747758 0.010000 4.620776
v 7.747758 0.010000 4.029986
v 11.058997 0.010000 4.029986
v 11.090520 0.010000 3.769841
v 11.120263 0.010000 3.517165
v 11.148227 0.010000 3.271960
v 11.174411 0.010000 3.034223
v 11.198812 0.010000 2.803956
v 11.221434 0.010000 2.581157
v 11.242271 0.010000 2.365828
v 11.261326 0.010000 2.157966
v 11.278598 0.010000 1.957573
v 11.294086 0.010000 1.764648
v 11.307789 0.010000 1.579190
v 11.319707 0.010000 1.401199
v 11.282398 0.010000 1.401199
v 11.176963 0.010000 1.401199
v 11.013131 0.010000 1.401199
v 10.800636 0.010000 1.401199
v 10.549211 0.010000 1.401199
v 10.268588 0.010000 1.401199
v 9.968500 0.010000 1.401199
v 9.658680 0.010000 1.401199
v 9.348860 0.010000 1.401199
v 9.048772 0.010000 1.401199
v 8.768149 0.010000 1.401199
v 8.516724 0.010000 1.401199
v 0.000282 0.010000 3.628778
v 6.722494 0.010000 3.628778
v 6.722494 0.010000 4.298398
v 0.000282 0.010000 4.298398
v 0.905387 -0.999970 -0.000260
v 5.816825 -1.000000 -0.000260
v 5.816825 -0.999970 0.661072
v 0.905387 -1.000000 0.661072
v 8.516724 -0.999970 0.818134
v 12.030781 -1.000000 0.818134
v 12.016564 -1.000000 1.044466
v 12.000236 -1.000000 1.278308
v 11.981792 -1.000000 1.519660
v 11.961233 -1.000000 1.768524
v 11.938558 -0.999970 2.024900
v 11.913765 -1.000000 2.288791
v 11.886852 -1.000000 2.560196
v 11.857821 -1.000000 2.839118
v 11.826667 -0.999970 3.125556
v 11.793391 -1.000000 3.419513
v 11.757992 -0.999970 3.720989
v 11.720469 -1.000000 4.029986
v 11.742319 -1.000000 4.029986
v 11.804068 -1.000000 4.029986
v 11.900015 -1.000000 4.029986
v 12.024460 -1.000000 4.029986
v 12.171705 -1.000000 4.029986
v 12.336049 -1.000000 4.029986
v 12.511793 -1.000000 4.029986
v 12.693236 -1.000000 4.029986
v 12.874681 -1.000000 4.029986
v 13.050425 -1.000000 4.029986
v 13.214770 -1.000000 4.029986
v 13.362015 -1.000000 4.029986
v 13.362015 -1.000000 4.620776
v 7.747758 -1.000000 4.620776
v 7.747758 -1.000000 4.029986
v 11.058997 -1.000000 4.029986
v 11.090520 -1.000000 3.769841
v 11.120263 -1.000000 3.517165
v 11.148227 -0.999970 3.271960
v 11.174411 -1.000000 3.034223
v 11.198812 -1.000000 2.803956
v 11.221434 -1.000000 2.581157
v 11.242271 -0.999970 2.365828
v 11.261326 -1.000000 2.157966
v 11.278598 -1.000000 1.957573
v 11.294086 -1.000000 1.764648
v 11.307789 -1.000000 1.579190
v 11.319707 -0.999970 1.401199
v 10.290029 0.000000 1.277966
v 10.184745 0.000000 1.276836
v 10.021157 0.000000 1.275005
v 9.808968 0.000000 1.272564
v 9.557940 0.000000 1.269543
v 9.277775 0.000000 1.266002
v 8.978235 0.000000 1.262035
v 8.669056 0.000000 1.257640
v 8.359907 0.000000 1.253001
v 8.060553 0.000000 1.248180
v 7.780693 0.000000 1.243419
v 8.516724 -1.000000 1.401199
v 0.000282 -1.000000 3.628778
v 6.722494 -1.000000 3.628778
v 6.722494 -1.000000 4.298398
v 0.000282 -1.000000 4.298398
v 0.905387 1.009969 -0.000260
v 5.816825 1.010000 -0.000260
v 5.816825 1.009969 0.661072
v 0.905387 1.010000 0.661072
v 8.516724 1.009969 0.818134
v 12.030781 1.010000 0.818134
v 12.016564 1.010000 1.044466
v 12.000236 1.010000 1.278308
v 11.981792 1.010000 1.519660
v 11.961233 1.010000 1.768524
v 11.938558 1.009969 2.024900
v 11.913765 1.010000 2.288791
v 11.886852 1.010000 2.560196
v 11.857821 1.010000 2.839118
v 11.826667 1.009969 3.125556
v 11.793391 1.010000 3.419513
v 11.757992 1.009969 3.720989
v 11.720469 1.010000 4.029986
v 11.742319 1.010000 4.029986
v 11.804068 1.010000 4.029986
v 11.900015 1.010000 4.029986
v 12.024460 1.010000 4.029986
v 12.171705 1.010000 4.029986
v 12.336049 1.010000 4.029986
v 12.511793 1.010000 4.029986
v 12.693236 1.010000 4.029986
v 12.874681 1.010000 4.029986
v 13.050425 1.010000 4.029986
v 13.214770 1.010000 4.029986
v 13.362015 1.010000 4.029986
v 13.362015 1.010000 4.620776
v 7.747758 1.010000 4.620776
v 7.747758 1.010000 4.029986
v 11.058997 1.010000 4.029986
v 11.090520 1.010000 3.769841
v 11.120263 1.010000 3.517165
v 11.148227 1.009969 3.271960
v 11.174411 1.010000 3.034223
v 11.198812 1.010000 2.803956
v 11.221434 1.010000 2.581157
v 11.242271 1.009969 2.365828
v 11.261326 1.010000 2.157966
v 11.278598 1.010000 1.957573
v 11.294086 1.010000 1.764648
v 11.307789 1.010000 1.579190
v 11.319707 1.009969 1.401199
v 10.290029 0.010000 1.277966
v 10.184745 0.010000 1.276836
v 10.021157 0.010000 1.275005
v 9.808968 0.010000 1.272564
v 9.557940 0.010000 1.269543
v 9.277775 0.010000 1.266002
v 8.978235 0.010000 1.262035
v 8.669056 0.010000 1.257640
v 8.359907 0.010000 1.253001
v 8.060553 0.010000 1.248180
v 7.780693 0.010000 1.243419
v 8.516724 1.010000 1.401199
v 0.000282 1.010000 3.628778
v 6.722494 1.010000 3.628778
v 6.722494 1.010000 4.298398
v 0.000282 1.010000 4.298398
vn 0.000000 1.000000 0.000000
vn 0.000000 0.000000 1.000000
vn 0.000000 -1.000000 0.000000
vn 0.000000 0.000000 -1.000000
vn 0.993989 0.000000 0.109477
vn 0.997766 0.000000 0.066809
vn -0.994627 0.000000 -0.103526
vn 0.994432 0.000000 0.105381
vn -0.997093 0.000000 -0.076194
vn -1.000000 0.000000 0.000000
vn 1.000000 0.000000 0.000000
vn 0.993560 0.000000 0.113307
vn 0.993143 0.000000 0.116906
vn -0.992708 0.000000 -0.120547
vn -0.995120 0.000000 -0.098677
vn -0.998033 0.000000 -0.062689
vn -0.996111 0.000000 -0.088102
vn 0.996793 0.000000 0.080021
vn 0.994885 0.000000 0.101013
vn 0.992738 0.000000 0.120294
vn -0.997571 0.000000 -0.069659
vn 0.996306 0.000000 0.085872
vn 0.997281 0.000000 0.073688
vn -0.993654 0.000000 -0.112481
vn 0.995350 0.000000 0.096322
vn -0.996605 0.000000 -0.082332
vn 0.995825 0.000000 0.091286
vn -0.994137 0.000000 -0.108124
vn -0.993177 0.000000 -0.116619
vn -0.995616 0.000000 -0.093539
vn -0.000009 -1.000000 -0.000001
vn -0.000005 -1.000000 -0.000052
vn -0.000045 -1.000000 -0.000004
vn 0.000011 -1.000000 0.000308
vn -0.000015 -1.000000 -0.000172
vn -0.000001 0.122311 0.992492
vn -0.010617 0.140825 0.989978
vn -0.011080 0.141585 0.989864
vn -0.011388 0.142039 0.989796
vn -0.011911 0.142702 0.989694
vn -0.012505 0.143308 0.989599
vn -0.013107 0.143755 0.989527
vn -0.014064 0.144187 0.989450
vn -0.014847 0.144302 0.989422
vn -0.015938 0.144132 0.989430
vn -0.016832 0.143731 0.989474
vn 0.000034 -1.000000 0.000122
vn 0.000046 -1.000000 0.000004
vn 0.000023 -1.000000 -0.000113
vn -0.000029 -1.000000 0.000144
vn -0.000046 -1.000000 -0.000005
vn -0.000004 -1.000000 -0.000142
vn 0.000031 -1.000000 0.000110
vn 0.000028 -1.000000 0.000131
vn -0.000023 -1.000000 -0.000106
vn -0.000018 -1.000000 -0.000126
vn 0.000015 -1.000000 0.000103
vn 0.000046 -1.000000 0.000006
vn 0.000039 -1.000000 -0.000094
vn -0.000006 -1.000000 0.000046
vn 0.000006 -1.000000 -0.000046
vn -0.000009 1.000000 -0.000001
vn -0.000005 1.000000 -0.000052
vn -0.000045 1.000000 -0.000004
vn 0.000011 1.000000 0.000309
vn -0.000015 1.000000 -0.000173
vn -0.000001 -0.122311 0.992492
vn -0.010617 -0.140826 0.989978
vn -0.011080 -0.141585 0.989864
vn -0.011388 -0.142039 0.989796
vn -0.011911 -0.142702 0.989694
vn -0.012505 -0.143308 0.989599
vn -0.013107 -0.143755 0.989526
vn -0.014064 -0.144188 0.989450
vn -0.014847 -0.144302 0.989422
vn -0.015938 -0.144132 0.989430
vn -0.016832 -0.143731 0.989474
vn 0.000034 1.000000 0.000121
vn 0.000046 1.000000 0.000004
vn 0.000023 1.000000 -0.000113
vn -0.000029 1.000000 0.000144
vn -0.000046 1.000000 -0.000005
vn -0.000004 1.000000 -0.000142
vn 0.000031 1.000000 0.000110
vn 0.000028 1.000000 0.000131
vn -0.000023 1.000000 -0.000106
vn -0.000018 1.000000 -0.000127
vn 0.000015 1.000000 0.000103
vn 0.000046 1.000000 0.000006
vn 0.000039 1.000000 -0.000094
vn 0.000000 1.000000 0.000001
vn -0.000006 1.000000 0.000046
vn 0.000006 1.000000 -0.000046
vn -0.993989 0.000000 -0.109477
vn -0.997766 0.000000 -0.066809
vn -0.013244 0.000000 0.999912
vn 0.994627 0.000000 0.103526
vn -0.994432 0.000000 -0.105381
vn 0.209605 0.000000 -0.977786
vn -0.012635 0.000000 0.999920
vn 0.997093 0.000000 0.076194
vn -0.118834 0.000000 0.992914
vn -0.016105 0.000000 0.999870
vn -0.011505 0.000000 0.999934
vn -0.993560 0.000000 -0.113307
vn -0.010726 0.000000 0.999942
vn -0.993143 0.000000 -0.116906
vn 0.992708 0.000000 0.120547
vn 0.995120 0.000000 0.098676
vn 0.998033 0.000000 0.062689
vn 0.996111 0.000000 0.088102
vn -0.996793 0.000000 -0.080021
vn -0.994885 0.000000 -0.101013
vn -0.992738 0.000000 -0.120294
vn -0.011193 0.000000 0.999937
vn 0.997571 0.000000 0.069659
vn -0.996306 0.000000 -0.085872
vn -0.997281 0.000000 -0.073688
vn -0.014212 0.000000 0.999899
vn -0.012035 0.000000 0.999928
vn 0.993654 0.000000 0.112481
vn -0.995350 0.000000 -0.096321
vn 0.996605 0.000000 0.082332
vn -0.995825 0.000000 -0.091286
vn -0.017009 0.000000 0.999855
vn -0.015004 0.000000 0.999887
vn 0.994137 0.000000 0.108125
vn 0.993177 0.000000 0.116619
vn 0.995616 0.000000 0.093539
usemtl SVGMat.001
s off
f 7//1 6//1 5//1
f 7//1 5//1 58//1
f 8//1 7//1 58//1
f 9//1 8//1 46//1
f 46//1 8//1 58//1
f 9//1 46//1 45//1
f 47//2 46//2 58//2
f 48//2 47//2 58//2
f 49//2 48//2 58//2
f 50//2 49//2 58//2
f 51//2 50//2 58//2
f 52//2 51//2 58//2
f 53//2 52//2 58//2
f 54//2 53//2 58//2
f 55//2 54//2 58//2
f 56//2 55//2 58//2
f 57//2 56//2 58//2
f 10//1 9//1 45//1
f 10//1 45//1 44//1
f 10//1 44//1 43//1
f 11//1 10//1 43//1
f 11//1 43//1 42//1
f 12//1 11//1 42//1
f 12//1 42//1 41//1
f 13//1 12//1 41//1
f 13//1 41//1 40//1
f 14//1 13//1 40//1
f 14//1 40//1 39//1
f 14//1 39//1 38//1
f 15//1 14//1 38//1
f 15//1 38//1 37//1
f 16//1 15//1 37//1
f 16//1 37//1 36//1
f 17//1 16//1 36//1
f 17//1 36//1 35//1
f 18//1 17//1 35//1
f 18//1 35//1 34//1
f 31//1 30//1 29//1
f 31//1 29//1 28//1
f 31//1 28//1 27//1
f 31//1 27//1 26//1
f 31//1 26//1 25//1
f 31//1 25//1 24//1
f 31//1 24//1 23//1
f 31//1 23//1 22//1
f 31//1 22//1 21//1
f 31//1 21//1 20//1
f 31//1 20//1 19//1
f 31//1 19//1 18//1
f 31//1 18//1 34//1
f 31//1 34//1 33//1
f 31//1 33//1 32//1
f 61//1 60//1 59//1
f 61//1 59//1 62//1
f 3//1 2//1 1//1
f 3//1 1//1 4//1
f 69//3 67//3 68//3
f 69//3 120//3 67//3
f 70//3 120//3 69//3
f 71//3 108//3 70//3
f 108//3 120//3 70//3
f 71//3 107//3 108//3
f 109//2 120//2 108//2
f 110//2 120//2 109//2
f 111//2 120//2 110//2
f 112//2 120//2 111//2
f 113//2 120//2 112//2
f 114//4 120//4 113//4
f 115//2 120//2 114//2
f 116//2 120//2 115//2
f 117//2 120//2 116//2
f 118//2 120//2 117//2
f 119//2 120//2 118//2
f 72//3 107//3 71//3
f 72//3 106//3 107//3
f 72//3 105//3 106//3
f 73//3 105//3 72//3
f 73//3 104//3 105//3
f 74//3 104//3 73//3
f 74//3 103//3 104//3
f 75//3 103//3 74//3
f 75//3 102//3 103//3
f 76//3 102//3 75//3
f 76//3 101//3 102//3
f 76//3 100//3 101//3
f 77//3 100//3 76//3
f 77//3 99//3 100//3
f 78//3 99//3 77//3
f 78//3 98//3 99//3
f 79//3 98//3 78//3
f 79//3 97//3 98//3
f 80//3 97//3 79//3
f 80//3 96//3 97//3
f 93//3 91//3 92//3
f 93//3 90//3 91//3
f 93//3 89//3 90//3
f 93//3 88//3 89//3
f 93//3 87//3 88//3
f 93//3 86//3 87//3
f 93//3 85//3 86//3
f 93//3 84//3 85//3
f 93//3 83//3 84//3
f 93//3 82//3 83//3
f 93//3 81//3 82//3
f 93//3 80//3 81//3
f 93//3 96//3 80//3
f 93//3 95//3 96//3
f 93//3 94//3 95//3
f 123//3 121//3 122//3
f 123//3 124//3 121//3
f 65//3 63//3 64//3
f 65//3 66//3 63//3
f 37//5 38//5 100//5 99//5
f 45//6 46//6 108//6 107//6
f 52//4 53//4 115//4 114//4
f 13//7 14//7 76//7 75//7
f 38//8 39//8 101//8 100//8
f 57//4 58//4 120//4 119//4
f 51//4 52//4 114//4 113//4
f 59//2 60//2 122//2 121//2
f 8//9 9//9 71//9 70//9
f 25//2 26//2 88//2 87//2
f 30//10 31//10 93//10 92//10
f 22//2 23//2 85//2 84//2
f 46//4 47//4 109//4 108//4
f 4//11 1//11 63//11 66//11
f 55//4 56//4 118//4 117//4
f 60//10 61//10 123//10 122//10
f 49//4 50//4 112//4 111//4
f 36//12 37//12 99//12 98//12
f 47//4 48//4 110//4 109//4
f 19//2 20//2 82//2 81//2
f 35//13 36//13 98//13 97//13
f 17//14 18//14 80//14 79//14
f 12//15 13//15 75//15 74//15
f 32//11 33//11 95//11 94//11
f 24//2 25//2 87//2 86//2
f 6//16 7//16 69//16 68//16
f 62//11 59//11 121//11 124//11
f 5//2 6//2 68//2 67//2
f 18//2 19//2 81//2 80//2
f 10//17 11//17 73//17 72//17
f 43//18 44//18 106//18 105//18
f 21//2 22//2 84//2 83//2
f 39//19 40//19 102//19 101//19
f 34//20 35//20 97//20 96//20
f 23//2 24//2 86//2 85//2
f 48//4 49//4 111//4 110//4
f 1//2 2//2 64//2 63//2
f 7//21 8//21 70//21 69//21
f 42//22 43//22 105//22 104//22
f 44//23 45//23 107//23 106//23
f 53//4 54//4 116//4 115//4
f 33//2 34//2 96//2 95//2
f 61//4 62//4 124//4 123//4
f 31//4 32//4 94//4 93//4
f 2//10 3//10 65//10 64//10
f 50//4 51//4 113//4 112//4
f 26//2 27//2 89//2 88//2
f 58//11 5//11 67//11 120//11
f 15//24 16//24 78//24 77//24
f 40//25 41//25 103//25 102//25
f 9//26 10//26 72//26 71//26
f 41//27 42//27 104//27 103//27
f 28//2 29//2 91//2 90//2
f 56//4 57//4 119//4 118//4
f 54//4 55//4 117//4 116//4
f 3//4 4//4 66//4 65//4
f 14//28 15//28 77//28 76//28
f 29//2 30//2 92//2 91//2
f 16//29 17//29 79//29 78//29
f 20//2 21//2 83//2 82//2
f 27//2 28//2 90//2 89//2
f 11//30 12//30 74//30 73//30
f 129//31 130//31 131//31
f 182//32 129//32 131//32
f 182//3 131//3 132//3
f 170//33 132//33 133//33
f 182//34 132//34 170//34
f 169//35 170//35 133//35
f 182//36 170//36 171//36
f 182//37 171//37 172//37
f 182//38 172//38 173//38
f 182//39 173//39 174//39
f 182//40 174//40 175//40
f 182//41 175//41 176//41
f 182//42 176//42 177//42
f 182//43 177//43 178//43
f 182//44 178//44 179//44
f 182//45 179//45 180//45
f 182//46 180//46 181//46
f 169//3 133//3 134//3
f 168//3 169//3 134//3
f 167//3 168//3 134//3
f 167//47 134//47 135//47
f 166//48 167//48 135//48
f 166//49 135//49 136//49
f 165//50 166//50 136//50
f 165//51 136//51 137//51
f 164//52 165//52 137//52
f 164//3 137//3 138//3
f 163//3 164//3 138//3
f 162//3 163//3 138//3
f 162//53 138//53 139//53
f 161//54 162//54 139//54
f 161//55 139//55 140//55
f 160//56 161//56 140//56
f 160//57 140//57 141//57
f 159//58 160//58 141//58
f 159//59 141//59 142//59
f 158//3 159//3 142//3
f 153//3 154//3 155//3
f 152//3 153//3 155//3
f 151//3 152//3 155//3
f 150//3 151//3 155//3
f 149//3 150//3 155//3
f 148//3 149//3 155//3
f 147//3 148//3 155//3
f 146//3 147//3 155//3
f 145//3 146//3 155//3
f 144//3 145//3 155//3
f 143//3 144//3 155//3
f 142//3 143//3 155//3
f 158//3 142//3 155//3
f 157//3 158//3 155//3
f 156//3 157//3 155//3
f 183//3 184//3 185//3
f 186//3 183//3 185//3
f 125//60 126//60 127//60
f 128//61 125//61 127//61
f 192//62 191//62 193//62
f 191//63 244//63 193//63
f 193//1 244//1 194//1
f 194//64 232//64 195//64
f 194//65 244//65 232//65
f 232//66 231//66 195//66
f 232//67 244//67 233//67
f 233//68 244//68 234//68
f 234//69 244//69 235//69
f 235//70 244//70 236//70
f 236//71 244//71 237//71
f 237//72 244//72 238//72
f 238//73 244//73 239//73
f 239//74 244//74 240//74
f 240//75 244//75 241//75
f 241//76 244//76 242//76
f 242//77 244//77 243//77
f 195//1 231//1 196//1
f 231//1 230//1 196//1
f 230//1 229//1 196//1
f 196//78 229//78 197//78
f 229//79 228//79 197//79
f 197//80 228//80 198//80
f 228//81 227//81 198//81
f 198//82 227//82 199//82
f 227//83 226//83 199//83
f 199//1 226//1 200//1
f 226//1 225//1 200//1
f 225//1 224//1 200//1
f 200//84 224//84 201//84
f 224//85 223//85 201//85
f 201//86 223//86 202//86
f 223//87 222//87 202//87
f 202//88 222//88 203//88
f 222//89 221//89 203//89
f 203//90 221//90 204//90
f 221//1 220//1 204//1
f 216//1 215//1 217//1
f 215//1 214//1 217//1
f 214//1 213//1 217//1
f 213//1 212//1 217//1
f 212//1 211//1 217//1
f 211//1 210//1 217//1
f 210//1 209//1 217//1
f 209//1 208//1 217//1
f 208//1 207//1 217//1
f 207//1 206//1 217//1
f 206//1 205//1 217//1
f 205//1 204//1 217//1
f 204//91 220//91 217//91
f 220//1 219//1 217//1
f 219//1 218//1 217//1
f 246//1 245//1 247//1
f 245//1 248//1 247//1
f 188//92 187//92 189//92
f 187//93 190//93 189//93
f 223//94 224//94 162//94 161//94
f 231//95 232//95 170//95 169//95
f 238//96 239//96 177//96 176//96
f 199//97 200//97 138//97 137//97
f 224//98 225//98 163//98 162//98
f 243//99 244//99 182//99 181//99
f 237//100 238//100 176//100 175//100
f 245//4 246//4 184//4 183//4
f 194//101 195//101 133//101 132//101
f 211//4 212//4 150//4 149//4
f 216//11 217//11 155//11 154//11
f 208//4 209//4 147//4 146//4
f 232//102 233//102 171//102 170//102
f 190//10 187//10 125//10 128//10
f 241//103 242//103 180//103 179//103
f 246//11 247//11 185//11 184//11
f 235//104 236//104 174//104 173//104
f 222//105 223//105 161//105 160//105
f 233//106 234//106 172//106 171//106
f 205//4 206//4 144//4 143//4
f 221//107 222//107 160//107 159//107
f 203//108 204//108 142//108 141//108
f 198//109 199//109 137//109 136//109
f 218//10 219//10 157//10 156//10
f 210//4 211//4 149//4 148//4
f 192//110 193//110 131//110 130//110
f 248//10 245//10 183//10 186//10
f 191//4 192//4 130//4 129//4
f 204//4 205//4 143//4 142//4
f 196//111 197//111 135//111 134//111
f 229//112 230//112 168//112 167//112
f 207//4 208//4 146//4 145//4
f 225//113 226//113 164//113 163//113
f 220//114 221//114 159//114 158//114
f 209//4 210//4 148//4 147//4
f 234//115 235//115 173//115 172//115
f 187//4 188//4 126//4 125//4
f 193//116 194//116 132//116 131//116
f 228//117 229//117 167//117 166//117
f 230//118 231//118 169//118 168//118
f 239//119 240//119 178//119 177//119
f 219//4 220//4 158//4 157//4
f 247//2 248//2 186//2 185//2
f 217//2 218//2 156//2 155//2
f 188//11 189//11 127//11 126//11
f 236//120 237//120 175//120 174//120
f 212//4 213//4 151//4 150//4
f 244//10 191//10 129//10 182//10
f 201//121 202//121 140//121 139//121
f 226//122 227//122 165//122 164//122
f 195//123 196//123 134//123 133//123
f 227//124 228//124 166//124 165//124
f 214//4 215//4 153//4 152//4
f 242//125 243//125 181//125 180//125
f 240//126 241//126 179//126 178//126
f 189//2 190//2 128//2 127//2
f 200//127 201//127 139//127 138//127
f 215//4 216//4 154//4 153//4
f 202//128 203//128 141//128 140//128
f 206//4 207//4 145//4 144//4
f 213//4 214//4 152//4 151//4
f 197//129 198//129 136//129 135//129
