# Blender v2.69 (sub 0) OBJ File: ''
# www.blender.org
mtllib ra.mtl
o Curve_Mesh
v 0.727901 0.000000 0.000016
v 5.325113 0.000000 0.000016
v 5.325113 0.000000 0.628263
v 0.727901 0.000000 0.628263
v 0.000282 0.000000 1.859999
v 5.655849 0.000000 1.859999
v 6.061022 0.000000 2.240256
v 5.966641 0.000000 2.532052
v 5.864175 0.000000 2.813687
v 5.753624 0.000000 3.085163
v 5.634987 0.000000 3.346479
v 5.508262 0.000000 3.597636
v 5.373448 0.000000 3.838634
v 5.230545 0.000000 4.069474
v 5.079551 0.000000 4.290157
v 4.920465 0.000000 4.500683
v 4.753285 0.000000 4.701052
v 4.578011 0.000000 4.891265
v 4.394643 0.000000 5.071322
v 4.226754 0.000000 5.221217
v 4.051054 0.000000 5.365033
v 3.867544 0.000000 5.502770
v 3.676223 0.000000 5.634429
v 3.477093 0.000000 5.760010
v 3.270154 0.000000 5.879514
v 3.055405 0.000000 5.992940
v 2.832848 0.000000 6.100291
v 2.602482 0.000000 6.201565
v 2.364309 0.000000 6.296763
v 2.118328 0.000000 6.385888
v 1.864539 0.000000 6.468937
v 1.858655 0.000000 6.460567
v 1.842024 0.000000 6.436914
v 1.816184 0.000000 6.400160
v 1.782667 0.000000 6.352490
v 1.743010 0.000000 6.296086
v 1.698748 0.000000 6.233132
v 1.651416 0.000000 6.165812
v 1.602548 0.000000 6.096307
v 1.553681 0.000000 6.026803
v 1.506348 0.000000 5.959482
v 1.462086 0.000000 5.896528
v 1.422429 0.000000 5.840125
v 1.888904 0.000000 5.717765
v 2.327943 0.000000 5.566864
v 2.739546 0.000000 5.387421
v 3.123712 0.000000 5.179439
v 3.480443 0.000000 4.942916
v 3.809739 0.000000 4.677856
v 4.111598 0.000000 4.384258
v 4.386022 0.000000 4.062125
v 4.633010 0.000000 3.711456
v 4.852564 0.000000 3.332253
v 5.044682 0.000000 2.924516
v 5.209364 0.000000 2.488247
v 5.140030 0.000000 2.488247
v 4.944087 0.000000 2.488247
v 4.639621 0.000000 2.488247
v 4.244719 0.000000 2.488247
v 3.777469 0.000000 2.488247
v 3.255958 0.000000 2.488247
v 2.698273 0.000000 2.488247
v 2.122500 0.000000 2.488247
v 1.546728 0.000000 2.488247
v 0.989043 0.000000 2.488247
v 0.467532 0.000000 2.488247
v 0.000282 0.000000 2.488247
v 0.727901 0.010000 0.000016
v 5.325113 0.010000 0.000016
v 5.325113 0.010000 0.628263
v 0.727901 0.010000 0.628263
v 0.000282 0.010000 1.859999
v 5.655849 0.010000 1.859999
v 6.061022 0.010000 2.240256
v 5.966641 0.010000 2.532052
v 5.864175 0.010000 2.813687
v 5.753624 0.010000 3.085163
v 5.634987 0.010000 3.346479
v 5.508262 0.010000 3.597636
v 5.373448 0.010000 3.838634
v 5.230545 0.010000 4.069474
v 5.079551 0.010000 4.290157
v 4.920465 0.010000 4.500683
v 4.753285 0.010000 4.701052
v 4.578011 0.010000 4.891265
v 4.394643 0.010000 5.071322
v 4.226754 0.010000 5.221217
v 4.051054 0.010000 5.365033
v 3.867544 0.010000 5.502770
v 3.676223 0.010000 5.634429
v 3.477093 0.010000 5.760010
v 3.270154 0.010000 5.879514
v 3.055405 0.010000 5.992940
v 2.832848 0.010000 6.100291
v 2.602482 0.010000 6.201565
v 2.364309 0.010000 6.296763
v 2.118328 0.010000 6.385888
v 1.864539 0.010000 6.468937
v 1.858655 0.010000 6.460567
v 1.842024 0.010000 6.436914
v 1.816184 0.010000 6.400160
v 1.782667 0.010000 6.352490
v 1.743010 0.010000 6.296086
v 1.698748 0.010000 6.233132
v 1.651416 0.010000 6.165812
v 1.602548 0.010000 6.096307
v 1.553681 0.010000 6.026803
v 1.506348 0.010000 5.959482
v 1.462086 0.010000 5.896528
v 1.422429 0.010000 5.840125
v 1.888904 0.010000 5.717765
v 2.327943 0.010000 5.566864
v 2.739546 0.010000 5.387421
v 3.123712 0.010000 5.179439
v 3.480443 0.010000 4.942916
v 3.809739 0.010000 4.677856
v 4.111598 0.010000 4.384258
v 4.386022 0.010000 4.062125
v 4.633010 0.010000 3.711456
v 4.852564 0.010000 3.332253
v 5.044682 0.010000 2.924516
v 5.209364 0.010000 2.488247
v 5.140030 0.010000 2.488247
v 4.944087 0.010000 2.488247
v 4.639621 0.010000 2.488247
v 4.244719 0.010000 2.488247
v 3.777469 0.010000 2.488247
v 3.255958 0.010000 2.488247
v 2.698273 0.010000 2.488247
v 2.122500 0.010000 2.488247
v 1.546728 0.010000 2.488247
v 0.989043 0.010000 2.488247
v 0.467532 0.010000 2.488247
v 0.000282 0.010000 2.488247
v 0.727901 -1.000000 0.000016
v 5.325113 -1.000000 0.000016
v 5.325113 -1.000000 0.628263
v 0.727901 -1.000000 0.628263
v 0.000282 -1.000000 1.859999
v 5.655849 -1.000000 1.859999
v 6.061022 -1.000000 2.240256
v 5.966641 -1.000000 2.532052
v 5.864175 -1.000000 2.813687
v 5.753624 -1.000000 3.085163
v 5.634987 -1.000000 3.346479
v 5.508262 -1.000000 3.597636
v 5.373448 -1.000000 3.838634
v 5.230545 -1.000000 4.069474
v 5.079551 -0.999970 4.290157
v 4.920465 -1.000000 4.500683
v 4.753285 -1.000000 4.701052
v 4.578011 -1.000000 4.891265
v 4.394643 -1.000000 5.071322
v 4.226754 -1.000000 5.221217
v 4.051054 -1.000000 5.365033
v 3.867544 -1.000000 5.502770
v 3.676223 -1.000000 5.634429
v 3.477093 -1.000000 5.760010
v 3.270154 -0.999970 5.879514
v 3.055405 -1.000000 5.992940
v 2.832848 -1.000000 6.100291
v 2.602482 -1.000000 6.201565
v 2.364309 -1.000000 6.296763
v 2.118328 -1.000000 6.385888
v 1.864539 -1.000000 6.468937
v 1.858655 -1.000000 6.460567
v 1.842024 -1.000000 6.436914
v 1.816184 -0.999970 6.400160
v 1.782667 -1.000000 6.352490
v 1.743010 -1.000000 6.296086
v 1.698748 -1.000000 6.233132
v 1.651416 -1.000000 6.165812
v 1.602548 -1.000000 6.096307
v 1.553681 -1.000000 6.026803
v 1.506348 -0.999970 5.959482
v 1.462086 -1.000000 5.896528
v 1.422429 -1.000000 5.840125
v 1.888904 -1.000000 5.717765
v 2.327943 -1.000000 5.566864
v 2.739546 -1.000000 5.387421
v 3.123712 -1.000000 5.179439
v 3.480443 -1.000000 4.942916
v 3.809739 -1.000000 4.677856
v 4.111598 -1.000000 4.384258
v 4.386022 -1.000000 4.062125
v 4.633010 -1.000000 3.711456
v 4.852564 -1.000000 3.332253
v 5.044682 -1.000000 2.924516
v 5.209364 -1.000000 2.488247
v 4.239979 0.000000 2.052534
v 4.050840 0.000000 2.038709
v 3.758368 0.000000 2.015637
v 3.382022 0.000000 1.982555
v 2.942391 0.000000 1.938181
v 2.461439 0.000000 1.881051
v 1.963143 0.000000 1.810339
v 1.473524 0.000000 1.727451
v 1.018819 0.000000 1.638978
v 0.619677 0.000000 1.558989
v 0.282895 0.000000 1.505459
v 0.000282 -1.000000 2.488247
v 0.727901 1.010000 0.000016
v 5.325113 1.010000 0.000016
v 5.325113 1.010000 0.628263
v 0.727901 1.010000 0.628263
v 0.000282 1.010000 1.859999
v 5.655849 1.010000 1.859999
v 6.061022 1.010000 2.240256
v 5.966641 1.010000 2.532052
v 5.864175 1.010000 2.813687
v 5.753624 1.010000 3.085163
v 5.634987 1.010000 3.346479
v 5.508262 1.010000 3.597636
v 5.373448 1.010000 3.838634
v 5.230545 1.010000 4.069474
v 5.079551 1.009969 4.290157
v 4.920465 1.010000 4.500683
v 4.753285 1.010000 4.701052
v 4.578011 1.010000 4.891265
v 4.394643 1.010000 5.071322
v 4.226754 1.010000 5.221217
v 4.051054 1.010000 5.365033
v 3.867544 1.010000 5.502770
v 3.676223 1.010000 5.634429
v 3.477093 1.010000 5.760010
v 3.270154 1.009969 5.879514
v 3.055405 1.010000 5.992940
v 2.832848 1.010000 6.100291
v 2.602482 1.010000 6.201565
v 2.364309 1.010000 6.296763
v 2.118328 1.010000 6.385888
v 1.864539 1.010000 6.468937
v 1.858655 1.010000 6.460567
v 1.842024 1.010000 6.436914
v 1.816184 1.009969 6.400160
v 1.782667 1.010000 6.352490
v 1.743010 1.010000 6.296086
v 1.698748 1.010000 6.233132
v 1.651416 1.010000 6.165812
v 1.602548 1.010000 6.096307
v 1.553681 1.010000 6.026803
v 1.506348 1.009969 5.959482
v 1.462086 1.010000 5.896528
v 1.422429 1.010000 5.840125
v 1.888904 1.010000 5.717765
v 2.327943 1.010000 5.566864
v 2.739546 1.010000 5.387421
v 3.123712 1.010000 5.179439
v 3.480443 1.010000 4.942916
v 3.809739 1.010000 4.677856
v 4.111598 1.010000 4.384258
v 4.386022 1.010000 4.062125
v 4.633010 1.009969 3.711456
v 4.852564 1.010000 3.332253
v 5.044682 1.010000 2.924516
v 5.209364 1.010000 2.488247
v 4.239979 0.010000 2.052534
v 4.050840 0.010000 2.038709
v 3.758368 0.010000 2.015637
v 3.382022 0.010000 1.982555
v 2.942391 0.010000 1.938181
v 2.461439 0.010000 1.881051
v 1.963143 0.010000 1.810339
v 1.473524 0.010000 1.727451
v 1.018819 0.010000 1.638978
v 0.619677 0.010000 1.558989
v 0.282895 0.010000 1.505459
v 0.000282 1.010000 2.488247
vn 0.000000 1.000000 0.000000
vn 0.000000 0.000000 1.000000
vn 0.000000 -1.000000 0.000000
vn 0.000000 0.000000 -1.000000
vn 0.000000 -0.999992 -0.003906
vn 0.818047 0.000000 -0.575152
vn 0.818044 0.000000 -0.575156
vn -0.633401 0.000000 -0.773823
vn -0.666002 0.000000 -0.745950
vn -0.434450 0.000000 -0.900696
vn 0.818052 0.000000 -0.575144
vn 0.818043 0.000000 -0.575157
vn 0.627035 0.000000 0.778991
vn 0.697229 0.000000 0.716848
vn -0.892791 0.000000 -0.450472
vn 0.865412 0.000000 0.501062
vn -0.797826 0.000000 -0.602887
vn 0.253724 0.000000 0.967277
vn -0.684331 0.000000 0.729171
vn 1.000000 0.000000 0.000000
vn -0.850261 0.000000 -0.526361
vn 0.761227 0.000000 0.648486
vn 0.817564 0.000000 0.575838
vn -0.700635 0.000000 -0.713520
vn -0.533429 0.000000 -0.845845
vn -0.939737 0.000000 -0.341898
vn -0.825306 0.000000 -0.564685
vn 0.325045 0.000000 0.945699
vn -0.767834 0.000000 -0.640649
vn -0.371154 0.000000 -0.928571
vn 0.552598 0.000000 0.833448
vn 0.818044 0.000000 -0.575155
vn 0.399634 0.000000 0.916675
vn -0.926152 0.000000 -0.377150
vn 0.476093 0.000000 0.879395
vn 0.818045 0.000000 -0.575154
vn -1.000000 0.000000 0.000000
vn -0.951467 0.000000 -0.307752
vn -0.735396 0.000000 -0.677638
vn -0.566897 0.000000 -0.823789
vn -0.340650 0.000000 -0.940190
vn -0.600291 0.000000 -0.799781
vn -0.872731 0.000000 -0.488202
vn 0.818040 0.000000 -0.575162
vn -0.402449 0.000000 -0.915442
vn 0.935564 0.000000 0.353156
vn 0.818043 0.000000 -0.575158
vn -0.467040 0.000000 -0.884236
vn -0.311012 0.000000 -0.950406
vn 0.904612 0.000000 0.426237
vn -0.910553 0.000000 -0.413391
vn -0.500085 0.000000 -0.865976
vn 0.000000 0.399443 0.916758
vn -0.058498 0.596722 0.800313
vn -0.062409 0.608443 0.791140
vn -0.068381 0.624635 0.777917
vn -0.076792 0.644421 0.760805
vn -0.087971 0.666187 0.740579
vn -0.102016 0.687589 0.718897
vn -0.118263 0.705700 0.698571
vn -0.133162 0.716858 0.684385
vn -0.136681 0.718440 0.682028
vn -0.110169 0.712339 0.693135
vn 0.000048 -1.000000 0.000171
vn 0.000019 -1.000000 -0.000131
vn 0.000011 -1.000000 0.000274
vn 0.000017 -1.000000 -0.000014
vn 0.000015 -1.000000 -0.000241
vn -0.000031 -1.000000 0.000506
vn -0.000010 -1.000000 -0.000446
vn -0.000068 -1.000000 0.000689
vn -0.000121 -1.000000 -0.000420
vn 0.817857 -0.016917 -0.575173
vn 0.000000 1.000000 0.000001
vn 0.000000 -0.399443 0.916758
vn -0.058498 -0.596722 0.800313
vn -0.062409 -0.608442 0.791140
vn -0.068381 -0.624634 0.777918
vn -0.076792 -0.644421 0.760805
vn -0.087971 -0.666187 0.740579
vn -0.102016 -0.687590 0.718897
vn -0.118263 -0.705700 0.698572
vn -0.133162 -0.716858 0.684385
vn -0.136681 -0.718440 0.682028
vn -0.110169 -0.712339 0.693135
vn -0.000001 1.000000 0.000080
vn -0.000037 1.000000 -0.000019
vn -0.000038 1.000000 -0.000021
vn -0.000023 1.000000 -0.000103
vn 0.000048 1.000000 0.000171
vn 0.000019 1.000000 -0.000131
vn 0.000000 1.000000 -0.000001
vn 0.000011 1.000000 0.000274
vn 0.000017 1.000000 -0.000012
vn 0.000015 1.000000 -0.000241
vn -0.000031 1.000000 0.000506
vn -0.000010 1.000000 -0.000446
vn 0.000000 1.000000 -0.000003
vn 0.000000 1.000000 0.000003
vn 0.000000 1.000000 -0.000002
vn -0.000068 1.000000 0.000689
vn 0.000000 1.000000 0.000010
vn -0.000121 1.000000 -0.000421
vn 0.816406 0.016853 -0.577232
vn -0.818053 0.000000 0.575143
vn -0.818044 0.000000 0.575156
vn 0.633402 0.000000 0.773823
vn 0.666000 0.000000 0.745951
vn 0.434451 0.000000 0.900696
vn -0.818054 0.000000 0.575142
vn -0.409965 0.000000 0.912101
vn -0.818041 0.000000 0.575160
vn -0.627035 0.000000 -0.778991
vn -0.697229 0.000000 -0.716848
vn 0.892791 0.000000 0.450472
vn -0.865412 0.000000 -0.501062
vn 0.797826 0.000000 0.602888
vn -0.253724 0.000000 -0.967277
vn 0.684332 0.000000 -0.729171
vn -0.818043 0.000000 0.575157
vn -0.100424 0.000000 0.994945
vn 0.850261 0.000000 0.526361
vn -0.761227 0.000000 -0.648486
vn -0.078642 0.000000 0.996903
vn -0.817564 0.000000 -0.575838
vn 0.700635 0.000000 0.713520
vn 0.961053 0.000000 0.276363
vn 0.533430 0.000000 0.845845
vn 0.939737 0.000000 0.341899
vn 0.825307 0.000000 0.564685
vn -0.818045 0.000000 0.575154
vn -0.325044 0.000000 -0.945699
vn 0.767834 0.000000 0.640649
vn 0.371152 0.000000 0.928572
vn -0.190990 0.000000 0.981592
vn -0.166917 0.000000 0.985971
vn -0.072900 0.000000 0.997339
vn -0.552598 0.000000 -0.833448
vn -0.818047 0.000000 0.575152
vn -0.399635 0.000000 -0.916674
vn 0.926152 0.000000 0.377150
vn -0.196496 0.000000 0.980505
vn -0.476093 0.000000 -0.879395
vn -0.818042 0.000000 0.575158
vn 0.951467 0.000000 0.307752
vn 0.735396 0.000000 0.677637
vn 0.566897 0.000000 0.823789
vn 0.340651 0.000000 0.940190
vn 0.600292 0.000000 0.799781
vn 0.872731 0.000000 0.488202
vn -0.140499 0.000000 0.990081
vn -0.156973 0.000000 0.987603
vn -0.818041 0.000000 0.575159
vn 0.402450 0.000000 0.915442
vn -0.935564 0.000000 -0.353156
vn -0.818038 0.000000 0.575164
vn 0.467039 0.000000 0.884237
vn 0.311011 0.000000 0.950406
vn -0.904612 0.000000 -0.426237
vn 0.910554 0.000000 0.413391
vn 0.500084 0.000000 0.865977
vn -0.818045 0.000000 0.575155
vn -0.117957 0.000000 0.993019
vn -0.087565 0.000000 0.996159
usemtl SVGMat.001
s off
f 7//1 6//1 5//1
f 7//1 5//1 67//1
f 8//1 7//1 55//1
f 55//1 7//1 67//1
f 8//1 55//1 54//1
f 56//2 55//2 67//2
f 57//2 56//2 67//2
f 58//2 57//2 67//2
f 59//2 58//2 67//2
f 60//2 59//2 67//2
f 61//2 60//2 67//2
f 62//2 61//2 67//2
f 63//2 62//2 67//2
f 64//2 63//2 67//2
f 65//2 64//2 67//2
f 66//2 65//2 67//2
f 9//1 8//1 54//1
f 10//1 9//1 54//1
f 10//1 54//1 53//1
f 11//1 10//1 53//1
f 11//1 53//1 52//1
f 12//1 11//1 52//1
f 13//1 12//1 52//1
f 13//1 52//1 51//1
f 14//1 13//1 51//1
f 14//1 51//1 50//1
f 15//1 14//1 50//1
f 16//1 15//1 50//1
f 16//1 50//1 49//1
f 17//1 16//1 49//1
f 17//1 49//1 48//1
f 18//1 17//1 48//1
f 19//1 18//1 48//1
f 19//1 48//1 47//1
f 20//1 19//1 47//1
f 20//1 47//1 46//1
f 21//1 20//1 46//1
f 22//1 21//1 46//1
f 22//1 46//1 45//1
f 23//1 22//1 45//1
f 23//1 45//1 44//1
f 24//1 23//1 44//1
f 24//1 44//1 43//1
f 25//1 24//1 43//1
f 25//1 43//1 42//1
f 26//1 25//1 42//1
f 26//1 42//1 41//1
f 26//1 41//1 40//1
f 27//1 26//1 40//1
f 27//1 40//1 39//1
f 27//1 39//1 38//1
f 28//1 27//1 38//1
f 28//1 38//1 37//1
f 29//1 28//1 37//1
f 29//1 37//1 36//1
f 29//1 36//1 35//1
f 30//1 29//1 35//1
f 30//1 35//1 34//1
f 31//1 30//1 32//1
f 32//1 30//1 34//1
f 32//1 34//1 33//1
f 3//1 2//1 1//1
f 3//1 1//1 4//1
f 74//3 72//3 73//3
f 74//3 134//3 72//3
f 75//3 122//3 74//3
f 122//3 134//3 74//3
f 75//3 121//3 122//3
f 123//2 134//2 122//2
f 124//2 134//2 123//2
f 125//4 134//4 124//4
f 126//2 134//2 125//2
f 127//2 134//2 126//2
f 128//2 134//2 127//2
f 129//2 134//2 128//2
f 130//2 134//2 129//2
f 131//2 134//2 130//2
f 132//2 134//2 131//2
f 133//2 134//2 132//2
f 76//3 121//3 75//3
f 77//3 121//3 76//3
f 77//3 120//3 121//3
f 78//3 120//3 77//3
f 78//3 119//3 120//3
f 79//3 119//3 78//3
f 80//3 119//3 79//3
f 80//3 118//3 119//3
f 81//3 118//3 80//3
f 81//3 117//3 118//3
f 82//3 117//3 81//3
f 83//3 117//3 82//3
f 83//3 116//3 117//3
f 84//3 116//3 83//3
f 84//3 115//3 116//3
f 85//3 115//3 84//3
f 86//3 115//3 85//3
f 86//3 114//3 115//3
f 87//3 114//3 86//3
f 87//3 113//3 114//3
f 88//3 113//3 87//3
f 89//3 113//3 88//3
f 89//3 112//3 113//3
f 90//3 112//3 89//3
f 90//3 111//3 112//3
f 91//3 111//3 90//3
f 91//3 110//3 111//3
f 92//3 110//3 91//3
f 92//3 109//3 110//3
f 93//3 109//3 92//3
f 93//3 108//3 109//3
f 93//3 107//3 108//3
f 94//3 107//3 93//3
f 94//3 106//3 107//3
f 94//3 105//3 106//3
f 95//3 105//3 94//3
f 95//3 104//3 105//3
f 96//3 104//3 95//3
f 96//3 103//3 104//3
f 96//3 102//3 103//3
f 97//3 102//3 96//3
f 97//3 101//3 102//3
f 98//3 99//3 97//3
f 99//3 101//3 97//3
f 99//5 100//5 101//5
f 70//3 68//3 69//3
f 70//3 71//3 68//3
f 33//6 34//6 101//6 100//6
f 37//7 38//7 105//7 104//7
f 20//8 21//8 88//8 87//8
f 19//9 20//9 87//9 86//9
f 26//10 27//10 94//10 93//10
f 31//11 32//11 99//11 98//11
f 55//4 56//4 123//4 122//4
f 41//12 42//12 109//12 108//12
f 48//13 49//13 116//13 115//13
f 49//14 50//14 117//14 116//14
f 11//15 12//15 79//15 78//15
f 52//16 53//16 120//16 119//16
f 15//17 16//17 83//17 82//17
f 43//18 44//18 111//18 110//18
f 6//19 7//19 74//19 73//19
f 67//20 5//20 72//20 134//20
f 39//7 40//7 107//7 106//7
f 59//4 60//4 127//4 126//4
f 13//21 14//21 81//21 80//21
f 50//22 51//22 118//22 117//22
f 57//4 58//4 125//4 124//4
f 51//23 52//23 119//23 118//23
f 18//24 19//24 86//24 85//24
f 66//4 67//4 134//4 133//4
f 23//25 24//25 91//25 90//25
f 8//26 9//26 76//26 75//26
f 14//27 15//27 82//27 81//27
f 40//7 41//7 108//7 107//7
f 44//28 45//28 112//28 111//28
f 16//29 17//29 84//29 83//29
f 28//30 29//30 96//30 95//30
f 63//4 64//4 131//4 130//4
f 62//4 63//4 130//4 129//4
f 56//4 57//4 124//4 123//4
f 47//31 48//31 115//31 114//31
f 35//32 36//32 103//32 102//32
f 45//33 46//33 113//33 112//33
f 9//34 10//34 77//34 76//34
f 64//4 65//4 132//4 131//4
f 46//35 47//35 114//35 113//35
f 36//12 37//12 104//12 103//12
f 32//36 33//36 100//36 99//36
f 2//37 3//37 70//37 69//37
f 7//38 8//38 75//38 74//38
f 17//39 18//39 85//39 84//39
f 22//40 23//40 90//40 89//40
f 1//2 2//2 69//2 68//2
f 29//41 30//41 97//41 96//41
f 21//42 22//42 89//42 88//42
f 12//43 13//43 80//43 79//43
f 61//4 62//4 129//4 128//4
f 65//4 66//4 133//4 132//4
f 42//44 43//44 110//44 109//44
f 4//20 1//20 68//20 71//20
f 27//45 28//45 95//45 94//45
f 54//46 55//46 122//46 121//46
f 34//47 35//47 102//47 101//47
f 25//48 26//48 93//48 92//48
f 30//49 31//49 98//49 97//49
f 5//2 6//2 73//2 72//2
f 53//50 54//50 121//50 120//50
f 10//51 11//51 78//51 77//51
f 24//52 25//52 92//52 91//52
f 38//7 39//7 106//7 105//7
f 60//4 61//4 128//4 127//4
f 58//4 59//4 126//4 125//4
f 3//4 4//4 71//4 70//4
f 139//3 140//3 141//3
f 201//3 139//3 141//3
f 189//3 141//3 142//3
f 201//3 141//3 189//3
f 188//3 189//3 142//3
f 201//53 189//53 190//53
f 201//54 190//54 191//54
f 201//55 191//55 192//55
f 201//56 192//56 193//56
f 201//57 193//57 194//57
f 201//58 194//58 195//58
f 201//59 195//59 196//59
f 201//60 196//60 197//60
f 201//61 197//61 198//61
f 201//62 198//62 199//62
f 201//63 199//63 200//63
f 188//3 142//3 143//3
f 188//3 143//3 144//3
f 187//3 188//3 144//3
f 187//3 144//3 145//3
f 186//3 187//3 145//3
f 186//3 145//3 146//3
f 186//3 146//3 147//3
f 185//3 186//3 147//3
f 185//3 147//3 148//3
f 184//3 185//3 148//3
f 184//64 148//64 149//64
f 184//65 149//65 150//65
f 183//3 184//3 150//3
f 183//3 150//3 151//3
f 182//3 183//3 151//3
f 182//3 151//3 152//3
f 182//3 152//3 153//3
f 181//3 182//3 153//3
f 181//3 153//3 154//3
f 180//3 181//3 154//3
f 180//3 154//3 155//3
f 180//3 155//3 156//3
f 179//3 180//3 156//3
f 179//3 156//3 157//3
f 178//3 179//3 157//3
f 178//3 157//3 158//3
f 177//3 178//3 158//3
f 177//66 158//66 159//66
f 176//67 177//67 159//67
f 176//68 159//68 160//68
f 175//69 176//69 160//69
f 174//70 175//70 160//70
f 174//3 160//3 161//3
f 173//3 174//3 161//3
f 172//3 173//3 161//3
f 172//3 161//3 162//3
f 171//3 172//3 162//3
f 171//3 162//3 163//3
f 170//3 171//3 163//3
f 169//3 170//3 163//3
f 169//3 163//3 164//3
f 168//71 169//71 164//71
f 166//3 164//3 165//3
f 168//72 164//72 166//72
f 167//73 168//73 166//73
f 135//3 136//3 137//3
f 138//3 135//3 137//3
f 207//1 206//1 208//1
f 206//1 268//1 208//1
f 208//1 256//1 209//1
f 208//74 268//74 256//74
f 256//1 255//1 209//1
f 256//75 268//75 257//75
f 257//76 268//76 258//76
f 258//77 268//77 259//77
f 259//78 268//78 260//78
f 260//79 268//79 261//79
f 261//80 268//80 262//80
f 262//81 268//81 263//81
f 263//82 268//82 264//82
f 264//83 268//83 265//83
f 265//84 268//84 266//84
f 266//85 268//85 267//85
f 209//1 255//1 210//1
f 210//1 255//1 211//1
f 255//1 254//1 211//1
f 211//1 254//1 212//1
f 254//86 253//86 212//86
f 212//87 253//87 213//87
f 213//88 253//88 214//88
f 253//89 252//89 214//89
f 214//1 252//1 215//1
f 252//1 251//1 215//1
f 215//90 251//90 216//90
f 216//91 251//91 217//91
f 251//1 250//1 217//1
f 217//92 250//92 218//92
f 250//1 249//1 218//1
f 218//1 249//1 219//1
f 219//74 249//74 220//74
f 249//1 248//1 220//1
f 220//1 248//1 221//1
f 248//1 247//1 221//1
f 221//1 247//1 222//1
f 222//1 247//1 223//1
f 247//1 246//1 223//1
f 223//1 246//1 224//1
f 246//1 245//1 224//1
f 224//1 245//1 225//1
f 245//1 244//1 225//1
f 225//93 244//93 226//93
f 244//94 243//94 226//94
f 226//95 243//95 227//95
f 243//96 242//96 227//96
f 242//97 241//97 227//97
f 227//1 241//1 228//1
f 241//1 240//1 228//1
f 240//1 239//1 228//1
f 228//74 239//74 229//74
f 239//1 238//1 229//1
f 229//1 238//1 230//1
f 238//98 237//98 230//98
f 237//99 236//99 230//99
f 230//100 236//100 231//100
f 236//101 235//101 231//101
f 231//102 233//102 232//102
f 231//103 235//103 233//103
f 235//104 234//104 233//104
f 203//1 202//1 204//1
f 202//1 205//1 204//1
f 234//105 235//105 168//105 167//105
f 238//106 239//106 172//106 171//106
f 221//107 222//107 155//107 154//107
f 220//108 221//108 154//108 153//108
f 227//109 228//109 161//109 160//109
f 232//110 233//110 166//110 165//110
f 256//111 257//111 190//111 189//111
f 242//112 243//112 176//112 175//112
f 249//113 250//113 183//113 182//113
f 250//114 251//114 184//114 183//114
f 212//115 213//115 146//115 145//115
f 253//116 254//116 187//116 186//116
f 216//117 217//117 150//117 149//117
f 244//118 245//118 178//118 177//118
f 207//119 208//119 141//119 140//119
f 268//37 206//37 139//37 201//37
f 240//120 241//120 174//120 173//120
f 260//121 261//121 194//121 193//121
f 214//122 215//122 148//122 147//122
f 251//123 252//123 185//123 184//123
f 258//124 259//124 192//124 191//124
f 252//125 253//125 186//125 185//125
f 219//126 220//126 153//126 152//126
f 267//127 268//127 201//127 200//127
f 224//128 225//128 158//128 157//128
f 209//129 210//129 143//129 142//129
f 215//130 216//130 149//130 148//130
f 241//131 242//131 175//131 174//131
f 245//132 246//132 179//132 178//132
f 217//133 218//133 151//133 150//133
f 229//134 230//134 163//134 162//134
f 264//135 265//135 198//135 197//135
f 263//136 264//136 197//136 196//136
f 257//137 258//137 191//137 190//137
f 248//138 249//138 182//138 181//138
f 236//139 237//139 170//139 169//139
f 246//140 247//140 180//140 179//140
f 210//141 211//141 144//141 143//141
f 265//142 266//142 199//142 198//142
f 247//143 248//143 181//143 180//143
f 237//144 238//144 171//144 170//144
f 233//112 234//112 167//112 166//112
f 203//20 204//20 137//20 136//20
f 208//145 209//145 142//145 141//145
f 218//146 219//146 152//146 151//146
f 223//147 224//147 157//147 156//147
f 202//4 203//4 136//4 135//4
f 230//148 231//148 164//148 163//148
f 222//149 223//149 156//149 155//149
f 213//150 214//150 147//150 146//150
f 262//151 263//151 196//151 195//151
f 266//152 267//152 200//152 199//152
f 243//153 244//153 177//153 176//153
f 205//37 202//37 135//37 138//37
f 228//154 229//154 162//154 161//154
f 255//155 256//155 189//155 188//155
f 235//156 236//156 169//156 168//156
f 226//157 227//157 160//157 159//157
f 231//158 232//158 165//158 164//158
f 206//4 207//4 140//4 139//4
f 254//159 255//159 188//159 187//159
f 211//160 212//160 145//160 144//160
f 225//161 226//161 159//161 158//161
f 239//162 240//162 173//162 172//162
f 261//163 262//163 195//163 194//163
f 259//164 260//164 193//164 192//164
f 204//2 205//2 138//2 137//2
