# Blender v2.69 (sub 0) OBJ File: ''
# www.blender.org
mtllib ro.mtl
o Curve_Mesh
v 0.000000 0.000000 -0.000006
v 5.428479 0.000000 -0.000006
v 5.428479 0.000000 5.418509
v 4.733952 0.000000 5.418509
v 4.733952 0.000000 4.893851
v 0.694563 0.000000 4.893851
v 0.694563 0.000000 5.418509
v -0.000000 0.000000 5.418509
v 0.694563 0.000000 0.644783
v 0.694563 0.000000 4.240808
v 4.733952 0.000000 4.240808
v 4.733952 0.000000 0.644783
v 0.000000 0.010000 -0.000006
v 5.428479 0.010000 -0.000006
v 5.428479 0.010000 5.418509
v 4.733952 0.010000 5.418509
v 4.733952 0.010000 4.893851
v 0.694563 0.010000 4.893851
v 0.694563 0.010000 5.418509
v -0.000000 0.010000 5.418509
v 0.694563 0.010000 0.644783
v 0.694563 0.010000 4.240808
v 4.733952 0.010000 4.240808
v 4.733952 0.010000 0.644783
v 0.000000 -1.000000 -0.000006
v 5.428479 -1.000000 -0.000006
v 5.428479 -1.000000 5.418509
v 4.733952 -1.000000 5.418509
v 4.733952 -1.000000 4.893851
v 0.694563 -1.000000 4.893851
v 0.694563 -1.000000 5.418509
v -0.000000 -0.999970 5.418509
v 0.694563 -1.000000 0.644783
v 0.694563 -1.000000 4.240808
v 4.733952 -1.000000 4.240808
v 4.733952 -1.000000 0.644783
v 0.000000 1.010000 -0.000006
v 5.428479 1.010000 -0.000006
v 5.428479 1.010000 5.418509
v 4.733952 1.010000 5.418509
v 4.733952 1.010000 4.893851
v 0.694563 1.010000 4.893851
v 0.694563 1.010000 5.418509
v -0.000000 1.009969 5.418509
v 0.694563 1.010000 0.644783
v 0.694563 1.010000 4.240808
v 4.733952 1.010000 4.240808
v 4.733952 1.010000 0.644783
vn 0.000000 1.000000 0.000000
vn 0.000000 -1.000000 0.000000
vn 0.000000 0.000000 -1.000000
vn 0.000000 0.000000 1.000000
vn 1.000000 0.000000 0.000000
vn -1.000000 0.000000 0.000000
vn -0.000005 -1.000000 0.000006
vn -0.000044 -1.000000 0.000000
vn -0.000005 1.000000 0.000006
vn -0.000044 1.000000 0.000000
vn -0.000001 0.000000 1.000000
usemtl SVGMat.001
s off
f 3//1 2//1 12//1
f 12//1 2//1 1//1
f 12//1 1//1 9//1
f 9//1 1//1 8//1
f 3//1 12//1 11//1
f 10//1 9//1 8//1
f 3//1 11//1 5//1
f 5//1 11//1 10//1
f 5//1 10//1 6//1
f 6//1 10//1 8//1
f 3//1 5//1 4//1
f 7//1 6//1 8//1
f 15//2 24//2 14//2
f 24//2 13//2 14//2
f 24//2 21//2 13//2
f 21//2 20//2 13//2
f 15//2 23//2 24//2
f 22//2 20//2 21//2
f 15//2 17//2 23//2
f 17//2 22//2 23//2
f 17//2 18//2 22//2
f 18//2 20//2 22//2
f 15//2 16//2 17//2
f 19//2 20//2 18//2
f 12//3 9//3 21//3 24//3
f 1//4 2//4 14//4 13//4
f 4//5 5//5 17//5 16//5
f 8//5 1//5 13//5 20//5
f 3//3 4//3 16//3 15//3
f 5//3 6//3 18//3 17//3
f 7//3 8//3 20//3 19//3
f 10//4 11//4 23//4 22//4
f 2//6 3//6 15//6 14//6
f 9//6 10//6 22//6 21//6
f 11//5 12//5 24//5 23//5
f 6//6 7//6 19//6 18//6
f 36//2 26//2 27//2
f 25//2 26//2 36//2
f 33//2 25//2 36//2
f 32//7 25//7 33//7
f 35//2 36//2 27//2
f 32//8 33//8 34//8
f 29//2 35//2 27//2
f 34//2 35//2 29//2
f 30//2 34//2 29//2
f 32//8 34//8 30//8
f 28//2 29//2 27//2
f 32//8 30//8 31//8
f 38//1 48//1 39//1
f 38//1 37//1 48//1
f 37//1 45//1 48//1
f 37//9 44//9 45//9
f 48//1 47//1 39//1
f 45//10 44//10 46//10
f 47//1 41//1 39//1
f 47//1 46//1 41//1
f 46//1 42//1 41//1
f 46//10 44//10 42//10
f 41//1 40//1 39//1
f 42//10 44//10 43//10
f 48//4 45//4 33//4 36//4
f 37//3 38//3 26//3 25//3
f 40//6 41//6 29//6 28//6
f 44//6 37//6 25//6 32//6
f 39//4 40//4 28//4 27//4
f 41//4 42//4 30//4 29//4
f 43//11 44//11 32//11 31//11
f 46//3 47//3 35//3 34//3
f 38//5 39//5 27//5 26//5
f 45//5 46//5 34//5 33//5
f 47//6 48//6 36//6 35//6
f 42//5 43//5 31//5 30//5
