# Blender v2.69 (sub 0) OBJ File: ''
# www.blender.org
mtllib to.mtl
o Curve_Mesh
v 0.000000 0.000000 -0.000286
v 0.686273 0.000000 -0.000286
v 0.686273 0.000000 2.368411
v 0.968060 0.000000 2.499238
v 1.246971 0.000000 2.632706
v 1.523007 0.000000 2.768815
v 1.796167 0.000000 2.907566
v 2.066451 0.000000 3.048958
v 2.333858 0.000000 3.192991
v 2.598388 0.000000 3.339666
v 2.860042 0.000000 3.488983
v 3.118819 0.000000 3.640942
v 3.374718 0.000000 3.795542
v 3.627739 0.000000 3.952785
v 3.877883 0.000000 4.112670
v 3.871940 0.000000 4.121803
v 3.855145 0.000000 4.147612
v 3.829049 0.000000 4.187716
v 3.795201 0.000000 4.239731
v 3.755152 0.000000 4.301276
v 3.710451 0.000000 4.369968
v 3.662651 0.000000 4.443425
v 3.613300 0.000000 4.519265
v 3.563948 0.000000 4.595104
v 3.516148 0.000000 4.668561
v 3.471447 0.000000 4.737254
v 3.431398 0.000000 4.798798
v 3.197583 0.000000 4.623102
v 2.964687 0.000000 4.452922
v 2.732711 0.000000 4.288258
v 2.501654 0.000000 4.129109
v 2.271517 0.000000 3.975478
v 2.042299 0.000000 3.827363
v 1.813999 0.000000 3.684765
v 1.586617 0.000000 3.547684
v 1.360155 0.000000 3.416121
v 1.134609 0.000000 3.290076
v 0.909982 0.000000 3.169548
v 0.686273 0.000000 3.054539
v 0.686273 0.000000 3.105101
v 0.686273 0.000000 3.247996
v 0.686273 0.000000 3.470032
v 0.686273 0.000000 3.758020
v 0.686273 0.000000 4.098769
v 0.686273 0.000000 4.479088
v 0.686273 0.000000 4.885788
v 0.686273 0.000000 5.305678
v 0.686273 0.000000 5.725568
v 0.686273 0.000000 6.132268
v 0.686273 0.000000 6.512588
v 0.686273 0.000000 6.853337
v 0.000000 0.000000 6.853337
v 0.000000 0.010000 -0.000286
v 0.686273 0.010000 -0.000286
v 0.686273 0.010000 2.368411
v 0.968060 0.010000 2.499238
v 1.246971 0.010000 2.632706
v 1.523007 0.010000 2.768815
v 1.796167 0.010000 2.907566
v 2.066451 0.010000 3.048958
v 2.333858 0.010000 3.192991
v 2.598388 0.010000 3.339666
v 2.860042 0.010000 3.488983
v 3.118819 0.010000 3.640942
v 3.374718 0.010000 3.795542
v 3.627739 0.010000 3.952785
v 3.877883 0.010000 4.112670
v 3.871940 0.010000 4.121803
v 3.855145 0.010000 4.147612
v 3.829049 0.010000 4.187716
v 3.795201 0.010000 4.239731
v 3.755152 0.010000 4.301276
v 3.710451 0.010000 4.369968
v 3.662651 0.010000 4.443425
v 3.613300 0.010000 4.519265
v 3.563948 0.010000 4.595104
v 3.516148 0.010000 4.668561
v 3.471447 0.010000 4.737254
v 3.431398 0.010000 4.798798
v 3.197583 0.010000 4.623102
v 2.964687 0.010000 4.452922
v 2.732711 0.010000 4.288258
v 2.501654 0.010000 4.129109
v 2.271517 0.010000 3.975478
v 2.042299 0.010000 3.827363
v 1.813999 0.010000 3.684765
v 1.586617 0.010000 3.547684
v 1.360155 0.010000 3.416121
v 1.134609 0.010000 3.290076
v 0.909982 0.010000 3.169548
v 0.686273 0.010000 3.054539
v 0.686273 0.010000 3.105101
v 0.686273 0.010000 3.247996
v 0.686273 0.010000 3.470032
v 0.686273 0.010000 3.758020
v 0.686273 0.010000 4.098769
v 0.686273 0.010000 4.479088
v 0.686273 0.010000 4.885788
v 0.686273 0.010000 5.305678
v 0.686273 0.010000 5.725568
v 0.686273 0.010000 6.132268
v 0.686273 0.010000 6.512588
v 0.686273 0.010000 6.853337
v 0.000000 0.010000 6.853337
v 0.000000 -1.000000 -0.000286
v 0.686273 -1.000000 -0.000286
v 0.686273 -1.000000 2.368411
v 0.968060 -1.000000 2.499238
v 1.246971 -0.999970 2.632706
v 1.523007 -1.000000 2.768815
v 1.796167 -1.000000 2.907566
v 2.066451 -1.000000 3.048958
v 2.333858 -1.000000 3.192991
v 2.598388 -1.000000 3.339666
v 2.860042 -1.000000 3.488983
v 3.118819 -0.999970 3.640942
v 3.374718 -1.000000 3.795542
v 3.627739 -0.999970 3.952785
v 3.877883 -1.000000 4.112670
v 3.871940 -1.000000 4.121803
v 3.855145 -1.000000 4.147612
v 3.829049 -1.000000 4.187716
v 3.795201 -1.000000 4.239731
v 3.755152 -0.999970 4.301276
v 3.710451 -1.000000 4.369968
v 3.662651 -1.000000 4.443425
v 3.613300 -1.000000 4.519265
v 3.563948 -0.999970 4.595104
v 3.516148 -1.000000 4.668561
v 3.471447 -0.999970 4.737254
v 3.431398 -1.000000 4.798798
v 3.197583 -1.000000 4.623102
v 2.964687 -1.000000 4.452922
v 2.732711 -1.000000 4.288258
v 2.501654 -1.000000 4.129109
v 2.271517 -0.999970 3.975478
v 2.042299 -0.999970 3.827363
v 1.813999 -1.000000 3.684765
v 1.586617 -1.000000 3.547684
v 1.360155 -1.000000 3.416121
v 1.134609 -1.000000 3.290076
v 0.909982 -1.000000 3.169548
v 0.686273 -0.999970 3.054539
v 0.686273 -1.000000 3.105101
v 0.686273 -1.000000 3.247996
v 0.686273 -1.000000 3.470032
v 0.686273 -0.999970 3.758020
v 0.686273 -1.000000 4.098769
v 0.686273 -1.000000 4.479088
v 0.686273 -1.000000 4.885788
v 0.686273 -1.000000 5.305678
v 0.686273 -1.000000 5.725568
v 0.686273 -1.000000 6.132268
v 0.686273 -1.000000 6.512588
v 0.686273 -1.000000 6.853337
v 0.000000 -1.000000 6.853337
v 0.000000 1.010000 -0.000286
v 0.686273 1.010000 -0.000286
v 0.686273 1.010000 2.368411
v 0.968060 1.010000 2.499238
v 1.246971 1.009969 2.632706
v 1.523007 1.010000 2.768815
v 1.796167 1.010000 2.907566
v 2.066451 1.010000 3.048958
v 2.333858 1.010000 3.192991
v 2.598388 1.010000 3.339666
v 2.860042 1.010000 3.488983
v 3.118819 1.009969 3.640942
v 3.374718 1.010000 3.795542
v 3.627739 1.009969 3.952785
v 3.877883 1.010000 4.112670
v 3.871940 1.010000 4.121803
v 3.855145 1.010000 4.147612
v 3.829049 1.010000 4.187716
v 3.795201 1.010000 4.239731
v 3.755152 1.009969 4.301276
v 3.710451 1.010000 4.369968
v 3.662651 1.010000 4.443425
v 3.613300 1.010000 4.519265
v 3.563948 1.009969 4.595104
v 3.516148 1.010000 4.668561
v 3.471447 1.009969 4.737254
v 3.431398 1.010000 4.798798
v 3.197583 1.010000 4.623102
v 2.964687 1.010000 4.452922
v 2.732711 1.010000 4.288258
v 2.501654 1.010000 4.129109
v 2.271517 1.009969 3.975478
v 2.042299 1.009969 3.827363
v 1.813999 1.010000 3.684765
v 1.586617 1.010000 3.547684
v 1.360155 1.010000 3.416121
v 1.134609 1.010000 3.290076
v 0.909982 1.010000 3.169548
v 0.686273 1.009969 3.054539
v 0.686273 1.010000 3.105101
v 0.686273 1.010000 3.247996
v 0.686273 1.010000 3.470032
v 0.686273 1.009969 3.758020
v 0.686273 1.010000 4.098769
v 0.686273 1.010000 4.479088
v 0.686273 1.010000 4.885788
v 0.686273 1.010000 5.305678
v 0.686273 1.010000 5.725568
v 0.686273 1.010000 6.132268
v 0.686273 1.010000 6.512588
v 0.686273 1.010000 6.853337
v 0.000000 1.010000 6.853337
vn 0.000000 1.000000 0.000000
vn 0.000000 -1.000000 0.000000
vn -0.452872 0.000000 0.891575
vn -1.000000 0.000000 0.000000
vn -0.838163 0.000000 -0.545419
vn -0.474215 0.000000 0.880409
vn 0.457219 0.000000 -0.889354
vn 1.000000 0.000000 0.000000
vn -0.838163 0.000000 -0.545420
vn -0.506369 0.000000 0.862317
vn -0.838164 0.000000 -0.545419
vn 0.542727 0.000000 -0.839909
vn -0.838162 0.000000 -0.545421
vn -0.838165 0.000000 -0.545416
vn 0.000000 0.000000 -1.000000
vn -0.527836 0.000000 0.849346
vn 0.487838 0.000000 -0.872934
vn -0.495639 0.000000 0.868529
vn 0.555218 0.000000 -0.831705
vn -0.431654 0.000000 0.902039
vn 0.516300 0.000000 -0.856408
vn -0.538559 0.000000 0.842588
vn -0.421104 0.000000 0.907012
vn -0.463530 0.000000 0.886081
vn 0.000000 0.000000 1.000000
vn 0.502331 0.000000 -0.864675
vn 0.529759 0.000000 -0.848148
vn -0.442246 0.000000 0.896894
vn 0.567248 0.000000 -0.823547
vn -0.838174 0.000000 -0.545403
vn 0.472805 0.000000 -0.881167
vn 0.578831 0.000000 -0.815447
vn -0.484919 0.000000 0.874559
vn -0.517103 0.000000 0.855923
vn 0.589988 0.000000 -0.807412
vn 0.600731 0.000000 -0.799451
vn -0.000021 -1.000000 0.000044
vn 0.000290 -1.000000 0.000045
vn 0.000067 -1.000000 0.000089
vn -0.000067 -1.000000 -0.000089
vn -0.000022 -1.000000 0.000043
vn -0.000022 -1.000000 0.000042
vn -0.000022 -1.000000 0.000040
vn 0.000005 -1.000000 -0.000274
vn -0.003290 -0.999994 -0.000605
vn 0.000521 -1.000000 0.000106
vn 0.000009 -1.000000 0.000186
vn 0.000022 -1.000000 -0.000037
vn 0.000016 -1.000000 -0.000224
vn -0.000017 -1.000000 0.000242
vn -0.000359 -1.000000 -0.000090
vn -0.000018 -1.000000 0.000221
vn 0.000000 -1.000000 0.000001
vn -0.000003 -1.000000 -0.000185
vn -0.000002 -1.000000 -0.000195
vn 0.000023 -1.000000 0.000512
vn 0.000030 -1.000000 -0.000043
vn -0.000053 -1.000000 -0.000478
vn 0.000120 -1.000000 0.000481
vn 0.000054 -1.000000 -0.000381
vn -0.000058 -1.000000 0.000406
vn 0.000250 -1.000000 -0.000334
vn -0.000021 1.000000 0.000044
vn 0.000291 1.000000 0.000044
vn 0.000067 1.000000 0.000089
vn -0.000067 1.000000 -0.000089
vn -0.000022 1.000000 0.000042
vn 0.000005 1.000000 -0.000274
vn -0.003296 0.999994 -0.000601
vn 0.000000 1.000000 -0.000001
vn 0.000000 1.000000 0.000001
vn 0.000522 1.000000 0.000106
vn 0.000009 1.000000 0.000185
vn 0.000022 1.000000 -0.000037
vn 0.000016 1.000000 -0.000223
vn -0.000017 1.000000 0.000241
vn -0.000359 1.000000 -0.000089
vn -0.000018 1.000000 0.000224
vn -0.000003 1.000000 -0.000186
vn -0.000002 1.000000 -0.000195
vn 0.000000 1.000000 -0.000019
vn 0.000000 1.000000 0.000006
vn 0.000023 1.000000 0.000511
vn 0.000030 1.000000 -0.000042
vn -0.000053 1.000000 -0.000479
vn 0.000000 1.000000 -0.000002
vn 0.000120 1.000000 0.000481
vn 0.000054 1.000000 -0.000382
vn -0.000058 1.000000 0.000409
vn 0.000250 1.000000 -0.000335
vn 0.452873 0.000000 -0.891575
vn 0.838162 0.000000 0.545421
vn 0.474215 0.000000 -0.880409
vn 0.838163 0.000000 0.545420
vn -0.457219 0.000000 0.889354
vn 0.506369 0.000000 -0.862317
vn 0.838164 0.000000 0.545418
vn -0.542727 0.000000 0.839909
vn 0.527836 0.000000 -0.849346
vn -0.487838 0.000000 0.872934
vn 0.495639 0.000000 -0.868529
vn -0.555218 0.000000 0.831705
vn 0.838165 0.000000 0.545418
vn 0.431654 0.000000 -0.902039
vn -0.516300 0.000000 0.856408
vn 0.538559 0.000000 -0.842588
vn 0.421104 0.000000 -0.907012
vn 0.463530 0.000000 -0.886081
vn -0.502331 0.000000 0.864676
vn -0.529759 0.000000 0.848148
vn 0.442245 0.000000 -0.896894
vn 0.838164 0.000000 0.545419
vn -0.567247 0.000000 0.823548
vn 0.838176 0.000000 0.545400
vn -0.472806 0.000000 0.881167
vn -0.578831 0.000000 0.815448
vn 0.484919 0.000000 -0.874559
vn 0.517103 0.000000 -0.855923
vn -0.589989 0.000000 0.807412
vn -0.600731 0.000000 0.799452
usemtl SVGMat.001
s off
f 3//1 2//1 1//1
f 3//1 1//1 52//1
f 4//1 3//1 39//1
f 39//1 3//1 52//1
f 5//1 4//1 39//1
f 6//1 5//1 39//1
f 7//1 6//1 39//1
f 8//1 7//1 39//1
f 9//1 8//1 39//1
f 9//1 39//1 38//1
f 40//1 39//1 52//1
f 41//1 40//1 52//1
f 9//1 38//1 37//1
f 10//1 9//1 37//1
f 42//1 41//1 52//1
f 10//1 37//1 36//1
f 11//1 10//1 36//1
f 11//1 36//1 35//1
f 43//1 42//1 52//1
f 12//1 11//1 35//1
f 12//1 35//1 34//1
f 13//1 12//1 34//1
f 13//1 34//1 33//1
f 44//1 43//1 52//1
f 14//1 13//1 33//1
f 14//1 33//1 32//1
f 15//1 14//1 32//1
f 15//1 32//1 31//1
f 45//1 44//1 52//1
f 16//1 15//1 31//1
f 17//1 16//1 31//1
f 17//1 31//1 30//1
f 18//1 17//1 30//1
f 19//1 18//1 30//1
f 20//1 19//1 30//1
f 20//1 30//1 29//1
f 21//1 20//1 29//1
f 22//1 21//1 29//1
f 23//1 22//1 29//1
f 23//1 29//1 28//1
f 46//1 45//1 52//1
f 24//1 23//1 28//1
f 25//1 24//1 28//1
f 25//1 28//1 26//1
f 26//1 28//1 27//1
f 47//1 46//1 52//1
f 48//1 47//1 52//1
f 49//1 48//1 52//1
f 50//1 49//1 52//1
f 51//1 50//1 52//1
f 55//2 53//2 54//2
f 55//2 104//2 53//2
f 56//2 91//2 55//2
f 91//2 104//2 55//2
f 57//2 91//2 56//2
f 58//2 91//2 57//2
f 59//2 91//2 58//2
f 60//2 91//2 59//2
f 61//2 91//2 60//2
f 61//2 90//2 91//2
f 92//2 104//2 91//2
f 93//2 104//2 92//2
f 61//2 89//2 90//2
f 62//2 89//2 61//2
f 94//2 104//2 93//2
f 62//2 88//2 89//2
f 63//2 88//2 62//2
f 63//2 87//2 88//2
f 95//2 104//2 94//2
f 64//2 87//2 63//2
f 64//2 86//2 87//2
f 65//2 86//2 64//2
f 65//2 85//2 86//2
f 96//2 104//2 95//2
f 66//2 85//2 65//2
f 66//2 84//2 85//2
f 67//2 84//2 66//2
f 67//2 83//2 84//2
f 97//2 104//2 96//2
f 68//2 83//2 67//2
f 69//2 83//2 68//2
f 69//2 82//2 83//2
f 70//2 82//2 69//2
f 71//2 82//2 70//2
f 72//2 82//2 71//2
f 72//2 81//2 82//2
f 73//2 81//2 72//2
f 74//2 81//2 73//2
f 75//2 81//2 74//2
f 75//2 80//2 81//2
f 98//2 104//2 97//2
f 76//2 80//2 75//2
f 77//2 80//2 76//2
f 77//2 78//2 80//2
f 78//2 79//2 80//2
f 99//2 104//2 98//2
f 100//2 104//2 99//2
f 101//2 104//2 100//2
f 102//2 104//2 101//2
f 103//2 104//2 102//2
f 6//3 7//3 59//3 58//3
f 47//4 48//4 100//4 99//4
f 40//4 41//4 93//4 92//4
f 25//5 26//5 78//5 77//5
f 8//6 9//6 61//6 60//6
f 42//4 43//4 95//4 94//4
f 49//4 50//4 102//4 101//4
f 20//5 21//5 73//5 72//5
f 38//7 39//7 91//7 90//7
f 39//4 40//4 92//4 91//4
f 52//8 1//8 53//8 104//8
f 23//9 24//9 76//9 75//9
f 11//10 12//10 64//10 63//10
f 18//11 19//11 71//11 70//11
f 32//12 33//12 85//12 84//12
f 26//13 27//13 79//13 78//13
f 22//14 23//14 75//14 74//14
f 51//15 52//15 104//15 103//15
f 13//16 14//16 66//16 65//16
f 43//4 44//4 96//4 95//4
f 36//17 37//17 89//17 88//17
f 10//18 11//18 63//18 62//18
f 31//19 32//19 84//19 83//19
f 17//11 18//11 70//11 69//11
f 24//11 25//11 77//11 76//11
f 4//20 5//20 57//20 56//20
f 34//21 35//21 87//21 86//21
f 14//22 15//22 67//22 66//22
f 50//4 51//4 103//4 102//4
f 3//23 4//23 56//23 55//23
f 41//4 42//4 94//4 93//4
f 16//13 17//13 69//13 68//13
f 44//4 45//4 97//4 96//4
f 7//24 8//24 60//24 59//24
f 48//4 49//4 101//4 100//4
f 1//25 2//25 54//25 53//25
f 35//26 36//26 88//26 87//26
f 33//27 34//27 86//27 85//27
f 46//4 47//4 99//4 98//4
f 5//28 6//28 58//28 57//28
f 21//9 22//9 74//9 73//9
f 30//29 31//29 83//29 82//29
f 15//30 16//30 68//30 67//30
f 2//4 3//4 55//4 54//4
f 37//31 38//31 90//31 89//31
f 29//32 30//32 82//32 81//32
f 9//33 10//33 62//33 61//33
f 19//11 20//11 72//11 71//11
f 12//34 13//34 65//34 64//34
f 28//35 29//35 81//35 80//35
f 27//36 28//36 80//36 79//36
f 45//4 46//4 98//4 97//4
f 105//2 106//2 107//2
f 156//2 105//2 107//2
f 143//37 107//37 108//37
f 156//38 107//38 143//38
f 143//39 108//39 109//39
f 143//40 109//40 110//40
f 143//41 110//41 111//41
f 143//42 111//42 112//42
f 143//43 112//43 113//43
f 142//44 143//44 113//44
f 156//45 143//45 144//45
f 156//2 144//2 145//2
f 141//2 142//2 113//2
f 141//2 113//2 114//2
f 156//2 145//2 146//2
f 140//2 141//2 114//2
f 140//2 114//2 115//2
f 139//2 140//2 115//2
f 156//46 146//46 147//46
f 139//47 115//47 116//47
f 138//48 139//48 116//48
f 138//49 116//49 117//49
f 137//50 138//50 117//50
f 156//51 147//51 148//51
f 137//52 117//52 118//52
f 136//53 137//53 118//53
f 136//54 118//54 119//54
f 135//55 136//55 119//55
f 156//2 148//2 149//2
f 135//2 119//2 120//2
f 135//2 120//2 121//2
f 134//2 135//2 121//2
f 134//2 121//2 122//2
f 134//2 122//2 123//2
f 134//56 123//56 124//56
f 133//57 134//57 124//57
f 133//58 124//58 125//58
f 133//2 125//2 126//2
f 133//2 126//2 127//2
f 132//2 133//2 127//2
f 156//2 149//2 150//2
f 132//59 127//59 128//59
f 132//60 128//60 129//60
f 130//61 132//61 129//61
f 131//62 132//62 130//62
f 156//2 150//2 151//2
f 156//2 151//2 152//2
f 156//2 152//2 153//2
f 156//2 153//2 154//2
f 156//2 154//2 155//2
f 158//1 157//1 159//1
f 157//1 208//1 159//1
f 159//63 195//63 160//63
f 159//64 208//64 195//64
f 160//65 195//65 161//65
f 161//66 195//66 162//66
f 162//67 195//67 163//67
f 163//67 195//67 164//67
f 164//67 195//67 165//67
f 195//68 194//68 165//68
f 195//69 208//69 196//69
f 196//1 208//1 197//1
f 194//1 193//1 165//1
f 165//70 193//70 166//70
f 197//1 208//1 198//1
f 193//71 192//71 166//71
f 166//70 192//70 167//70
f 192//71 191//71 167//71
f 198//72 208//72 199//72
f 167//73 191//73 168//73
f 191//74 190//74 168//74
f 168//75 190//75 169//75
f 190//76 189//76 169//76
f 199//77 208//77 200//77
f 169//78 189//78 170//78
f 189//70 188//70 170//70
f 170//79 188//79 171//79
f 188//80 187//80 171//80
f 200//1 208//1 201//1
f 171//81 187//81 172//81
f 172//1 187//1 173//1
f 187//1 186//1 173//1
f 173//82 186//82 174//82
f 174//1 186//1 175//1
f 175//83 186//83 176//83
f 186//84 185//84 176//84
f 176//85 185//85 177//85
f 177//86 185//86 178//86
f 178//1 185//1 179//1
f 185//71 184//71 179//71
f 201//1 208//1 202//1
f 179//87 184//87 180//87
f 180//88 184//88 181//88
f 184//89 182//89 181//89
f 184//90 183//90 182//90
f 202//1 208//1 203//1
f 203//1 208//1 204//1
f 204//1 208//1 205//1
f 205//1 208//1 206//1
f 206//1 208//1 207//1
f 162//91 163//91 111//91 110//91
f 203//8 204//8 152//8 151//8
f 196//8 197//8 145//8 144//8
f 181//92 182//92 130//92 129//92
f 164//93 165//93 113//93 112//93
f 198//8 199//8 147//8 146//8
f 205//8 206//8 154//8 153//8
f 176//94 177//94 125//94 124//94
f 194//95 195//95 143//95 142//95
f 195//8 196//8 144//8 143//8
f 208//4 157//4 105//4 156//4
f 179//94 180//94 128//94 127//94
f 167//96 168//96 116//96 115//96
f 174//97 175//97 123//97 122//97
f 188//98 189//98 137//98 136//98
f 182//94 183//94 131//94 130//94
f 178//97 179//97 127//97 126//97
f 207//25 208//25 156//25 155//25
f 169//99 170//99 118//99 117//99
f 199//8 200//8 148//8 147//8
f 192//100 193//100 141//100 140//100
f 166//101 167//101 115//101 114//101
f 187//102 188//102 136//102 135//102
f 173//92 174//92 122//92 121//92
f 180//103 181//103 129//103 128//103
f 160//104 161//104 109//104 108//104
f 190//105 191//105 139//105 138//105
f 170//106 171//106 119//106 118//106
f 206//8 207//8 155//8 154//8
f 159//107 160//107 108//107 107//107
f 197//8 198//8 146//8 145//8
f 172//97 173//97 121//97 120//97
f 200//8 201//8 149//8 148//8
f 163//108 164//108 112//108 111//108
f 204//8 205//8 153//8 152//8
f 157//15 158//15 106//15 105//15
f 191//109 192//109 140//109 139//109
f 189//110 190//110 138//110 137//110
f 202//8 203//8 151//8 150//8
f 161//111 162//111 110//111 109//111
f 177//112 178//112 126//112 125//112
f 186//113 187//113 135//113 134//113
f 171//114 172//114 120//114 119//114
f 158//8 159//8 107//8 106//8
f 193//115 194//115 142//115 141//115
f 185//116 186//116 134//116 133//116
f 165//117 166//117 114//117 113//117
f 175//97 176//97 124//97 123//97
f 168//118 169//118 117//118 116//118
f 184//119 185//119 133//119 132//119
f 183//120 184//120 132//120 131//120
f 201//8 202//8 150//8 149//8
