# Blender v2.69 (sub 0) OBJ File: ''
# www.blender.org
mtllib to.mtl
o Curve_Mesh
v 0.000000 0.000000 -0.000286
v 0.686273 0.000000 -0.000286
v 0.686273 0.000000 2.368411
v 0.968060 0.000000 2.499238
v 1.246971 0.000000 2.632706
v 1.523007 0.000000 2.768815
v 1.796167 0.000000 2.907566
v 2.066451 0.000000 3.048958
v 2.333858 0.000000 3.192991
v 2.598388 0.000000 3.339666
v 2.860042 0.000000 3.488983
v 3.118819 0.000000 3.640942
v 3.374718 0.000000 3.795542
v 3.627739 0.000000 3.952785
v 3.877883 0.000000 4.112670
v 3.871940 0.000000 4.121803
v 3.855145 0.000000 4.147612
v 3.829049 0.000000 4.187716
v 3.795201 0.000000 4.239731
v 3.755152 0.000000 4.301276
v 3.710451 0.000000 4.369968
v 3.662651 0.000000 4.443425
v 3.613300 0.000000 4.519265
v 3.563948 0.000000 4.595104
v 3.516148 0.000000 4.668561
v 3.471447 0.000000 4.737254
v 3.431398 0.000000 4.798798
v 3.197583 0.000000 4.623102
v 2.964687 0.000000 4.452922
v 2.732711 0.000000 4.288258
v 2.501654 0.000000 4.129109
v 2.271517 0.000000 3.975478
v 2.042299 0.000000 3.827363
v 1.813999 0.000000 3.684765
v 1.586617 0.000000 3.547684
v 1.360155 0.000000 3.416121
v 1.134609 0.000000 3.290076
v 0.909982 0.000000 3.169548
v 0.686273 0.000000 3.054539
v 0.686273 0.000000 3.105101
v 0.686273 0.000000 3.247996
v 0.686273 0.000000 3.470032
v 0.686273 0.000000 3.758020
v 0.686273 0.000000 4.098769
v 0.686273 0.000000 4.479088
v 0.686273 0.000000 4.885788
v 0.686273 0.000000 5.305678
v 0.686273 0.000000 5.725568
v 0.686273 0.000000 6.132268
v 0.686273 0.000000 6.512588
v 0.686273 0.000000 6.853337
v 0.000000 0.000000 6.853337
v 0.000000 0.010000 -0.000286
v 0.686273 0.010000 -0.000286
v 0.686273 0.010000 2.368411
v 0.968060 0.010000 2.499238
v 1.246971 0.010000 2.632706
v 1.523007 0.010000 2.768815
v 1.796167 0.010000 2.907566
v 2.066451 0.010000 3.048958
v 2.333858 0.010000 3.192991
v 2.598388 0.010000 3.339666
v 2.860042 0.010000 3.488983
v 3.118819 0.010000 3.640942
v 3.374718 0.010000 3.795542
v 3.627739 0.010000 3.952785
v 3.877883 0.010000 4.112670
v 3.871940 0.010000 4.121803
v 3.855145 0.010000 4.147612
v 3.829049 0.010000 4.187716
v 3.795201 0.010000 4.239731
v 3.755152 0.010000 4.301276
v 3.710451 0.010000 4.369968
v 3.662651 0.010000 4.443425
v 3.613300 0.010000 4.519265
v 3.563948 0.010000 4.595104
v 3.516148 0.010000 4.668561
v 3.471447 0.010000 4.737254
v 3.431398 0.010000 4.798798
v 3.197583 0.010000 4.623102
v 2.964687 0.010000 4.452922
v 2.732711 0.010000 4.288258
v 2.501654 0.010000 4.129109
v 2.271517 0.010000 3.975478
v 2.042299 0.010000 3.827363
v 1.813999 0.010000 3.684765
v 1.586617 0.010000 3.547684
v 1.360155 0.010000 3.416121
v 1.134609 0.010000 3.290076
v 0.909982 0.010000 3.169548
v 0.686273 0.010000 3.054539
v 0.686273 0.010000 3.105101
v 0.686273 0.010000 3.247996
v 0.686273 0.010000 3.470032
v 0.686273 0.010000 3.758020
v 0.686273 0.010000 4.098769
v 0.686273 0.010000 4.479088
v 0.686273 0.010000 4.885788
v 0.686273 0.010000 5.305678
v 0.686273 0.010000 5.725568
v 0.686273 0.010000 6.132268
v 0.686273 0.010000 6.512588
v 0.686273 0.010000 6.853337
v 0.000000 0.010000 6.853337
v 0.000000 -1.000000 -0.000286
v 0.686273 -1.000000 -0.000286
v 0.686273 -1.000000 2.368411
v 0.968060 -1.000000 2.499238
v 1.246971 -0.999970 2.632706
v 1.523007 -1.000000 2.768815
v 1.796167 -1.000000 2.907566
v 2.066451 -1.000000 3.048958
v 2.333858 -1.000000 3.192991
v 2.598388 -1.000000 3.339666
v 2.860042 -1.000000 3.488983
v 3.118819 -0.999970 3.640942
v 3.374718 -1.000000 3.795542
v 3.627739 -0.999970 3.952785
v 3.877883 -1.000000 4.112670
v 3.871940 -1.000000 4.121803
v 3.855145 -1.000000 4.147612
v 3.829049 -1.000000 4.187716
v 3.795201 -1.000000 4.239731
v 3.755152 -0.999970 4.301276
v 3.710451 -1.000000 4.369968
v 3.662651 -1.000000 4.443425
v 3.613300 -1.000000 4.519265
v 3.563948 -0.999970 4.595104
v 3.516148 -1.000000 4.668561
v 3.471447 -0.999970 4.737254
v 3.431398 -1.000000 4.798798
v 3.197583 -1.000000 4.623102
v 2.964687 -1.000000 4.452922
v 2.732711 -1.000000 4.288258
v 2.501654 -1.000000 4.129109
v 2.271517 -0.999970 3.975478
v 2.042299 -0.999970 3.827363
v 1.813999 -1.000000 3.684765
v 1.586617 -1.000000 3.547684
v 1.360155 -1.000000 3.416121
v 1.134609 -1.000000 3.290076
v 0.909982 -1.000000 3.169548
v 0.686273 -0.999970 3.054539
v 0.686273 -1.000000 3.105101
v 0.686273 -1.000000 3.247996
v 0.686273 -1.000000 3.470032
v 0.686273 -0.999970 3.758020
v 0.686273 -1.000000 4.098769
v 0.686273 -1.000000 4.479088
v 0.686273 -1.000000 4.885788
v 0.686273 -1.000000 5.305678
v 0.686273 -1.000000 5.725568
v 0.686273 -1.000000 6.132268
v 0.686273 -1.000000 6.512588
v 0.686273 -1.000000 6.853337
v 0.000000 -1.000000 6.853337
v 0.000000 1.010000 -0.000286
v 0.686273 1.010000 -0.000286
v 0.686273 1.010000 2.368411
v 0.968060 1.010000 2.499238
v 1.246971 1.009969 2.632706
v 1.523007 1.010000 2.768815
v 1.796167 1.010000 2.907566
v 2.066451 1.010000 3.048958
v 2.333858 1.010000 3.192991
v 2.598388 1.010000 3.339666
v 2.860042 1.010000 3.488983
v 3.118819 1.009969 3.640942
v 3.374718 1.010000 3.795542
v 3.627739 1.009969 3.952785
v 3.877883 1.010000 4.112670
v 3.871940 1.010000 4.121803
v 3.855145 1.010000 4.147612
v 3.829049 1.010000 4.187716
v 3.795201 1.010000 4.239731
v 3.755152 1.009969 4.301276
v 3.710451 1.010000 4.369968
v 3.662651 1.010000 4.443425
v 3.613300 1.010000 4.519265
v 3.563948 1.009969 4.595104
v 3.516148 1.010000 4.668561
v 3.471447 1.009969 4.737254
v 3.431398 1.010000 4.798798
v 3.197583 1.010000 4.623102
v 2.964687 1.010000 4.452922
v 2.732711 1.010000 4.288258
v 2.501654 1.010000 4.129109
v 2.271517 1.009969 3.975478
v 2.042299 1.009969 3.827363
v 1.813999 1.010000 3.684765
v 1.586617 1.010000 3.547684
v 1.360155 1.010000 3.416121
v 1.134609 1.010000 3.290076
v 0.909982 1.010000 3.169548
v 0.686273 1.009969 3.054539
v 0.686273 1.010000 3.105101
v 0.686273 1.010000 3.247996
v 0.686273 1.010000 3.470032
v 0.686273 1.009969 3.758020
v 0.686273 1.010000 4.098769
v 0.686273 1.010000 4.479088
v 0.686273 1.010000 4.885788
v 0.686273 1.010000 5.305678
v 0.686273 1.010000 5.725568
v 0.686273 1.010000 6.132268
v 0.686273 1.010000 6.512588
v 0.686273 1.010000 6.853337
v 0.000000 1.010000 6.853337
vn 0.000000 1.000000 0.000000
vn 0.000000 -1.000000 0.000000
vn 0.457219 0.000000 -0.889354
vn -1.000000 0.000000 0.000000
vn 1.000000 0.000000 0.000000
vn -0.838163 0.000000 -0.545420
vn -0.838164 0.000000 -0.545419
vn -0.506369 0.000000 0.862317
vn 0.542727 0.000000 -0.839909
vn -0.838162 0.000000 -0.545421
vn -0.838165 0.000000 -0.545416
vn 0.000000 0.000000 -1.000000
vn -0.527836 0.000000 0.849346
vn -0.495639 0.000000 0.868529
vn 0.487838 0.000000 -0.872934
vn 0.555218 0.000000 -0.831705
vn -0.431654 0.000000 0.902039
vn 0.516300 0.000000 -0.856408
vn -0.538559 0.000000 0.842588
vn -0.421104 0.000000 0.907012
vn -0.463530 0.000000 0.886081
vn 0.000000 0.000000 1.000000
vn 0.502331 0.000000 -0.864675
vn 0.529759 0.000000 -0.848148
vn -0.442246 0.000000 0.896894
vn 0.567248 0.000000 -0.823547
vn -0.838174 0.000000 -0.545403
vn 0.472805 0.000000 -0.881167
vn 0.578831 0.000000 -0.815447
vn -0.484919 0.000000 0.874559
vn -0.517103 0.000000 0.855923
vn 0.589988 0.000000 -0.807412
vn 0.600731 0.000000 -0.799451
vn -0.452872 0.000000 0.891575
vn -0.838163 0.000000 -0.545419
vn -0.474215 0.000000 0.880409
vn -0.000021 -1.000000 0.000044
vn 0.000290 -1.000000 0.000045
vn 0.000067 -1.000000 0.000089
vn -0.000067 -1.000000 -0.000089
vn -0.000022 -1.000000 0.000043
vn -0.000022 -1.000000 0.000042
vn -0.000022 -1.000000 0.000040
vn 0.000005 -1.000000 -0.000274
vn -0.003290 -0.999994 -0.000605
vn 0.000521 -1.000000 0.000106
vn 0.000009 -1.000000 0.000186
vn 0.000022 -1.000000 -0.000037
vn 0.000016 -1.000000 -0.000224
vn -0.000017 -1.000000 0.000242
vn -0.000359 -1.000000 -0.000090
vn -0.000018 -1.000000 0.000221
vn 0.000000 -1.000000 0.000001
vn -0.000003 -1.000000 -0.000185
vn -0.000002 -1.000000 -0.000195
vn 0.000023 -1.000000 0.000512
vn 0.000030 -1.000000 -0.000043
vn -0.000053 -1.000000 -0.000478
vn 0.000120 -1.000000 0.000481
vn 0.000054 -1.000000 -0.000381
vn -0.000058 -1.000000 0.000406
vn 0.000250 -1.000000 -0.000334
vn -0.000021 1.000000 0.000044
vn 0.000291 1.000000 0.000044
vn 0.000067 1.000000 0.000089
vn -0.000067 1.000000 -0.000089
vn -0.000022 1.000000 0.000042
vn 0.000005 1.000000 -0.000274
vn -0.003296 0.999994 -0.000601
vn 0.000000 1.000000 -0.000001
vn 0.000000 1.000000 0.000001
vn 0.000522 1.000000 0.000106
vn 0.000009 1.000000 0.000185
vn 0.000022 1.000000 -0.000037
vn 0.000016 1.000000 -0.000223
vn -0.000017 1.000000 0.000241
vn -0.000359 1.000000 -0.000089
vn -0.000018 1.000000 0.000224
vn -0.000003 1.000000 -0.000186
vn -0.000002 1.000000 -0.000195
vn 0.000000 1.000000 -0.000019
vn 0.000000 1.000000 0.000006
vn 0.000023 1.000000 0.000511
vn 0.000030 1.000000 -0.000042
vn -0.000053 1.000000 -0.000479
vn 0.000000 1.000000 -0.000002
vn 0.000120 1.000000 0.000481
vn 0.000054 1.000000 -0.000382
vn -0.000058 1.000000 0.000409
vn 0.000250 1.000000 -0.000335
vn -0.457219 0.000000 0.889354
vn 0.838163 0.000000 0.545420
vn 0.838164 0.000000 0.545418
vn 0.506369 0.000000 -0.862317
vn -0.542727 0.000000 0.839909
vn 0.527836 0.000000 -0.849346
vn 0.495639 0.000000 -0.868529
vn -0.487838 0.000000 0.872934
vn -0.555218 0.000000 0.831705
vn 0.838162 0.000000 0.545421
vn 0.838165 0.000000 0.545418
vn 0.431654 0.000000 -0.902039
vn -0.516300 0.000000 0.856408
vn 0.538559 0.000000 -0.842588
vn 0.421104 0.000000 -0.907012
vn 0.463530 0.000000 -0.886081
vn -0.502331 0.000000 0.864676
vn -0.529759 0.000000 0.848148
vn 0.442245 0.000000 -0.896894
vn 0.838164 0.000000 0.545419
vn -0.567247 0.000000 0.823548
vn 0.838176 0.000000 0.545400
vn -0.472806 0.000000 0.881167
vn -0.578831 0.000000 0.815448
vn 0.484919 0.000000 -0.874559
vn 0.517103 0.000000 -0.855923
vn -0.589989 0.000000 0.807412
vn -0.600731 0.000000 0.799452
vn 0.452873 0.000000 -0.891575
vn 0.474215 0.000000 -0.880409
usemtl SVGMat.001
s off
f 3//1 2//1 1//1
f 3//1 1//1 52//1
f 4//1 3//1 39//1
f 39//1 3//1 52//1
f 5//1 4//1 39//1
f 6//1 5//1 39//1
f 7//1 6//1 39//1
f 8//1 7//1 39//1
f 9//1 8//1 39//1
f 9//1 39//1 38//1
f 40//1 39//1 52//1
f 41//1 40//1 52//1
f 9//1 38//1 37//1
f 10//1 9//1 37//1
f 42//1 41//1 52//1
f 10//1 37//1 36//1
f 11//1 10//1 36//1
f 11//1 36//1 35//1
f 43//1 42//1 52//1
f 12//1 11//1 35//1
f 12//1 35//1 34//1
f 13//1 12//1 34//1
f 13//1 34//1 33//1
f 44//1 43//1 52//1
f 14//1 13//1 33//1
f 14//1 33//1 32//1
f 15//1 14//1 32//1
f 15//1 32//1 31//1
f 45//1 44//1 52//1
f 16//1 15//1 31//1
f 17//1 16//1 31//1
f 17//1 31//1 30//1
f 18//1 17//1 30//1
f 19//1 18//1 30//1
f 20//1 19//1 30//1
f 20//1 30//1 29//1
f 21//1 20//1 29//1
f 22//1 21//1 29//1
f 23//1 22//1 29//1
f 23//1 29//1 28//1
f 46//1 45//1 52//1
f 24//1 23//1 28//1
f 25//1 24//1 28//1
f 25//1 28//1 26//1
f 26//1 28//1 27//1
f 47//1 46//1 52//1
f 48//1 47//1 52//1
f 49//1 48//1 52//1
f 50//1 49//1 52//1
f 51//1 50//1 52//1
f 55//2 53//2 54//2
f 55//2 104//2 53//2
f 56//2 91//2 55//2
f 91//2 104//2 55//2
f 57//2 91//2 56//2
f 58//2 91//2 57//2
f 59//2 91//2 58//2
f 60//2 91//2 59//2
f 61//2 91//2 60//2
f 61//2 90//2 91//2
f 92//2 104//2 91//2
f 93//2 104//2 92//2
f 61//2 89//2 90//2
f 62//2 89//2 61//2
f 94//2 104//2 93//2
f 62//2 88//2 89//2
f 63//2 88//2 62//2
f 63//2 87//2 88//2
f 95//2 104//2 94//2
f 64//2 87//2 63//2
f 64//2 86//2 87//2
f 65//2 86//2 64//2
f 65//2 85//2 86//2
f 96//2 104//2 95//2
f 66//2 85//2 65//2
f 66//2 84//2 85//2
f 67//2 84//2 66//2
f 67//2 83//2 84//2
f 97//2 104//2 96//2
f 68//2 83//2 67//2
f 69//2 83//2 68//2
f 69//2 82//2 83//2
f 70//2 82//2 69//2
f 71//2 82//2 70//2
f 72//2 82//2 71//2
f 72//2 81//2 82//2
f 73//2 81//2 72//2
f 74//2 81//2 73//2
f 75//2 81//2 74//2
f 75//2 80//2 81//2
f 98//2 104//2 97//2
f 76//2 80//2 75//2
f 77//2 80//2 76//2
f 77//2 78//2 80//2
f 78//2 79//2 80//2
f 99//2 104//2 98//2
f 100//2 104//2 99//2
f 101//2 104//2 100//2
f 102//2 104//2 101//2
f 103//2 104//2 102//2
f 38//3 39//3 91//3 90//3
f 39//4 40//4 92//4 91//4
f 52//5 1//5 53//5 104//5
f 23//6 24//6 76//6 75//6
f 18//7 19//7 71//7 70//7
f 11//8 12//8 64//8 63//8
f 32//9 33//9 85//9 84//9
f 26//10 27//10 79//10 78//10
f 22//11 23//11 75//11 74//11
f 51//12 52//12 104//12 103//12
f 13//13 14//13 66//13 65//13
f 43//4 44//4 96//4 95//4
f 10//14 11//14 63//14 62//14
f 36//15 37//15 89//15 88//15
f 31//16 32//16 84//16 83//16
f 17//7 18//7 70//7 69//7
f 24//7 25//7 77//7 76//7
f 4//17 5//17 57//17 56//17
f 34//18 35//18 87//18 86//18
f 14//19 15//19 67//19 66//19
f 50//4 51//4 103//4 102//4
f 3//20 4//20 56//20 55//20
f 41//4 42//4 94//4 93//4
f 16//10 17//10 69//10 68//10
f 44//4 45//4 97//4 96//4
f 7//21 8//21 60//21 59//21
f 48//4 49//4 101//4 100//4
f 1//22 2//22 54//22 53//22
f 35//23 36//23 88//23 87//23
f 33//24 34//24 86//24 85//24
f 46//4 47//4 99//4 98//4
f 5//25 6//25 58//25 57//25
f 21//6 22//6 74//6 73//6
f 30//26 31//26 83//26 82//26
f 15//27 16//27 68//27 67//27
f 2//4 3//4 55//4 54//4
f 37//28 38//28 90//28 89//28
f 29//29 30//29 82//29 81//29
f 9//30 10//30 62//30 61//30
f 19//7 20//7 72//7 71//7
f 12//31 13//31 65//31 64//31
f 28//32 29//32 81//32 80//32
f 27//33 28//33 80//33 79//33
f 45//4 46//4 98//4 97//4
f 6//34 7//34 59//34 58//34
f 47//4 48//4 100//4 99//4
f 25//35 26//35 78//35 77//35
f 40//4 41//4 93//4 92//4
f 8//36 9//36 61//36 60//36
f 42//4 43//4 95//4 94//4
f 20//35 21//35 73//35 72//35
f 49//4 50//4 102//4 101//4
f 105//2 106//2 107//2
f 156//2 105//2 107//2
f 143//37 107//37 108//37
f 156//38 107//38 143//38
f 143//39 108//39 109//39
f 143//40 109//40 110//40
f 143//41 110//41 111//41
f 143//42 111//42 112//42
f 143//43 112//43 113//43
f 142//44 143//44 113//44
f 156//45 143//45 144//45
f 156//2 144//2 145//2
f 141//2 142//2 113//2
f 141//2 113//2 114//2
f 156//2 145//2 146//2
f 140//2 141//2 114//2
f 140//2 114//2 115//2
f 139//2 140//2 115//2
f 156//46 146//46 147//46
f 139//47 115//47 116//47
f 138//48 139//48 116//48
f 138//49 116//49 117//49
f 137//50 138//50 117//50
f 156//51 147//51 148//51
f 137//52 117//52 118//52
f 136//53 137//53 118//53
f 136//54 118//54 119//54
f 135//55 136//55 119//55
f 156//2 148//2 149//2
f 135//2 119//2 120//2
f 135//2 120//2 121//2
f 134//2 135//2 121//2
f 134//2 121//2 122//2
f 134//2 122//2 123//2
f 134//56 123//56 124//56
f 133//57 134//57 124//57
f 133//58 124//58 125//58
f 133//2 125//2 126//2
f 133//2 126//2 127//2
f 132//2 133//2 127//2
f 156//2 149//2 150//2
f 132//59 127//59 128//59
f 132//60 128//60 129//60
f 130//61 132//61 129//61
f 131//62 132//62 130//62
f 156//2 150//2 151//2
f 156//2 151//2 152//2
f 156//2 152//2 153//2
f 156//2 153//2 154//2
f 156//2 154//2 155//2
f 158//1 157//1 159//1
f 157//1 208//1 159//1
f 159//63 195//63 160//63
f 159//64 208//64 195//64
f 160//65 195//65 161//65
f 161//66 195//66 162//66
f 162//67 195//67 163//67
f 163//67 195//67 164//67
f 164//67 195//67 165//67
f 195//68 194//68 165//68
f 195//69 208//69 196//69
f 196//1 208//1 197//1
f 194//1 193//1 165//1
f 165//70 193//70 166//70
f 197//1 208//1 198//1
f 193//71 192//71 166//71
f 166//70 192//70 167//70
f 192//71 191//71 167//71
f 198//72 208//72 199//72
f 167//73 191//73 168//73
f 191//74 190//74 168//74
f 168//75 190//75 169//75
f 190//76 189//76 169//76
f 199//77 208//77 200//77
f 169//78 189//78 170//78
f 189//70 188//70 170//70
f 170//79 188//79 171//79
f 188//80 187//80 171//80
f 200//1 208//1 201//1
f 171//81 187//81 172//81
f 172//1 187//1 173//1
f 187//1 186//1 173//1
f 173//82 186//82 174//82
f 174//1 186//1 175//1
f 175//83 186//83 176//83
f 186//84 185//84 176//84
f 176//85 185//85 177//85
f 177//86 185//86 178//86
f 178//1 185//1 179//1
f 185//71 184//71 179//71
f 201//1 208//1 202//1
f 179//87 184//87 180//87
f 180//88 184//88 181//88
f 184//89 182//89 181//89
f 184//90 183//90 182//90
f 202//1 208//1 203//1
f 203//1 208//1 204//1
f 204//1 208//1 205//1
f 205//1 208//1 206//1
f 206//1 208//1 207//1
f 194//91 195//91 143//91 142//91
f 195//5 196//5 144//5 143//5
f 208//4 157//4 105//4 156//4
f 179//92 180//92 128//92 127//92
f 174//93 175//93 123//93 122//93
f 167//94 168//94 116//94 115//94
f 188//95 189//95 137//95 136//95
f 182//92 183//92 131//92 130//92
f 178//93 179//93 127//93 126//93
f 207//22 208//22 156//22 155//22
f 169//96 170//96 118//96 117//96
f 199//5 200//5 148//5 147//5
f 166//97 167//97 115//97 114//97
f 192//98 193//98 141//98 140//98
f 187//99 188//99 136//99 135//99
f 173//100 174//100 122//100 121//100
f 180//101 181//101 129//101 128//101
f 160//102 161//102 109//102 108//102
f 190//103 191//103 139//103 138//103
f 170//104 171//104 119//104 118//104
f 206//5 207//5 155//5 154//5
f 159//105 160//105 108//105 107//105
f 197//5 198//5 146//5 145//5
f 172//93 173//93 121//93 120//93
f 200//5 201//5 149//5 148//5
f 163//106 164//106 112//106 111//106
f 204//5 205//5 153//5 152//5
f 157//12 158//12 106//12 105//12
f 191//107 192//107 140//107 139//107
f 189//108 190//108 138//108 137//108
f 202//5 203//5 151//5 150//5
f 161//109 162//109 110//109 109//109
f 177//110 178//110 126//110 125//110
f 186//111 187//111 135//111 134//111
f 171//112 172//112 120//112 119//112
f 158//5 159//5 107//5 106//5
f 193//113 194//113 142//113 141//113
f 185//114 186//114 134//114 133//114
f 165//115 166//115 114//115 113//115
f 175//93 176//93 124//93 123//93
f 168//116 169//116 117//116 116//116
f 184//117 185//117 133//117 132//117
f 183//118 184//118 132//118 131//118
f 201//5 202//5 150//5 149//5
f 162//119 163//119 111//119 110//119
f 203//5 204//5 152//5 151//5
f 181//100 182//100 130//100 129//100
f 196//5 197//5 145//5 144//5
f 164//120 165//120 113//120 112//120
f 198//5 199//5 147//5 146//5
f 176//92 177//92 125//92 124//92
f 205//5 206//5 154//5 153//5
