# Blender v2.69 (sub 0) OBJ File: ''
# www.blender.org
mtllib voice.mtl
o Curve_Mesh
v 6.416277 0.000000 5.422906
v 1.422147 0.000000 5.422906
v 1.405381 0.000000 5.661032
v 1.377131 0.000000 5.890432
v 1.337399 0.000000 6.111107
v 1.286182 0.000000 6.323057
v 1.223482 0.000000 6.526281
v 1.149298 0.000000 6.720779
v 1.063631 0.000000 6.906551
v 0.966479 0.000000 7.083597
v 0.857843 0.000000 7.251917
v 0.737723 0.000000 7.411510
v 0.606119 0.000000 7.562378
v 0.463030 0.000000 7.704519
v 0.456867 0.000000 7.697037
v 0.439450 0.000000 7.675891
v 0.412386 0.000000 7.643034
v 0.377284 0.000000 7.600418
v 0.335751 0.000000 7.549994
v 0.289394 0.000000 7.493713
v 0.239822 0.000000 7.433530
v 0.188642 0.000000 7.371394
v 0.137462 0.000000 7.309259
v 0.087890 0.000000 7.249075
v 0.041533 0.000000 7.192795
v 0.000000 0.000000 7.142369
v 0.121499 0.000000 7.014696
v 0.232433 0.000000 6.874163
v 0.332800 0.000000 6.720770
v 0.422602 0.000000 6.554519
v 0.501839 0.000000 6.375408
v 0.570511 0.000000 6.183438
v 0.628617 0.000000 5.978609
v 0.676158 0.000000 5.760921
v 0.713134 0.000000 5.530373
v 0.739546 0.000000 5.286965
v 0.755393 0.000000 5.030699
v 0.760675 0.000000 4.761574
v 0.760675 0.000000 4.739568
v 0.760675 0.000000 4.677378
v 0.760675 0.000000 4.580744
v 0.760675 0.000000 4.455408
v 0.760675 0.000000 4.307109
v 0.760675 0.000000 4.141588
v 0.760675 0.000000 3.964586
v 0.760675 0.000000 3.781843
v 0.760675 0.000000 3.599101
v 0.760675 0.000000 3.422099
v 0.760675 0.000000 3.256578
v 0.760675 0.000000 3.108279
v 7.077749 0.000000 3.108279
v 7.077749 0.000000 6.018140
v 6.416277 0.000000 6.018140
v 6.416277 0.000000 3.736526
v 4.266511 0.000000 3.736526
v 4.266511 0.000000 4.794658
v 6.416277 0.000000 4.794658
v 1.422147 0.000000 4.794658
v 3.605039 0.000000 4.794658
v 3.605039 0.000000 3.736526
v 1.422147 0.000000 3.736526
v 0.099203 0.000000 0.628265
v 3.505801 0.000000 0.628265
v 3.505801 0.000000 -0.000018
v 4.167273 0.000000 -0.000018
v 4.167273 0.000000 0.628265
v 7.507688 0.000000 0.628265
v 7.507688 0.000000 1.256549
v 4.167273 0.000000 1.256549
v 4.167273 0.000000 1.950930
v 6.978510 0.000000 1.950930
v 6.978510 0.000000 2.579213
v 0.694563 0.000000 2.579213
v 0.694563 0.000000 1.950930
v 3.505801 0.000000 1.950930
v 3.505801 0.000000 1.256549
v 0.099203 0.000000 1.256549
v 6.416277 0.010000 5.422906
v 1.422147 0.010000 5.422906
v 1.405381 0.010000 5.661032
v 1.377131 0.010000 5.890432
v 1.337399 0.010000 6.111107
v 1.286182 0.010000 6.323057
v 1.223482 0.010000 6.526281
v 1.149298 0.010000 6.720779
v 1.063631 0.010000 6.906551
v 0.966479 0.010000 7.083597
v 0.857843 0.010000 7.251917
v 0.737723 0.010000 7.411510
v 0.606119 0.010000 7.562378
v 0.463030 0.010000 7.704519
v 0.456867 0.010000 7.697037
v 0.439450 0.010000 7.675891
v 0.412386 0.010000 7.643034
v 0.377284 0.010000 7.600418
v 0.335751 0.010000 7.549994
v 0.289394 0.010000 7.493713
v 0.239822 0.010000 7.433530
v 0.188642 0.010000 7.371394
v 0.137462 0.010000 7.309259
v 0.087890 0.010000 7.249075
v 0.041533 0.010000 7.192795
v 0.000000 0.010000 7.142369
v 0.121499 0.010000 7.014696
v 0.232433 0.010000 6.874163
v 0.332800 0.010000 6.720770
v 0.422602 0.010000 6.554519
v 0.501839 0.010000 6.375408
v 0.570511 0.010000 6.183438
v 0.628617 0.010000 5.978609
v 0.676158 0.010000 5.760921
v 0.713134 0.010000 5.530373
v 0.739546 0.010000 5.286965
v 0.755393 0.010000 5.030699
v 0.760675 0.010000 4.761574
v 0.760675 0.010000 4.739568
v 0.760675 0.010000 4.677378
v 0.760675 0.010000 4.580744
v 0.760675 0.010000 4.455408
v 0.760675 0.010000 4.307109
v 0.760675 0.010000 4.141588
v 0.760675 0.010000 3.964586
v 0.760675 0.010000 3.781843
v 0.760675 0.010000 3.599101
v 0.760675 0.010000 3.422099
v 0.760675 0.010000 3.256578
v 0.760675 0.010000 3.108279
v 7.077749 0.010000 3.108279
v 7.077749 0.010000 6.018140
v 6.416277 0.010000 6.018140
v 6.416277 0.010000 3.736526
v 4.266511 0.010000 3.736526
v 4.266511 0.010000 4.794658
v 6.416277 0.010000 4.794658
v 1.422147 0.010000 4.794658
v 3.605039 0.010000 4.794658
v 3.605039 0.010000 3.736526
v 1.422147 0.010000 3.736526
v 0.099203 0.010000 0.628265
v 3.505801 0.010000 0.628265
v 3.505801 0.010000 -0.000018
v 4.167273 0.010000 -0.000018
v 4.167273 0.010000 0.628265
v 7.507688 0.010000 0.628265
v 7.507688 0.010000 1.256549
v 4.167273 0.010000 1.256549
v 4.167273 0.010000 1.950930
v 6.978510 0.010000 1.950930
v 6.978510 0.010000 2.579213
v 0.694563 0.010000 2.579213
v 0.694563 0.010000 1.950930
v 3.505801 0.010000 1.950930
v 3.505801 0.010000 1.256549
v 0.099203 0.010000 1.256549
v 6.416277 -0.999970 5.422906
v 1.422147 -1.000000 5.422906
v 1.405381 -1.000000 5.661032
v 1.377131 -1.000000 5.890432
v 1.337399 -1.000000 6.111107
v 1.286182 -1.000000 6.323057
v 1.223482 -1.000000 6.526281
v 1.149298 -1.000000 6.720779
v 1.063631 -1.000000 6.906551
v 0.966479 -1.000000 7.083597
v 0.857843 -1.000000 7.251917
v 0.737723 -1.000000 7.411510
v 0.606119 -1.000000 7.562378
v 0.463030 -1.000000 7.704519
v 0.456867 -1.000000 7.697037
v 0.439450 -1.000000 7.675891
v 0.412386 -1.000000 7.643034
v 0.377284 -1.000000 7.600418
v 0.335751 -1.000000 7.549994
v 0.289394 -1.000000 7.493713
v 0.239822 -1.000000 7.433530
v 0.188642 -1.000000 7.371394
v 0.137462 -1.000000 7.309259
v 0.087890 -1.000000 7.249075
v 0.041533 -1.000000 7.192795
v 0.000000 -1.000000 7.142369
v 0.121499 -1.000000 7.014696
v 0.232433 -1.000000 6.874163
v 0.332800 -1.000000 6.720770
v 0.422602 -1.000000 6.554519
v 0.501839 -1.000000 6.375408
v 0.570511 -1.000000 6.183438
v 0.628617 -1.000000 5.978609
v 0.676158 -1.000000 5.760921
v 0.713134 -1.000000 5.530373
v 0.739546 -1.000000 5.286965
v 0.755393 -1.000000 5.030699
v 0.760675 -1.000000 4.761574
v 0.760675 -1.000000 4.739568
v 0.760675 -1.000000 4.677378
v 0.760675 -1.000000 4.580744
v 0.760675 -1.000000 4.455408
v 0.760675 -1.000000 4.307109
v 0.760675 -1.000000 4.141588
v 0.760675 -1.000000 3.964586
v 0.760675 -1.000000 3.781843
v 0.760675 -1.000000 3.599101
v 0.760675 -1.000000 3.422099
v 0.760675 -1.000000 3.256578
v 0.760675 -0.999970 3.108279
v 7.077749 -1.000000 3.108279
v 7.077749 -0.999970 6.018140
v 6.416277 -1.000000 6.018140
v 6.416277 -1.000000 3.736526
v 4.266511 -1.000000 3.736526
v 4.266511 -1.000000 4.794658
v 6.416277 -1.000000 4.794658
v 1.422147 -1.000000 4.794658
v 3.605039 -1.000000 4.794658
v 3.605039 -0.999970 3.736526
v 1.422147 -1.000000 3.736526
v 0.099203 -0.999970 0.628265
v 3.505801 -1.000000 0.628265
v 3.505801 -1.000000 -0.000018
v 4.167273 -1.000000 -0.000018
v 4.167273 -1.000000 0.628265
v 7.507688 -1.000000 0.628265
v 7.507688 -1.000000 1.256549
v 4.167273 -1.000000 1.256549
v 4.167273 -1.000000 1.950930
v 6.978510 -1.000000 1.950930
v 6.978510 -1.000000 2.579213
v 0.694563 -1.000000 2.579213
v 0.694563 -0.999970 1.950930
v 3.505801 -1.000000 1.950930
v 3.505801 -1.000000 1.256549
v 0.099203 -1.000000 1.256549
v 6.416277 1.009969 5.422906
v 1.422147 1.010000 5.422906
v 1.405381 1.010000 5.661032
v 1.377131 1.010000 5.890432
v 1.337399 1.010000 6.111107
v 1.286182 1.010000 6.323057
v 1.223482 1.010000 6.526281
v 1.149298 1.010000 6.720779
v 1.063631 1.010000 6.906551
v 0.966479 1.010000 7.083597
v 0.857843 1.010000 7.251917
v 0.737723 1.010000 7.411510
v 0.606119 1.010000 7.562378
v 0.463030 1.010000 7.704519
v 0.456867 1.010000 7.697037
v 0.439450 1.010000 7.675891
v 0.412386 1.010000 7.643034
v 0.377284 1.010000 7.600418
v 0.335751 1.010000 7.549994
v 0.289394 1.010000 7.493713
v 0.239822 1.010000 7.433530
v 0.188642 1.010000 7.371394
v 0.137462 1.010000 7.309259
v 0.087890 1.010000 7.249075
v 0.041533 1.010000 7.192795
v 0.000000 1.010000 7.142369
v 0.121499 1.010000 7.014696
v 0.232433 1.010000 6.874163
v 0.332800 1.010000 6.720770
v 0.422602 1.010000 6.554519
v 0.501839 1.010000 6.375408
v 0.570511 1.010000 6.183438
v 0.628617 1.010000 5.978609
v 0.676158 1.010000 5.760921
v 0.713134 1.010000 5.530373
v 0.739546 1.010000 5.286965
v 0.755393 1.010000 5.030699
v 0.760675 1.010000 4.761574
v 0.760675 1.010000 4.739568
v 0.760675 1.010000 4.677378
v 0.760675 1.010000 4.580744
v 0.760675 1.010000 4.455408
v 0.760675 1.010000 4.307109
v 0.760675 1.010000 4.141588
v 0.760675 1.010000 3.964586
v 0.760675 1.010000 3.781843
v 0.760675 1.010000 3.599101
v 0.760675 1.010000 3.422099
v 0.760675 1.010000 3.256578
v 0.760675 1.009969 3.108279
v 7.077749 1.010000 3.108279
v 7.077749 1.009969 6.018140
v 6.416277 1.010000 6.018140
v 6.416277 1.010000 3.736526
v 4.266511 1.010000 3.736526
v 4.266511 1.010000 4.794658
v 6.416277 1.010000 4.794658
v 1.422147 1.010000 4.794658
v 3.605039 1.010000 4.794658
v 3.605039 1.009969 3.736526
v 1.422147 1.010000 3.736526
v 0.099203 1.009969 0.628265
v 3.505801 1.010000 0.628265
v 3.505801 1.010000 -0.000018
v 4.167273 1.010000 -0.000018
v 4.167273 1.010000 0.628265
v 7.507688 1.010000 0.628265
v 7.507688 1.010000 1.256549
v 4.167273 1.010000 1.256549
v 4.167273 1.010000 1.950930
v 6.978510 1.010000 1.950930
v 6.978510 1.010000 2.579213
v 0.694563 1.010000 2.579213
v 0.694563 1.009969 1.950930
v 3.505801 1.010000 1.950930
v 3.505801 1.010000 1.256549
v 0.099203 1.010000 1.256549
vn 0.000000 1.000000 0.000000
vn 0.000000 0.000000 1.000000
vn 0.000000 -1.000000 0.000000
vn 0.000000 0.000000 -1.000000
vn 0.000000 -0.999998 0.001953
vn 1.000000 0.000000 0.000000
vn 0.784920 0.000000 0.619597
vn -1.000000 0.000000 0.000000
vn -0.753578 0.000000 -0.657359
vn 0.771873 0.000000 -0.635777
vn 0.941570 0.000000 0.336817
vn 0.771872 0.000000 -0.635777
vn -0.972024 0.000000 -0.234883
vn 0.771875 0.000000 -0.635774
vn 0.976973 0.000000 0.213362
vn -0.955555 0.000000 -0.294814
vn -0.798978 0.000000 -0.601360
vn -0.934345 0.000000 -0.356369
vn 0.879847 0.000000 0.475257
vn -0.840200 0.000000 -0.542276
vn 0.724407 0.000000 0.689372
vn -0.992503 0.000000 -0.122221
vn 0.994165 0.000000 0.107874
vn 0.771876 0.000000 -0.635773
vn 0.771871 0.000000 -0.635779
vn 0.987381 0.000000 0.158361
vn -0.908096 0.000000 -0.418763
vn 0.836788 0.000000 0.547527
vn 0.771874 0.000000 -0.635776
vn 0.771855 0.000000 -0.635799
vn -0.997530 0.000000 -0.070235
vn -0.876683 0.000000 -0.481068
vn -0.704753 0.000000 -0.709453
vn 0.998094 0.000000 0.061719
vn -0.984175 0.000000 -0.177202
vn 0.914507 0.000000 0.404569
vn 0.771881 0.000000 -0.635767
vn 0.999807 0.000000 0.019624
vn 0.962039 0.000000 0.272913
vn -0.000009 -1.000000 0.000057
vn 0.000000 -1.000000 -0.000049
vn -0.000011 -1.000000 0.000060
vn 0.000010 -1.000000 0.000010
vn -0.000005 -1.000000 -0.000005
vn 0.000017 -1.000000 -0.000206
vn 0.000046 -1.000000 0.000000
vn -0.000046 -1.000000 0.000000
vn 0.000000 -1.000000 -0.000029
vn -0.000044 -1.000000 0.000048
vn 0.000000 -1.000000 0.000049
vn 0.000000 -1.000000 0.000048
vn 0.000004 -1.000000 0.000013
vn 0.000005 -1.000000 0.000001
vn 0.000006 -1.000000 -0.000031
vn 0.000046 -1.000000 -0.000051
vn 0.000000 -1.000000 -0.000001
vn 0.000000 -1.000000 0.000001
vn -0.000009 1.000000 0.000057
vn 0.000000 1.000000 -0.000049
vn -0.000011 1.000000 0.000059
vn 0.000010 1.000000 0.000011
vn -0.000005 1.000000 -0.000005
vn 0.000017 1.000000 -0.000206
vn 0.000046 1.000000 0.000000
vn -0.000046 1.000000 0.000000
vn 0.000000 1.000000 -0.000029
vn 0.000000 1.000000 -0.000001
vn -0.000044 1.000000 0.000048
vn 0.000000 1.000000 0.000049
vn 0.000000 1.000000 0.000048
vn 0.000005 1.000000 0.000013
vn 0.000005 1.000000 0.000000
vn 0.000006 1.000000 -0.000031
vn 0.000046 1.000000 -0.000051
vn 0.000000 1.000000 0.000001
vn 0.000000 1.000000 0.000002
vn 0.000000 1.000000 0.000004
vn 0.000000 1.000000 -0.000004
vn 0.000000 0.970143 0.242536
vn 0.000000 0.707107 -0.707107
vn -0.784919 0.000000 -0.619598
vn 0.753577 0.000000 0.657359
vn -0.771872 0.000000 0.635777
vn -0.771876 0.000000 0.635774
vn -0.941570 0.000000 -0.336817
vn -0.771874 0.000000 0.635776
vn 0.972023 0.000000 0.234884
vn -0.771874 0.000000 0.635775
vn -0.976973 0.000000 -0.213363
vn 0.955555 0.000000 0.294814
vn 0.798978 0.000000 0.601361
vn 0.934345 0.000000 0.356370
vn -0.879847 0.000000 -0.475257
vn 0.840200 0.000000 0.542277
vn -0.724407 0.000000 -0.689373
vn -0.771872 0.000000 0.635778
vn 0.992503 0.000000 0.122221
vn -0.994165 0.000000 -0.107874
vn -0.771875 0.000000 0.635775
vn -0.771871 0.000000 0.635779
vn -0.987381 0.000000 -0.158360
vn 0.908096 0.000000 0.418762
vn -0.836788 0.000000 -0.547527
vn -0.771870 0.000000 0.635780
vn -0.771893 0.000000 0.635753
vn 0.997530 0.000000 0.070235
vn 0.876683 0.000000 0.481068
vn 0.704755 0.000000 0.709451
vn -0.998094 0.000000 -0.061719
vn 0.984175 0.000000 0.177202
vn -0.914507 0.000000 -0.404569
vn -0.771882 0.000000 0.635766
vn -0.999807 0.000000 -0.019624
vn -0.962039 0.000000 -0.272913
usemtl SVGMat.001
s off
f 66//1 65//1 64//1
f 66//1 64//1 63//1
f 68//1 67//1 66//1
f 68//1 66//1 63//1
f 68//1 63//1 62//1
f 68//1 62//1 77//1
f 69//2 68//2 77//2
f 70//1 69//1 76//1
f 76//2 69//2 77//2
f 70//1 76//1 75//1
f 72//1 71//1 70//1
f 72//1 70//1 75//1
f 72//1 75//1 74//1
f 72//1 74//1 73//1
f 52//1 51//1 54//1
f 54//1 51//1 50//1
f 54//1 50//1 49//1
f 54//1 49//1 48//1
f 54//1 48//1 47//1
f 54//1 47//1 61//1
f 61//1 47//1 46//1
f 52//1 54//1 57//1
f 55//2 54//2 61//2
f 56//1 55//1 60//1
f 60//2 55//2 61//2
f 56//1 60//1 59//1
f 58//1 61//1 46//1
f 58//1 46//1 45//1
f 58//1 45//1 44//1
f 58//1 44//1 43//1
f 58//1 43//1 42//1
f 58//1 42//1 41//1
f 58//1 41//1 40//1
f 58//1 40//1 39//1
f 58//1 39//1 38//1
f 58//1 38//1 37//1
f 52//1 57//1 1//1
f 1//1 57//1 56//1
f 1//1 56//1 59//1
f 1//1 59//1 58//1
f 1//1 58//1 37//1
f 1//1 37//1 36//1
f 1//1 36//1 2//1
f 2//1 36//1 35//1
f 52//1 1//1 53//1
f 3//1 2//1 35//1
f 3//1 35//1 34//1
f 4//1 3//1 34//1
f 4//1 34//1 33//1
f 5//1 4//1 33//1
f 5//1 33//1 32//1
f 6//1 5//1 32//1
f 6//1 32//1 31//1
f 7//1 6//1 31//1
f 7//1 31//1 30//1
f 8//1 7//1 30//1
f 8//1 30//1 29//1
f 8//1 29//1 28//1
f 9//1 8//1 28//1
f 9//1 28//1 27//1
f 10//1 9//1 27//1
f 10//1 27//1 26//1
f 11//1 10//1 26//1
f 11//1 26//1 25//1
f 11//1 25//1 24//1
f 11//1 24//1 23//1
f 12//1 11//1 23//1
f 12//1 23//1 22//1
f 12//1 22//1 21//1
f 13//1 12//1 21//1
f 13//1 21//1 20//1
f 13//1 20//1 19//1
f 13//1 19//1 18//1
f 14//1 13//1 15//1
f 15//1 13//1 18//1
f 15//1 18//1 17//1
f 15//1 17//1 16//1
f 143//3 141//3 142//3
f 143//3 140//3 141//3
f 145//3 143//3 144//3
f 145//3 140//3 143//3
f 145//3 139//3 140//3
f 145//3 154//3 139//3
f 146//2 154//2 145//2
f 147//3 153//3 146//3
f 153//2 154//2 146//2
f 147//3 152//3 153//3
f 149//3 147//3 148//3
f 149//3 152//3 147//3
f 149//3 151//3 152//3
f 149//3 150//3 151//3
f 129//3 131//3 128//3
f 131//3 127//3 128//3
f 131//3 126//3 127//3
f 131//3 125//3 126//3
f 131//3 124//3 125//3
f 131//3 138//3 124//3
f 138//3 123//3 124//3
f 129//3 134//3 131//3
f 132//2 138//2 131//2
f 133//3 137//3 132//3
f 137//4 138//4 132//4
f 133//3 136//3 137//3
f 135//3 123//3 138//3
f 135//3 122//3 123//3
f 135//3 121//3 122//3
f 135//3 120//3 121//3
f 135//3 119//3 120//3
f 135//3 118//3 119//3
f 135//3 117//3 118//3
f 135//3 116//3 117//3
f 135//3 115//3 116//3
f 135//3 114//3 115//3
f 129//3 78//3 134//3
f 78//3 133//3 134//3
f 78//3 136//3 133//3
f 78//3 135//3 136//3
f 78//3 114//3 135//3
f 78//3 113//3 114//3
f 78//3 79//3 113//3
f 79//3 112//3 113//3
f 129//3 130//3 78//3
f 80//3 112//3 79//3
f 80//3 111//3 112//3
f 81//3 111//3 80//3
f 81//3 110//3 111//3
f 82//3 110//3 81//3
f 82//3 109//3 110//3
f 83//3 109//3 82//3
f 83//3 108//3 109//3
f 84//3 108//3 83//3
f 84//3 107//3 108//3
f 85//3 107//3 84//3
f 85//3 106//3 107//3
f 85//3 105//3 106//3
f 86//3 105//3 85//3
f 86//3 104//3 105//3
f 87//3 104//3 86//3
f 87//3 103//3 104//3
f 88//3 103//3 87//3
f 88//3 102//3 103//3
f 88//3 101//3 102//3
f 88//3 100//3 101//3
f 89//3 100//3 88//3
f 89//3 99//3 100//3
f 89//3 98//3 99//3
f 90//3 98//3 89//3
f 90//3 97//3 98//3
f 90//3 96//3 97//3
f 90//3 95//3 96//3
f 91//3 92//3 90//3
f 92//3 95//3 90//3
f 92//5 94//5 95//5
f 92//3 93//3 94//3
f 75//6 76//6 153//6 152//6
f 27//7 28//7 105//7 104//7
f 76//4 77//4 154//4 153//4
f 69//8 70//8 147//8 146//8
f 12//9 13//9 90//9 89//9
f 21//10 22//10 99//10 98//10
f 42//6 43//6 120//6 119//6
f 17//10 18//10 95//10 94//10
f 31//11 32//11 109//11 108//11
f 18//12 19//12 96//12 95//12
f 58//2 59//2 136//2 135//2
f 5//13 6//13 83//13 82//13
f 19//14 20//14 97//14 96//14
f 67//8 68//8 145//8 144//8
f 33//15 34//15 111//15 110//15
f 6//16 7//16 84//16 83//16
f 60//4 61//4 138//4 137//4
f 73//6 74//6 151//6 150//6
f 11//17 12//17 89//17 88//17
f 1//4 2//4 79//4 78//4
f 38//6 39//6 116//6 115//6
f 7//18 8//18 85//18 84//18
f 39//6 40//6 117//6 116//6
f 50//2 51//2 128//2 127//2
f 59//6 60//6 137//6 136//6
f 29//19 30//19 107//19 106//19
f 41//6 42//6 119//6 118//6
f 49//6 50//6 127//6 126//6
f 48//6 49//6 126//6 125//6
f 10//20 11//20 88//20 87//20
f 26//21 27//21 104//21 103//21
f 57//6 54//6 131//6 134//6
f 20//10 21//10 98//10 97//10
f 3//22 4//22 81//22 80//22
f 71//8 72//8 149//8 148//8
f 35//23 36//23 113//23 112//23
f 74//2 75//2 152//2 151//2
f 23//24 24//24 101//24 100//24
f 72//4 73//4 150//4 149//4
f 51//8 52//8 129//8 128//8
f 70//2 71//2 148//2 147//2
f 15//25 16//25 93//25 92//25
f 77//6 62//6 139//6 154//6
f 34//26 35//26 112//26 111//26
f 55//8 56//8 133//8 132//8
f 8//27 9//27 86//27 85//27
f 28//28 29//28 106//28 105//28
f 63//6 64//6 141//6 140//6
f 56//2 57//2 134//2 133//2
f 16//29 17//29 94//29 93//29
f 62//2 63//2 140//2 139//2
f 14//30 15//30 92//30 91//30
f 2//31 3//31 80//31 79//31
f 9//32 10//32 87//32 86//32
f 13//33 14//33 91//33 90//33
f 46//6 47//6 124//6 123//6
f 52//4 53//4 130//4 129//4
f 40//6 41//6 118//6 117//6
f 36//34 37//34 114//34 113//34
f 61//8 58//8 135//8 138//8
f 43//6 44//6 121//6 120//6
f 54//4 55//4 132//4 131//4
f 53//6 1//6 78//6 130//6
f 47//6 48//6 125//6 124//6
f 66//2 67//2 144//2 143//2
f 4//35 5//35 82//35 81//35
f 45//6 46//6 123//6 122//6
f 65//8 66//8 143//8 142//8
f 30//36 31//36 108//36 107//36
f 64//2 65//2 142//2 141//2
f 22//10 23//10 100//10 99//10
f 24//25 25//25 102//25 101//25
f 25//37 26//37 103//37 102//37
f 37//38 38//38 115//38 114//38
f 44//6 45//6 122//6 121//6
f 68//4 69//4 146//4 145//4
f 32//39 33//39 110//39 109//39
f 218//3 219//3 220//3
f 217//3 218//3 220//3
f 220//3 221//3 222//3
f 217//3 220//3 222//3
f 216//40 217//40 222//40
f 231//41 216//41 222//41
f 231//2 222//2 223//2
f 230//3 223//3 224//3
f 231//2 223//2 230//2
f 229//3 230//3 224//3
f 224//3 225//3 226//3
f 229//3 224//3 226//3
f 228//42 229//42 226//42
f 227//41 228//41 226//41
f 208//43 205//43 206//43
f 204//44 205//44 208//44
f 203//45 204//45 208//45
f 202//3 203//3 208//3
f 201//3 202//3 208//3
f 215//3 201//3 208//3
f 200//3 201//3 215//3
f 211//46 208//46 206//46
f 215//2 208//2 209//2
f 214//47 209//47 210//47
f 215//2 209//2 214//2
f 213//48 214//48 210//48
f 200//3 215//3 212//3
f 199//3 200//3 212//3
f 198//3 199//3 212//3
f 197//3 198//3 212//3
f 196//3 197//3 212//3
f 195//3 196//3 212//3
f 194//3 195//3 212//3
f 193//3 194//3 212//3
f 192//3 193//3 212//3
f 191//3 192//3 212//3
f 155//49 211//49 206//49
f 210//50 211//50 155//50
f 213//51 210//51 155//51
f 212//51 213//51 155//51
f 191//52 212//52 155//52
f 190//53 191//53 155//53
f 156//54 190//54 155//54
f 189//3 190//3 156//3
f 207//55 155//55 206//55
f 189//3 156//3 157//3
f 188//3 189//3 157//3
f 188//3 157//3 158//3
f 187//3 188//3 158//3
f 187//3 158//3 159//3
f 186//3 187//3 159//3
f 186//3 159//3 160//3
f 185//3 186//3 160//3
f 185//3 160//3 161//3
f 184//3 185//3 161//3
f 184//3 161//3 162//3
f 183//56 184//56 162//56
f 182//57 183//57 162//57
f 182//3 162//3 163//3
f 181//3 182//3 163//3
f 181//3 163//3 164//3
f 180//3 181//3 164//3
f 180//3 164//3 165//3
f 179//3 180//3 165//3
f 178//3 179//3 165//3
f 177//3 178//3 165//3
f 177//3 165//3 166//3
f 176//3 177//3 166//3
f 175//3 176//3 166//3
f 175//3 166//3 167//3
f 174//3 175//3 167//3
f 173//3 174//3 167//3
f 172//3 173//3 167//3
f 169//3 167//3 168//3
f 172//3 167//3 169//3
f 171//3 172//3 169//3
f 170//3 171//3 169//3
f 296//1 295//1 297//1
f 295//1 294//1 297//1
f 298//1 297//1 299//1
f 297//1 294//1 299//1
f 294//58 293//58 299//58
f 293//59 308//59 299//59
f 299//4 308//4 300//4
f 300//1 307//1 301//1
f 300//2 308//2 307//2
f 307//1 306//1 301//1
f 302//1 301//1 303//1
f 301//1 306//1 303//1
f 306//60 305//60 303//60
f 305//59 304//59 303//59
f 282//61 285//61 283//61
f 282//62 281//62 285//62
f 281//63 280//63 285//63
f 280//1 279//1 285//1
f 279//1 278//1 285//1
f 278//1 292//1 285//1
f 278//1 277//1 292//1
f 285//64 288//64 283//64
f 285//4 292//4 286//4
f 286//65 291//65 287//65
f 286//2 292//2 291//2
f 291//66 290//66 287//66
f 292//1 277//1 289//1
f 277//1 276//1 289//1
f 276//1 275//1 289//1
f 275//1 274//1 289//1
f 274//1 273//1 289//1
f 273//1 272//1 289//1
f 272//1 271//1 289//1
f 271//1 270//1 289//1
f 270//1 269//1 289//1
f 269//67 268//67 289//67
f 288//68 232//68 283//68
f 288//69 287//69 232//69
f 287//70 290//70 232//70
f 290//70 289//70 232//70
f 289//71 268//71 232//71
f 268//72 267//72 232//72
f 267//73 233//73 232//73
f 267//1 266//1 233//1
f 232//74 284//74 283//74
f 233//67 266//67 234//67
f 266//75 265//75 234//75
f 234//1 265//1 235//1
f 265//1 264//1 235//1
f 235//1 264//1 236//1
f 264//75 263//75 236//75
f 236//67 263//67 237//67
f 263//1 262//1 237//1
f 237//75 262//75 238//75
f 262//1 261//1 238//1
f 238//1 261//1 239//1
f 261//67 260//67 239//67
f 260//76 259//76 239//76
f 239//67 259//67 240//67
f 259//1 258//1 240//1
f 240//1 258//1 241//1
f 258//1 257//1 241//1
f 241//1 257//1 242//1
f 257//1 256//1 242//1
f 256//1 255//1 242//1
f 255//1 254//1 242//1
f 242//1 254//1 243//1
f 254//77 253//77 243//77
f 253//78 252//78 243//78
f 243//1 252//1 244//1
f 252//1 251//1 244//1
f 251//1 250//1 244//1
f 250//1 249//1 244//1
f 244//75 246//75 245//75
f 244//67 249//67 246//67
f 249//79 248//79 246//79
f 248//80 247//80 246//80
f 306//8 307//8 230//8 229//8
f 258//81 259//81 182//81 181//81
f 307//2 308//2 231//2 230//2
f 300//6 301//6 224//6 223//6
f 243//82 244//82 167//82 166//82
f 252//83 253//83 176//83 175//83
f 273//8 274//8 197//8 196//8
f 248//84 249//84 172//84 171//84
f 262//85 263//85 186//85 185//85
f 249//86 250//86 173//86 172//86
f 289//4 290//4 213//4 212//4
f 236//87 237//87 160//87 159//87
f 250//88 251//88 174//88 173//88
f 298//6 299//6 222//6 221//6
f 264//89 265//89 188//89 187//89
f 237//90 238//90 161//90 160//90
f 291//2 292//2 215//2 214//2
f 304//8 305//8 228//8 227//8
f 242//91 243//91 166//91 165//91
f 232//2 233//2 156//2 155//2
f 269//8 270//8 193//8 192//8
f 238//92 239//92 162//92 161//92
f 270//8 271//8 194//8 193//8
f 281//4 282//4 205//4 204//4
f 290//8 291//8 214//8 213//8
f 260//93 261//93 184//93 183//93
f 272//8 273//8 196//8 195//8
f 280//8 281//8 204//8 203//8
f 279//8 280//8 203//8 202//8
f 241//94 242//94 165//94 164//94
f 257//95 258//95 181//95 180//95
f 288//8 285//8 208//8 211//8
f 251//96 252//96 175//96 174//96
f 234//97 235//97 158//97 157//97
f 302//6 303//6 226//6 225//6
f 266//98 267//98 190//98 189//98
f 305//4 306//4 229//4 228//4
f 254//99 255//99 178//99 177//99
f 303//2 304//2 227//2 226//2
f 282//6 283//6 206//6 205//6
f 301//4 302//4 225//4 224//4
f 246//100 247//100 170//100 169//100
f 308//8 293//8 216//8 231//8
f 265//101 266//101 189//101 188//101
f 286//6 287//6 210//6 209//6
f 239//102 240//102 163//102 162//102
f 259//103 260//103 183//103 182//103
f 294//8 295//8 218//8 217//8
f 287//4 288//4 211//4 210//4
f 247//104 248//104 171//104 170//104
f 293//4 294//4 217//4 216//4
f 245//105 246//105 169//105 168//105
f 233//106 234//106 157//106 156//106
f 240//107 241//107 164//107 163//107
f 244//108 245//108 168//108 167//108
f 277//8 278//8 201//8 200//8
f 283//2 284//2 207//2 206//2
f 271//8 272//8 195//8 194//8
f 267//109 268//109 191//109 190//109
f 292//6 289//6 212//6 215//6
f 274//8 275//8 198//8 197//8
f 285//2 286//2 209//2 208//2
f 284//8 232//8 155//8 207//8
f 278//8 279//8 202//8 201//8
f 297//4 298//4 221//4 220//4
f 235//110 236//110 159//110 158//110
f 276//8 277//8 200//8 199//8
f 296//6 297//6 220//6 219//6
f 261//111 262//111 185//111 184//111
f 295//4 296//4 219//4 218//4
f 253//83 254//83 177//83 176//83
f 255//88 256//88 179//88 178//88
f 256//112 257//112 180//112 179//112
f 268//113 269//113 192//113 191//113
f 275//8 276//8 199//8 198//8
f 299//2 300//2 223//2 222//2
f 263//114 264//114 187//114 186//114
