# Blender v2.69 (sub 0) OBJ File: ''
# www.blender.org
mtllib ya.mtl
o Curve_Mesh
v 2.447728 0.000000 -0.000289
v 2.844611 0.000000 1.855850
v 6.230254 0.000000 1.281038
v 6.730750 0.000000 1.661330
v 6.608731 0.000000 1.909133
v 6.482465 0.000000 2.152275
v 6.351950 0.000000 2.390758
v 6.217187 0.000000 2.624583
v 6.078175 0.000000 2.853750
v 5.934915 0.000000 3.078261
v 5.787405 0.000000 3.298117
v 5.635647 0.000000 3.513319
v 5.479640 0.000000 3.723869
v 5.319383 0.000000 3.929766
v 5.154877 0.000000 4.131013
v 4.986122 0.000000 4.327610
v 4.978139 0.000000 4.322659
v 4.955580 0.000000 4.308666
v 4.920526 0.000000 4.286922
v 4.875060 0.000000 4.258720
v 4.821264 0.000000 4.225352
v 4.761221 0.000000 4.188108
v 4.697014 0.000000 4.148282
v 4.630723 0.000000 4.107163
v 4.564434 0.000000 4.066044
v 4.500226 0.000000 4.026218
v 4.440183 0.000000 3.988974
v 4.386387 0.000000 3.955606
v 4.533896 0.000000 3.792075
v 4.676009 0.000000 3.628091
v 4.812725 0.000000 3.463654
v 4.944044 0.000000 3.298764
v 5.069966 0.000000 3.133421
v 5.190491 0.000000 2.967625
v 5.305618 0.000000 2.801375
v 5.415347 0.000000 2.634672
v 5.519678 0.000000 2.467515
v 5.618610 0.000000 2.299905
v 5.712144 0.000000 2.131840
v 5.800279 0.000000 1.963321
v 5.762751 0.000000 1.970195
v 5.656692 0.000000 1.989620
v 5.491893 0.000000 2.019803
v 5.278144 0.000000 2.058952
v 5.025235 0.000000 2.105273
v 4.742956 0.000000 2.156973
v 4.441097 0.000000 2.212259
v 4.129448 0.000000 2.269338
v 3.817799 0.000000 2.326417
v 3.515939 0.000000 2.381704
v 3.233660 0.000000 2.433404
v 2.980751 0.000000 2.479725
v 3.878165 0.000000 6.654934
v 3.200148 0.000000 6.807588
v 2.311024 0.000000 2.599858
v 0.152968 0.000000 2.996657
v 0.000282 0.000000 2.347458
v 2.174849 0.000000 1.971610
v 1.786256 0.000000 0.128134
v 2.447728 0.010000 -0.000289
v 2.844611 0.010000 1.855850
v 6.230254 0.010000 1.281038
v 6.730750 0.010000 1.661330
v 6.608731 0.010000 1.909133
v 6.482465 0.010000 2.152275
v 6.351950 0.010000 2.390758
v 6.217187 0.010000 2.624583
v 6.078175 0.010000 2.853750
v 5.934915 0.010000 3.078261
v 5.787405 0.010000 3.298117
v 5.635647 0.010000 3.513319
v 5.479640 0.010000 3.723869
v 5.319383 0.010000 3.929766
v 5.154877 0.010000 4.131013
v 4.986122 0.010000 4.327610
v 4.978139 0.010000 4.322659
v 4.955580 0.010000 4.308666
v 4.920526 0.010000 4.286922
v 4.875060 0.010000 4.258720
v 4.821264 0.010000 4.225352
v 4.761221 0.010000 4.188108
v 4.697014 0.010000 4.148282
v 4.630723 0.010000 4.107163
v 4.564434 0.010000 4.066044
v 4.500226 0.010000 4.026218
v 4.440183 0.010000 3.988974
v 4.386387 0.010000 3.955606
v 4.533896 0.010000 3.792075
v 4.676009 0.010000 3.628091
v 4.812725 0.010000 3.463654
v 4.944044 0.010000 3.298764
v 5.069966 0.010000 3.133421
v 5.190491 0.010000 2.967625
v 5.305618 0.010000 2.801375
v 5.415347 0.010000 2.634672
v 5.519678 0.010000 2.467515
v 5.618610 0.010000 2.299905
v 5.712144 0.010000 2.131840
v 5.800279 0.010000 1.963321
v 5.762751 0.010000 1.970195
v 5.656692 0.010000 1.989620
v 5.491893 0.010000 2.019803
v 5.278144 0.010000 2.058952
v 5.025235 0.010000 2.105273
v 4.742956 0.010000 2.156973
v 4.441097 0.010000 2.212259
v 4.129448 0.010000 2.269338
v 3.817799 0.010000 2.326417
v 3.515939 0.010000 2.381704
v 3.233660 0.010000 2.433404
v 2.980751 0.010000 2.479725
v 3.878165 0.010000 6.654934
v 3.200148 0.010000 6.807588
v 2.311024 0.010000 2.599858
v 0.152968 0.010000 2.996657
v 0.000282 0.010000 2.347458
v 2.174849 0.010000 1.971610
v 1.786256 0.010000 0.128134
v 2.447728 -1.000000 -0.000289
v 2.844611 -1.000000 1.855850
v 6.230254 -1.000000 1.281038
v 6.730750 -0.999970 1.661330
v 6.608731 -1.000000 1.909133
v 6.482465 -1.000000 2.152275
v 6.351950 -1.000000 2.390758
v 6.217187 -1.000000 2.624583
v 6.078175 -1.000000 2.853750
v 5.934915 -0.999970 3.078261
v 5.787405 -1.000000 3.298117
v 5.635647 -1.000000 3.513319
v 5.479640 -1.000000 3.723869
v 5.319383 -1.000000 3.929766
v 5.154877 -1.000000 4.131013
v 4.986122 -1.000000 4.327610
v 4.978139 -1.000000 4.322659
v 4.955580 -1.000000 4.308666
v 4.920526 -0.999970 4.286922
v 4.875060 -1.000000 4.258720
v 4.821264 -1.000000 4.225352
v 4.761221 -1.000000 4.188108
v 4.697014 -1.000000 4.148282
v 4.630723 -1.000000 4.107163
v 4.564434 -1.000000 4.066044
v 4.500226 -0.999970 4.026218
v 4.440183 -1.000000 3.988974
v 4.386387 -0.999970 3.955606
v 4.533896 -1.000000 3.792075
v 4.676009 -0.999970 3.628091
v 4.812725 -1.000000 3.463654
v 4.944044 -0.999970 3.298764
v 5.069966 -1.000000 3.133421
v 5.190491 -1.000000 2.967625
v 5.305618 -1.000000 2.801375
v 5.415347 -1.000000 2.634672
v 5.519678 -1.000000 2.467515
v 5.618610 -1.000000 2.299905
v 5.712144 -1.000000 2.131840
v 5.800279 -1.000000 1.963321
v 5.762751 -0.999970 1.970195
v 5.656692 -1.000000 1.989620
v 5.491893 -1.000000 2.019803
v 5.278144 -1.000000 2.058952
v 5.025235 -0.999970 2.105273
v 4.742956 -1.000000 2.156973
v 4.441097 -1.000000 2.212259
v 4.129448 -1.000000 2.269338
v 3.817799 -1.000000 2.326417
v 3.515939 -1.000000 2.381704
v 3.233660 -1.000000 2.433404
v 2.980751 -1.000000 2.479725
v 3.878165 -1.000000 6.654934
v 3.200148 -1.000000 6.807588
v 2.311024 -1.000000 2.599858
v 0.152968 -1.000000 2.996657
v 0.000282 -1.000000 2.347458
v 2.174849 -0.999970 1.971610
v 1.786256 -1.000000 0.128134
v 2.447728 1.010000 -0.000289
v 2.844611 1.010000 1.855850
v 6.230254 1.010000 1.281038
v 6.730750 1.009969 1.661330
v 6.608731 1.010000 1.909133
v 6.482465 1.010000 2.152275
v 6.351950 1.010000 2.390758
v 6.217187 1.010000 2.624583
v 6.078175 1.009969 2.853750
v 5.934915 1.009969 3.078261
v 5.787405 1.010000 3.298117
v 5.635647 1.010000 3.513319
v 5.479640 1.010000 3.723869
v 5.319383 1.010000 3.929766
v 5.154877 1.010000 4.131013
v 4.986122 1.010000 4.327610
v 4.978139 1.010000 4.322659
v 4.955580 1.010000 4.308666
v 4.920526 1.009969 4.286922
v 4.875060 1.010000 4.258720
v 4.821264 1.010000 4.225352
v 4.761221 1.010000 4.188108
v 4.697014 1.010000 4.148282
v 4.630723 1.010000 4.107163
v 4.564434 1.010000 4.066044
v 4.500226 1.009969 4.026218
v 4.440183 1.010000 3.988974
v 4.386387 1.009969 3.955606
v 4.533896 1.010000 3.792075
v 4.676009 1.009969 3.628091
v 4.812725 1.010000 3.463654
v 4.944044 1.009969 3.298764
v 5.069966 1.009969 3.133421
v 5.190491 1.010000 2.967625
v 5.305618 1.010000 2.801375
v 5.415347 1.010000 2.634672
v 5.519678 1.010000 2.467515
v 5.618610 1.009969 2.299905
v 5.712144 1.010000 2.131840
v 5.800279 1.010000 1.963321
v 5.762751 1.009969 1.970195
v 5.656692 1.010000 1.989620
v 5.491893 1.010000 2.019803
v 5.278144 1.010000 2.058952
v 5.025235 1.010000 2.105273
v 4.742956 1.010000 2.156973
v 4.441097 1.010000 2.212259
v 4.129448 1.010000 2.269338
v 3.817799 1.010000 2.326417
v 3.515939 1.010000 2.381704
v 3.233660 1.010000 2.433404
v 2.980751 1.010000 2.479725
v 3.878165 1.010000 6.654934
v 3.200148 1.010000 6.807588
v 2.311024 1.010000 2.599858
v 0.152968 1.010000 2.996657
v 0.000282 1.010000 2.347458
v 2.174849 1.009969 1.971610
v 1.786256 1.010000 0.128134
vn 0.000000 1.000000 0.000000
vn 0.000000 0.000000 1.000000
vn 0.000000 -1.000000 -0.000000
vn 0.000000 0.000000 -1.000000
vn 0.170313 0.000000 0.985390
vn 0.973440 0.000000 -0.228944
vn -0.604998 0.000000 0.796227
vn 0.873793 0.000000 0.486298
vn 0.527114 0.000000 -0.849795
vn 0.527112 0.000000 -0.849796
vn 0.768945 0.000000 0.639315
vn 0.795557 0.000000 0.605879
vn 0.886127 0.000000 0.463442
vn -0.854995 0.000000 -0.518636
vn -0.180837 0.000000 -0.983513
vn -0.803475 0.000000 -0.595338
vn -0.180155 0.000000 -0.983638
vn 0.167384 0.000000 0.985892
vn 0.527123 0.000000 -0.849789
vn 0.978497 0.000000 -0.206261
vn 0.742546 0.000000 0.669794
vn -0.180156 0.000000 -0.983638
vn -0.887467 0.000000 -0.460871
vn -0.877225 0.000000 -0.480080
vn 0.861174 0.000000 0.508311
vn 0.527107 0.000000 -0.849799
vn -0.758792 0.000000 -0.651333
vn 0.527115 0.000000 -0.849794
vn 0.190588 0.000000 0.981670
vn -0.180154 0.000000 -0.983638
vn -0.774240 0.000000 -0.632892
vn -0.866403 0.000000 -0.499345
vn 0.822120 0.000000 0.569315
vn -0.830411 0.000000 -0.557151
vn -0.842998 0.000000 -0.537917
vn 0.848322 0.000000 0.529481
vn 0.527104 0.000000 -0.849801
vn -0.180153 0.000000 -0.983639
vn 0.808862 0.000000 0.587998
vn -0.897138 0.000000 -0.441751
vn 0.527113 0.000000 -0.849795
vn 0.782239 0.000000 0.622978
vn 0.527116 0.000000 -0.849794
vn 0.978396 0.000000 -0.206742
vn -0.977671 0.000000 0.210140
vn -0.817235 0.000000 -0.576305
vn -0.219649 0.000000 -0.975579
vn 0.835289 0.000000 0.549811
vn -0.977895 0.000000 0.209095
vn 0.527087 0.000000 -0.849811
vn 0.527108 0.000000 -0.849798
vn -0.789140 0.000000 -0.614214
vn 0.755704 0.000000 0.654913
vn -0.000041 -1.000000 0.000025
vn 0.000011 -1.000000 0.000066
vn 0.000002 -1.000000 -0.000122
vn -0.000003 -1.000000 0.000243
vn -0.000009 -1.000000 -0.000128
vn 0.000002 -0.999990 0.004426
vn -0.000001 -0.999999 -0.001565
vn -0.000008 -1.000000 -0.000128
vn 0.000051 -1.000000 0.000940
vn -0.000030 -1.000000 -0.000757
vn 0.000019 -1.000000 0.000148
vn 0.000037 -1.000000 0.000026
vn 0.000028 -1.000000 -0.000120
vn -0.000036 -1.000000 0.000157
vn -0.000036 -1.000000 -0.000026
vn 0.000011 -1.000000 -0.000177
vn -0.000011 -1.000000 0.000177
vn -0.000035 -1.000000 -0.000026
vn -0.000014 -1.000000 -0.000198
vn -0.000028 -1.000000 0.000161
vn -0.000033 -1.000000 -0.000027
vn 0.000267 -0.999999 -0.001346
vn -0.000239 -0.999999 0.001206
vn 0.000102 -1.000000 -0.000937
vn -0.526860 0.000000 0.849952
vn 0.529169 -0.027805 -0.848061
vn 0.526727 -0.030890 -0.849473
vn 0.529730 0.000000 -0.848166
vn -0.000041 1.000000 0.000025
vn 0.000011 1.000000 0.000065
vn 0.000002 1.000000 -0.000122
vn -0.000003 1.000000 0.000243
vn -0.000009 1.000000 -0.000128
vn 0.000002 0.999990 0.004437
vn -0.000001 0.999999 -0.001577
vn -0.000008 1.000000 -0.000127
vn 0.000000 1.000000 -0.000007
vn -0.000005 1.000000 0.000179
vn -0.000039 1.000000 -0.000022
vn -0.000018 1.000000 -0.000193
vn 0.000000 1.000000 0.000167
vn 0.000000 1.000000 -0.000001
vn 0.000000 1.000000 0.000186
vn 0.000000 1.000000 0.000001
vn 0.000002 1.000000 0.000134
vn 0.000038 1.000000 0.000024
vn 0.000038 1.000000 0.000027
vn 0.000037 1.000000 0.000023
vn 0.000012 1.000000 0.000194
vn -0.000009 1.000000 -0.000145
vn -0.000036 1.000000 -0.000027
vn -0.000036 1.000000 -0.000026
vn 0.000011 1.000000 -0.000176
vn -0.000011 1.000000 0.000176
vn -0.000035 1.000000 -0.000026
vn -0.000014 1.000000 -0.000198
vn -0.000028 1.000000 0.000161
vn -0.000033 1.000000 -0.000027
vn 0.000267 0.999999 -0.001353
vn -0.000240 0.999999 0.001213
vn 0.000102 1.000000 -0.000937
vn 0.000000 1.000000 -0.000002
vn -0.526775 -0.003688 0.849997
vn 0.523729 0.027466 -0.851442
vn 0.525931 0.015392 -0.850388
vn 0.530479 0.000000 -0.847698
vn 0.000000 0.970143 -0.242536
vn -0.170313 0.000000 -0.985390
vn -0.973440 0.000000 0.228944
vn 0.604998 0.000000 -0.796227
vn -0.873793 0.000000 -0.486298
vn -0.527115 0.000000 0.849794
vn -0.527101 0.000000 0.849802
vn -0.768945 0.000000 -0.639315
vn -0.795557 0.000000 -0.605879
vn -0.886127 0.000000 -0.463442
vn 0.854995 0.000000 0.518636
vn 0.180837 0.000000 0.983513
vn 0.803475 0.000000 0.595338
vn 0.180155 0.000000 0.983638
vn -0.167384 0.000000 -0.985892
vn -0.527126 0.000000 0.849787
vn -0.978497 0.000000 0.206261
vn -0.742546 0.000000 -0.669795
vn 0.180156 0.000000 0.983638
vn 0.887467 0.000000 0.460872
vn 0.877225 0.000000 0.480079
vn -0.861173 0.000000 -0.508311
vn -0.527105 0.000000 0.849800
vn 0.758792 0.000000 0.651333
vn -0.527114 0.000000 0.849795
vn -0.190588 0.000000 -0.981670
vn 0.774240 0.000000 0.632892
vn 0.866403 0.000000 0.499346
vn -0.822120 0.000000 -0.569314
vn 0.830411 0.000000 0.557151
vn 0.842998 0.000000 0.537917
vn 0.180157 0.000000 0.983638
vn -0.848322 0.000000 -0.529481
vn -0.527111 0.000000 0.849796
vn -0.527101 0.000000 0.849803
vn 0.180153 0.000000 0.983638
vn -0.808862 0.000000 -0.587999
vn 0.897138 0.000000 0.441751
vn -0.527117 0.000000 0.849793
vn -0.782239 0.000000 -0.622978
vn -0.527111 0.000000 0.849797
vn -0.978395 0.000000 0.206742
vn 0.977671 0.000000 -0.210140
vn 0.180158 0.000000 0.983638
vn -0.527113 0.000000 0.849795
vn 0.817235 0.000000 0.576304
vn 0.219649 0.000000 0.975579
vn -0.835289 0.000000 -0.549811
vn 0.977895 0.000000 -0.209095
vn -0.527097 0.000000 0.849805
vn 0.789140 0.000000 0.614214
vn -0.755705 0.000000 -0.654912
usemtl SVGMat.001
s off
f 2//1 1//1 59//1
f 2//1 59//1 58//1
f 4//1 3//1 2//1
f 5//1 4//1 2//1
f 5//1 2//1 58//1
f 6//1 5//1 40//1
f 40//1 5//1 58//1
f 6//1 40//1 39//1
f 41//1 40//1 58//1
f 42//1 41//1 58//1
f 42//1 58//1 57//1
f 43//1 42//1 57//1
f 44//1 43//1 57//1
f 45//1 44//1 57//1
f 46//1 45//1 57//1
f 6//1 39//1 38//1
f 7//1 6//1 38//1
f 47//1 46//1 57//1
f 48//1 47//1 57//1
f 49//1 48//1 57//1
f 7//1 38//1 37//1
f 50//1 49//1 57//1
f 50//1 57//1 55//1
f 55//1 57//1 56//1
f 51//1 50//1 55//1
f 8//1 7//1 37//1
f 52//1 51//1 55//1
f 8//1 37//1 36//1
f 53//1 52//1 55//1
f 53//1 55//1 54//1
f 9//1 8//1 36//1
f 9//1 36//1 35//1
f 9//1 35//1 34//1
f 10//1 9//1 34//1
f 10//1 34//1 33//1
f 11//1 10//1 33//1
f 11//1 33//1 32//1
f 12//1 11//1 32//1
f 12//1 32//1 31//1
f 12//1 31//1 30//1
f 13//1 12//1 30//1
f 13//1 30//1 29//1
f 14//1 13//1 29//1
f 14//1 29//1 28//1
f 15//1 14//1 28//1
f 15//1 28//1 27//1
f 15//1 27//1 26//1
f 15//1 26//1 25//1
f 15//1 25//1 24//1
f 15//1 24//1 23//1
f 16//1 15//1 22//1
f 22//1 15//1 23//1
f 16//2 22//2 19//2
f 19//1 22//1 21//1
f 19//1 21//1 20//1
f 16//2 19//2 18//2
f 16//2 18//2 17//2
f 61//3 118//3 60//3
f 61//3 117//3 118//3
f 63//3 61//3 62//3
f 64//3 61//3 63//3
f 64//3 117//3 61//3
f 65//3 99//3 64//3
f 99//3 117//3 64//3
f 65//3 98//3 99//3
f 100//3 117//3 99//3
f 101//3 117//3 100//3
f 101//3 116//3 117//3
f 102//3 116//3 101//3
f 103//3 116//3 102//3
f 104//3 116//3 103//3
f 105//3 116//3 104//3
f 65//3 97//3 98//3
f 66//3 97//3 65//3
f 106//3 116//3 105//3
f 107//3 116//3 106//3
f 108//3 116//3 107//3
f 66//3 96//3 97//3
f 109//3 116//3 108//3
f 109//3 114//3 116//3
f 114//3 115//3 116//3
f 110//3 114//3 109//3
f 67//3 96//3 66//3
f 111//3 114//3 110//3
f 67//3 95//3 96//3
f 112//3 114//3 111//3
f 112//3 113//3 114//3
f 68//3 95//3 67//3
f 68//3 94//3 95//3
f 68//3 93//3 94//3
f 69//3 93//3 68//3
f 69//3 92//3 93//3
f 70//3 92//3 69//3
f 70//3 91//3 92//3
f 71//3 91//3 70//3
f 71//3 90//3 91//3
f 71//3 89//3 90//3
f 72//3 89//3 71//3
f 72//3 88//3 89//3
f 73//3 88//3 72//3
f 73//3 87//3 88//3
f 74//3 87//3 73//3
f 74//3 86//3 87//3
f 74//3 85//3 86//3
f 74//3 84//3 85//3
f 74//3 83//3 84//3
f 74//3 82//3 83//3
f 75//3 81//3 74//3
f 81//3 82//3 74//3
f 75//2 78//2 81//2
f 78//3 80//3 81//3
f 78//3 79//3 80//3
f 75//2 77//2 78//2
f 75//4 76//4 77//4
f 57//5 58//5 117//5 116//5
f 56//6 57//6 116//6 115//6
f 3//7 4//7 63//7 62//7
f 38//8 39//8 98//8 97//8
f 26//9 27//9 86//9 85//9
f 17//10 18//10 77//10 76//10
f 30//11 31//11 90//11 89//11
f 32//12 33//12 92//12 91//12
f 39//13 40//13 99//13 98//13
f 8//14 9//14 68//14 67//14
f 55//15 56//15 115//15 114//15
f 12//16 13//16 72//16 71//16
f 42//17 43//17 102//17 101//17
f 2//18 3//18 62//18 61//18
f 18//19 19//19 78//19 77//19
f 58//20 59//20 118//20 117//20
f 28//21 29//21 88//21 87//21
f 47//22 48//22 107//22 106//22
f 5//23 6//23 65//23 64//23
f 6//24 7//24 66//24 65//24
f 37//25 38//25 97//25 96//25
f 19//26 20//26 79//26 78//26
f 15//27 16//27 75//27 74//27
f 24//28 25//28 84//28 83//28
f 59//29 1//29 60//29 118//29
f 46//22 47//22 106//22 105//22
f 51//30 52//30 111//30 110//30
f 50//22 51//22 110//22 109//22
f 14//31 15//31 74//31 73//31
f 45//17 46//17 105//17 104//17
f 7//32 8//32 67//32 66//32
f 34//33 35//33 94//33 93//33
f 10//34 11//34 70//34 69//34
f 9//35 10//35 69//35 68//35
f 49//22 50//22 109//22 108//22
f 36//36 37//36 96//36 95//36
f 23//10 24//10 83//10 82//10
f 27//37 28//37 87//37 86//37
f 40//38 41//38 100//38 99//38
f 33//39 34//39 93//39 92//39
f 44//17 45//17 104//17 103//17
f 4//40 5//40 64//40 63//40
f 21//41 22//41 81//41 80//41
f 31//42 32//42 91//42 90//42
f 22//43 23//43 82//43 81//43
f 54//44 55//44 114//44 113//44
f 52//45 53//45 112//45 111//45
f 41//22 42//22 101//22 100//22
f 20//10 21//10 80//10 79//10
f 48//17 49//17 108//17 107//17
f 43//22 44//22 103//22 102//22
f 11//46 12//46 71//46 70//46
f 53//47 54//47 113//47 112//47
f 35//48 36//48 95//48 94//48
f 1//49 2//49 61//49 60//49
f 16//50 17//50 76//50 75//50
f 25//51 26//51 85//51 84//51
f 13//52 14//52 73//52 72//52
f 29//53 30//53 89//53 88//53
f 177//3 119//3 120//3
f 176//54 177//54 120//54
f 120//55 121//55 122//55
f 120//56 122//56 123//56
f 176//57 120//57 123//57
f 158//3 123//3 124//3
f 176//58 123//58 158//58
f 157//3 158//3 124//3
f 176//59 158//59 159//59
f 176//60 159//60 160//60
f 175//61 176//61 160//61
f 175//3 160//3 161//3
f 175//3 161//3 162//3
f 175//62 162//62 163//62
f 175//63 163//63 164//63
f 156//3 157//3 124//3
f 156//3 124//3 125//3
f 175//3 164//3 165//3
f 175//3 165//3 166//3
f 175//3 166//3 167//3
f 155//3 156//3 125//3
f 175//3 167//3 168//3
f 173//3 175//3 168//3
f 174//3 175//3 173//3
f 173//3 168//3 169//3
f 155//3 125//3 126//3
f 173//3 169//3 170//3
f 154//3 155//3 126//3
f 173//3 170//3 171//3
f 172//3 173//3 171//3
f 154//3 126//3 127//3
f 153//3 154//3 127//3
f 152//3 153//3 127//3
f 152//64 127//64 128//64
f 151//65 152//65 128//65
f 151//66 128//66 129//66
f 150//67 151//67 129//67
f 150//68 129//68 130//68
f 149//69 150//69 130//69
f 148//70 149//70 130//70
f 148//71 130//71 131//71
f 147//72 148//72 131//72
f 147//3 131//3 132//3
f 146//73 147//73 132//73
f 146//74 132//74 133//74
f 145//75 146//75 133//75
f 144//76 145//76 133//76
f 143//77 144//77 133//77
f 142//3 143//3 133//3
f 141//3 142//3 133//3
f 140//3 133//3 134//3
f 141//3 133//3 140//3
f 137//78 140//78 134//78
f 139//79 140//79 137//79
f 138//80 139//80 137//80
f 136//81 137//81 134//81
f 135//2 136//2 134//2
f 178//1 236//1 179//1
f 236//82 235//82 179//82
f 180//83 179//83 181//83
f 181//84 179//84 182//84
f 179//85 235//85 182//85
f 182//1 217//1 183//1
f 182//86 235//86 217//86
f 217//1 216//1 183//1
f 217//87 235//87 218//87
f 218//88 235//88 219//88
f 235//89 234//89 219//89
f 219//1 234//1 220//1
f 220//90 234//90 221//90
f 221//1 234//1 222//1
f 222//1 234//1 223//1
f 216//91 215//91 183//91
f 183//92 215//92 184//92
f 223//1 234//1 224//1
f 224//1 234//1 225//1
f 225//1 234//1 226//1
f 215//93 214//93 184//93
f 226//1 234//1 227//1
f 234//1 232//1 227//1
f 234//1 233//1 232//1
f 227//94 232//94 228//94
f 184//95 214//95 185//95
f 228//96 232//96 229//96
f 214//97 213//97 185//97
f 229//1 232//1 230//1
f 232//1 231//1 230//1
f 185//98 213//98 186//98
f 213//99 212//99 186//99
f 212//100 211//100 186//100
f 186//101 211//101 187//101
f 211//102 210//102 187//102
f 187//103 210//103 188//103
f 210//104 209//104 188//104
f 188//105 209//105 189//105
f 209//106 208//106 189//106
f 208//107 207//107 189//107
f 189//108 207//108 190//108
f 207//109 206//109 190//109
f 190//95 206//95 191//95
f 206//110 205//110 191//110
f 191//111 205//111 192//111
f 205//112 204//112 192//112
f 204//113 203//113 192//113
f 203//114 202//114 192//114
f 202//1 201//1 192//1
f 201//1 200//1 192//1
f 192//1 199//1 193//1
f 192//115 200//115 199//115
f 199//116 196//116 193//116
f 199//117 198//117 196//117
f 198//118 197//118 196//118
f 196//119 195//119 193//119
f 195//120 194//120 193//120
f 234//121 235//121 176//121 175//121
f 233//122 234//122 175//122 174//122
f 180//123 181//123 122//123 121//123
f 215//124 216//124 157//124 156//124
f 203//125 204//125 145//125 144//125
f 194//126 195//126 136//126 135//126
f 207//127 208//127 149//127 148//127
f 209//128 210//128 151//128 150//128
f 216//129 217//129 158//129 157//129
f 185//130 186//130 127//130 126//130
f 232//131 233//131 174//131 173//131
f 189//132 190//132 131//132 130//132
f 219//133 220//133 161//133 160//133
f 179//134 180//134 121//134 120//134
f 195//135 196//135 137//135 136//135
f 235//136 236//136 177//136 176//136
f 205//137 206//137 147//137 146//137
f 224//138 225//138 166//138 165//138
f 182//139 183//139 124//139 123//139
f 183//140 184//140 125//140 124//140
f 214//141 215//141 156//141 155//141
f 196//142 197//142 138//142 137//142
f 192//143 193//143 134//143 133//143
f 201//144 202//144 143//144 142//144
f 236//145 178//145 119//145 177//145
f 223//138 224//138 165//138 164//138
f 228//133 229//133 170//133 169//133
f 227//138 228//138 169//138 168//138
f 191//146 192//146 133//146 132//146
f 222//138 223//138 164//138 163//138
f 184//147 185//147 126//147 125//147
f 211//148 212//148 153//148 152//148
f 187//149 188//149 129//149 128//149
f 186//150 187//150 128//150 127//150
f 226//151 227//151 168//151 167//151
f 213//152 214//152 155//152 154//152
f 200//153 201//153 142//153 141//153
f 204//154 205//154 146//154 145//154
f 217//155 218//155 159//155 158//155
f 210//156 211//156 152//156 151//156
f 221//133 222//133 163//133 162//133
f 181//157 182//157 123//157 122//157
f 198//158 199//158 140//158 139//158
f 208//159 209//159 150//159 149//159
f 199//160 200//160 141//160 140//160
f 231//161 232//161 173//161 172//161
f 229//162 230//162 171//162 170//162
f 218//163 219//163 160//163 159//163
f 197//164 198//164 139//164 138//164
f 225//133 226//133 167//133 166//133
f 220//138 221//138 162//138 161//138
f 188//165 189//165 130//165 129//165
f 230//166 231//166 172//166 171//166
f 212//167 213//167 154//167 153//167
f 178//168 179//168 120//168 119//168
f 193//169 194//169 135//169 134//169
f 202//125 203//125 144//125 143//125
f 190//170 191//170 132//170 131//170
f 206//171 207//171 148//171 147//171
