# Blender v2.69 (sub 0) OBJ File: ''
# www.blender.org
mtllib ya.mtl
o Curve_Mesh
v 2.447728 0.000000 -0.000289
v 2.844611 0.000000 1.855850
v 6.230254 0.000000 1.281038
v 6.730750 0.000000 1.661330
v 6.608731 0.000000 1.909133
v 6.482465 0.000000 2.152275
v 6.351950 0.000000 2.390758
v 6.217187 0.000000 2.624583
v 6.078175 0.000000 2.853750
v 5.934915 0.000000 3.078261
v 5.787405 0.000000 3.298117
v 5.635647 0.000000 3.513319
v 5.479640 0.000000 3.723869
v 5.319383 0.000000 3.929766
v 5.154877 0.000000 4.131013
v 4.986122 0.000000 4.327610
v 4.978139 0.000000 4.322659
v 4.955580 0.000000 4.308666
v 4.920526 0.000000 4.286922
v 4.875060 0.000000 4.258720
v 4.821264 0.000000 4.225352
v 4.761221 0.000000 4.188108
v 4.697014 0.000000 4.148282
v 4.630723 0.000000 4.107163
v 4.564434 0.000000 4.066044
v 4.500226 0.000000 4.026218
v 4.440183 0.000000 3.988974
v 4.386387 0.000000 3.955606
v 4.533896 0.000000 3.792075
v 4.676009 0.000000 3.628091
v 4.812725 0.000000 3.463654
v 4.944044 0.000000 3.298764
v 5.069966 0.000000 3.133421
v 5.190491 0.000000 2.967625
v 5.305618 0.000000 2.801375
v 5.415347 0.000000 2.634672
v 5.519678 0.000000 2.467515
v 5.618610 0.000000 2.299905
v 5.712144 0.000000 2.131840
v 5.800279 0.000000 1.963321
v 5.762751 0.000000 1.970195
v 5.656692 0.000000 1.989620
v 5.491893 0.000000 2.019803
v 5.278144 0.000000 2.058952
v 5.025235 0.000000 2.105273
v 4.742956 0.000000 2.156973
v 4.441097 0.000000 2.212259
v 4.129448 0.000000 2.269338
v 3.817799 0.000000 2.326417
v 3.515939 0.000000 2.381704
v 3.233660 0.000000 2.433404
v 2.980751 0.000000 2.479725
v 3.878165 0.000000 6.654934
v 3.200148 0.000000 6.807588
v 2.311024 0.000000 2.599858
v 0.152968 0.000000 2.996657
v 0.000282 0.000000 2.347458
v 2.174849 0.000000 1.971610
v 1.786256 0.000000 0.128134
v 2.447728 0.010000 -0.000289
v 2.844611 0.010000 1.855850
v 6.230254 0.010000 1.281038
v 6.730750 0.010000 1.661330
v 6.608731 0.010000 1.909133
v 6.482465 0.010000 2.152275
v 6.351950 0.010000 2.390758
v 6.217187 0.010000 2.624583
v 6.078175 0.010000 2.853750
v 5.934915 0.010000 3.078261
v 5.787405 0.010000 3.298117
v 5.635647 0.010000 3.513319
v 5.479640 0.010000 3.723869
v 5.319383 0.010000 3.929766
v 5.154877 0.010000 4.131013
v 4.986122 0.010000 4.327610
v 4.978139 0.010000 4.322659
v 4.955580 0.010000 4.308666
v 4.920526 0.010000 4.286922
v 4.875060 0.010000 4.258720
v 4.821264 0.010000 4.225352
v 4.761221 0.010000 4.188108
v 4.697014 0.010000 4.148282
v 4.630723 0.010000 4.107163
v 4.564434 0.010000 4.066044
v 4.500226 0.010000 4.026218
v 4.440183 0.010000 3.988974
v 4.386387 0.010000 3.955606
v 4.533896 0.010000 3.792075
v 4.676009 0.010000 3.628091
v 4.812725 0.010000 3.463654
v 4.944044 0.010000 3.298764
v 5.069966 0.010000 3.133421
v 5.190491 0.010000 2.967625
v 5.305618 0.010000 2.801375
v 5.415347 0.010000 2.634672
v 5.519678 0.010000 2.467515
v 5.618610 0.010000 2.299905
v 5.712144 0.010000 2.131840
v 5.800279 0.010000 1.963321
v 5.762751 0.010000 1.970195
v 5.656692 0.010000 1.989620
v 5.491893 0.010000 2.019803
v 5.278144 0.010000 2.058952
v 5.025235 0.010000 2.105273
v 4.742956 0.010000 2.156973
v 4.441097 0.010000 2.212259
v 4.129448 0.010000 2.269338
v 3.817799 0.010000 2.326417
v 3.515939 0.010000 2.381704
v 3.233660 0.010000 2.433404
v 2.980751 0.010000 2.479725
v 3.878165 0.010000 6.654934
v 3.200148 0.010000 6.807588
v 2.311024 0.010000 2.599858
v 0.152968 0.010000 2.996657
v 0.000282 0.010000 2.347458
v 2.174849 0.010000 1.971610
v 1.786256 0.010000 0.128134
v 2.447728 -1.000000 -0.000289
v 2.844611 -1.000000 1.855850
v 6.230254 -1.000000 1.281038
v 6.730750 -0.999970 1.661330
v 6.608731 -1.000000 1.909133
v 6.482465 -1.000000 2.152275
v 6.351950 -1.000000 2.390758
v 6.217187 -1.000000 2.624583
v 6.078175 -1.000000 2.853750
v 5.934915 -0.999970 3.078261
v 5.787405 -1.000000 3.298117
v 5.635647 -1.000000 3.513319
v 5.479640 -1.000000 3.723869
v 5.319383 -1.000000 3.929766
v 5.154877 -1.000000 4.131013
v 4.986122 -1.000000 4.327610
v 4.978139 -1.000000 4.322659
v 4.955580 -1.000000 4.308666
v 4.920526 -0.999970 4.286922
v 4.875060 -1.000000 4.258720
v 4.821264 -1.000000 4.225352
v 4.761221 -1.000000 4.188108
v 4.697014 -1.000000 4.148282
v 4.630723 -1.000000 4.107163
v 4.564434 -1.000000 4.066044
v 4.500226 -0.999970 4.026218
v 4.440183 -1.000000 3.988974
v 4.386387 -0.999970 3.955606
v 4.533896 -1.000000 3.792075
v 4.676009 -0.999970 3.628091
v 4.812725 -1.000000 3.463654
v 4.944044 -0.999970 3.298764
v 5.069966 -1.000000 3.133421
v 5.190491 -1.000000 2.967625
v 5.305618 -1.000000 2.801375
v 5.415347 -1.000000 2.634672
v 5.519678 -1.000000 2.467515
v 5.618610 -1.000000 2.299905
v 5.712144 -1.000000 2.131840
v 5.800279 -1.000000 1.963321
v 5.762751 -0.999970 1.970195
v 5.656692 -1.000000 1.989620
v 5.491893 -1.000000 2.019803
v 5.278144 -1.000000 2.058952
v 5.025235 -0.999970 2.105273
v 4.742956 -1.000000 2.156973
v 4.441097 -1.000000 2.212259
v 4.129448 -1.000000 2.269338
v 3.817799 -1.000000 2.326417
v 3.515939 -1.000000 2.381704
v 3.233660 -1.000000 2.433404
v 2.980751 -1.000000 2.479725
v 3.878165 -1.000000 6.654934
v 3.200148 -1.000000 6.807588
v 2.311024 -1.000000 2.599858
v 0.152968 -1.000000 2.996657
v 0.000282 -1.000000 2.347458
v 2.174849 -0.999970 1.971610
v 1.786256 -1.000000 0.128134
v 2.447728 1.010000 -0.000289
v 2.844611 1.010000 1.855850
v 6.230254 1.010000 1.281038
v 6.730750 1.009969 1.661330
v 6.608731 1.010000 1.909133
v 6.482465 1.010000 2.152275
v 6.351950 1.010000 2.390758
v 6.217187 1.010000 2.624583
v 6.078175 1.009969 2.853750
v 5.934915 1.009969 3.078261
v 5.787405 1.010000 3.298117
v 5.635647 1.010000 3.513319
v 5.479640 1.010000 3.723869
v 5.319383 1.010000 3.929766
v 5.154877 1.010000 4.131013
v 4.986122 1.010000 4.327610
v 4.978139 1.010000 4.322659
v 4.955580 1.010000 4.308666
v 4.920526 1.009969 4.286922
v 4.875060 1.010000 4.258720
v 4.821264 1.010000 4.225352
v 4.761221 1.010000 4.188108
v 4.697014 1.010000 4.148282
v 4.630723 1.010000 4.107163
v 4.564434 1.010000 4.066044
v 4.500226 1.009969 4.026218
v 4.440183 1.010000 3.988974
v 4.386387 1.009969 3.955606
v 4.533896 1.010000 3.792075
v 4.676009 1.009969 3.628091
v 4.812725 1.010000 3.463654
v 4.944044 1.009969 3.298764
v 5.069966 1.009969 3.133421
v 5.190491 1.010000 2.967625
v 5.305618 1.010000 2.801375
v 5.415347 1.010000 2.634672
v 5.519678 1.010000 2.467515
v 5.618610 1.009969 2.299905
v 5.712144 1.010000 2.131840
v 5.800279 1.010000 1.963321
v 5.762751 1.009969 1.970195
v 5.656692 1.010000 1.989620
v 5.491893 1.010000 2.019803
v 5.278144 1.010000 2.058952
v 5.025235 1.010000 2.105273
v 4.742956 1.010000 2.156973
v 4.441097 1.010000 2.212259
v 4.129448 1.010000 2.269338
v 3.817799 1.010000 2.326417
v 3.515939 1.010000 2.381704
v 3.233660 1.010000 2.433404
v 2.980751 1.010000 2.479725
v 3.878165 1.010000 6.654934
v 3.200148 1.010000 6.807588
v 2.311024 1.010000 2.599858
v 0.152968 1.010000 2.996657
v 0.000282 1.010000 2.347458
v 2.174849 1.009969 1.971610
v 1.786256 1.010000 0.128134
vn 0.000000 1.000000 0.000000
vn 0.000000 0.000000 1.000000
vn 0.000000 -1.000000 -0.000000
vn 0.000000 0.000000 -1.000000
vn 0.835289 0.000000 0.549811
vn -0.977895 0.000000 0.209095
vn 0.527087 0.000000 -0.849811
vn 0.527108 0.000000 -0.849798
vn -0.789140 0.000000 -0.614214
vn 0.755704 0.000000 0.654913
vn 0.170313 0.000000 0.985390
vn 0.973440 0.000000 -0.228944
vn -0.604998 0.000000 0.796227
vn 0.873793 0.000000 0.486298
vn 0.527114 0.000000 -0.849795
vn 0.527112 0.000000 -0.849796
vn 0.795557 0.000000 0.605879
vn 0.768945 0.000000 0.639315
vn 0.886127 0.000000 0.463442
vn -0.854995 0.000000 -0.518636
vn -0.180837 0.000000 -0.983513
vn -0.803475 0.000000 -0.595338
vn -0.180155 0.000000 -0.983638
vn 0.167384 0.000000 0.985892
vn 0.527123 0.000000 -0.849789
vn 0.978497 0.000000 -0.206261
vn 0.742546 0.000000 0.669794
vn -0.180156 0.000000 -0.983638
vn -0.887467 0.000000 -0.460871
vn -0.877225 0.000000 -0.480080
vn 0.861174 0.000000 0.508311
vn 0.527107 0.000000 -0.849799
vn -0.758792 0.000000 -0.651333
vn 0.527115 0.000000 -0.849794
vn 0.190588 0.000000 0.981670
vn -0.180154 0.000000 -0.983638
vn -0.774240 0.000000 -0.632892
vn -0.866403 0.000000 -0.499345
vn 0.822120 0.000000 0.569315
vn -0.830411 0.000000 -0.557151
vn -0.842998 0.000000 -0.537917
vn 0.848322 0.000000 0.529481
vn 0.527104 0.000000 -0.849801
vn -0.180153 0.000000 -0.983639
vn 0.808862 0.000000 0.587998
vn 0.527113 0.000000 -0.849795
vn -0.897138 0.000000 -0.441751
vn 0.782239 0.000000 0.622978
vn 0.978396 0.000000 -0.206742
vn 0.527116 0.000000 -0.849794
vn -0.977671 0.000000 0.210140
vn -0.817235 0.000000 -0.576305
vn -0.219649 0.000000 -0.975579
vn -0.000041 -1.000000 0.000025
vn 0.000011 -1.000000 0.000066
vn 0.000002 -1.000000 -0.000122
vn -0.000003 -1.000000 0.000243
vn -0.000009 -1.000000 -0.000128
vn 0.000002 -0.999990 0.004426
vn -0.000001 -0.999999 -0.001565
vn -0.000008 -1.000000 -0.000128
vn 0.000051 -1.000000 0.000940
vn -0.000030 -1.000000 -0.000757
vn 0.000019 -1.000000 0.000148
vn 0.000037 -1.000000 0.000026
vn 0.000028 -1.000000 -0.000120
vn -0.000036 -1.000000 0.000157
vn -0.000036 -1.000000 -0.000026
vn 0.000011 -1.000000 -0.000177
vn -0.000011 -1.000000 0.000177
vn -0.000035 -1.000000 -0.000026
vn -0.000014 -1.000000 -0.000198
vn -0.000028 -1.000000 0.000161
vn -0.000033 -1.000000 -0.000027
vn 0.000267 -0.999999 -0.001346
vn -0.000239 -0.999999 0.001206
vn 0.000102 -1.000000 -0.000937
vn -0.526860 0.000000 0.849952
vn 0.529169 -0.027805 -0.848061
vn 0.526727 -0.030890 -0.849473
vn 0.529730 0.000000 -0.848166
vn -0.000041 1.000000 0.000025
vn 0.000011 1.000000 0.000065
vn 0.000002 1.000000 -0.000122
vn -0.000003 1.000000 0.000243
vn -0.000009 1.000000 -0.000128
vn 0.000002 0.999990 0.004437
vn -0.000001 0.999999 -0.001577
vn -0.000008 1.000000 -0.000127
vn 0.000000 1.000000 -0.000007
vn -0.000005 1.000000 0.000179
vn -0.000039 1.000000 -0.000022
vn -0.000018 1.000000 -0.000193
vn 0.000000 1.000000 0.000167
vn 0.000000 1.000000 -0.000001
vn 0.000000 1.000000 0.000186
vn 0.000000 1.000000 0.000001
vn 0.000002 1.000000 0.000134
vn 0.000038 1.000000 0.000024
vn 0.000038 1.000000 0.000027
vn 0.000037 1.000000 0.000023
vn 0.000012 1.000000 0.000194
vn -0.000009 1.000000 -0.000145
vn -0.000036 1.000000 -0.000027
vn -0.000036 1.000000 -0.000026
vn 0.000011 1.000000 -0.000176
vn -0.000011 1.000000 0.000176
vn -0.000035 1.000000 -0.000026
vn -0.000014 1.000000 -0.000198
vn -0.000028 1.000000 0.000161
vn -0.000033 1.000000 -0.000027
vn 0.000267 0.999999 -0.001353
vn -0.000240 0.999999 0.001213
vn 0.000102 1.000000 -0.000937
vn 0.000000 1.000000 -0.000002
vn -0.526775 -0.003688 0.849997
vn 0.523729 0.027466 -0.851442
vn 0.525931 0.015392 -0.850388
vn 0.530479 0.000000 -0.847698
vn 0.000000 0.970143 -0.242536
vn -0.835289 0.000000 -0.549811
vn 0.977895 0.000000 -0.209095
vn -0.527097 0.000000 0.849805
vn -0.527115 0.000000 0.849794
vn 0.789140 0.000000 0.614214
vn -0.755705 0.000000 -0.654912
vn -0.170313 0.000000 -0.985390
vn -0.973440 0.000000 0.228944
vn 0.604998 0.000000 -0.796227
vn -0.873793 0.000000 -0.486298
vn -0.527101 0.000000 0.849802
vn -0.795557 0.000000 -0.605879
vn -0.768945 0.000000 -0.639315
vn -0.886127 0.000000 -0.463442
vn 0.854995 0.000000 0.518636
vn 0.180837 0.000000 0.983513
vn 0.803475 0.000000 0.595338
vn 0.180155 0.000000 0.983638
vn -0.167384 0.000000 -0.985892
vn -0.527126 0.000000 0.849787
vn -0.978497 0.000000 0.206261
vn -0.742546 0.000000 -0.669795
vn 0.180156 0.000000 0.983638
vn 0.887467 0.000000 0.460872
vn 0.877225 0.000000 0.480079
vn -0.861173 0.000000 -0.508311
vn -0.527105 0.000000 0.849800
vn 0.758792 0.000000 0.651333
vn -0.527114 0.000000 0.849795
vn -0.190588 0.000000 -0.981670
vn 0.774240 0.000000 0.632892
vn 0.866403 0.000000 0.499346
vn -0.822120 0.000000 -0.569314
vn 0.830411 0.000000 0.557151
vn 0.842998 0.000000 0.537917
vn 0.180157 0.000000 0.983638
vn -0.848322 0.000000 -0.529481
vn -0.527111 0.000000 0.849796
vn -0.527101 0.000000 0.849803
vn 0.180153 0.000000 0.983638
vn -0.808862 0.000000 -0.587999
vn -0.527117 0.000000 0.849793
vn 0.897138 0.000000 0.441751
vn -0.782239 0.000000 -0.622978
vn -0.978395 0.000000 0.206742
vn -0.527111 0.000000 0.849797
vn 0.977671 0.000000 -0.210140
vn 0.180158 0.000000 0.983638
vn -0.527113 0.000000 0.849795
vn 0.817235 0.000000 0.576304
vn 0.219649 0.000000 0.975579
usemtl SVGMat.001
s off
f 2//1 1//1 59//1
f 2//1 59//1 58//1
f 4//1 3//1 2//1
f 5//1 4//1 2//1
f 5//1 2//1 58//1
f 6//1 5//1 40//1
f 40//1 5//1 58//1
f 6//1 40//1 39//1
f 41//1 40//1 58//1
f 42//1 41//1 58//1
f 42//1 58//1 57//1
f 43//1 42//1 57//1
f 44//1 43//1 57//1
f 45//1 44//1 57//1
f 46//1 45//1 57//1
f 6//1 39//1 38//1
f 7//1 6//1 38//1
f 47//1 46//1 57//1
f 48//1 47//1 57//1
f 49//1 48//1 57//1
f 7//1 38//1 37//1
f 50//1 49//1 57//1
f 50//1 57//1 55//1
f 55//1 57//1 56//1
f 51//1 50//1 55//1
f 8//1 7//1 37//1
f 52//1 51//1 55//1
f 8//1 37//1 36//1
f 53//1 52//1 55//1
f 53//1 55//1 54//1
f 9//1 8//1 36//1
f 9//1 36//1 35//1
f 9//1 35//1 34//1
f 10//1 9//1 34//1
f 10//1 34//1 33//1
f 11//1 10//1 33//1
f 11//1 33//1 32//1
f 12//1 11//1 32//1
f 12//1 32//1 31//1
f 12//1 31//1 30//1
f 13//1 12//1 30//1
f 13//1 30//1 29//1
f 14//1 13//1 29//1
f 14//1 29//1 28//1
f 15//1 14//1 28//1
f 15//1 28//1 27//1
f 15//1 27//1 26//1
f 15//1 26//1 25//1
f 15//1 25//1 24//1
f 15//1 24//1 23//1
f 16//1 15//1 22//1
f 22//1 15//1 23//1
f 16//2 22//2 19//2
f 19//1 22//1 21//1
f 19//1 21//1 20//1
f 16//2 19//2 18//2
f 16//2 18//2 17//2
f 61//3 118//3 60//3
f 61//3 117//3 118//3
f 63//3 61//3 62//3
f 64//3 61//3 63//3
f 64//3 117//3 61//3
f 65//3 99//3 64//3
f 99//3 117//3 64//3
f 65//3 98//3 99//3
f 100//3 117//3 99//3
f 101//3 117//3 100//3
f 101//3 116//3 117//3
f 102//3 116//3 101//3
f 103//3 116//3 102//3
f 104//3 116//3 103//3
f 105//3 116//3 104//3
f 65//3 97//3 98//3
f 66//3 97//3 65//3
f 106//3 116//3 105//3
f 107//3 116//3 106//3
f 108//3 116//3 107//3
f 66//3 96//3 97//3
f 109//3 116//3 108//3
f 109//3 114//3 116//3
f 114//3 115//3 116//3
f 110//3 114//3 109//3
f 67//3 96//3 66//3
f 111//3 114//3 110//3
f 67//3 95//3 96//3
f 112//3 114//3 111//3
f 112//3 113//3 114//3
f 68//3 95//3 67//3
f 68//3 94//3 95//3
f 68//3 93//3 94//3
f 69//3 93//3 68//3
f 69//3 92//3 93//3
f 70//3 92//3 69//3
f 70//3 91//3 92//3
f 71//3 91//3 70//3
f 71//3 90//3 91//3
f 71//3 89//3 90//3
f 72//3 89//3 71//3
f 72//3 88//3 89//3
f 73//3 88//3 72//3
f 73//3 87//3 88//3
f 74//3 87//3 73//3
f 74//3 86//3 87//3
f 74//3 85//3 86//3
f 74//3 84//3 85//3
f 74//3 83//3 84//3
f 74//3 82//3 83//3
f 75//3 81//3 74//3
f 81//3 82//3 74//3
f 75//2 78//2 81//2
f 78//3 80//3 81//3
f 78//3 79//3 80//3
f 75//2 77//2 78//2
f 75//4 76//4 77//4
f 35//5 36//5 95//5 94//5
f 1//6 2//6 61//6 60//6
f 16//7 17//7 76//7 75//7
f 25//8 26//8 85//8 84//8
f 13//9 14//9 73//9 72//9
f 29//10 30//10 89//10 88//10
f 57//11 58//11 117//11 116//11
f 56//12 57//12 116//12 115//12
f 3//13 4//13 63//13 62//13
f 38//14 39//14 98//14 97//14
f 26//15 27//15 86//15 85//15
f 17//16 18//16 77//16 76//16
f 32//17 33//17 92//17 91//17
f 30//18 31//18 90//18 89//18
f 39//19 40//19 99//19 98//19
f 8//20 9//20 68//20 67//20
f 55//21 56//21 115//21 114//21
f 12//22 13//22 72//22 71//22
f 42//23 43//23 102//23 101//23
f 2//24 3//24 62//24 61//24
f 18//25 19//25 78//25 77//25
f 58//26 59//26 118//26 117//26
f 28//27 29//27 88//27 87//27
f 47//28 48//28 107//28 106//28
f 5//29 6//29 65//29 64//29
f 6//30 7//30 66//30 65//30
f 37//31 38//31 97//31 96//31
f 19//32 20//32 79//32 78//32
f 15//33 16//33 75//33 74//33
f 24//34 25//34 84//34 83//34
f 59//35 1//35 60//35 118//35
f 46//28 47//28 106//28 105//28
f 51//36 52//36 111//36 110//36
f 50//28 51//28 110//28 109//28
f 14//37 15//37 74//37 73//37
f 45//23 46//23 105//23 104//23
f 7//38 8//38 67//38 66//38
f 34//39 35//39 94//39 93//39
f 10//40 11//40 70//40 69//40
f 9//41 10//41 69//41 68//41
f 49//28 50//28 109//28 108//28
f 36//42 37//42 96//42 95//42
f 23//16 24//16 83//16 82//16
f 27//43 28//43 87//43 86//43
f 40//44 41//44 100//44 99//44
f 33//45 34//45 93//45 92//45
f 44//23 45//23 104//23 103//23
f 21//46 22//46 81//46 80//46
f 4//47 5//47 64//47 63//47
f 31//48 32//48 91//48 90//48
f 54//49 55//49 114//49 113//49
f 22//50 23//50 82//50 81//50
f 52//51 53//51 112//51 111//51
f 41//28 42//28 101//28 100//28
f 48//23 49//23 108//23 107//23
f 43//28 44//28 103//28 102//28
f 20//16 21//16 80//16 79//16
f 11//52 12//52 71//52 70//52
f 53//53 54//53 113//53 112//53
f 177//3 119//3 120//3
f 176//54 177//54 120//54
f 120//55 121//55 122//55
f 120//56 122//56 123//56
f 176//57 120//57 123//57
f 158//3 123//3 124//3
f 176//58 123//58 158//58
f 157//3 158//3 124//3
f 176//59 158//59 159//59
f 176//60 159//60 160//60
f 175//61 176//61 160//61
f 175//3 160//3 161//3
f 175//3 161//3 162//3
f 175//62 162//62 163//62
f 175//63 163//63 164//63
f 156//3 157//3 124//3
f 156//3 124//3 125//3
f 175//3 164//3 165//3
f 175//3 165//3 166//3
f 175//3 166//3 167//3
f 155//3 156//3 125//3
f 175//3 167//3 168//3
f 173//3 175//3 168//3
f 174//3 175//3 173//3
f 173//3 168//3 169//3
f 155//3 125//3 126//3
f 173//3 169//3 170//3
f 154//3 155//3 126//3
f 173//3 170//3 171//3
f 172//3 173//3 171//3
f 154//3 126//3 127//3
f 153//3 154//3 127//3
f 152//3 153//3 127//3
f 152//64 127//64 128//64
f 151//65 152//65 128//65
f 151//66 128//66 129//66
f 150//67 151//67 129//67
f 150//68 129//68 130//68
f 149//69 150//69 130//69
f 148//70 149//70 130//70
f 148//71 130//71 131//71
f 147//72 148//72 131//72
f 147//3 131//3 132//3
f 146//73 147//73 132//73
f 146//74 132//74 133//74
f 145//75 146//75 133//75
f 144//76 145//76 133//76
f 143//77 144//77 133//77
f 142//3 143//3 133//3
f 141//3 142//3 133//3
f 140//3 133//3 134//3
f 141//3 133//3 140//3
f 137//78 140//78 134//78
f 139//79 140//79 137//79
f 138//80 139//80 137//80
f 136//81 137//81 134//81
f 135//2 136//2 134//2
f 178//1 236//1 179//1
f 236//82 235//82 179//82
f 180//83 179//83 181//83
f 181//84 179//84 182//84
f 179//85 235//85 182//85
f 182//1 217//1 183//1
f 182//86 235//86 217//86
f 217//1 216//1 183//1
f 217//87 235//87 218//87
f 218//88 235//88 219//88
f 235//89 234//89 219//89
f 219//1 234//1 220//1
f 220//90 234//90 221//90
f 221//1 234//1 222//1
f 222//1 234//1 223//1
f 216//91 215//91 183//91
f 183//92 215//92 184//92
f 223//1 234//1 224//1
f 224//1 234//1 225//1
f 225//1 234//1 226//1
f 215//93 214//93 184//93
f 226//1 234//1 227//1
f 234//1 232//1 227//1
f 234//1 233//1 232//1
f 227//94 232//94 228//94
f 184//95 214//95 185//95
f 228//96 232//96 229//96
f 214//97 213//97 185//97
f 229//1 232//1 230//1
f 232//1 231//1 230//1
f 185//98 213//98 186//98
f 213//99 212//99 186//99
f 212//100 211//100 186//100
f 186//101 211//101 187//101
f 211//102 210//102 187//102
f 187//103 210//103 188//103
f 210//104 209//104 188//104
f 188//105 209//105 189//105
f 209//106 208//106 189//106
f 208//107 207//107 189//107
f 189//108 207//108 190//108
f 207//109 206//109 190//109
f 190//95 206//95 191//95
f 206//110 205//110 191//110
f 191//111 205//111 192//111
f 205//112 204//112 192//112
f 204//113 203//113 192//113
f 203//114 202//114 192//114
f 202//1 201//1 192//1
f 201//1 200//1 192//1
f 192//1 199//1 193//1
f 192//115 200//115 199//115
f 199//116 196//116 193//116
f 199//117 198//117 196//117
f 198//118 197//118 196//118
f 196//119 195//119 193//119
f 195//120 194//120 193//120
f 212//121 213//121 154//121 153//121
f 178//122 179//122 120//122 119//122
f 193//123 194//123 135//123 134//123
f 202//124 203//124 144//124 143//124
f 190//125 191//125 132//125 131//125
f 206//126 207//126 148//126 147//126
f 234//127 235//127 176//127 175//127
f 233//128 234//128 175//128 174//128
f 180//129 181//129 122//129 121//129
f 215//130 216//130 157//130 156//130
f 203//124 204//124 145//124 144//124
f 194//131 195//131 136//131 135//131
f 209//132 210//132 151//132 150//132
f 207//133 208//133 149//133 148//133
f 216//134 217//134 158//134 157//134
f 185//135 186//135 127//135 126//135
f 232//136 233//136 174//136 173//136
f 189//137 190//137 131//137 130//137
f 219//138 220//138 161//138 160//138
f 179//139 180//139 121//139 120//139
f 195//140 196//140 137//140 136//140
f 235//141 236//141 177//141 176//141
f 205//142 206//142 147//142 146//142
f 224//143 225//143 166//143 165//143
f 182//144 183//144 124//144 123//144
f 183//145 184//145 125//145 124//145
f 214//146 215//146 156//146 155//146
f 196//147 197//147 138//147 137//147
f 192//148 193//148 134//148 133//148
f 201//149 202//149 143//149 142//149
f 236//150 178//150 119//150 177//150
f 223//143 224//143 165//143 164//143
f 228//138 229//138 170//138 169//138
f 227//143 228//143 169//143 168//143
f 191//151 192//151 133//151 132//151
f 222//143 223//143 164//143 163//143
f 184//152 185//152 126//152 125//152
f 211//153 212//153 153//153 152//153
f 187//154 188//154 129//154 128//154
f 186//155 187//155 128//155 127//155
f 226//156 227//156 168//156 167//156
f 213//157 214//157 155//157 154//157
f 200//158 201//158 142//158 141//158
f 204//159 205//159 146//159 145//159
f 217//160 218//160 159//160 158//160
f 210//161 211//161 152//161 151//161
f 221//138 222//138 163//138 162//138
f 198//162 199//162 140//162 139//162
f 181//163 182//163 123//163 122//163
f 208//164 209//164 150//164 149//164
f 231//165 232//165 173//165 172//165
f 199//166 200//166 141//166 140//166
f 229//167 230//167 171//167 170//167
f 218//168 219//168 160//168 159//168
f 225//138 226//138 167//138 166//138
f 220//143 221//143 162//143 161//143
f 197//169 198//169 139//169 138//169
f 188//170 189//170 130//170 129//170
f 230//171 231//171 172//171 171//171
