# Blender v2.69 (sub 0) OBJ File: ''
# www.blender.org
mtllib yu.mtl
o Curve_Mesh
v 0.888842 0.000000 -0.000013
v 5.213210 0.000000 -0.000013
v 5.191454 0.000000 0.310650
v 5.167515 0.000000 0.624073
v 5.141394 0.000000 0.940256
v 5.113090 0.000000 1.259200
v 5.082603 0.000000 1.580904
v 5.049932 0.000000 1.905368
v 5.015079 0.000000 2.232594
v 4.978044 0.000000 2.562580
v 4.938825 0.000000 2.895327
v 4.897423 0.000000 3.230835
v 4.853839 0.000000 3.569104
v 4.808071 0.000000 3.910135
v 4.834213 0.000000 3.910135
v 4.908091 0.000000 3.910135
v 5.022886 0.000000 3.910135
v 5.171780 0.000000 3.910135
v 5.347951 0.000000 3.910135
v 5.544580 0.000000 3.910135
v 5.754849 0.000000 3.910135
v 5.971938 0.000000 3.910135
v 6.189026 0.000000 3.910135
v 6.399295 0.000000 3.910135
v 6.595924 0.000000 3.910135
v 6.772096 0.000000 3.910135
v 6.772096 0.000000 4.554925
v 0.000282 0.000000 4.554925
v 0.000282 0.000000 3.910135
v 4.105253 0.000000 3.910135
v 4.144354 0.000000 3.625967
v 4.181734 0.000000 3.343867
v 4.217391 0.000000 3.063834
v 4.251327 0.000000 2.785868
v 4.283540 0.000000 2.509969
v 4.314031 0.000000 2.236136
v 4.342799 0.000000 1.964370
v 4.369844 0.000000 1.694669
v 4.395166 0.000000 1.427035
v 4.418765 0.000000 1.161466
v 4.440639 0.000000 0.897962
v 4.460790 0.000000 0.636523
v 4.413246 0.000000 0.636523
v 4.278885 0.000000 0.636523
v 4.070107 0.000000 0.636523
v 3.799318 0.000000 0.636523
v 3.478918 0.000000 0.636523
v 3.121309 0.000000 0.636523
v 2.738896 0.000000 0.636523
v 2.344080 0.000000 0.636523
v 1.949264 0.000000 0.636523
v 1.566851 0.000000 0.636523
v 1.209243 0.000000 0.636523
v 0.888842 0.000000 0.636523
v 0.888842 0.010000 -0.000013
v 5.213210 0.010000 -0.000013
v 5.191454 0.010000 0.310650
v 5.167515 0.010000 0.624073
v 5.141394 0.010000 0.940256
v 5.113090 0.010000 1.259200
v 5.082603 0.010000 1.580904
v 5.049932 0.010000 1.905368
v 5.015079 0.010000 2.232594
v 4.978044 0.010000 2.562580
v 4.938825 0.010000 2.895327
v 4.897423 0.010000 3.230835
v 4.853839 0.010000 3.569104
v 4.808071 0.010000 3.910135
v 4.834213 0.010000 3.910135
v 4.908091 0.010000 3.910135
v 5.022886 0.010000 3.910135
v 5.171780 0.010000 3.910135
v 5.347951 0.010000 3.910135
v 5.544580 0.010000 3.910135
v 5.754849 0.010000 3.910135
v 5.971938 0.010000 3.910135
v 6.189026 0.010000 3.910135
v 6.399295 0.010000 3.910135
v 6.595924 0.010000 3.910135
v 6.772096 0.010000 3.910135
v 6.772096 0.010000 4.554925
v 0.000282 0.010000 4.554925
v 0.000282 0.010000 3.910135
v 4.105253 0.010000 3.910135
v 4.144354 0.010000 3.625967
v 4.181734 0.010000 3.343867
v 4.217391 0.010000 3.063834
v 4.251327 0.010000 2.785868
v 4.283540 0.010000 2.509969
v 4.314031 0.010000 2.236136
v 4.342799 0.010000 1.964370
v 4.369844 0.010000 1.694669
v 4.395166 0.010000 1.427035
v 4.418765 0.010000 1.161466
v 4.440639 0.010000 0.897962
v 4.460790 0.010000 0.636523
v 4.413246 0.010000 0.636523
v 4.278885 0.010000 0.636523
v 4.070107 0.010000 0.636523
v 3.799318 0.010000 0.636523
v 3.478918 0.010000 0.636523
v 3.121309 0.010000 0.636523
v 2.738896 0.010000 0.636523
v 2.344080 0.010000 0.636523
v 1.949264 0.010000 0.636523
v 1.566851 0.010000 0.636523
v 1.209243 0.010000 0.636523
v 0.888842 0.010000 0.636523
v 0.888842 -1.000000 -0.000013
v 5.213210 -1.000000 -0.000013
v 5.191454 -1.000000 0.310650
v 5.167515 -1.000000 0.624073
v 5.141394 -1.000000 0.940256
v 5.113090 -1.000000 1.259200
v 5.082603 -1.000000 1.580904
v 5.049932 -1.000000 1.905368
v 5.015079 -0.999970 2.232594
v 4.978044 -1.000000 2.562580
v 4.938825 -1.000000 2.895327
v 4.897423 -1.000000 3.230835
v 4.853839 -0.999970 3.569104
v 4.808071 -1.000000 3.910135
v 4.834213 -1.000000 3.910135
v 4.908091 -1.000000 3.910135
v 5.022886 -1.000000 3.910135
v 5.171780 -1.000000 3.910135
v 5.347951 -1.000000 3.910135
v 5.544580 -1.000000 3.910135
v 5.754849 -1.000000 3.910135
v 5.971938 -1.000000 3.910135
v 6.189026 -1.000000 3.910135
v 6.399295 -1.000000 3.910135
v 6.595924 -1.000000 3.910135
v 6.772096 -1.000000 3.910135
v 6.772096 -1.000000 4.554925
v 0.000282 -1.000000 4.554925
v 0.000282 -0.999970 3.910135
v 4.105253 -1.000000 3.910135
v 4.144354 -1.000000 3.625967
v 4.181734 -1.000000 3.343867
v 4.217391 -1.000000 3.063834
v 4.251327 -1.000000 2.785868
v 4.283540 -1.000000 2.509969
v 4.314031 -0.999970 2.236136
v 4.342799 -1.000000 1.964370
v 4.369844 -1.000000 1.694669
v 4.395166 -0.999970 1.427035
v 4.418765 -0.999970 1.161466
v 4.440639 -1.000000 0.897962
v 4.460790 -0.999970 0.636523
v 3.423501 0.000000 0.493788
v 3.289780 0.000000 0.489393
v 3.082132 0.000000 0.482038
v 2.813082 0.000000 0.471296
v 2.495275 0.000000 0.456556
v 2.141482 0.000000 0.436719
v 1.764867 0.000000 0.410167
v 1.379054 0.000000 0.374491
v 0.998674 0.000000 0.326119
v 0.640400 0.000000 0.260169
v 0.324358 0.000000 0.170750
v 0.888842 -1.000000 0.636523
v 0.888842 1.010000 -0.000013
v 5.213210 1.010000 -0.000013
v 5.191454 1.010000 0.310650
v 5.167515 1.010000 0.624073
v 5.141394 1.010000 0.940256
v 5.113090 1.010000 1.259200
v 5.082603 1.010000 1.580904
v 5.049932 1.010000 1.905368
v 5.015079 1.009969 2.232594
v 4.978044 1.010000 2.562580
v 4.938825 1.010000 2.895327
v 4.897423 1.010000 3.230835
v 4.853839 1.009969 3.569104
v 4.808071 1.010000 3.910135
v 4.834213 1.010000 3.910135
v 4.908091 1.010000 3.910135
v 5.022886 1.010000 3.910135
v 5.171780 1.010000 3.910135
v 5.347951 1.010000 3.910135
v 5.544580 1.010000 3.910135
v 5.754849 1.010000 3.910135
v 5.971938 1.010000 3.910135
v 6.189026 1.010000 3.910135
v 6.399295 1.010000 3.910135
v 6.595924 1.010000 3.910135
v 6.772096 1.010000 3.910135
v 6.772096 1.010000 4.554925
v 0.000282 1.010000 4.554925
v 0.000282 1.009969 3.910135
v 4.105253 1.010000 3.910135
v 4.144354 1.010000 3.625967
v 4.181734 1.010000 3.343867
v 4.217391 1.010000 3.063834
v 4.251327 1.010000 2.785868
v 4.283540 1.010000 2.509969
v 4.314031 1.009969 2.236136
v 4.342799 1.010000 1.964370
v 4.369844 1.010000 1.694669
v 4.395166 1.009969 1.427035
v 4.418765 1.009969 1.161466
v 4.440639 1.010000 0.897962
v 4.460790 1.009969 0.636523
v 3.423501 0.010000 0.493788
v 3.289780 0.010000 0.489393
v 3.082132 0.010000 0.482038
v 2.813082 0.010000 0.471296
v 2.495275 0.010000 0.456556
v 2.141482 0.010000 0.436719
v 1.764867 0.010000 0.410167
v 1.379054 0.010000 0.374491
v 0.998674 0.010000 0.326119
v 0.640400 0.010000 0.260169
v 0.324358 0.010000 0.170750
v 0.888842 1.010000 0.636523
vn 0.000000 1.000000 0.000000
vn 0.000000 0.000000 1.000000
vn 0.000000 -1.000000 0.000000
vn 0.000000 0.000000 -1.000000
vn -0.993761 0.000000 -0.111535
vn 0.993858 0.000000 0.110665
vn -0.994375 0.000000 -0.105912
vn -0.995540 0.000000 -0.094345
vn 0.993253 0.000000 0.115969
vn -0.992472 0.000000 -0.122470
vn 0.995554 0.000000 0.094193
vn 0.994444 0.000000 0.105268
vn 0.991990 0.000000 0.126315
vn -1.000000 0.000000 0.000000
vn -0.991114 0.000000 -0.133012
vn -0.994969 0.000000 -0.100182
vn -0.993126 0.000000 -0.117054
vn -0.996086 0.000000 -0.088396
vn 0.997043 0.000000 0.076848
vn -0.997557 0.000000 -0.069859
vn 0.995010 0.000000 0.099778
vn -0.996605 0.000000 -0.082335
vn 1.000000 0.000000 0.000000
vn 0.996075 0.000000 0.088510
vn 0.990666 0.000000 0.136314
vn -0.997096 0.000000 -0.076156
vn 0.992630 0.000000 0.121185
vn 0.991335 0.000000 0.131355
vn 0.996572 0.000000 0.082729
vn -0.991802 0.000000 -0.127789
vn -0.000043 -1.000000 -0.000004
vn 0.000009 -0.999996 0.002951
vn 0.000007 -1.000000 -0.000116
vn -0.000001 0.141306 0.989966
vn -0.032039 0.220361 0.974892
vn -0.034482 0.226022 0.973512
vn -0.038777 0.235086 0.971201
vn -0.044904 0.246368 0.968135
vn -0.054052 0.260320 0.964008
vn -0.067589 0.276220 0.958715
vn -0.088046 0.292656 0.952156
vn -0.120087 0.306312 0.944326
vn -0.172164 0.309222 0.935276
vn -0.261158 0.282505 0.923032
vn -0.000007 -1.000000 0.000115
vn -0.000018 -1.000000 -0.000115
vn 0.000008 -1.000000 0.000094
vn 0.000001 -1.000000 0.000112
vn -0.000000 -1.000000 -0.000092
vn 0.000008 -1.000000 -0.000111
vn 0.000015 -1.000000 0.000092
vn 0.000043 -1.000000 0.000006
vn 0.000036 -1.000000 -0.000085
vn -0.000007 -1.000000 0.000031
vn 0.000000 -1.000000 -0.000047
vn -0.000043 1.000000 -0.000003
vn 0.000009 0.999996 0.002938
vn 0.000007 1.000000 -0.000116
vn -0.000001 -0.141306 0.989966
vn -0.032039 -0.220361 0.974892
vn -0.034482 -0.226022 0.973512
vn -0.038777 -0.235087 0.971201
vn -0.044904 -0.246368 0.968135
vn -0.054052 -0.260320 0.964008
vn -0.067589 -0.276220 0.958715
vn -0.088046 -0.292656 0.952156
vn -0.120087 -0.306312 0.944326
vn -0.172164 -0.309222 0.935276
vn -0.261158 -0.282505 0.923032
vn -0.000007 1.000000 0.000115
vn -0.000043 1.000000 -0.000004
vn -0.000018 1.000000 -0.000115
vn 0.000008 1.000000 0.000094
vn 0.000001 1.000000 0.000113
vn -0.000000 1.000000 -0.000093
vn 0.000008 1.000000 -0.000110
vn 0.000000 1.000000 -0.000001
vn 0.000015 1.000000 0.000092
vn 0.000043 1.000000 0.000005
vn 0.000036 1.000000 -0.000085
vn 0.000000 1.000000 0.000002
vn -0.000007 1.000000 0.000031
vn 0.000000 1.000000 -0.000047
vn -0.039896 0.000000 0.999204
vn 0.993761 0.000000 0.111535
vn -0.993858 0.000000 -0.110665
vn -0.136319 0.000000 0.990665
vn 0.994376 0.000000 0.105912
vn -0.092077 0.000000 0.995752
vn 0.995540 0.000000 0.094345
vn -0.993253 0.000000 -0.115969
vn -0.032847 0.000000 0.999460
vn 0.992472 0.000000 0.122470
vn -0.995554 0.000000 -0.094193
vn -0.994444 0.000000 -0.105268
vn -0.991990 0.000000 -0.126315
vn -0.055981 0.000000 0.998432
vn -0.181037 0.000000 0.983476
vn 0.991114 0.000000 0.133012
vn -0.272247 0.000000 0.962227
vn 0.994969 0.000000 0.100182
vn 0.993126 0.000000 0.117054
vn 0.996085 0.000000 0.088396
vn 0.636444 0.000000 -0.771323
vn -0.997043 0.000000 -0.076848
vn 0.997557 0.000000 0.069859
vn -0.995010 0.000000 -0.099778
vn 0.996605 0.000000 0.082335
vn -0.035398 0.000000 0.999373
vn -0.996075 0.000000 -0.088510
vn -0.126151 0.000000 0.992011
vn -0.070325 0.000000 0.997524
vn -0.990666 0.000000 -0.136314
vn 0.997096 0.000000 0.076156
vn -0.992630 0.000000 -0.121185
vn -0.991335 0.000000 -0.131355
vn -0.996572 0.000000 -0.082729
vn -0.046332 0.000000 0.998926
vn 0.991801 0.000000 0.127789
usemtl SVGMat.001
s off
f 3//1 2//1 1//1
f 3//1 1//1 54//1
f 4//1 3//1 54//1
f 5//1 4//1 42//1
f 42//1 4//1 54//1
f 5//1 42//1 41//1
f 43//2 42//2 54//2
f 44//2 43//2 54//2
f 45//2 44//2 54//2
f 46//2 45//2 54//2
f 47//2 46//2 54//2
f 48//2 47//2 54//2
f 49//2 48//2 54//2
f 50//2 49//2 54//2
f 51//2 50//2 54//2
f 52//2 51//2 54//2
f 53//2 52//2 54//2
f 5//1 41//1 40//1
f 6//1 5//1 40//1
f 6//1 40//1 39//1
f 7//1 6//1 39//1
f 7//1 39//1 38//1
f 8//1 7//1 38//1
f 8//1 38//1 37//1
f 9//1 8//1 37//1
f 9//1 37//1 36//1
f 10//1 9//1 36//1
f 10//1 36//1 35//1
f 10//1 35//1 34//1
f 11//1 10//1 34//1
f 11//1 34//1 33//1
f 12//1 11//1 33//1
f 12//1 33//1 32//1
f 13//1 12//1 32//1
f 13//1 32//1 31//1
f 14//1 13//1 31//1
f 14//1 31//1 30//1
f 27//1 26//1 25//1
f 27//1 25//1 24//1
f 27//1 24//1 23//1
f 27//1 23//1 22//1
f 27//1 22//1 21//1
f 27//1 21//1 20//1
f 27//1 20//1 19//1
f 27//1 19//1 18//1
f 27//1 18//1 17//1
f 27//1 17//1 16//1
f 27//1 16//1 15//1
f 27//1 15//1 14//1
f 27//1 14//1 30//1
f 27//1 30//1 29//1
f 27//1 29//1 28//1
f 57//3 55//3 56//3
f 57//3 108//3 55//3
f 58//3 108//3 57//3
f 59//3 96//3 58//3
f 96//3 108//3 58//3
f 59//3 95//3 96//3
f 97//2 108//2 96//2
f 98//4 108//4 97//4
f 99//2 108//2 98//2
f 100//2 108//2 99//2
f 101//2 108//2 100//2
f 102//2 108//2 101//2
f 103//2 108//2 102//2
f 104//2 108//2 103//2
f 105//2 108//2 104//2
f 106//2 108//2 105//2
f 107//2 108//2 106//2
f 59//3 94//3 95//3
f 60//3 94//3 59//3
f 60//3 93//3 94//3
f 61//3 93//3 60//3
f 61//3 92//3 93//3
f 62//3 92//3 61//3
f 62//3 91//3 92//3
f 63//3 91//3 62//3
f 63//3 90//3 91//3
f 64//3 90//3 63//3
f 64//3 89//3 90//3
f 64//3 88//3 89//3
f 65//3 88//3 64//3
f 65//3 87//3 88//3
f 66//3 87//3 65//3
f 66//3 86//3 87//3
f 67//3 86//3 66//3
f 67//3 85//3 86//3
f 68//3 85//3 67//3
f 68//3 84//3 85//3
f 81//3 79//3 80//3
f 81//3 78//3 79//3
f 81//3 77//3 78//3
f 81//3 76//3 77//3
f 81//3 75//3 76//3
f 81//3 74//3 75//3
f 81//3 73//3 74//3
f 81//3 72//3 73//3
f 81//3 71//3 72//3
f 81//3 70//3 71//3
f 81//3 69//3 70//3
f 81//3 68//3 69//3
f 81//3 84//3 68//3
f 81//3 83//3 84//3
f 81//3 82//3 83//3
f 18//2 19//2 73//2 72//2
f 45//4 46//4 100//4 99//4
f 9//5 10//5 64//5 63//5
f 35//6 36//6 90//6 89//6
f 16//2 17//2 71//2 70//2
f 42//4 43//4 97//4 96//4
f 8//7 9//7 63//7 62//7
f 49//4 50//4 104//4 103//4
f 20//2 21//2 75//2 74//2
f 27//4 28//4 82//4 81//4
f 6//8 7//8 61//8 60//8
f 22//2 23//2 77//2 76//2
f 24//2 25//2 79//2 78//2
f 34//9 35//9 89//9 88//9
f 23//2 24//2 78//2 77//2
f 43//4 44//4 98//4 97//4
f 11//10 12//10 66//10 65//10
f 19//2 20//2 74//2 73//2
f 38//11 39//11 93//11 92//11
f 36//12 37//12 91//12 90//12
f 21//2 22//2 76//2 75//2
f 32//13 33//13 87//13 86//13
f 47//4 48//4 102//4 101//4
f 26//14 27//14 81//14 80//14
f 51//4 52//4 106//4 105//4
f 13//15 14//15 68//15 67//15
f 52//4 53//4 107//4 106//4
f 7//16 8//16 62//16 61//16
f 10//17 11//17 65//17 64//17
f 25//2 26//2 80//2 79//2
f 1//2 2//2 56//2 55//2
f 5//18 6//18 60//18 59//18
f 53//4 54//4 108//4 107//4
f 41//19 42//19 96//19 95//19
f 2//20 3//20 57//20 56//20
f 37//21 38//21 92//21 91//21
f 4//22 5//22 59//22 58//22
f 44//4 45//4 99//4 98//4
f 54//23 1//23 55//23 108//23
f 39//24 40//24 94//24 93//24
f 50//4 51//4 105//4 104//4
f 48//4 49//4 103//4 102//4
f 30//25 31//25 85//25 84//25
f 15//2 16//2 70//2 69//2
f 28//23 29//23 83//23 82//23
f 3//26 4//26 58//26 57//26
f 29//2 30//2 84//2 83//2
f 14//2 15//2 69//2 68//2
f 33//27 34//27 88//27 87//27
f 31//28 32//28 86//28 85//28
f 40//29 41//29 95//29 94//29
f 17//2 18//2 72//2 71//2
f 46//4 47//4 101//4 100//4
f 12//30 13//30 67//30 66//30
f 109//3 110//3 111//3
f 162//3 109//3 111//3
f 162//3 111//3 112//3
f 150//31 112//31 113//31
f 162//32 112//32 150//32
f 149//33 150//33 113//33
f 162//34 150//34 151//34
f 162//35 151//35 152//35
f 162//36 152//36 153//36
f 162//37 153//37 154//37
f 162//38 154//38 155//38
f 162//39 155//39 156//39
f 162//40 156//40 157//40
f 162//41 157//41 158//41
f 162//42 158//42 159//42
f 162//43 159//43 160//43
f 162//44 160//44 161//44
f 148//45 149//45 113//45
f 148//31 113//31 114//31
f 147//31 148//31 114//31
f 147//31 114//31 115//31
f 146//46 147//46 115//46
f 146//3 115//3 116//3
f 145//3 146//3 116//3
f 145//47 116//47 117//47
f 144//48 145//48 117//48
f 144//49 117//49 118//49
f 143//50 144//50 118//50
f 142//3 143//3 118//3
f 142//3 118//3 119//3
f 141//3 142//3 119//3
f 141//3 119//3 120//3
f 140//3 141//3 120//3
f 140//51 120//51 121//51
f 139//52 140//52 121//52
f 139//53 121//53 122//53
f 138//3 139//3 122//3
f 133//3 134//3 135//3
f 132//3 133//3 135//3
f 131//3 132//3 135//3
f 130//3 131//3 135//3
f 129//3 130//3 135//3
f 128//3 129//3 135//3
f 127//3 128//3 135//3
f 126//3 127//3 135//3
f 125//3 126//3 135//3
f 124//3 125//3 135//3
f 123//3 124//3 135//3
f 122//3 123//3 135//3
f 138//3 122//3 135//3
f 137//54 138//54 135//54
f 136//55 137//55 135//55
f 164//1 163//1 165//1
f 163//1 216//1 165//1
f 165//1 216//1 166//1
f 166//56 204//56 167//56
f 166//57 216//57 204//57
f 204//58 203//58 167//58
f 204//59 216//59 205//59
f 205//60 216//60 206//60
f 206//61 216//61 207//61
f 207//62 216//62 208//62
f 208//63 216//63 209//63
f 209//64 216//64 210//64
f 210//65 216//65 211//65
f 211//66 216//66 212//66
f 212//67 216//67 213//67
f 213//68 216//68 214//68
f 214//69 216//69 215//69
f 203//70 202//70 167//70
f 167//71 202//71 168//71
f 202//71 201//71 168//71
f 168//71 201//71 169//71
f 201//72 200//72 169//72
f 169//1 200//1 170//1
f 200//1 199//1 170//1
f 170//73 199//73 171//73
f 199//74 198//74 171//74
f 171//75 198//75 172//75
f 198//76 197//76 172//76
f 197//77 196//77 172//77
f 172//1 196//1 173//1
f 196//1 195//1 173//1
f 173//1 195//1 174//1
f 195//77 194//77 174//77
f 174//78 194//78 175//78
f 194//79 193//79 175//79
f 175//80 193//80 176//80
f 193//1 192//1 176//1
f 188//1 187//1 189//1
f 187//1 186//1 189//1
f 186//1 185//1 189//1
f 185//1 184//1 189//1
f 184//1 183//1 189//1
f 183//81 182//81 189//81
f 182//1 181//1 189//1
f 181//1 180//1 189//1
f 180//1 179//1 189//1
f 179//1 178//1 189//1
f 178//1 177//1 189//1
f 177//1 176//1 189//1
f 176//1 192//1 189//1
f 192//82 191//82 189//82
f 191//83 190//83 189//83
f 180//4 181//4 127//4 126//4
f 207//84 208//84 154//84 153//84
f 171//85 172//85 118//85 117//85
f 197//86 198//86 144//86 143//86
f 178//4 179//4 125//4 124//4
f 204//87 205//87 151//87 150//87
f 170//88 171//88 117//88 116//88
f 211//89 212//89 158//89 157//89
f 182//4 183//4 129//4 128//4
f 189//2 190//2 136//2 135//2
f 168//90 169//90 115//90 114//90
f 184//4 185//4 131//4 130//4
f 186//4 187//4 133//4 132//4
f 196//91 197//91 143//91 142//91
f 185//4 186//4 132//4 131//4
f 205//92 206//92 152//92 151//92
f 173//93 174//93 120//93 119//93
f 181//4 182//4 128//4 127//4
f 200//94 201//94 147//94 146//94
f 198//95 199//95 145//95 144//95
f 183//4 184//4 130//4 129//4
f 194//96 195//96 141//96 140//96
f 209//97 210//97 156//97 155//97
f 188//23 189//23 135//23 134//23
f 213//98 214//98 160//98 159//98
f 175//99 176//99 122//99 121//99
f 214//100 215//100 161//100 160//100
f 169//101 170//101 116//101 115//101
f 172//102 173//102 119//102 118//102
f 187//4 188//4 134//4 133//4
f 163//4 164//4 110//4 109//4
f 167//103 168//103 114//103 113//103
f 215//104 216//104 162//104 161//104
f 203//105 204//105 150//105 149//105
f 164//106 165//106 111//106 110//106
f 199//107 200//107 146//107 145//107
f 166//108 167//108 113//108 112//108
f 206//109 207//109 153//109 152//109
f 216//14 163//14 109//14 162//14
f 201//110 202//110 148//110 147//110
f 212//111 213//111 159//111 158//111
f 210//112 211//112 157//112 156//112
f 192//113 193//113 139//113 138//113
f 177//4 178//4 124//4 123//4
f 190//14 191//14 137//14 136//14
f 165//114 166//114 112//114 111//114
f 191//4 192//4 138//4 137//4
f 176//4 177//4 123//4 122//4
f 195//115 196//115 142//115 141//115
f 193//116 194//116 140//116 139//116
f 202//117 203//117 149//117 148//117
f 179//4 180//4 126//4 125//4
f 208//118 209//118 155//118 154//118
f 174//119 175//119 121//119 120//119
