# Blender v2.69 (sub 0) OBJ File: ''
# www.blender.org
mtllib yu.mtl
o Curve_Mesh
v 0.888842 0.000000 -0.000013
v 5.213210 0.000000 -0.000013
v 5.191454 0.000000 0.310650
v 5.167515 0.000000 0.624073
v 5.141394 0.000000 0.940256
v 5.113090 0.000000 1.259200
v 5.082603 0.000000 1.580904
v 5.049932 0.000000 1.905368
v 5.015079 0.000000 2.232594
v 4.978044 0.000000 2.562580
v 4.938825 0.000000 2.895327
v 4.897423 0.000000 3.230835
v 4.853839 0.000000 3.569104
v 4.808071 0.000000 3.910135
v 4.834213 0.000000 3.910135
v 4.908091 0.000000 3.910135
v 5.022886 0.000000 3.910135
v 5.171780 0.000000 3.910135
v 5.347951 0.000000 3.910135
v 5.544580 0.000000 3.910135
v 5.754849 0.000000 3.910135
v 5.971938 0.000000 3.910135
v 6.189026 0.000000 3.910135
v 6.399295 0.000000 3.910135
v 6.595924 0.000000 3.910135
v 6.772096 0.000000 3.910135
v 6.772096 0.000000 4.554925
v 0.000282 0.000000 4.554925
v 0.000282 0.000000 3.910135
v 4.105253 0.000000 3.910135
v 4.144354 0.000000 3.625967
v 4.181734 0.000000 3.343867
v 4.217391 0.000000 3.063834
v 4.251327 0.000000 2.785868
v 4.283540 0.000000 2.509969
v 4.314031 0.000000 2.236136
v 4.342799 0.000000 1.964370
v 4.369844 0.000000 1.694669
v 4.395166 0.000000 1.427035
v 4.418765 0.000000 1.161466
v 4.440639 0.000000 0.897962
v 4.460790 0.000000 0.636523
v 4.413246 0.000000 0.636523
v 4.278885 0.000000 0.636523
v 4.070107 0.000000 0.636523
v 3.799318 0.000000 0.636523
v 3.478918 0.000000 0.636523
v 3.121309 0.000000 0.636523
v 2.738896 0.000000 0.636523
v 2.344080 0.000000 0.636523
v 1.949264 0.000000 0.636523
v 1.566851 0.000000 0.636523
v 1.209243 0.000000 0.636523
v 0.888842 0.000000 0.636523
v 0.888842 0.010000 -0.000013
v 5.213210 0.010000 -0.000013
v 5.191454 0.010000 0.310650
v 5.167515 0.010000 0.624073
v 5.141394 0.010000 0.940256
v 5.113090 0.010000 1.259200
v 5.082603 0.010000 1.580904
v 5.049932 0.010000 1.905368
v 5.015079 0.010000 2.232594
v 4.978044 0.010000 2.562580
v 4.938825 0.010000 2.895327
v 4.897423 0.010000 3.230835
v 4.853839 0.010000 3.569104
v 4.808071 0.010000 3.910135
v 4.834213 0.010000 3.910135
v 4.908091 0.010000 3.910135
v 5.022886 0.010000 3.910135
v 5.171780 0.010000 3.910135
v 5.347951 0.010000 3.910135
v 5.544580 0.010000 3.910135
v 5.754849 0.010000 3.910135
v 5.971938 0.010000 3.910135
v 6.189026 0.010000 3.910135
v 6.399295 0.010000 3.910135
v 6.595924 0.010000 3.910135
v 6.772096 0.010000 3.910135
v 6.772096 0.010000 4.554925
v 0.000282 0.010000 4.554925
v 0.000282 0.010000 3.910135
v 4.105253 0.010000 3.910135
v 4.144354 0.010000 3.625967
v 4.181734 0.010000 3.343867
v 4.217391 0.010000 3.063834
v 4.251327 0.010000 2.785868
v 4.283540 0.010000 2.509969
v 4.314031 0.010000 2.236136
v 4.342799 0.010000 1.964370
v 4.369844 0.010000 1.694669
v 4.395166 0.010000 1.427035
v 4.418765 0.010000 1.161466
v 4.440639 0.010000 0.897962
v 4.460790 0.010000 0.636523
v 4.413246 0.010000 0.636523
v 4.278885 0.010000 0.636523
v 4.070107 0.010000 0.636523
v 3.799318 0.010000 0.636523
v 3.478918 0.010000 0.636523
v 3.121309 0.010000 0.636523
v 2.738896 0.010000 0.636523
v 2.344080 0.010000 0.636523
v 1.949264 0.010000 0.636523
v 1.566851 0.010000 0.636523
v 1.209243 0.010000 0.636523
v 0.888842 0.010000 0.636523
v 0.888842 -1.000000 -0.000013
v 5.213210 -1.000000 -0.000013
v 5.191454 -1.000000 0.310650
v 5.167515 -1.000000 0.624073
v 5.141394 -1.000000 0.940256
v 5.113090 -1.000000 1.259200
v 5.082603 -1.000000 1.580904
v 5.049932 -1.000000 1.905368
v 5.015079 -0.999970 2.232594
v 4.978044 -1.000000 2.562580
v 4.938825 -1.000000 2.895327
v 4.897423 -1.000000 3.230835
v 4.853839 -0.999970 3.569104
v 4.808071 -1.000000 3.910135
v 4.834213 -1.000000 3.910135
v 4.908091 -1.000000 3.910135
v 5.022886 -1.000000 3.910135
v 5.171780 -1.000000 3.910135
v 5.347951 -1.000000 3.910135
v 5.544580 -1.000000 3.910135
v 5.754849 -1.000000 3.910135
v 5.971938 -1.000000 3.910135
v 6.189026 -1.000000 3.910135
v 6.399295 -1.000000 3.910135
v 6.595924 -1.000000 3.910135
v 6.772096 -1.000000 3.910135
v 6.772096 -1.000000 4.554925
v 0.000282 -1.000000 4.554925
v 0.000282 -0.999970 3.910135
v 4.105253 -1.000000 3.910135
v 4.144354 -1.000000 3.625967
v 4.181734 -1.000000 3.343867
v 4.217391 -1.000000 3.063834
v 4.251327 -1.000000 2.785868
v 4.283540 -1.000000 2.509969
v 4.314031 -0.999970 2.236136
v 4.342799 -1.000000 1.964370
v 4.369844 -1.000000 1.694669
v 4.395166 -0.999970 1.427035
v 4.418765 -0.999970 1.161466
v 4.440639 -1.000000 0.897962
v 4.460790 -0.999970 0.636523
v 3.423501 0.000000 0.493788
v 3.289780 0.000000 0.489393
v 3.082132 0.000000 0.482038
v 2.813082 0.000000 0.471296
v 2.495275 0.000000 0.456556
v 2.141482 0.000000 0.436719
v 1.764867 0.000000 0.410167
v 1.379054 0.000000 0.374491
v 0.998674 0.000000 0.326119
v 0.640400 0.000000 0.260169
v 0.324358 0.000000 0.170750
v 0.888842 -1.000000 0.636523
v 0.888842 1.010000 -0.000013
v 5.213210 1.010000 -0.000013
v 5.191454 1.010000 0.310650
v 5.167515 1.010000 0.624073
v 5.141394 1.010000 0.940256
v 5.113090 1.010000 1.259200
v 5.082603 1.010000 1.580904
v 5.049932 1.010000 1.905368
v 5.015079 1.009969 2.232594
v 4.978044 1.010000 2.562580
v 4.938825 1.010000 2.895327
v 4.897423 1.010000 3.230835
v 4.853839 1.009969 3.569104
v 4.808071 1.010000 3.910135
v 4.834213 1.010000 3.910135
v 4.908091 1.010000 3.910135
v 5.022886 1.010000 3.910135
v 5.171780 1.010000 3.910135
v 5.347951 1.010000 3.910135
v 5.544580 1.010000 3.910135
v 5.754849 1.010000 3.910135
v 5.971938 1.010000 3.910135
v 6.189026 1.010000 3.910135
v 6.399295 1.010000 3.910135
v 6.595924 1.010000 3.910135
v 6.772096 1.010000 3.910135
v 6.772096 1.010000 4.554925
v 0.000282 1.010000 4.554925
v 0.000282 1.009969 3.910135
v 4.105253 1.010000 3.910135
v 4.144354 1.010000 3.625967
v 4.181734 1.010000 3.343867
v 4.217391 1.010000 3.063834
v 4.251327 1.010000 2.785868
v 4.283540 1.010000 2.509969
v 4.314031 1.009969 2.236136
v 4.342799 1.010000 1.964370
v 4.369844 1.010000 1.694669
v 4.395166 1.009969 1.427035
v 4.418765 1.009969 1.161466
v 4.440639 1.010000 0.897962
v 4.460790 1.009969 0.636523
v 3.423501 0.010000 0.493788
v 3.289780 0.010000 0.489393
v 3.082132 0.010000 0.482038
v 2.813082 0.010000 0.471296
v 2.495275 0.010000 0.456556
v 2.141482 0.010000 0.436719
v 1.764867 0.010000 0.410167
v 1.379054 0.010000 0.374491
v 0.998674 0.010000 0.326119
v 0.640400 0.010000 0.260169
v 0.324358 0.010000 0.170750
v 0.888842 1.010000 0.636523
vn 0.000000 1.000000 0.000000
vn 0.000000 0.000000 1.000000
vn 0.000000 -1.000000 0.000000
vn 0.000000 0.000000 -1.000000
vn -0.995540 0.000000 -0.094345
vn 0.993253 0.000000 0.115969
vn -0.992472 0.000000 -0.122470
vn 0.995554 0.000000 0.094193
vn 0.994444 0.000000 0.105268
vn 0.991990 0.000000 0.126315
vn -1.000000 0.000000 0.000000
vn -0.991114 0.000000 -0.133012
vn -0.994969 0.000000 -0.100182
vn -0.993126 0.000000 -0.117054
vn -0.996086 0.000000 -0.088396
vn 0.997043 0.000000 0.076848
vn -0.997557 0.000000 -0.069859
vn 0.995010 0.000000 0.099778
vn -0.996605 0.000000 -0.082335
vn 0.996075 0.000000 0.088510
vn 1.000000 0.000000 0.000000
vn 0.990666 0.000000 0.136314
vn -0.997096 0.000000 -0.076156
vn 0.992630 0.000000 0.121185
vn 0.991335 0.000000 0.131355
vn 0.996572 0.000000 0.082729
vn -0.991802 0.000000 -0.127789
vn -0.993761 0.000000 -0.111535
vn 0.993858 0.000000 0.110665
vn -0.994375 0.000000 -0.105912
vn -0.000043 -1.000000 -0.000004
vn 0.000009 -0.999996 0.002951
vn 0.000007 -1.000000 -0.000116
vn -0.000001 0.141306 0.989966
vn -0.032039 0.220361 0.974892
vn -0.034482 0.226022 0.973512
vn -0.038777 0.235086 0.971201
vn -0.044904 0.246368 0.968135
vn -0.054052 0.260320 0.964008
vn -0.067589 0.276220 0.958715
vn -0.088046 0.292656 0.952156
vn -0.120087 0.306312 0.944326
vn -0.172164 0.309222 0.935276
vn -0.261158 0.282505 0.923032
vn -0.000007 -1.000000 0.000115
vn -0.000018 -1.000000 -0.000115
vn 0.000008 -1.000000 0.000094
vn 0.000001 -1.000000 0.000112
vn -0.000000 -1.000000 -0.000092
vn 0.000008 -1.000000 -0.000111
vn 0.000015 -1.000000 0.000092
vn 0.000043 -1.000000 0.000006
vn 0.000036 -1.000000 -0.000085
vn -0.000007 -1.000000 0.000031
vn 0.000000 -1.000000 -0.000047
vn -0.000043 1.000000 -0.000003
vn 0.000009 0.999996 0.002938
vn 0.000007 1.000000 -0.000116
vn -0.000001 -0.141306 0.989966
vn -0.032039 -0.220361 0.974892
vn -0.034482 -0.226022 0.973512
vn -0.038777 -0.235087 0.971201
vn -0.044904 -0.246368 0.968135
vn -0.054052 -0.260320 0.964008
vn -0.067589 -0.276220 0.958715
vn -0.088046 -0.292656 0.952156
vn -0.120087 -0.306312 0.944326
vn -0.172164 -0.309222 0.935276
vn -0.261158 -0.282505 0.923032
vn -0.000007 1.000000 0.000115
vn -0.000043 1.000000 -0.000004
vn -0.000018 1.000000 -0.000115
vn 0.000008 1.000000 0.000094
vn 0.000001 1.000000 0.000113
vn -0.000000 1.000000 -0.000093
vn 0.000008 1.000000 -0.000110
vn 0.000000 1.000000 -0.000001
vn 0.000015 1.000000 0.000092
vn 0.000043 1.000000 0.000005
vn 0.000036 1.000000 -0.000085
vn 0.000000 1.000000 0.000002
vn -0.000007 1.000000 0.000031
vn 0.000000 1.000000 -0.000047
vn 0.995540 0.000000 0.094345
vn -0.993253 0.000000 -0.115969
vn -0.032847 0.000000 0.999460
vn 0.992472 0.000000 0.122470
vn -0.995554 0.000000 -0.094193
vn -0.994444 0.000000 -0.105268
vn -0.991990 0.000000 -0.126315
vn -0.055981 0.000000 0.998432
vn -0.181037 0.000000 0.983476
vn 0.991114 0.000000 0.133012
vn -0.272247 0.000000 0.962227
vn 0.994969 0.000000 0.100182
vn 0.993126 0.000000 0.117054
vn 0.996085 0.000000 0.088396
vn 0.636444 0.000000 -0.771323
vn -0.997043 0.000000 -0.076848
vn 0.997557 0.000000 0.069859
vn -0.995010 0.000000 -0.099778
vn 0.996605 0.000000 0.082335
vn -0.035398 0.000000 0.999373
vn -0.996075 0.000000 -0.088510
vn -0.990666 0.000000 -0.136314
vn -0.126151 0.000000 0.992011
vn -0.070325 0.000000 0.997524
vn 0.997096 0.000000 0.076156
vn -0.992630 0.000000 -0.121185
vn -0.991335 0.000000 -0.131355
vn -0.046332 0.000000 0.998926
vn -0.996572 0.000000 -0.082729
vn 0.991801 0.000000 0.127789
vn -0.039896 0.000000 0.999204
vn 0.993761 0.000000 0.111535
vn -0.993858 0.000000 -0.110665
vn 0.994376 0.000000 0.105912
vn -0.136319 0.000000 0.990665
vn -0.092077 0.000000 0.995752
usemtl SVGMat.001
s off
f 3//1 2//1 1//1
f 3//1 1//1 54//1
f 4//1 3//1 54//1
f 5//1 4//1 42//1
f 42//1 4//1 54//1
f 5//1 42//1 41//1
f 43//2 42//2 54//2
f 44//2 43//2 54//2
f 45//2 44//2 54//2
f 46//2 45//2 54//2
f 47//2 46//2 54//2
f 48//2 47//2 54//2
f 49//2 48//2 54//2
f 50//2 49//2 54//2
f 51//2 50//2 54//2
f 52//2 51//2 54//2
f 53//2 52//2 54//2
f 5//1 41//1 40//1
f 6//1 5//1 40//1
f 6//1 40//1 39//1
f 7//1 6//1 39//1
f 7//1 39//1 38//1
f 8//1 7//1 38//1
f 8//1 38//1 37//1
f 9//1 8//1 37//1
f 9//1 37//1 36//1
f 10//1 9//1 36//1
f 10//1 36//1 35//1
f 10//1 35//1 34//1
f 11//1 10//1 34//1
f 11//1 34//1 33//1
f 12//1 11//1 33//1
f 12//1 33//1 32//1
f 13//1 12//1 32//1
f 13//1 32//1 31//1
f 14//1 13//1 31//1
f 14//1 31//1 30//1
f 27//1 26//1 25//1
f 27//1 25//1 24//1
f 27//1 24//1 23//1
f 27//1 23//1 22//1
f 27//1 22//1 21//1
f 27//1 21//1 20//1
f 27//1 20//1 19//1
f 27//1 19//1 18//1
f 27//1 18//1 17//1
f 27//1 17//1 16//1
f 27//1 16//1 15//1
f 27//1 15//1 14//1
f 27//1 14//1 30//1
f 27//1 30//1 29//1
f 27//1 29//1 28//1
f 57//3 55//3 56//3
f 57//3 108//3 55//3
f 58//3 108//3 57//3
f 59//3 96//3 58//3
f 96//3 108//3 58//3
f 59//3 95//3 96//3
f 97//2 108//2 96//2
f 98//4 108//4 97//4
f 99//2 108//2 98//2
f 100//2 108//2 99//2
f 101//2 108//2 100//2
f 102//2 108//2 101//2
f 103//2 108//2 102//2
f 104//2 108//2 103//2
f 105//2 108//2 104//2
f 106//2 108//2 105//2
f 107//2 108//2 106//2
f 59//3 94//3 95//3
f 60//3 94//3 59//3
f 60//3 93//3 94//3
f 61//3 93//3 60//3
f 61//3 92//3 93//3
f 62//3 92//3 61//3
f 62//3 91//3 92//3
f 63//3 91//3 62//3
f 63//3 90//3 91//3
f 64//3 90//3 63//3
f 64//3 89//3 90//3
f 64//3 88//3 89//3
f 65//3 88//3 64//3
f 65//3 87//3 88//3
f 66//3 87//3 65//3
f 66//3 86//3 87//3
f 67//3 86//3 66//3
f 67//3 85//3 86//3
f 68//3 85//3 67//3
f 68//3 84//3 85//3
f 81//3 79//3 80//3
f 81//3 78//3 79//3
f 81//3 77//3 78//3
f 81//3 76//3 77//3
f 81//3 75//3 76//3
f 81//3 74//3 75//3
f 81//3 73//3 74//3
f 81//3 72//3 73//3
f 81//3 71//3 72//3
f 81//3 70//3 71//3
f 81//3 69//3 70//3
f 81//3 68//3 69//3
f 81//3 84//3 68//3
f 81//3 83//3 84//3
f 81//3 82//3 83//3
f 27//4 28//4 82//4 81//4
f 6//5 7//5 61//5 60//5
f 22//2 23//2 77//2 76//2
f 24//2 25//2 79//2 78//2
f 34//6 35//6 89//6 88//6
f 23//2 24//2 78//2 77//2
f 43//4 44//4 98//4 97//4
f 11//7 12//7 66//7 65//7
f 19//2 20//2 74//2 73//2
f 38//8 39//8 93//8 92//8
f 36//9 37//9 91//9 90//9
f 21//2 22//2 76//2 75//2
f 32//10 33//10 87//10 86//10
f 26//11 27//11 81//11 80//11
f 47//4 48//4 102//4 101//4
f 51//4 52//4 106//4 105//4
f 13//12 14//12 68//12 67//12
f 52//4 53//4 107//4 106//4
f 7//13 8//13 62//13 61//13
f 10//14 11//14 65//14 64//14
f 25//2 26//2 80//2 79//2
f 5//15 6//15 60//15 59//15
f 53//4 54//4 108//4 107//4
f 1//2 2//2 56//2 55//2
f 41//16 42//16 96//16 95//16
f 2//17 3//17 57//17 56//17
f 37//18 38//18 92//18 91//18
f 4//19 5//19 59//19 58//19
f 44//4 45//4 99//4 98//4
f 39//20 40//20 94//20 93//20
f 54//21 1//21 55//21 108//21
f 30//22 31//22 85//22 84//22
f 50//4 51//4 105//4 104//4
f 48//4 49//4 103//4 102//4
f 15//2 16//2 70//2 69//2
f 28//21 29//21 83//21 82//21
f 3//23 4//23 58//23 57//23
f 29//2 30//2 84//2 83//2
f 14//2 15//2 69//2 68//2
f 33//24 34//24 88//24 87//24
f 31//25 32//25 86//25 85//25
f 17//2 18//2 72//2 71//2
f 46//4 47//4 101//4 100//4
f 40//26 41//26 95//26 94//26
f 12//27 13//27 67//27 66//27
f 18//2 19//2 73//2 72//2
f 45//4 46//4 100//4 99//4
f 9//28 10//28 64//28 63//28
f 35//29 36//29 90//29 89//29
f 16//2 17//2 71//2 70//2
f 8//30 9//30 63//30 62//30
f 42//4 43//4 97//4 96//4
f 49//4 50//4 104//4 103//4
f 20//2 21//2 75//2 74//2
f 109//3 110//3 111//3
f 162//3 109//3 111//3
f 162//3 111//3 112//3
f 150//31 112//31 113//31
f 162//32 112//32 150//32
f 149//33 150//33 113//33
f 162//34 150//34 151//34
f 162//35 151//35 152//35
f 162//36 152//36 153//36
f 162//37 153//37 154//37
f 162//38 154//38 155//38
f 162//39 155//39 156//39
f 162//40 156//40 157//40
f 162//41 157//41 158//41
f 162//42 158//42 159//42
f 162//43 159//43 160//43
f 162//44 160//44 161//44
f 148//45 149//45 113//45
f 148//31 113//31 114//31
f 147//31 148//31 114//31
f 147//31 114//31 115//31
f 146//46 147//46 115//46
f 146//3 115//3 116//3
f 145//3 146//3 116//3
f 145//47 116//47 117//47
f 144//48 145//48 117//48
f 144//49 117//49 118//49
f 143//50 144//50 118//50
f 142//3 143//3 118//3
f 142//3 118//3 119//3
f 141//3 142//3 119//3
f 141//3 119//3 120//3
f 140//3 141//3 120//3
f 140//51 120//51 121//51
f 139//52 140//52 121//52
f 139//53 121//53 122//53
f 138//3 139//3 122//3
f 133//3 134//3 135//3
f 132//3 133//3 135//3
f 131//3 132//3 135//3
f 130//3 131//3 135//3
f 129//3 130//3 135//3
f 128//3 129//3 135//3
f 127//3 128//3 135//3
f 126//3 127//3 135//3
f 125//3 126//3 135//3
f 124//3 125//3 135//3
f 123//3 124//3 135//3
f 122//3 123//3 135//3
f 138//3 122//3 135//3
f 137//54 138//54 135//54
f 136//55 137//55 135//55
f 164//1 163//1 165//1
f 163//1 216//1 165//1
f 165//1 216//1 166//1
f 166//56 204//56 167//56
f 166//57 216//57 204//57
f 204//58 203//58 167//58
f 204//59 216//59 205//59
f 205//60 216//60 206//60
f 206//61 216//61 207//61
f 207//62 216//62 208//62
f 208//63 216//63 209//63
f 209//64 216//64 210//64
f 210//65 216//65 211//65
f 211//66 216//66 212//66
f 212//67 216//67 213//67
f 213//68 216//68 214//68
f 214//69 216//69 215//69
f 203//70 202//70 167//70
f 167//71 202//71 168//71
f 202//71 201//71 168//71
f 168//71 201//71 169//71
f 201//72 200//72 169//72
f 169//1 200//1 170//1
f 200//1 199//1 170//1
f 170//73 199//73 171//73
f 199//74 198//74 171//74
f 171//75 198//75 172//75
f 198//76 197//76 172//76
f 197//77 196//77 172//77
f 172//1 196//1 173//1
f 196//1 195//1 173//1
f 173//1 195//1 174//1
f 195//77 194//77 174//77
f 174//78 194//78 175//78
f 194//79 193//79 175//79
f 175//80 193//80 176//80
f 193//1 192//1 176//1
f 188//1 187//1 189//1
f 187//1 186//1 189//1
f 186//1 185//1 189//1
f 185//1 184//1 189//1
f 184//1 183//1 189//1
f 183//81 182//81 189//81
f 182//1 181//1 189//1
f 181//1 180//1 189//1
f 180//1 179//1 189//1
f 179//1 178//1 189//1
f 178//1 177//1 189//1
f 177//1 176//1 189//1
f 176//1 192//1 189//1
f 192//82 191//82 189//82
f 191//83 190//83 189//83
f 189//2 190//2 136//2 135//2
f 168//84 169//84 115//84 114//84
f 184//4 185//4 131//4 130//4
f 186//4 187//4 133//4 132//4
f 196//85 197//85 143//85 142//85
f 185//4 186//4 132//4 131//4
f 205//86 206//86 152//86 151//86
f 173//87 174//87 120//87 119//87
f 181//4 182//4 128//4 127//4
f 200//88 201//88 147//88 146//88
f 198//89 199//89 145//89 144//89
f 183//4 184//4 130//4 129//4
f 194//90 195//90 141//90 140//90
f 188//21 189//21 135//21 134//21
f 209//91 210//91 156//91 155//91
f 213//92 214//92 160//92 159//92
f 175//93 176//93 122//93 121//93
f 214//94 215//94 161//94 160//94
f 169//95 170//95 116//95 115//95
f 172//96 173//96 119//96 118//96
f 187//4 188//4 134//4 133//4
f 167//97 168//97 114//97 113//97
f 215//98 216//98 162//98 161//98
f 163//4 164//4 110//4 109//4
f 203//99 204//99 150//99 149//99
f 164//100 165//100 111//100 110//100
f 199//101 200//101 146//101 145//101
f 166//102 167//102 113//102 112//102
f 206//103 207//103 153//103 152//103
f 201//104 202//104 148//104 147//104
f 216//11 163//11 109//11 162//11
f 192//105 193//105 139//105 138//105
f 212//106 213//106 159//106 158//106
f 210//107 211//107 157//107 156//107
f 177//4 178//4 124//4 123//4
f 190//11 191//11 137//11 136//11
f 165//108 166//108 112//108 111//108
f 191//4 192//4 138//4 137//4
f 176//4 177//4 123//4 122//4
f 195//109 196//109 142//109 141//109
f 193//110 194//110 140//110 139//110
f 179//4 180//4 126//4 125//4
f 208//111 209//111 155//111 154//111
f 202//112 203//112 149//112 148//112
f 174//113 175//113 121//113 120//113
f 180//4 181//4 127//4 126//4
f 207//114 208//114 154//114 153//114
f 171//115 172//115 118//115 117//115
f 197//116 198//116 144//116 143//116
f 178//4 179//4 125//4 124//4
f 170//117 171//117 117//117 116//117
f 204//118 205//118 151//118 150//118
f 211//119 212//119 158//119 157//119
f 182//4 183//4 129//4 128//4
